<svg width="84" height="84" viewBox="0 0 84 84" fill="none" xmlns="http://www.w3.org/2000/svg">
<circle cx="42" cy="42" r="41.5" fill="white" stroke="#183453"/>
<path d="M38.5678 34.3365C41.2777 31.8065 39.527 24.2297 38.6631 22.6536C37.3082 20.1983 34.2207 19.6452 31.8673 22.9217C30.0735 25.4204 29.3694 28.667 29.9131 31.7008C30.8611 37.0885 36.783 35.9901 38.5678 34.3365Z" fill="#183453"/>
<path d="M28.3587 46.3841C31.5736 44.4684 29.8184 38.2344 27.3437 35.3793C25.5593 33.3209 23.6646 33.8308 22.2691 36.1312C20.6931 38.7296 20.2945 42.5897 21.7476 44.8628C23.758 47.9655 27.4306 46.929 28.3587 46.3841Z" fill="#183453"/>
<path d="M54.3488 32.4489C54.838 29.4007 54.0758 26.1511 52.2373 23.6616C49.8254 20.3921 46.7476 20.9162 45.4365 23.3662C44.6008 24.9388 42.9691 32.5088 45.7411 35.0499C47.5389 36.7272 53.4972 37.833 54.3488 32.4489Z" fill="#183453"/>
<path d="M62.6688 45.5967C64.0813 43.3294 63.6135 39.4676 61.9908 36.8627C60.554 34.5565 58.6501 34.039 56.9025 36.0902C54.4956 38.9354 52.8521 45.1626 56.0848 47.0913C57.0396 47.6732 60.7308 48.7081 62.6688 45.5967Z" fill="#183453"/>
<path d="M37.6523 33.4693C37.6191 33.4858 37.5861 33.5187 37.553 33.5351C37.553 33.5351 37.553 33.5351 37.5365 33.5515C37.3547 33.6995 37.5861 33.5187 37.6523 33.4693Z" fill="#183453"/>
<path d="M36.86 33.9696C36.8102 33.9859 36.7605 34.0022 36.7274 34.0186C36.6776 34.0349 36.6281 34.0677 36.5617 34.084C36.6612 34.0513 36.7606 34.0187 36.86 33.9696Z" fill="#183453"/>
<path d="M34.0918 34.4637C34.0254 34.4473 33.959 34.4471 33.9091 34.4307C33.8594 34.4306 33.8097 34.4305 33.7598 34.4141C33.8594 34.4306 33.9756 34.4472 34.0918 34.4637Z" fill="#183453"/>
<path d="M35.4019 34.4147C35.3522 34.4146 35.286 34.4308 35.2363 34.4307C35.1867 34.447 35.1369 34.4469 35.0707 34.4631C35.1867 34.447 35.3026 34.4308 35.4019 34.4147Z" fill="#183453"/>
<path d="M33.1443 34.2723C33.0942 34.2557 33.044 34.2226 32.994 34.206C32.9439 34.1894 32.8938 34.1728 32.8438 34.1562C32.9439 34.1894 33.0442 34.2391 33.1443 34.2723Z" fill="#183453"/>
<path d="M31.8296 33.2873C31.7114 33.1545 31.9989 33.5194 31.9311 33.4199C31.9143 33.4033 31.8973 33.3702 31.8804 33.3536C31.8635 33.337 31.8465 33.3038 31.8296 33.2873Z" fill="#183453"/>
<path d="M31.5253 32.7742C31.5081 32.7244 31.4741 32.6746 31.4569 32.6249C31.4397 32.5752 31.4057 32.5254 31.3887 32.4922C31.4397 32.5752 31.4741 32.6746 31.5253 32.7742Z" fill="#183453"/>
<path d="M32.2767 33.7676C32.1761 33.7012 32.5623 33.9997 32.4279 33.8836C32.411 33.8671 32.3942 33.8505 32.3775 33.8505L32.3607 33.8339C32.327 33.8008 32.2935 33.7841 32.2767 33.7676Z" fill="#183453"/>
<path d="M38.697 30.797C38.6807 30.8633 38.6815 30.9463 38.6652 31.0126C38.6655 31.0458 38.6658 31.079 38.6494 31.1287C38.6821 31.0126 38.6979 30.8965 38.697 30.797Z" fill="#183453"/>
<path d="M38.5547 26.9609C38.5551 27.0107 38.5724 27.0605 38.5728 27.1103C38.5734 27.1767 38.5907 27.2265 38.6081 27.2929C38.5904 27.1933 38.5726 27.0771 38.5547 26.9609Z" fill="#183453"/>
<path d="M38.3614 32.391C38.3451 32.4406 38.3287 32.4737 38.3124 32.5234C38.2962 32.573 38.2633 32.6392 38.2471 32.6889C38.2796 32.5896 38.3121 32.4902 38.3614 32.391Z" fill="#183453"/>
<path d="M38.0117 21.5563C37.4318 21.9345 37.2389 22.6446 37.5787 23.2573C37.5955 23.2738 37.6125 23.307 37.6127 23.3235C37.6125 23.307 37.5957 23.2904 37.5955 23.2738C37.6124 23.2904 37.6125 23.307 37.6295 23.3401C37.985 23.8536 38.7708 24.0545 39.301 23.7091C39.8808 23.3309 40.0737 22.6208 39.7339 22.0081C39.4114 21.4451 38.5585 21.2109 38.0117 21.5563Z" fill="#183453"/>
<path d="M32.9779 36.7473C34.25 37.0492 35.6017 36.9708 36.8503 36.6108C37.9158 36.2999 39.0459 35.7741 39.7719 34.916C40.7781 33.6949 41.1467 32.1739 41.2646 30.619C41.3827 29.0973 41.2169 27.558 40.9512 26.0515C40.7563 24.9424 40.5113 23.833 40.0833 22.7893C39.9806 22.5408 39.8779 22.2923 39.7587 22.0603C40.0988 22.6735 39.9057 23.3844 39.3251 23.763C38.7943 24.1088 38.0075 23.9077 37.6516 23.3937C37.6858 23.4765 37.7201 23.5593 37.7541 23.6256C37.7369 23.5759 37.7029 23.5096 37.669 23.4599C38.1484 24.6362 38.4285 25.9111 38.608 27.1525C38.6075 27.1029 38.5903 27.0532 38.5898 27.0036C38.6077 27.1194 38.6254 27.2188 38.6432 27.3346C38.6426 27.2685 38.6254 27.2188 38.608 27.1525C38.788 28.4436 38.8681 29.751 38.714 31.0245C38.73 30.9584 38.7292 30.8756 38.7452 30.8095C38.7297 30.9253 38.714 31.0245 38.6985 31.1403C38.6981 31.1072 38.6978 31.0741 38.714 31.0245C38.6357 31.5371 38.5238 32.0331 38.345 32.5124C38.3612 32.4628 38.3776 32.4298 38.3937 32.3802C38.3447 32.4793 38.3123 32.5785 38.2632 32.6776C38.2794 32.628 38.3121 32.5619 38.3283 32.5123C38.2138 32.7436 38.0992 32.9749 37.9511 33.1895C37.9511 33.1895 37.9511 33.1895 37.951 33.1729C38.0004 33.1069 38.05 33.0574 37.9675 33.1564L37.951 33.1729C37.951 33.1729 37.9509 33.1729 37.9344 33.1894C37.9344 33.1894 37.8685 33.2719 37.8686 33.2885C37.8686 33.2885 37.9015 33.239 37.9344 33.1894C37.9015 33.239 37.8518 33.2719 37.8189 33.3214C37.7362 33.4039 37.6536 33.4863 37.5709 33.5688C37.6041 33.5524 37.6372 33.5194 37.6704 33.5029C37.6041 33.5524 37.3722 33.7336 37.5544 33.5853C37.5544 33.5853 37.5544 33.5853 37.5709 33.5688L37.5544 33.5853C37.4549 33.6512 37.3554 33.717 37.2557 33.7663C37.0897 33.8651 36.9236 33.9473 36.7572 34.0129C36.8072 33.9965 36.8571 33.9801 36.8903 33.9637C36.7906 34.013 36.6908 34.0458 36.5911 34.0951C36.641 34.0787 36.6908 34.0458 36.7574 34.0295C36.275 34.2099 35.7756 34.3572 35.2588 34.4383C35.3089 34.4384 35.3755 34.4221 35.4256 34.4223C35.3089 34.4384 35.2089 34.4547 35.0921 34.4708C35.1422 34.471 35.1922 34.4546 35.2588 34.4383C34.8084 34.4865 34.3576 34.485 33.9063 34.4339C33.9732 34.4507 34.04 34.4509 34.0903 34.4676C33.9732 34.4507 33.8729 34.4338 33.7558 34.4169C33.8059 34.4171 33.856 34.4172 33.9063 34.4339C33.6052 34.3833 33.3038 34.2996 33.0022 34.1994C33.0525 34.2161 33.1029 34.2494 33.1532 34.2661C33.0525 34.2161 32.952 34.1827 32.8513 34.1327C32.9015 34.1494 32.9518 34.1661 33.0021 34.1828C32.8343 34.0996 32.6664 34.0163 32.5151 33.9166C32.4647 33.8833 32.431 33.8501 32.3806 33.8169C32.3974 33.8335 32.4143 33.8501 32.431 33.8501C32.5657 33.9664 32.1954 33.6674 32.2795 33.7338C32.3131 33.7505 32.33 33.7671 32.3635 33.7837L32.3804 33.8003C32.2962 33.7339 32.2121 33.6674 32.1444 33.5845C32.0601 33.5015 31.9756 33.4019 31.8913 33.3189C31.9082 33.3355 31.9252 33.3687 31.9421 33.3853C32.0099 33.4848 31.7054 33.1032 31.8405 33.2526C31.8574 33.2692 31.8744 33.3023 31.8913 33.3189C31.8576 33.2857 31.8405 33.2526 31.8068 33.2194C31.6712 33.0204 31.5522 32.8049 31.4498 32.5895C31.467 32.6392 31.4842 32.6889 31.5181 32.7386C31.467 32.6392 31.4326 32.5398 31.3815 32.4404C31.3987 32.4901 31.4326 32.5398 31.4496 32.573C31.2781 32.1257 31.1566 31.662 31.0849 31.182C31.0854 31.2316 31.1026 31.2813 31.1031 31.331C31.0852 31.2151 31.0675 31.1157 31.0497 30.9999C31.067 31.0661 31.0675 31.1157 31.0849 31.182C30.9583 30.2219 30.9486 29.2623 31.0558 28.303C31.0563 28.3526 31.0401 28.4022 31.0406 28.4519C31.0561 28.3361 31.0718 28.2369 31.0873 28.1211C31.088 28.1873 31.0718 28.2369 31.0725 28.3031C31.2134 27.377 31.4545 26.4512 31.7962 25.5754C31.78 25.625 31.7471 25.6745 31.731 25.7241C31.78 25.625 31.8124 25.5258 31.8615 25.4267C31.8453 25.4763 31.8291 25.5259 31.7962 25.5754C31.9759 25.1789 32.1723 24.7824 32.3855 24.4026C32.5003 24.2044 32.6318 23.9897 32.7633 23.7916C32.8291 23.6925 32.9114 23.577 32.9772 23.4779C32.9938 23.4614 33.0103 23.4449 33.0101 23.4284C32.9771 23.4614 32.9607 23.4944 32.9276 23.5274C32.9771 23.4614 33.0428 23.3623 33.0101 23.4284C33.0266 23.4119 33.043 23.3789 33.0595 23.3624C33.307 23.0653 33.5882 22.8015 33.8861 22.5378C33.8695 22.5543 33.8861 22.5378 34.0183 22.4058C33.9687 22.4553 33.919 22.4882 33.8861 22.5378C33.9191 22.5048 34.0185 22.4224 34.0849 22.3895C34.1679 22.3401 34.2507 22.2742 34.3504 22.2249C34.4666 22.1591 34.5995 22.0933 34.7159 22.0441C34.666 22.0604 34.6161 22.0768 34.5661 22.0932C34.6658 22.0439 34.7657 22.0111 34.8654 21.9618C34.8154 21.9782 34.7657 22.0111 34.7158 22.0275C34.9155 21.962 35.1152 21.8964 35.3152 21.864C35.2484 21.8638 35.1985 21.8802 35.1317 21.8799C35.2484 21.8638 35.3484 21.8476 35.4652 21.8314C35.4151 21.8312 35.3651 21.8476 35.3152 21.864C35.482 21.848 35.649 21.8485 35.8328 21.8657C35.7826 21.8489 35.7158 21.8487 35.6655 21.832C35.7826 21.8489 35.8829 21.8658 36 21.8827C35.9499 21.8826 35.8829 21.8658 35.8328 21.8657C36.0002 21.8993 36.1508 21.9329 36.3017 21.9995C36.2682 21.9829 36.2179 21.9662 36.1843 21.9495C36.285 21.9995 36.3855 22.0329 36.4862 22.0828C36.4193 22.0661 36.3688 22.0328 36.3019 22.0161C36.4361 22.0827 36.5704 22.1493 36.7048 22.2325C36.7384 22.2491 36.7721 22.2823 36.8057 22.299C36.7888 22.2824 36.7719 22.2658 36.7551 22.2492C36.6035 22.1163 37.0241 22.432 36.8561 22.3322C36.8392 22.3156 36.8224 22.299 36.8057 22.299C36.873 22.3488 36.9236 22.3986 36.9909 22.4485C37.0583 22.5149 37.1426 22.5979 37.2101 22.6643C37.2438 22.6975 37.2607 22.7141 37.2777 22.7472C37.2609 22.7306 37.244 22.714 37.2438 22.6975C37.1762 22.6145 37.4805 22.9795 37.3115 22.7804L37.2946 22.7638C37.4132 22.9296 37.5317 23.0955 37.6337 23.2778C37.2936 22.6645 37.4868 21.9537 38.0673 21.575C38.6149 21.2293 39.4686 21.4472 39.7917 22.0273C38.9246 20.4858 37.3269 19.3556 35.5073 19.3993C33.3538 19.4421 31.6993 20.9424 30.5807 22.6099C29.3635 24.4259 28.7172 26.5582 28.5554 28.7251C28.4663 29.8169 28.5609 30.9092 28.7554 31.9852C28.897 32.7799 29.1722 33.5749 29.6134 34.2712C30.3107 35.5309 31.5553 36.4118 32.9779 36.7473Z" fill="#183453"/>
<path d="M37.9329 33.1797C37.9158 33.1967 37.9158 33.1967 37.9329 33.1797V33.1797Z" fill="#183453"/>
<path d="M31.7412 25.7357C31.7575 25.686 31.7905 25.6364 31.8067 25.5868C31.8229 25.5371 31.8392 25.4875 31.8722 25.4379C31.8229 25.5371 31.7737 25.6364 31.7412 25.7357Z" fill="#183453"/>
<path d="M37.2132 22.7044C37.23 22.721 37.2469 22.7376 37.2471 22.7541L37.2639 22.7707C37.4497 22.9864 37.1454 22.6049 37.2132 22.7044Z" fill="#183453"/>
<path d="M36.7288 22.2449C36.7456 22.2615 36.7624 22.278 36.7793 22.2946C36.7961 22.3112 36.8129 22.3277 36.8296 22.3278C36.9974 22.4439 36.5776 22.1288 36.7288 22.2449Z" fill="#183453"/>
<path d="M35.6641 21.8672C35.7138 21.8673 35.7803 21.8838 35.8302 21.9002C35.8799 21.9003 35.9464 21.9168 35.9961 21.9169C35.8799 21.9003 35.7637 21.8837 35.6641 21.8672Z" fill="#183453"/>
<path d="M36.1777 21.9609C36.2112 21.9775 36.2612 21.9941 36.2947 22.0106C36.3614 22.0273 36.4116 22.0603 36.4783 22.077C36.3782 22.0438 36.2779 21.9941 36.1777 21.9609Z" fill="#183453"/>
<path d="M37.6145 23.3453C37.6143 23.3292 37.5978 23.313 37.5977 23.2969C37.6142 23.313 37.6143 23.3292 37.6145 23.3453Z" fill="#183453"/>
<path d="M37.5801 23.2656C37.5973 23.3154 37.6313 23.3652 37.6485 23.4149C37.6314 23.3817 37.6313 23.3652 37.6142 23.332C37.5973 23.3154 37.597 23.2822 37.5801 23.2656Z" fill="#183453"/>
<path d="M33.8914 22.5463C33.941 22.4969 33.9907 22.464 34.0235 22.4145C33.8915 22.5463 33.8751 22.5793 33.8914 22.5463Z" fill="#183453"/>
<path d="M35.1372 21.9162C35.2035 21.9164 35.2531 21.9001 35.3194 21.9002C35.369 21.884 35.4187 21.8841 35.4683 21.8678C35.3524 21.8839 35.2365 21.9001 35.1372 21.9162Z" fill="#183453"/>
<path d="M32.9388 23.553C32.9551 23.5199 32.9882 23.487 33.0212 23.454C33.0706 23.388 32.988 23.4704 32.9388 23.553Z" fill="#183453"/>
<path d="M31.0477 28.4804C31.0473 28.4306 31.0638 28.3808 31.0633 28.331C31.0628 28.2646 31.0792 28.2149 31.0787 28.1485C31.0797 28.2647 31.0638 28.3808 31.0477 28.4804Z" fill="#183453"/>
<path d="M37.6484 23.3876C37.6824 23.4374 37.6998 23.5037 37.7338 23.5535C37.6995 23.4706 37.6652 23.3876 37.631 23.3213C37.631 23.3213 37.631 23.3213 37.6309 23.3047C37.6312 23.3378 37.6315 23.371 37.6484 23.3876Z" fill="#183453"/>
<path d="M34.5695 22.0996C34.6192 22.0833 34.669 22.0669 34.7187 22.0506C34.7685 22.0343 34.818 22.0015 34.8678 21.9852C34.7683 22.0179 34.6688 22.0505 34.5695 22.0996Z" fill="#183453"/>
<path d="M31.1179 31.3632C31.1175 31.3134 31.1002 31.2636 31.0998 31.2138C31.0823 31.1474 31.0819 31.0977 31.0645 31.0312C31.0823 31.1474 31.1002 31.2636 31.1179 31.3632Z" fill="#183453"/>
<path d="M22.749 37.9935C22.7653 37.9439 22.7817 37.9108 22.8147 37.8612C22.8309 37.8115 22.8637 37.7454 22.88 37.6957C22.8308 37.795 22.7983 37.8943 22.749 37.9935Z" fill="#183453"/>
<path d="M24.4627 45.577C24.4126 45.5604 24.3624 45.5273 24.3123 45.5107C24.2622 45.4941 24.2122 45.4775 24.1621 45.4609C24.2622 45.4941 24.3624 45.5273 24.4627 45.577Z" fill="#183453"/>
<path d="M25.3242 45.7528C25.2578 45.7363 25.208 45.7362 25.1416 45.7198C25.0918 45.7197 25.0421 45.7196 24.9922 45.7031C25.1084 45.7197 25.208 45.7362 25.3242 45.7528Z" fill="#183453"/>
<path d="M22.5928 43.8142C22.5756 43.7645 22.5583 43.7147 22.5411 43.665C22.5239 43.6152 22.4899 43.5654 22.4727 43.5156C22.5071 43.6151 22.5583 43.7147 22.5928 43.8142Z" fill="#183453"/>
<path d="M22.1688 40.3788C22.1684 40.329 22.185 40.2959 22.1846 40.2461C22.184 40.1797 22.2003 40.1133 22.1998 40.0469C22.2008 40.1631 22.1849 40.2793 22.1688 40.3788Z" fill="#183453"/>
<path d="M23.0258 44.5051C23.0256 44.4885 23.0089 44.4885 23.0087 44.4719C22.8737 44.3226 23.1949 44.7207 23.0258 44.5051Z" fill="#183453"/>
<path d="M22.2019 42.496C22.2013 42.4296 22.184 42.3798 22.1834 42.3135C22.183 42.2637 22.1657 42.2139 22.1484 42.1641C22.1662 42.2636 22.184 42.3798 22.2019 42.496Z" fill="#183453"/>
<path d="M23.6276 45.1044C23.6108 45.0878 23.5941 45.0878 23.5773 45.0712C23.4095 44.9551 23.8629 45.3033 23.6276 45.1044Z" fill="#183453"/>
<path d="M27.8789 38.5391C27.8961 38.5888 27.9301 38.6386 27.9475 38.7049C27.9647 38.7547 27.9819 38.8044 28.0157 38.8376C27.9646 38.7381 27.9301 38.6386 27.8789 38.5391Z" fill="#183453"/>
<path d="M28.748 41.3906C28.7486 41.457 28.7659 41.5068 28.7665 41.5732C28.7669 41.623 28.7842 41.6728 28.7846 41.7226C28.7838 41.623 28.7659 41.5068 28.748 41.3906Z" fill="#183453"/>
<path d="M28.8248 43.1485C28.8252 43.1983 28.8087 43.2481 28.8092 43.2978C28.8097 43.3642 28.7933 43.414 28.7938 43.4804C28.793 43.3808 28.8089 43.2646 28.8248 43.1485Z" fill="#183453"/>
<path d="M26.6354 36.4169C26.5171 36.2677 26.5678 36.334 26.6354 36.4169C26.686 36.4667 26.7706 36.5827 26.6354 36.4169Z" fill="#183453"/>
<path d="M28.322 44.7372C28.3055 44.7537 28.2891 44.7867 28.2726 44.8032L28.2561 44.8197C28.2396 44.8362 28.2232 44.8692 28.2067 44.8857C28.1242 44.9847 28.4045 44.6382 28.322 44.7372Z" fill="#183453"/>
<path d="M27.6452 45.3524C27.5955 45.3688 27.5623 45.3851 27.5126 45.4015C27.463 45.4343 27.3966 45.4505 27.347 45.4833C27.463 45.4343 27.5623 45.3851 27.6452 45.3524Z" fill="#183453"/>
<path d="M27.8439 45.2173C27.7282 45.316 28.0094 45.1022 27.9927 45.1021C27.9762 45.1186 27.943 45.135 27.9265 45.1515L27.91 45.1679C27.8769 45.1843 27.8604 45.2008 27.8439 45.2173Z" fill="#183453"/>
<path d="M28.6163 44.1488C28.6001 44.1985 28.5669 44.2315 28.5507 44.2812C28.5344 44.3308 28.5184 44.397 28.4854 44.4466C28.5346 44.3474 28.5838 44.2481 28.6163 44.1488Z" fill="#183453"/>
<path d="M26.5035 45.7038C26.4538 45.7037 26.4042 45.7199 26.3378 45.7198C26.2882 45.736 26.2219 45.7359 26.1723 45.7522C26.2717 45.736 26.3876 45.7199 26.5035 45.7038Z" fill="#183453"/>
<path d="M25.0873 35.2862C25.0699 35.2692 25.0699 35.2692 25.0873 35.2862C25.07 35.2862 25.07 35.2862 25.0873 35.2862Z" fill="#183453"/>
<path d="M23.6824 36.2728C23.6989 36.2563 23.7154 36.2398 23.7318 36.2067C23.7316 36.1902 23.7483 36.1903 23.7481 36.1737C23.8471 36.0582 23.5834 36.3882 23.6824 36.2728Z" fill="#183453"/>
<path d="M25.2023 35.2985C25.2355 35.2986 25.2852 35.2987 25.3184 35.2987C25.2353 35.2822 25.169 35.2821 25.0859 35.2656C25.1192 35.282 25.1526 35.2984 25.2023 35.2985Z" fill="#183453"/>
<path d="M25.2031 35.3125C25.2862 35.329 25.386 35.362 25.469 35.3785C25.4191 35.3621 25.3691 35.3293 25.3192 35.3128C25.286 35.3127 25.2363 35.3126 25.2031 35.3125Z" fill="#183453"/>
<path d="M25.4697 35.3944C25.5198 35.411 25.5698 35.4276 25.6199 35.4442C25.5198 35.411 25.4361 35.3613 25.3359 35.3281C25.3694 35.3447 25.4194 35.3613 25.4697 35.3944Z" fill="#183453"/>
<path d="M25.2031 35.2988C25.1532 35.2823 25.12 35.2823 25.0702 35.2659C25.0204 35.2658 24.9874 35.2821 24.9378 35.2983C25.0373 35.2985 25.1202 35.2986 25.2031 35.2988Z" fill="#183453"/>
<path d="M24.547 48.094C25.684 48.2796 26.8355 48.2337 27.9338 47.8898C28.3165 47.7753 28.7157 47.6277 29.0641 47.4138C29.6447 47.0517 30.1241 46.5901 30.5022 46.0123C31.1765 45.0054 31.3971 43.7158 31.3849 42.5081C31.3553 41.2342 31.0916 39.9265 30.6455 38.734C30.216 37.5416 29.653 36.3487 28.8914 35.3206C28.6882 35.0387 28.4683 34.7568 28.2319 34.4913C28.6881 35.0221 28.7285 35.7171 28.2497 36.2449C27.8204 36.7067 26.9192 36.7369 26.4801 36.2392C26.514 36.2889 26.5644 36.3221 26.5983 36.3719C26.5985 36.3884 26.6152 36.3885 26.632 36.4051C26.5813 36.3387 26.5305 36.2724 26.6489 36.4217C26.7841 36.5875 26.6995 36.4715 26.632 36.4051C26.6489 36.4217 26.6659 36.4548 26.6659 36.4548C26.6998 36.5046 26.7337 36.5543 26.7843 36.6041C26.9536 36.8362 27.0893 37.0517 27.2421 37.3003C27.5137 37.7479 27.7522 38.2118 27.974 38.6923C27.9568 38.6426 27.923 38.5929 27.9056 38.5266C27.9567 38.6261 27.9911 38.7254 28.0422 38.8249C28.025 38.7752 28.0078 38.7255 27.974 38.6923C28.3674 39.6199 28.6441 40.5638 28.8044 41.5568C28.8037 41.4907 28.7865 41.441 28.7859 41.3748C28.8037 41.4907 28.8214 41.59 28.8393 41.7058C28.8388 41.6562 28.8216 41.6065 28.8211 41.5569C28.8937 42.1361 28.9163 42.7152 28.8552 43.2774C28.8547 43.2278 28.8709 43.1782 28.8704 43.1286C28.8549 43.2443 28.8392 43.3436 28.8237 43.4593C28.823 43.3931 28.8392 43.3436 28.8385 43.2774C28.7918 43.6081 28.7117 43.9387 28.5978 44.2361C28.614 44.1865 28.6471 44.1535 28.6633 44.1039C28.6142 44.203 28.5818 44.3022 28.5327 44.4013C28.5489 44.3517 28.565 44.2856 28.5978 44.2361C28.516 44.4012 28.4343 44.5664 28.3356 44.715C28.3191 44.7315 28.3027 44.7645 28.2862 44.781L28.3027 44.7645C28.3192 44.748 28.3356 44.715 28.3521 44.6985C28.4346 44.5995 28.1545 44.9625 28.2368 44.847C28.2533 44.8305 28.2697 44.7975 28.2862 44.781C28.2202 44.8635 28.1376 44.9459 28.055 45.0284C28.0219 45.0613 27.9889 45.0943 27.9558 45.1273C27.9724 45.1108 28.0056 45.0944 28.0221 45.0779C28.0221 45.0779 27.7572 45.2921 27.873 45.1932C27.8896 45.1767 27.9228 45.1603 27.9393 45.1438L27.9558 45.1273C27.8896 45.1767 27.8066 45.2261 27.7403 45.2755C27.6739 45.3084 27.6241 45.3413 27.5577 45.3742C27.6076 45.3578 27.6408 45.3413 27.6907 45.325C27.5911 45.3743 27.4912 45.407 27.3916 45.4563C27.4415 45.4399 27.5079 45.4071 27.5577 45.3742C27.1752 45.5218 26.7756 45.6198 26.3589 45.6846C26.409 45.6847 26.4589 45.6684 26.5256 45.6686C26.409 45.6847 26.309 45.701 26.1923 45.7171C26.2423 45.7173 26.309 45.701 26.3589 45.6846C25.9587 45.7329 25.5581 45.7316 25.1569 45.6807C25.2238 45.6975 25.2739 45.6976 25.3409 45.7144C25.2238 45.6975 25.1235 45.6806 25.0065 45.6637C25.0566 45.6638 25.1068 45.6805 25.1569 45.6807C24.8726 45.6302 24.5881 45.5631 24.32 45.4629C24.3702 45.4797 24.4207 45.5129 24.4709 45.5296C24.3702 45.4796 24.2697 45.4462 24.1691 45.3963C24.2193 45.413 24.2696 45.4297 24.3198 45.4464C24.1187 45.363 23.934 45.2632 23.7659 45.1468C23.7155 45.1136 23.6817 45.0804 23.6315 45.0637C23.8672 45.263 23.413 44.9141 23.5811 45.0304C23.5979 45.047 23.6146 45.0471 23.6148 45.0636C23.4971 44.9805 23.3959 44.881 23.2948 44.7814C23.1936 44.6818 23.1091 44.5823 23.0078 44.4661C23.1771 44.6983 22.8557 44.2837 22.9907 44.433C22.9909 44.4496 23.0076 44.4496 23.0078 44.4661C23.0078 44.4661 23.0078 44.4661 22.9909 44.4496C22.9402 44.3832 22.8894 44.3169 22.8553 44.2506C22.7198 44.0517 22.6176 43.8528 22.5153 43.6374C22.5325 43.6871 22.5496 43.7368 22.5668 43.7865C22.5158 43.6871 22.4814 43.5877 22.4303 43.4883C22.4475 43.5379 22.4814 43.5877 22.4986 43.6374C22.3272 43.2067 22.2059 42.7597 22.1344 42.2962C22.1351 42.3624 22.1523 42.4121 22.1529 42.4783C22.1351 42.3624 22.1174 42.2631 22.0995 42.1473C22.1 42.1969 22.1172 42.2466 22.1344 42.2962C22.0606 41.6012 22.0537 40.923 22.1301 40.2284C22.1306 40.278 22.1143 40.3111 22.1148 40.3607C22.1303 40.245 22.146 40.1457 22.1615 40.03C22.1455 40.0961 22.1461 40.1623 22.1468 40.2285C22.2555 39.4182 22.4644 38.6249 22.7739 37.8649C22.7577 37.9145 22.7414 37.9475 22.7085 37.997C22.7575 37.8979 22.7899 37.7988 22.839 37.6997C22.8228 37.7493 22.7901 37.8153 22.7739 37.8649C23.0351 37.2868 23.3299 36.7253 23.7087 36.2137C23.6922 36.2302 23.6757 36.2466 23.6593 36.2797C23.5603 36.3951 23.8241 36.0652 23.7251 36.1806C23.7252 36.1972 23.7085 36.1971 23.7087 36.2137C23.7252 36.1972 23.7251 36.1806 23.7416 36.1641C23.791 36.0981 23.8571 36.0322 23.9065 35.9662C24.0222 35.8507 24.1379 35.7353 24.2537 35.6364L24.2703 35.6199C24.2537 35.6364 24.2371 35.6364 24.2205 35.6529C24.1045 35.7352 24.4524 35.4716 24.3365 35.5705C24.32 35.587 24.2868 35.6035 24.2703 35.6199C24.32 35.587 24.3531 35.554 24.403 35.5377C24.486 35.4883 24.5856 35.439 24.6686 35.3896C24.6187 35.406 24.5521 35.4223 24.5023 35.4553C24.602 35.406 24.7018 35.3732 24.8015 35.3239C24.7516 35.3403 24.7183 35.3567 24.6686 35.3896C24.7517 35.3568 24.835 35.3405 24.9183 35.3243C24.8682 35.3241 24.8349 35.324 24.7848 35.3238C24.8681 35.3076 24.9515 35.3078 25.0349 35.2916C25.0182 35.2915 25.0015 35.2915 24.9846 35.2749C25.0013 35.2749 25.018 35.275 25.0347 35.275C25.0514 35.2751 25.0848 35.2752 25.1013 35.2587C25.0846 35.2586 25.0512 35.2585 25.0347 35.275C25.1183 35.2918 25.1851 35.292 25.2687 35.3089C25.2687 35.3089 25.2687 35.3089 25.2854 35.3089C25.3859 35.3423 25.4699 35.3922 25.5704 35.4256C25.5202 35.4089 25.4699 35.3922 25.4197 35.3755C25.4868 35.4088 25.5539 35.4421 25.6043 35.4754C25.6714 35.5087 25.7218 35.5419 25.7724 35.5917C25.7724 35.5917 25.7891 35.5918 25.7893 35.6083C25.8733 35.6582 25.9746 35.7743 25.823 35.6415C26.0252 35.8241 26.2442 36.0233 26.43 36.239C25.9739 35.7082 25.9335 35.0132 26.4123 34.4854C26.6269 34.2545 26.9929 34.1234 27.2934 34.1243C27.5939 34.1253 27.9792 34.2589 28.1819 34.4911C27.5907 33.811 26.8506 33.2627 25.9963 32.9787C25.1422 32.7113 24.2753 32.8243 23.4775 33.1691C22.6964 33.5139 22.0853 34.1571 21.5746 34.8337C21.0968 35.4608 20.7533 36.1545 20.4435 36.8814C19.8406 38.3352 19.5228 39.9222 19.5556 41.5104C19.5874 42.9993 19.9541 44.5886 20.8845 45.7992C21.8313 46.9768 23.0755 47.8576 24.547 48.094Z" fill="#183453"/>
<path d="M27.3475 34.0978C27.0473 34.0968 26.6818 34.2278 26.4673 34.4585C25.989 34.9859 26.0295 35.6802 26.4851 36.2106C26.9238 36.7079 27.8241 36.6778 28.253 36.2164C28.7312 35.689 28.6908 34.9947 28.2352 34.4643C28.0328 34.2488 27.6311 34.0987 27.3475 34.0978Z" fill="#183453"/>
<path d="M25.071 35.2895C24.9882 35.3057 24.9053 35.3056 24.8226 35.3218C24.8723 35.3218 24.9055 35.3219 24.9552 35.322C24.9882 35.3057 25.0378 35.2894 25.071 35.2895Z" fill="#183453"/>
<path d="M24.5267 35.4443C24.5764 35.4279 24.6427 35.3952 24.6924 35.3789C24.7422 35.3625 24.7752 35.3297 24.8249 35.3134C24.7256 35.3625 24.6262 35.4116 24.5267 35.4443Z" fill="#183453"/>
<path d="M24.2587 35.6592C24.2752 35.6427 24.2918 35.6428 24.3083 35.6263C24.3248 35.6098 24.358 35.5934 24.3745 35.577C24.4733 35.4617 24.1427 35.7248 24.2587 35.6592Z" fill="#183453"/>
<path d="M25.8535 35.6016C25.871 35.6186 25.871 35.6186 25.8884 35.6357C25.871 35.6186 25.8537 35.6186 25.8535 35.6016Z" fill="#183453"/>
<path d="M25.1523 35.2658C25.1357 35.2657 25.1025 35.2657 25.0861 35.282C25.0861 35.282 25.0861 35.282 25.1027 35.282C25.1025 35.2657 25.1191 35.2657 25.1523 35.2658Z" fill="#183453"/>
<path d="M53.0859 28.9062C53.0865 28.9726 53.1038 29.0225 53.1044 29.0889C53.1048 29.1386 53.1221 29.1885 53.1225 29.2383C53.1215 29.1221 53.1037 29.0059 53.0859 28.9062Z" fill="#183453"/>
<path d="M52.8487 33.227C52.8325 33.2766 52.7995 33.3262 52.7833 33.3759C52.767 33.4255 52.7508 33.4752 52.7178 33.5248C52.767 33.4255 52.8163 33.3263 52.8487 33.227Z" fill="#183453"/>
<path d="M52.2852 26.1875C52.3024 26.2372 52.3196 26.287 52.3536 26.3368C52.3708 26.3865 52.4048 26.4363 52.422 26.4861C52.3708 26.3865 52.3363 26.287 52.2852 26.1875Z" fill="#183453"/>
<path d="M53.156 31.797C53.1397 31.8633 53.1402 31.9131 53.1239 31.9794C53.1244 32.0292 53.108 32.0789 53.1084 32.1287C53.1411 32.0126 53.1402 31.9131 53.156 31.797Z" fill="#183453"/>
<path d="M52.4385 34.0015C52.4221 34.0346 52.3889 34.051 52.3725 34.084C52.356 34.1005 52.3561 34.1171 52.3396 34.1336C52.241 34.2821 52.5209 33.9025 52.4385 34.0015Z" fill="#183453"/>
<path d="M52.0111 34.4858C51.978 34.5022 51.9615 34.5187 51.9284 34.5351C51.9119 34.5515 51.9119 34.5515 51.8952 34.5515C51.8787 34.5679 51.8622 34.5844 51.8456 34.5843C51.7301 34.6995 52.011 34.4693 52.0111 34.4858Z" fill="#183453"/>
<path d="M47.2698 23.0676C47.2863 23.0511 47.3027 23.0347 47.3194 23.0347C47.3359 23.0183 47.3524 23.0018 47.3689 22.9853C47.5176 22.8537 47.1043 23.1827 47.2698 23.0676Z" fill="#183453"/>
<path d="M47.6339 22.8261C47.7002 22.7934 47.7499 22.7771 47.8163 22.7608C47.8494 22.7445 47.8991 22.7282 47.9322 22.7118C47.8328 22.7444 47.7333 22.7771 47.6339 22.8261Z" fill="#183453"/>
<path d="M48.1137 22.635C48.1635 22.6351 48.2296 22.6188 48.2794 22.6189C48.329 22.6027 48.3953 22.6028 48.4449 22.5866C48.329 22.6027 48.2131 22.6188 48.1137 22.635Z" fill="#183453"/>
<path d="M46.8425 23.518C46.8423 23.5015 46.8423 23.5015 46.8425 23.518C46.8588 23.485 46.8754 23.4685 46.8919 23.452C47.0071 23.287 46.661 23.7325 46.8425 23.518Z" fill="#183453"/>
<path d="M50.1582 23.2364C50.0071 23.1203 50.0744 23.1866 50.1582 23.2364C50.1414 23.2198 50.1414 23.2198 50.1582 23.2364C50.3262 23.369 50.175 23.253 50.1582 23.2364Z" fill="#183453"/>
<path d="M48.6426 22.5781C48.6923 22.5782 48.7422 22.5947 48.7921 22.6111C48.8584 22.6112 48.9083 22.6277 48.9746 22.6278C48.8584 22.6112 48.7422 22.5947 48.6426 22.5781Z" fill="#183453"/>
<path d="M51.1103 24.2036C51.1271 24.2202 51.144 24.2368 51.1608 24.2534C51.2455 24.3695 50.9918 24.0379 51.1103 24.2036Z" fill="#183453"/>
<path d="M49.2402 22.7188C49.2903 22.7353 49.3405 22.7684 49.3906 22.785C49.4407 22.8016 49.4907 22.8182 49.5408 22.8348C49.4407 22.8016 49.3404 22.7519 49.2402 22.7188Z" fill="#183453"/>
<path d="M51.4186 34.8837C51.3688 34.9 51.3191 34.9163 51.2693 34.9326C51.2196 34.9489 51.17 34.9817 51.1203 34.998C51.2198 34.9654 51.3191 34.9163 51.4186 34.8837Z" fill="#183453"/>
<path d="M45.5615 28.0193C45.5609 27.953 45.5773 27.9032 45.5936 27.8369C45.5932 27.7871 45.6096 27.7374 45.6091 27.6876C45.5933 27.8037 45.5775 27.9198 45.5615 28.0193Z" fill="#183453"/>
<path d="M46.4624 24.1413C46.4787 24.0916 46.5116 24.042 46.5279 23.9924C46.5113 24.0089 46.4949 24.042 46.4783 24.0585C46.4787 24.0916 46.4788 24.1082 46.4624 24.1413Z" fill="#183453"/>
<path d="M50.525 35.1647C50.4752 35.1646 50.4255 35.1645 50.3759 35.1808C50.3097 35.197 50.2434 35.1968 50.1938 35.2131C50.2931 35.1969 50.4091 35.1808 50.525 35.1647Z" fill="#183453"/>
<path d="M46.4951 24.0702C46.4624 24.1529 46.4296 24.2191 46.3969 24.3018C46.4131 24.2522 46.446 24.186 46.479 24.1364C46.4786 24.1032 46.4785 24.0867 46.4951 24.0702Z" fill="#183453"/>
<path d="M44.8411 24.4437C45.4111 24.7431 46.1436 24.6132 46.5051 24.0855C46.5216 24.0691 46.5214 24.0525 46.5378 24.0195C46.5379 24.0361 46.5214 24.0525 46.5216 24.0691C46.5381 24.0526 46.5544 24.0196 46.5709 24.0031C46.8652 23.4256 46.7238 22.6318 46.1034 22.2993C45.5167 21.9999 44.7175 22.1295 44.3902 22.7399C44.0626 23.3173 44.2209 24.1277 44.8411 24.4437Z" fill="#183453"/>
<path d="M46.796 37.0795C49.1433 38.0466 52.2477 37.9243 54.0649 35.9943C55.3368 34.6417 55.7019 32.7733 55.7503 30.9535C55.8117 28.7698 55.2887 26.5841 54.2837 24.6286C53.3468 22.7891 51.8759 20.9809 49.8324 20.3457C48.1406 19.8108 46.2762 20.3673 45.1204 21.6541C44.8232 21.9841 44.5432 22.3637 44.33 22.7435C44.6578 22.1324 45.4579 22.0026 46.0453 22.3023C46.6663 22.6187 46.8081 23.4299 46.5134 24.008C46.6117 23.8263 46.7103 23.6612 46.8255 23.4961L46.8089 23.5126C46.6274 23.7271 46.9737 23.298 46.8584 23.4466C46.8418 23.4631 46.842 23.4796 46.8255 23.4961C46.8585 23.4631 46.8749 23.4301 46.9079 23.3971C46.9739 23.3146 47.04 23.2486 47.1228 23.1827C47.1724 23.1332 47.2387 23.0838 47.305 23.0344C47.2885 23.0509 47.2719 23.0674 47.2552 23.0673C47.0894 23.1826 47.5202 22.8531 47.3546 22.9849C47.3381 23.0014 47.3215 23.0179 47.305 23.0344C47.3215 23.0179 47.3548 23.0014 47.3713 22.985C47.504 22.9027 47.6368 22.8204 47.7864 22.7547C47.7198 22.771 47.67 22.8039 47.6034 22.8202C47.7031 22.7709 47.8029 22.7382 47.9026 22.6888C47.8694 22.7053 47.8194 22.7217 47.7862 22.7381C47.936 22.689 48.1025 22.6399 48.2524 22.6072C48.2023 22.6071 48.1357 22.6234 48.0856 22.6233C48.2023 22.6071 48.3023 22.5909 48.419 22.5747C48.3689 22.5745 48.3023 22.5909 48.2524 22.6072C48.4192 22.5912 48.5862 22.5918 48.77 22.6089C48.7198 22.5922 48.6697 22.592 48.6194 22.5753C48.7365 22.5923 48.8368 22.6091 48.9539 22.626C48.8871 22.6258 48.8368 22.6091 48.77 22.6089C48.9707 22.6426 49.1885 22.7095 49.3728 22.7763C49.3225 22.7596 49.2721 22.7263 49.2219 22.7096C49.3225 22.7596 49.4231 22.793 49.5238 22.843C49.4735 22.8263 49.4232 22.8095 49.373 22.7928C49.4905 22.8594 49.6246 22.9095 49.7422 22.976C49.8261 23.0259 49.9101 23.0758 49.9774 23.1257C50.0279 23.1589 50.0783 23.1922 50.112 23.2254C50.0614 23.1756 49.9774 23.1257 50.1289 23.242C50.3139 23.3749 50.1624 23.2586 50.112 23.2254C50.1289 23.242 50.1289 23.242 50.1456 23.242C50.196 23.2753 50.2466 23.3251 50.2803 23.3583C50.3645 23.4247 50.4321 23.5077 50.5163 23.5741C50.7016 23.7402 50.8704 23.9227 51.0227 24.1217C51.0397 24.1549 51.0733 24.1715 51.0903 24.2047C50.9718 24.0389 51.2256 24.3706 51.1409 24.2545C51.1241 24.2379 51.1072 24.2213 51.0903 24.2047C51.1748 24.3042 51.2426 24.4037 51.3106 24.5198C51.4462 24.7187 51.5818 24.9177 51.7008 25.1332C51.9384 25.5145 52.143 25.9288 52.3309 26.343C52.3137 26.2933 52.2965 26.2436 52.2626 26.1939C52.3137 26.2933 52.3481 26.3927 52.3992 26.4921C52.382 26.4424 52.3481 26.3927 52.3309 26.343C52.6904 27.221 52.9501 28.1318 53.1097 29.0589C53.109 28.9927 53.0918 28.943 53.0912 28.8768C53.109 28.9927 53.1267 29.092 53.1446 29.2079C53.1441 29.1583 53.1269 29.1086 53.1264 29.0589C53.253 30.019 53.2627 30.9786 53.1555 31.9379C53.1716 31.8717 53.1711 31.8221 53.1871 31.756C53.1716 31.8717 53.1559 31.971 53.1404 32.0867C53.1399 32.0371 53.1561 31.9875 53.1555 31.9379C53.0936 32.4175 52.9814 32.8804 52.819 33.3266C52.8352 33.277 52.8681 33.2275 52.8843 33.1779C52.8352 33.277 52.8028 33.3762 52.7537 33.4753C52.7699 33.4257 52.7861 33.3761 52.819 33.3266C52.721 33.5413 52.6061 33.7395 52.4912 33.9377C52.4583 33.9872 52.442 34.0202 52.4089 34.0532C52.4253 34.0202 52.4585 34.0038 52.4749 33.9707C52.5573 33.8717 52.2773 34.2514 52.376 34.1028C52.3925 34.0863 52.3924 34.0697 52.4089 34.0532C52.3264 34.1522 52.2438 34.2347 52.1613 34.3337C52.0952 34.3997 52.0124 34.4656 51.9295 34.5315C51.9461 34.515 51.9461 34.515 51.9628 34.5151C51.996 34.4986 52.0124 34.4656 52.0457 34.4657C52.0624 34.4657 51.7641 34.6799 51.8799 34.581C51.8965 34.5645 51.913 34.548 51.9297 34.548C51.8966 34.581 51.8467 34.5974 51.8137 34.6304C51.6477 34.7291 51.4817 34.8279 51.2989 34.91C51.3488 34.8936 51.3987 34.8772 51.4487 34.8609C51.349 34.9102 51.2491 34.9429 51.1495 34.9923C51.1994 34.9759 51.2491 34.9429 51.2991 34.9266C51.0162 35.0249 50.7165 35.1067 50.3997 35.1553C50.4498 35.1555 50.4999 35.1556 50.5498 35.1392C50.4331 35.1554 50.3331 35.1716 50.2164 35.1878C50.283 35.1715 50.3498 35.1717 50.3997 35.1553C49.9494 35.2035 49.4984 35.1855 49.0472 35.1509C49.0975 35.1677 49.1476 35.1678 49.2146 35.1846C49.0975 35.1677 48.9972 35.1508 48.8801 35.1339C48.9302 35.134 48.9972 35.1508 49.0472 35.1509C48.5288 35.0666 48.0265 34.9326 47.5403 34.7325C47.5905 34.7492 47.641 34.7824 47.7079 34.7992C47.6072 34.7492 47.5067 34.7158 47.406 34.6659C47.4563 34.6826 47.5066 34.6993 47.5401 34.7159C47.3723 34.6327 47.2045 34.5494 47.0367 34.4661C46.936 34.4162 46.8351 34.3497 46.751 34.2832C46.7343 34.2832 46.7341 34.2666 46.7173 34.25C46.7173 34.25 46.7173 34.25 46.7341 34.2666C46.751 34.2832 46.7846 34.2999 46.8014 34.3165C46.9193 34.4161 46.4987 34.1004 46.6331 34.1836C46.6667 34.2002 46.7004 34.2334 46.7173 34.25C46.6331 34.1836 46.5488 34.1006 46.4811 34.0176C46.4474 33.9844 46.3968 33.9346 46.3629 33.8849C46.3798 33.9015 46.3968 33.9346 46.4139 33.9678C46.3968 33.9346 46.3631 33.9014 46.3461 33.8683C46.3461 33.8683 46.3461 33.8683 46.3459 33.8518C46.3457 33.8352 46.329 33.8352 46.3289 33.8186C46.2781 33.7523 46.2272 33.6694 46.295 33.7689C46.1595 33.5864 46.0572 33.371 45.955 33.1721C45.9722 33.2218 46.0062 33.2881 46.0234 33.3378C45.9724 33.2384 45.938 33.139 45.8869 33.0396C45.9041 33.0893 45.9211 33.1224 45.9383 33.1721C45.7498 32.6917 45.6279 32.1949 45.5392 31.6818C45.5395 31.7148 45.5398 31.7479 45.557 31.7976C45.5392 31.6818 45.5215 31.5824 45.5036 31.4666C45.521 31.5328 45.5218 31.6155 45.5392 31.6818C45.3758 30.3907 45.4127 29.0838 45.5668 27.8103C45.5674 27.8765 45.5513 27.9261 45.5352 27.9922C45.5508 27.8764 45.5664 27.7772 45.582 27.6614C45.5825 27.7111 45.5663 27.7607 45.5668 27.8103C45.7379 26.57 45.9755 25.2968 46.4311 24.1235C46.3982 24.1731 46.3822 24.2392 46.3493 24.2887C46.3818 24.2061 46.4146 24.14 46.4471 24.0574C46.102 24.6023 45.3518 24.7157 44.7811 24.416C44.1601 24.0997 44.0016 23.2885 44.313 22.7104C43.8214 23.6353 43.5653 24.7265 43.3586 25.7516C43.0563 27.2232 42.8879 28.7282 42.9031 30.2339C42.935 31.7396 43.1513 33.312 43.8829 34.6545C44.5463 35.8645 45.5888 36.5793 46.796 37.0795Z" fill="#183453"/>
<path d="M46.5117 24.0157C46.4953 24.032 46.4954 24.0484 46.4792 24.081C46.4792 24.081 46.4792 24.081 46.479 24.0647C46.4954 24.0484 46.5118 24.0321 46.5117 24.0157Z" fill="#183453"/>
<path d="M47.7009 34.8348C47.6509 34.8182 47.6007 34.7851 47.534 34.7685C47.4839 34.7519 47.4338 34.7353 47.4004 34.7188C47.5005 34.7519 47.6008 34.8016 47.7009 34.8348Z" fill="#183453"/>
<path d="M45.5554 31.8554C45.5551 31.8222 45.5548 31.789 45.5375 31.7392C45.5201 31.6728 45.5194 31.5898 45.502 31.5234C45.5367 31.6396 45.5544 31.7392 45.5554 31.8554Z" fill="#183453"/>
<path d="M49.1934 35.1903C49.1436 35.1902 49.0938 35.1738 49.0273 35.1573C48.9775 35.1572 48.9111 35.1407 48.8613 35.1406C48.9775 35.1572 49.0772 35.1737 49.1934 35.1903Z" fill="#183453"/>
<path d="M46.7827 34.3546C46.7659 34.3381 46.7324 34.3214 46.7155 34.3049C46.7155 34.3049 46.6989 34.3048 46.6987 34.2883C46.6652 34.2717 46.6315 34.2385 46.6147 34.222C46.4804 34.1225 46.9004 34.4541 46.7827 34.3546Z" fill="#183453"/>
<path d="M46.3341 33.911L46.351 33.9276C46.3171 33.8779 46.3002 33.8613 46.2832 33.8281C46.3002 33.8613 46.3173 33.8944 46.3341 33.911Z" fill="#183453"/>
<path d="M46.0166 33.4158C45.9994 33.366 45.9653 33.2997 45.948 33.2499C45.9308 33.2001 45.9137 33.1669 45.8965 33.1172C45.931 33.2167 45.9822 33.3163 46.0166 33.4158Z" fill="#183453"/>
<path d="M62.1465 40.8047C62.1639 40.8711 62.1645 40.9375 62.1651 41.0039C62.1655 41.0537 62.1826 41.0869 62.183 41.1367C62.1821 41.0205 62.1642 40.9043 62.1465 40.8047Z" fill="#183453"/>
<path d="M61.4492 38.4375C61.4664 38.4872 61.5006 38.5536 61.5178 38.6034C61.535 38.6531 61.5521 38.6863 61.5861 38.7361C61.5349 38.6365 61.4837 38.537 61.4492 38.4375Z" fill="#183453"/>
<path d="M62.2263 42.9063C62.2267 42.9561 62.2103 43.0059 62.1939 43.0556C62.1945 43.122 62.1781 43.1717 62.1787 43.2381C62.1945 43.122 62.2105 43.0225 62.2263 42.9063Z" fill="#183453"/>
<path d="M60.5456 36.907C60.5457 36.9236 60.5624 36.9236 60.5626 36.9402C60.5795 36.9568 60.5795 36.9568 60.5963 36.9733C60.7315 37.1392 60.4442 36.7909 60.5456 36.907Z" fill="#183453"/>
<path d="M60.8395 45.838C60.823 45.8545 60.8064 45.8544 60.8065 45.871C60.5584 46.0518 61.005 45.723 60.8395 45.838Z" fill="#183453"/>
<path d="M61.4145 45.2209C61.4147 45.2375 61.398 45.2374 61.3982 45.254C61.2335 45.4851 61.5466 45.0725 61.4145 45.2209Z" fill="#183453"/>
<path d="M61.9415 44.266C61.9252 44.3156 61.8922 44.3652 61.8759 44.4149C61.8597 44.4646 61.8434 44.5142 61.8271 44.5639C61.8597 44.4646 61.8922 44.3652 61.9415 44.266Z" fill="#183453"/>
<path d="M55.9678 35.3102C56.0008 35.2772 56.0172 35.2442 56.0502 35.2112C56.0172 35.2442 55.9842 35.2771 55.9678 35.3102Z" fill="#183453"/>
<path d="M58.4497 36.353C58.4659 36.337 58.4821 36.3209 58.4983 36.3048C58.4659 36.337 58.4659 36.337 58.4497 36.353Z" fill="#183453"/>
<path d="M59.4312 46.4694C59.3815 46.4693 59.3319 46.4855 59.2821 46.4854C59.216 46.5017 59.1662 46.5016 59.1 46.5178C59.2158 46.4853 59.3153 46.4855 59.4312 46.4694Z" fill="#183453"/>
<path d="M59.457 36.0625C59.5071 36.0791 59.5406 36.0957 59.5908 36.1288C59.6409 36.1454 59.7076 36.1621 59.7579 36.1951C59.6575 36.1454 59.5572 36.0957 59.457 36.0625Z" fill="#183453"/>
<path d="M59.8887 36.2656C59.9057 36.2987 59.9558 36.3154 59.9726 36.3319C59.9893 36.332 59.9895 36.3485 60.0061 36.3485C60.1404 36.448 59.9055 36.2822 59.8887 36.2656Z" fill="#183453"/>
<path d="M59.1426 36.0078C59.1592 36.0078 59.1923 36.0079 59.209 36.0243C59.209 36.0243 59.2091 36.0243 59.2256 36.0243C59.1925 36.0243 59.1592 36.0078 59.1426 36.0078Z" fill="#183453"/>
<path d="M59.26 36.0079C59.2436 36.0079 59.2273 36.0078 59.2109 36.0078C59.2274 36.024 59.2436 36.0079 59.26 36.0079Z" fill="#183453"/>
<path d="M60.276 46.204C60.2263 46.2203 60.1765 46.2366 60.1268 46.2529C60.077 46.2692 60.0274 46.302 59.9777 46.3183C60.0772 46.2857 60.1765 46.2366 60.276 46.204Z" fill="#183453"/>
<path d="M59.0763 36.0407C59.1259 36.0245 59.1591 36.0246 59.2087 36.0083C59.1259 36.0245 59.0596 36.0243 58.9769 36.0405C58.9936 36.0569 59.0433 36.057 59.0763 36.0407Z" fill="#183453"/>
<path d="M58.9645 36.0711C58.865 36.1038 58.7823 36.1529 58.6828 36.1856C58.7325 36.1692 58.7823 36.1529 58.832 36.1366C58.8651 36.1202 58.9147 36.0874 58.9645 36.0711Z" fill="#183453"/>
<path d="M58.9637 36.0707C58.9141 36.0869 58.8647 36.1195 58.8151 36.1357C58.8977 36.1032 58.9804 36.0871 59.0798 36.071C59.0466 36.0709 58.9968 36.0708 58.9637 36.0707Z" fill="#183453"/>
<path d="M55.8314 48.3334C56.8039 48.7501 57.858 48.9851 58.9261 48.9555C60.3447 48.927 61.6752 48.435 62.7341 47.4955C65.1165 45.3692 65.1455 41.6472 64.2317 38.7824C63.9902 38.0207 63.6653 37.2587 63.2743 36.5626C62.8663 35.8334 62.3416 35.1204 61.7018 34.5889C60.9949 34.0242 60.2231 33.6412 59.3044 33.5886C58.5026 33.5364 57.6876 33.8316 57.0579 34.2927C56.6768 34.5727 56.3292 34.8694 56.0324 35.2323C56.4778 34.7044 57.3302 34.8064 57.802 35.2381C58.0379 35.4539 58.1752 35.8182 58.1782 36.116C58.1817 36.4634 58.0343 36.7442 57.8198 36.9916C58.0178 36.7607 58.233 36.5794 58.4478 36.365C58.2493 36.5464 58.3649 36.4144 58.4478 36.365C58.5141 36.3156 58.5638 36.2827 58.6303 36.2498C58.6967 36.217 58.7465 36.184 58.8129 36.1512C58.763 36.1675 58.7131 36.1839 58.6632 36.2003C58.763 36.1675 58.846 36.1182 58.9458 36.0854C58.9458 36.0854 58.9458 36.0854 58.9625 36.0855C59.0458 36.0692 59.1126 36.0694 59.1959 36.0531C59.1792 36.0531 59.1458 36.053 59.1289 36.0364C59.1456 36.0364 59.179 36.0365 59.1959 36.0531C59.2126 36.0532 59.2293 36.0533 59.246 36.0533C59.2293 36.0533 59.2126 36.0532 59.196 36.0697C59.2797 36.0865 59.3632 36.0868 59.4468 36.1036C59.3967 36.1034 59.3633 36.1033 59.3132 36.1032C59.3969 36.12 59.4807 36.1533 59.5643 36.1701C59.5141 36.1534 59.4804 36.1202 59.4301 36.1035C59.5308 36.1535 59.6313 36.1869 59.7319 36.2368C59.6817 36.2201 59.6146 36.1868 59.5643 36.1701C59.6481 36.2035 59.7321 36.2534 59.7994 36.3032C59.8498 36.3365 59.9002 36.3697 59.9506 36.403C59.9171 36.3863 59.8834 36.3531 59.8665 36.3365C59.8834 36.3531 60.1188 36.5193 59.9844 36.4362C59.9677 36.4361 59.9675 36.4196 59.9508 36.4195C60.0687 36.5192 60.1867 36.6353 60.3048 36.7515C60.3722 36.8179 60.423 36.8842 60.4735 36.934C60.4904 36.9506 60.5074 36.9838 60.5243 37.0004C60.5241 36.9838 60.5074 36.9838 60.5073 36.9672C60.4226 36.8512 60.6933 37.1994 60.558 37.0336C60.5412 37.017 60.5412 37.017 60.5243 37.0004C60.8968 37.5144 61.2197 38.0779 61.4926 38.6578C61.4754 38.6081 61.4414 38.5418 61.4242 38.4921C61.4753 38.5915 61.5097 38.6909 61.5608 38.7903C61.5436 38.7406 61.5265 38.7075 61.4926 38.6578C61.8009 39.4197 62.0259 40.2145 62.1677 41.0255C62.167 40.9594 62.1497 40.8931 62.149 40.827C62.1669 40.9428 62.1846 41.0421 62.2024 41.158C62.2019 41.1084 62.1849 41.0752 62.1844 41.0256C62.2748 41.7041 62.2985 42.399 62.2221 43.0935C62.2216 43.0439 62.2378 42.9943 62.2539 42.9448C62.2384 43.0605 62.2227 43.1597 62.2072 43.2755C62.2065 43.2093 62.2227 43.1597 62.2221 43.0935C62.16 43.5565 62.0477 44.0028 61.8851 44.4324C61.9013 44.3828 61.9341 44.3333 61.9503 44.2837C61.9013 44.3828 61.8689 44.482 61.8198 44.5811C61.836 44.5315 61.8522 44.4819 61.8684 44.4323C61.7704 44.6471 61.6722 44.8453 61.5407 45.0434C61.4913 45.1094 61.4586 45.1754 61.4092 45.2415C61.4092 45.2415 61.4093 45.258 61.3926 45.2579C61.3925 45.2414 61.4092 45.2414 61.409 45.2249C61.541 45.0764 61.2279 45.4725 61.3926 45.2579C61.3102 45.3569 61.2112 45.4724 61.112 45.5713C61.0128 45.6703 60.9137 45.7692 60.7977 45.8515C60.8142 45.8351 60.8309 45.8351 60.8307 45.8186C60.9965 45.7033 60.5493 46.0493 60.781 45.8515C60.7312 45.8844 60.6982 45.9174 60.6483 45.9338C60.4658 46.049 60.2832 46.1477 60.1004 46.2298C60.1503 46.2134 60.2002 46.197 60.2501 46.1806C60.1504 46.2299 60.0506 46.2627 59.951 46.312C60.0009 46.2956 60.0506 46.2627 60.1005 46.2463C59.8344 46.3447 59.5513 46.41 59.268 46.4587C59.3181 46.4588 59.3682 46.459 59.4181 46.4426C59.3014 46.4588 59.2014 46.475 59.0847 46.4912C59.1513 46.4748 59.2014 46.475 59.268 46.4587C58.8677 46.4905 58.467 46.4892 58.066 46.4548C58.1163 46.4715 58.183 46.4717 58.2333 46.4884C58.1163 46.4715 58.0159 46.4546 57.8989 46.4377C57.949 46.4379 57.9992 46.4546 58.066 46.4548C57.6647 46.3873 57.2463 46.2867 56.8608 46.1366C56.9112 46.1698 56.9782 46.1866 57.0286 46.2199C56.9279 46.1699 56.8274 46.1365 56.7268 46.0865C56.777 46.1032 56.8106 46.1199 56.8608 46.1366C56.7937 46.1033 56.7433 46.07 56.6929 46.0368C56.6256 45.987 56.5416 45.937 56.4745 45.9037L56.4914 45.9203C56.5082 45.9369 56.5418 45.9536 56.5587 45.9702C56.6597 46.0532 56.2897 45.7874 56.4072 45.8539C56.4241 45.8705 56.4577 45.8871 56.4745 45.9037C56.4241 45.8705 56.3904 45.8373 56.3565 45.7876C56.2723 45.7211 56.2047 45.6382 56.1371 45.5553C56.1541 45.5884 56.171 45.605 56.188 45.6381C56.1882 45.6547 55.9683 45.3727 56.0697 45.4889C56.0865 45.5055 56.1035 45.5386 56.1204 45.5552C56.1204 45.5552 56.1204 45.5552 56.1373 45.5718C56.1204 45.5552 56.1035 45.5386 56.0865 45.5055C55.9848 45.3563 55.8828 45.174 55.7977 45.0083C55.8149 45.0579 55.8322 45.1242 55.8661 45.1739C55.815 45.0745 55.7806 44.9751 55.7296 44.8757C55.7468 44.9254 55.7805 44.9586 55.7977 45.0083C55.6776 44.6936 55.591 44.379 55.5375 44.0479C55.5382 44.1141 55.5554 44.1638 55.5561 44.23C55.5382 44.1141 55.5205 44.0148 55.5026 43.899C55.5031 43.9486 55.5203 43.9983 55.5208 44.0479C55.4482 43.4687 55.459 42.8897 55.5201 42.3275C55.5206 42.3771 55.5044 42.4267 55.5049 42.4763C55.5204 42.3605 55.5361 42.2613 55.5516 42.1456C55.5523 42.2118 55.5361 42.2613 55.5368 42.3275C55.6771 41.352 55.9512 40.3934 56.3091 39.4681C56.2929 39.5177 56.2767 39.5673 56.2437 39.6003C56.2927 39.5012 56.3251 39.402 56.3742 39.3029C56.358 39.3525 56.3251 39.402 56.3091 39.4681C56.5213 38.9891 56.7503 38.5266 57.0129 38.0808C57.1441 37.8497 57.2921 37.6351 57.44 37.404C57.506 37.3215 57.5719 37.239 57.6212 37.1564C57.6212 37.1564 57.6212 37.1564 57.6213 37.173C57.6048 37.1894 57.5884 37.2225 57.5719 37.239C57.4566 37.3875 57.6379 37.1565 57.6709 37.1235C57.6544 37.14 57.6546 37.1565 57.6379 37.1565C57.6707 37.1069 57.7203 37.0575 57.7532 37.008C57.3078 37.5359 56.4554 37.4339 55.9836 37.0022C55.7477 36.7864 55.6105 36.422 55.6074 36.1243C55.6044 35.8265 55.7188 35.5787 55.8834 35.3476C54.2507 37.3275 53.2581 39.8553 53.017 42.4186C52.8963 43.692 53.0595 44.9663 53.572 46.126C54.0489 47.0539 54.8589 47.9167 55.8314 48.3334Z" fill="#183453"/>
<path d="M59.3419 36.0407C59.3917 36.0408 59.4248 36.0409 59.4746 36.041C59.3915 36.0245 59.3086 36.0243 59.2256 36.0078C59.2256 36.0078 59.2256 36.0078 59.209 36.0078C59.2589 36.0242 59.2922 36.0406 59.3419 36.0407Z" fill="#183453"/>
<path d="M56.0446 36.9652C56.5159 37.3964 57.3675 37.4984 57.8124 36.971C58.0266 36.7237 58.1739 36.4433 58.1704 36.0962C58.1673 35.7987 58.0302 35.4346 57.7946 35.219C57.3232 34.7877 56.4717 34.6858 56.0268 35.2132C55.9938 35.2462 55.9775 35.2792 55.9444 35.3121C55.78 35.5429 55.6658 35.7905 55.6688 36.088C55.6885 36.3856 55.8256 36.7496 56.0446 36.9652Z" fill="#183453"/>
<path d="M57.6248 37.1941C57.6413 37.1776 57.6577 37.1445 57.6742 37.128C57.6742 37.128 57.6742 37.128 57.6741 37.1115C57.6906 37.095 57.6904 37.0784 57.7071 37.0785C57.6909 37.1281 57.5261 37.3427 57.6248 37.1941Z" fill="#183453"/>
<path d="M55.6166 44.2305C55.6161 44.1641 55.5988 44.1142 55.5982 44.0478C55.5978 43.9981 55.5805 43.9482 55.5801 43.8984C55.5809 43.998 55.5988 44.1142 55.6166 44.2305Z" fill="#183453"/>
<path d="M56.1068 45.5047C56.0054 45.3886 56.2253 45.6705 56.2251 45.6539C56.2081 45.6208 56.1912 45.6042 56.1742 45.5711C56.1742 45.5711 56.1742 45.5711 56.1573 45.5545C56.1407 45.5544 56.1236 45.5213 56.1068 45.5047Z" fill="#183453"/>
<path d="M56.5933 45.9857C56.5764 45.9691 56.5429 45.9525 56.5261 45.9359L56.5093 45.9194C56.4924 45.9028 56.4589 45.8862 56.4421 45.8696C56.3414 45.8032 56.6942 46.0851 56.5933 45.9857Z" fill="#183453"/>
<path d="M55.9083 45.197C55.8911 45.1473 55.8737 45.081 55.8397 45.0312C55.8225 44.9814 55.7887 44.9482 55.7715 44.8984C55.8227 44.998 55.8739 45.0975 55.9083 45.197Z" fill="#183453"/>
<path d="M57.0723 46.2186C57.0222 46.202 56.9553 46.1688 56.9051 46.1357C56.855 46.1191 56.8216 46.1026 56.7715 46.0859C56.8718 46.1356 56.972 46.1689 57.0723 46.2186Z" fill="#183453"/>
<path d="M55.5712 42.4882C55.5707 42.4384 55.5872 42.3886 55.5868 42.3389C55.5862 42.2725 55.6027 42.2227 55.6021 42.1563C55.6029 42.2559 55.5871 42.3721 55.5712 42.4882Z" fill="#183453"/>
<path d="M58.2715 46.495C58.2218 46.4949 58.1553 46.4784 58.1054 46.462C58.0557 46.4619 58.0058 46.4454 57.9395 46.4453C58.0391 46.4618 58.1553 46.4784 58.2715 46.495Z" fill="#183453"/>
<path d="M56.3154 39.5872C56.3317 39.5376 56.3479 39.488 56.3811 39.4549C56.3973 39.4053 56.4303 39.3557 56.4464 39.2895C56.3972 39.3887 56.3647 39.488 56.3154 39.5872Z" fill="#183453"/>
<path d="M59.0765 36.0405C59.1594 36.0406 59.2423 36.0408 59.3418 36.041C59.2919 36.0245 59.2587 36.0245 59.2088 36.008C59.1592 36.0243 59.1262 36.0406 59.0765 36.0405Z" fill="#183453"/>
<path d="M41.9531 61.942C44.0159 61.9131 45.9875 62.8439 48.0527 63.0798C53.6653 63.7035 57.9505 59.1778 56.343 54.3256C54.992 50.2517 50.3351 48.5873 47.8595 45.2559C47.2195 44.394 46.7284 43.4331 46.0721 42.6043C43.4134 39.2725 39.4926 39.91 37.351 42.2887C36.2309 43.5441 35.6802 45.2145 34.6106 46.5362C32.9158 48.6345 29.484 50.0011 27.7706 53.7378C25.9919 57.6232 28.0442 61.9798 31.9473 63.08C35.6836 64.1303 38.443 62.001 41.9531 61.942Z" fill="#183453"/>
<path d="M48.1053 61.8847C48.0556 61.8847 48.0057 61.8683 47.956 61.8682C47.8897 61.8681 47.8398 61.8517 47.7734 61.8516C47.8731 61.8681 47.9893 61.8846 48.1053 61.8847Z" fill="#183453"/>
<path d="M31.8289 61.8114C31.762 61.7782 31.6953 61.7616 31.6451 61.7285C31.6116 61.712 31.5782 61.6954 31.5449 61.6953C31.6284 61.7285 31.7287 61.7782 31.8289 61.8114Z" fill="#183453"/>
<path d="M33.326 62.1816C33.2929 62.1816 33.243 62.1652 33.2098 62.1651C33.1435 62.165 33.0605 62.1485 32.9941 62.1484C33.1102 62.1486 33.2098 62.1651 33.326 62.1816Z" fill="#183453"/>
<path d="M35.2144 62.1256C35.1647 62.1255 35.1151 62.1418 35.0653 62.1417C34.9992 62.1579 34.9494 62.1578 34.8832 62.174C34.9992 62.1579 35.1151 62.1418 35.2144 62.1256Z" fill="#183453"/>
<path d="M29.5422 60.1182C29.5591 60.1347 29.576 60.1513 29.5761 60.1679C29.593 60.1845 29.6098 60.2011 29.6267 60.2176C29.6098 60.2011 29.5761 60.1679 29.5254 60.1016C29.5254 60.1016 29.5421 60.1016 29.5422 60.1182Z" fill="#183453"/>
<path d="M32.3428 64.4212C33.6785 64.6733 34.9944 64.6115 36.3084 64.368C37.4061 64.1569 38.4692 63.8136 39.5331 63.5528C40.0317 63.4223 40.5306 63.3248 41.0464 63.2439C40.9798 63.2437 40.9133 63.26 40.8466 63.2598C40.9631 63.2437 41.0629 63.2275 41.1794 63.2113C41.1294 63.2112 41.0962 63.2276 41.0462 63.2274C41.6955 63.1635 42.3453 63.1491 43.0126 63.2173C42.9624 63.2006 42.8957 63.2004 42.8456 63.1837C42.9624 63.2006 43.0626 63.2174 43.1794 63.2343C43.1294 63.2342 43.0626 63.2174 43.0126 63.2173C43.797 63.3354 44.5658 63.5526 45.3344 63.7533C46.2367 63.9874 47.1554 64.205 48.0897 64.3072C49.4744 64.4603 50.9228 64.3163 52.2348 63.8747C54.7923 63.0078 56.9057 61.066 57.6792 58.4592C58.0979 57.0239 58.0484 55.4384 57.5841 54.0166C57.8074 54.6779 57.3475 55.337 56.7329 55.5332C56.0685 55.7457 55.3972 55.2811 55.191 54.6694C55.2942 54.9835 55.3808 55.3141 55.4342 55.6446C55.4338 55.6115 55.4333 55.562 55.4163 55.5289C55.4342 55.6446 55.4519 55.7437 55.4697 55.8594C55.4524 55.7932 55.4517 55.7272 55.4342 55.6446C55.4889 56.1071 55.4934 56.553 55.4481 57.0153C55.4643 56.9658 55.4638 56.9162 55.4799 56.8667C55.4644 56.9823 55.4488 57.0813 55.4333 57.1969C55.4326 57.1308 55.4488 57.0813 55.4481 57.0153C55.386 57.461 55.257 57.8899 55.1112 58.3023C55.1439 58.2363 55.16 58.1868 55.1927 58.1209C55.1437 58.2198 55.1114 58.3188 55.0624 58.4177C55.0787 58.3847 55.0949 58.3353 55.1112 58.3023C54.9646 58.6321 54.7846 58.9618 54.5711 59.2749C54.5055 59.3737 54.4398 59.4726 54.3573 59.5549C54.6203 59.1924 54.4067 59.489 54.3244 59.5878C54.1762 59.769 54.0112 59.9336 53.8463 60.0982C53.6811 60.2463 53.516 60.3944 53.3508 60.5425C53.3673 60.526 53.3838 60.5096 53.417 60.4932C53.5823 60.3616 53.1525 60.707 53.3508 60.5425C53.3343 60.5589 53.3012 60.5754 53.2847 60.5918C53.1854 60.6576 53.1027 60.7233 53.0034 60.7891C52.6556 61.0026 52.3076 61.1997 51.926 61.3636C51.9592 61.3472 51.9923 61.3308 52.0423 61.3309C51.9428 61.3801 51.8432 61.4128 51.7437 61.4621C51.81 61.4293 51.8765 61.413 51.9262 61.3801C51.3287 61.6259 50.6971 61.789 50.048 61.8694C50.1147 61.8696 50.1812 61.8533 50.2478 61.8536C50.1314 61.8697 50.0315 61.8859 49.915 61.902C49.965 61.9022 49.9982 61.8858 50.0482 61.8859C49.3656 61.9498 48.699 61.9476 48.0149 61.8628C48.0649 61.863 48.115 61.8797 48.165 61.8798C48.0482 61.8629 47.948 61.8461 47.8312 61.8292C47.8979 61.8294 47.9481 61.8461 48.0147 61.8463C46.1454 61.5595 44.3548 60.8271 42.454 60.7218C40.7533 60.6338 39.0915 61.0908 37.4795 61.5314C36.6984 61.7436 35.9006 61.9557 35.0852 62.0686C35.1352 62.0688 35.185 62.0524 35.235 62.0526C35.1185 62.0687 35.0187 62.0849 34.9022 62.101C34.9689 62.1013 35.0187 62.0849 35.0852 62.0686C34.4693 62.1327 33.8362 62.1471 33.2189 62.0791C33.2522 62.0792 33.3024 62.0959 33.3357 62.096C33.2189 62.0791 33.1187 62.0622 33.0019 62.0453C33.0687 62.0621 33.1521 62.0623 33.2187 62.0626C32.6846 61.9783 32.15 61.8444 31.648 61.6446C31.715 61.6779 31.782 61.7111 31.8321 61.7278C31.7316 61.6779 31.6313 61.6446 31.5308 61.5947C31.5643 61.6113 31.5978 61.6279 31.6312 61.628C31.313 61.4784 30.9947 61.3122 30.7094 61.1131C30.6256 61.0633 30.5584 61.0135 30.4744 60.9472C30.4912 60.9638 30.5247 60.9804 30.5416 60.997C30.6592 61.0964 30.2729 60.7979 30.4407 60.9141C30.4574 60.9141 30.4576 60.9306 30.4742 60.9307C30.4574 60.9141 30.4406 60.8976 30.4237 60.881C30.2724 60.7484 30.1044 60.6157 29.9696 60.4667C29.8517 60.3507 29.7338 60.2182 29.6158 60.0857C29.6494 60.1188 29.5653 60.036 29.5314 59.9863C29.5314 59.9863 29.5314 59.9863 29.5313 59.9698C29.5144 59.9533 29.4974 59.9202 29.4639 59.9036C29.4808 59.9201 29.4976 59.9367 29.5144 59.9533C29.4636 59.8705 29.3962 59.8042 29.3454 59.7215C29.1424 59.4236 28.9727 59.1258 28.8362 58.8116C28.8534 58.8612 28.8706 58.9108 28.8876 58.9439C28.8366 58.8446 28.8022 58.7454 28.7512 58.6462C28.7684 58.6958 28.8022 58.7454 28.8196 58.8115C28.6316 58.3485 28.4934 57.8692 28.405 57.3735C28.4055 57.423 28.4227 57.4726 28.4234 57.5387C28.4055 57.423 28.3879 57.3239 28.37 57.2082C28.3705 57.2578 28.3879 57.3239 28.405 57.3735C28.35 56.8779 28.345 56.3824 28.3901 55.9037C28.3739 55.9532 28.3744 56.0027 28.3583 56.0522C28.3738 55.9366 28.3894 55.8376 28.4049 55.7221C28.4054 55.7716 28.3894 55.8376 28.3899 55.8871C28.4679 55.3589 28.6127 54.8475 28.8078 54.3692C28.7917 54.4187 28.7588 54.4681 28.7427 54.5176C28.7917 54.4187 28.824 54.3197 28.873 54.2208C28.8568 54.2703 28.8407 54.3198 28.8078 54.3692C29.0523 53.825 29.347 53.314 29.6753 52.8197C29.7575 52.7044 29.8396 52.589 29.9218 52.4737C29.9218 52.4737 29.9219 52.4902 29.9053 52.4902C29.7406 52.6878 30.0533 52.2925 29.9383 52.4572L29.9218 52.4737C29.9711 52.4078 30.0204 52.3419 30.0864 52.2761C30.2674 52.0454 30.4652 51.8314 30.6797 51.6174C31.4547 50.8107 32.3309 50.12 33.2071 49.4292C33.9675 48.8207 34.7448 48.2287 35.3872 47.4876C36.3425 46.3843 36.9124 45.065 37.6999 43.8455C37.7982 43.6807 37.9132 43.5159 38.0284 43.3677C37.9295 43.483 37.9789 43.4171 38.0284 43.3677C38.1435 43.2194 38.0612 43.3182 38.0448 43.3512L38.0284 43.3677C38.0449 43.3512 38.0613 43.3348 38.0613 43.3348C38.1273 43.2689 38.1767 43.203 38.2425 43.1207C38.4401 42.8901 38.6548 42.6926 38.8861 42.4952C38.9026 42.4788 38.9191 42.4623 38.9356 42.4458C38.8032 42.5445 38.8694 42.4952 38.9356 42.4458C39.0017 42.3965 39.0844 42.3307 38.9356 42.4458C38.9685 42.4129 39.0017 42.3965 39.0182 42.38C39.134 42.2979 39.2498 42.2157 39.3825 42.15C39.5978 42.0186 39.8134 41.9202 40.0291 41.8218C39.9793 41.8382 39.9294 41.8545 39.8796 41.8709C39.9791 41.8217 40.0787 41.789 40.1782 41.7398C40.1284 41.7561 40.0787 41.789 40.0289 41.8053C40.3942 41.6744 40.7598 41.5765 41.1425 41.5117C41.0925 41.5115 41.026 41.5278 40.976 41.5277C41.0925 41.5115 41.1923 41.4953 41.3088 41.4792C41.2588 41.479 41.209 41.4954 41.1425 41.5117C41.4921 41.4798 41.8421 41.4809 42.1924 41.5151C42.1422 41.4984 42.0755 41.4982 42.0254 41.4815C42.1422 41.4984 42.2424 41.5153 42.3592 41.5321C42.3092 41.532 42.259 41.5153 42.1924 41.5151C42.5262 41.5657 42.8605 41.6659 43.1783 41.7825C43.1281 41.7658 43.0946 41.7492 43.0443 41.716C43.1448 41.7659 43.2451 41.7992 43.3456 41.8491C43.2955 41.8324 43.2285 41.7992 43.1783 41.7825C43.396 41.8823 43.5969 41.982 43.7983 42.1148C43.9156 42.1812 44.0164 42.2641 44.1339 42.3471C44.1171 42.3305 44.1171 42.3305 44.1003 42.314C43.9994 42.2311 44.2514 42.43 44.2346 42.4135C44.2011 42.3969 44.1674 42.3637 44.1339 42.3471C44.2011 42.3969 44.2516 42.4466 44.3187 42.4963C44.5541 42.6953 44.7731 42.9272 44.9754 43.159C45.026 43.2252 45.0766 43.2749 45.1272 43.3412C45.1274 43.3577 45.144 43.3577 45.1442 43.3742C45.0259 43.2087 45.1949 43.4405 45.2117 43.457C45.1947 43.4239 45.1779 43.4074 45.1442 43.3742C45.2624 43.5233 45.3639 43.6722 45.4654 43.8212C45.8715 44.4335 46.2445 45.0622 46.6672 45.6581C47.056 46.2044 47.4777 46.7011 47.9325 47.1815C49.4986 48.7885 51.444 50.0003 53.0597 51.5579C53.2785 51.7733 53.4973 51.9887 53.6995 52.204C53.8006 52.3199 53.9018 52.4359 54.003 52.5518C54.0198 52.5683 54.0198 52.5683 54.0366 52.5849C54.0028 52.5353 54.0196 52.5518 54.0366 52.5849C54.0703 52.6181 54.1376 52.6843 54.138 52.7174C54.138 52.7174 54.0705 52.6346 54.0366 52.5849C54.0366 52.5849 54.0366 52.5849 54.0535 52.6015C54.0705 52.6346 54.1041 52.6677 54.121 52.6843C54.4756 53.1478 54.764 53.6442 55.0193 54.1735C55.0021 54.1239 54.9681 54.0577 54.951 54.0081C55.002 54.1073 55.0363 54.2065 55.0873 54.3058C55.0701 54.2562 55.0531 54.2231 55.036 54.1735C55.0873 54.3058 55.1386 54.4381 55.1901 54.5869C54.9668 53.9256 55.4267 53.2665 56.0413 53.0703C56.7057 52.8578 57.377 53.3224 57.5832 53.9341C56.8958 51.8841 55.4462 50.261 53.7991 48.885C52.2697 47.6084 50.5917 46.48 49.2766 44.973C49.2091 44.8902 49.1249 44.8074 49.0574 44.7246L49.0406 44.708L49.0408 44.7245C49.024 44.708 48.9901 44.6583 48.9733 44.6417C48.9565 44.6252 48.9396 44.6086 48.9226 44.5755C48.8888 44.5259 48.9226 44.5755 48.9565 44.6252C48.7706 44.3768 48.5846 44.112 48.4153 43.8472C48.0598 43.3011 47.7206 42.722 47.332 42.1923C46.5716 41.166 45.6457 40.2382 44.4902 39.6895C43.4855 39.2073 42.3829 38.9395 41.2838 39.0185C40.2012 39.0811 39.1545 39.3914 38.2268 39.9334C37.2161 40.5081 36.3912 41.3311 35.7175 42.2703C35.0274 43.2424 34.5556 44.3638 33.8822 45.3359C33.8329 45.4018 33.7835 45.4677 33.7509 45.5337C33.7674 45.5172 33.7672 45.5007 33.7839 45.5008C33.8332 45.4349 33.7839 45.5008 33.751 45.5502C33.7345 45.5666 33.7182 45.5996 33.7017 45.6161C33.7017 45.6161 33.718 45.5831 33.751 45.5502C33.751 45.5502 33.751 45.5502 33.7509 45.5337C33.685 45.616 33.619 45.6819 33.5699 45.7643C33.4381 45.9125 33.3063 46.0607 33.1743 46.1924C32.8773 46.4887 32.5635 46.7684 32.2329 47.0315C31.5222 47.6072 30.7946 48.1663 30.1007 48.7586C28.3824 50.2228 26.8847 52.0675 26.2404 54.2618C25.6117 56.357 25.9022 58.703 27.038 60.6058C28.125 62.624 30.1221 64.0012 32.3428 64.4212Z" fill="#183453"/>
<path d="M30.5631 61.1166C30.5462 61.1 30.5127 61.0834 30.4959 61.0668C30.4792 61.0668 30.4791 61.0503 30.4624 61.0502C30.2944 60.9176 30.664 61.216 30.5631 61.1166Z" fill="#183453"/>
<path d="M40.8167 63.3374C40.8829 63.3211 40.9492 63.3212 41.0155 63.3213C41.0653 63.3214 41.0983 63.3051 41.148 63.3052C41.032 63.305 40.9326 63.3212 40.8167 63.3374Z" fill="#183453"/>
<path d="M55.3728 56.8595C55.3732 56.9092 55.3568 56.959 55.3404 57.0087C55.341 57.0751 55.3246 57.1249 55.3252 57.1912C55.341 57.0751 55.357 56.9756 55.3728 56.8595Z" fill="#183453"/>
<path d="M55.3105 55.5C55.3108 55.5332 55.3113 55.583 55.3284 55.6162C55.3459 55.6826 55.3464 55.749 55.364 55.8319C55.3463 55.7324 55.3284 55.6162 55.3105 55.5Z" fill="#183453"/>
<path d="M42.8066 63.2891C42.8564 63.2892 42.9229 63.3056 42.9727 63.3221C43.0225 63.3222 43.089 63.3386 43.1387 63.3387C43.0223 63.3058 42.9063 63.3056 42.8066 63.2891Z" fill="#183453"/>
<path d="M28.9034 59.1033C28.8861 59.0535 28.8689 59.0038 28.8518 58.9706C28.8346 58.9208 28.8006 58.871 28.7832 58.8047C28.8177 58.9042 28.8521 59.0037 28.9034 59.1033Z" fill="#183453"/>
<path d="M51.9537 61.3446C51.9206 61.361 51.8875 61.3773 51.8376 61.3772C51.7714 61.4099 51.705 61.4262 51.6554 61.459C51.7549 61.4263 51.8542 61.3772 51.9537 61.3446Z" fill="#183453"/>
<path d="M50.1637 61.8521C50.0973 61.852 50.0311 61.8682 49.9648 61.8681C49.9151 61.868 49.8821 61.8843 49.8323 61.8843C49.9484 61.8844 50.0643 61.8683 50.1637 61.8521Z" fill="#183453"/>
<path d="M55.0851 58.1254C55.0522 58.1916 55.036 58.2412 55.0032 58.3074C54.9868 58.3405 54.9705 58.3901 54.9541 58.4232C55.0033 58.3239 55.0358 58.2246 55.0851 58.1254Z" fill="#183453"/>
<path d="M53.322 60.4999C53.3055 60.5163 53.289 60.5328 53.2559 60.5492C53.0576 60.7137 53.4873 60.3683 53.322 60.4999Z" fill="#183453"/>
<path d="M40.9809 41.5803C41.0306 41.5804 41.0968 41.5642 41.1466 41.5643C41.1962 41.548 41.2459 41.5481 41.3121 41.5319C41.1962 41.548 41.0802 41.5641 40.9809 41.5803Z" fill="#183453"/>
<path d="M45.1238 43.3883C45.1408 43.4214 45.1744 43.4381 45.1914 43.4712C45.1745 43.4546 45.0054 43.239 45.1238 43.3883Z" fill="#183453"/>
<path d="M53.9851 52.6495C53.9501 52.5983 53.9675 52.6154 53.9851 52.6495V52.6495Z" fill="#183453"/>
<path d="M44.2226 42.4635C44.2395 42.4801 43.9875 42.2812 44.0883 42.364C44.1052 42.3806 44.1052 42.3806 44.122 42.3972C44.1555 42.4138 44.1892 42.4469 44.2226 42.4635Z" fill="#183453"/>
<path d="M43.0371 41.7578C43.0872 41.7744 43.1206 41.791 43.1709 41.8241C43.221 41.8407 43.2878 41.8738 43.3379 41.8904C43.2376 41.8407 43.1374 41.8075 43.0371 41.7578Z" fill="#183453"/>
<path d="M54.8691 54.0547C54.8864 54.1044 54.9205 54.1708 54.9377 54.2206C54.955 54.2703 54.9721 54.3035 54.9893 54.3533C54.9548 54.2538 54.9204 54.1543 54.8691 54.0547Z" fill="#183453"/>
<path d="M55.9392 53.1132C55.3241 53.3095 54.8639 53.9691 55.0874 54.6309C55.2938 55.2431 55.9823 55.7082 56.6305 55.4954C57.2455 55.2991 57.7057 54.6395 57.4822 53.9777C57.2925 53.3655 56.6042 52.917 55.9392 53.1132Z" fill="#183453"/>
<path d="M33.8071 45.5905C33.7906 45.607 33.7908 45.6235 33.7741 45.6234C33.7741 45.6234 33.7741 45.6234 33.7742 45.64C33.8071 45.5905 33.8565 45.5244 33.8071 45.5905Z" fill="#183453"/>
<path d="M42.0234 41.5312C42.0732 41.5313 42.1397 41.5478 42.1895 41.5643C42.2393 41.5643 42.2892 41.5808 42.3555 41.5809C42.2393 41.5643 42.1231 41.5478 42.0234 41.5312Z" fill="#183453"/>
<path d="M28.7744 54.6419C28.7907 54.5923 28.8237 54.5427 28.8399 54.493C28.8561 54.4434 28.8724 54.3937 28.9054 54.3441C28.8561 54.4434 28.8237 54.5427 28.7744 54.6419Z" fill="#183453"/>
<path d="M28.4656 57.6757C28.4651 57.6259 28.4479 57.5761 28.4473 57.5097C28.43 57.4599 28.4294 57.3936 28.4121 57.3438C28.43 57.4599 28.4479 57.5761 28.4656 57.6757Z" fill="#183453"/>
<path d="M29.954 52.5981C29.9705 52.5816 29.9703 52.565 29.987 52.5651C30.1022 52.4001 29.8058 52.7961 29.954 52.5981Z" fill="#183453"/>
<path d="M48.9492 44.6562C48.966 44.6727 48.9829 44.7054 49.0162 44.7218C48.9996 44.7218 48.966 44.6727 48.9492 44.6562Z" fill="#183453"/>
<path d="M28.4032 56.1824C28.4028 56.1327 28.4192 56.0829 28.4355 56.0332C28.4351 55.9834 28.4513 55.9171 28.4509 55.8673C28.435 55.9668 28.419 56.0663 28.4032 56.1824Z" fill="#183453"/>
<path d="M39.9035 41.9277C39.9532 41.9114 40.003 41.8951 40.0527 41.8788C40.1025 41.8624 40.152 41.8297 40.2018 41.8134C40.1023 41.846 40.0028 41.8786 39.9035 41.9277Z" fill="#183453"/>
<path d="M38.0381 43.4158C37.9393 43.5478 38.0054 43.4819 38.0381 43.4158L38.0546 43.3993C38.0877 43.3663 38.1534 43.2673 38.0381 43.4158Z" fill="#183453"/>
<path d="M38.9618 42.495C38.8296 42.6101 38.8791 42.5607 38.9618 42.495C39.0279 42.4456 39.1107 42.3964 38.9618 42.495Z" fill="#183453"/>
<path d="M28.547 59.5059C29.2884 58.6159 30.1137 57.7757 31.0067 57.0349C31.1554 56.9031 31.2528 56.639 31.251 56.4572C31.2489 56.2589 31.163 56.0107 30.9949 55.8779C30.8266 55.7286 30.6255 55.6288 30.4087 55.6281C30.1753 55.6438 29.9927 55.7259 29.8275 55.8741C28.9346 56.6314 28.1092 57.4551 27.3678 58.3452C27.2194 58.5099 27.1211 58.6914 27.1235 58.9228C27.1255 59.1212 27.2114 59.3694 27.3796 59.5021C27.6826 59.7841 28.2505 59.8686 28.547 59.5059Z" fill="#183453"/>
<path d="M30.6806 61.5103C32.0826 59.9443 33.4844 58.3618 34.9031 56.7959C35.1835 56.4827 35.2447 55.9373 34.8912 55.6221C34.5713 55.34 34.0202 55.272 33.7067 55.6182C32.3047 57.1842 30.9029 58.7667 29.4842 60.3326C29.2038 60.6458 29.1426 61.1911 29.4962 61.5064C29.816 61.7885 30.3672 61.8564 30.6806 61.5103Z" fill="#183453"/>
<path d="M32.7186 63.2982C34.2065 61.9973 35.5596 60.5636 36.7613 59.0138C36.8929 58.8324 37.008 58.6674 37.0056 58.436C37.0036 58.2376 36.9177 57.9894 36.7496 57.8566C36.4466 57.5912 35.8452 57.49 35.5653 57.8528C34.3637 59.4191 33.0106 60.8528 31.5226 62.1372C31.1918 62.4172 31.2146 63.0123 31.5345 63.3109C31.9047 63.6262 32.3715 63.6112 32.7186 63.2982Z" fill="#183453"/>
<path d="M51.41 55.252C51.4262 55.2024 51.459 55.1362 51.41 55.252C51.3609 55.3678 51.3934 55.2685 51.41 55.252Z" fill="#183453"/>
<path d="M51.5735 54.6518C51.5738 54.685 51.5739 54.7016 51.5741 54.7182C51.558 54.8178 51.5893 54.5191 51.5735 54.6518Z" fill="#183453"/>
<path d="M51.1498 55.6954L51.1327 55.7124L51.1156 55.7294C51.1329 55.7294 51.1327 55.7124 51.1498 55.6954Z" fill="#183453"/>
<path d="M51.5683 54.6376C51.5685 54.6541 51.5685 54.6541 51.5686 54.6707C51.6006 54.5218 51.5536 54.8362 51.5693 54.7369C51.5691 54.7204 51.5689 54.7038 51.5686 54.6707C51.5532 54.8031 51.5211 54.9355 51.4721 55.0512C51.4559 55.1008 51.4399 55.167 51.4069 55.2166C51.4069 55.2166 51.4069 55.2166 51.4071 55.2331C51.4235 55.2 51.4395 55.1339 51.4073 55.2497C51.3583 55.3654 51.3907 55.2662 51.4071 55.2331L51.4073 55.2497C51.3583 55.3654 51.2926 55.4811 51.2102 55.5967C51.1773 55.6463 51.1609 55.6794 51.1278 55.7124C51.1276 55.6958 51.1443 55.6959 51.1443 55.6959C51.1609 55.6794 51.1774 55.6629 51.1443 55.6959C51.1278 55.7124 51.128 55.7289 51.1114 55.7454L51.1279 55.7289C51.1114 55.7454 51.095 55.7785 51.0785 55.795C50.9792 55.894 50.8799 55.9931 50.7639 56.092C50.4325 56.3725 50.4553 56.9851 50.7757 57.2676C51.1467 57.5998 51.5976 57.5681 51.9623 57.2712C53.073 56.3641 53.5082 54.7595 53.0935 53.4006C52.9724 52.9863 52.4847 52.6868 52.0515 52.8179C51.6182 52.949 51.3386 53.3952 51.4768 53.8426C51.4941 53.9089 51.5115 53.9752 51.5289 54.0414C51.5292 54.0746 51.5463 54.1077 51.5468 54.1574C51.5648 54.2899 51.5292 54.0746 51.5292 54.0746C51.5627 54.0747 51.5496 54.4389 51.5499 54.472C51.567 54.5051 51.5676 54.5714 51.5683 54.6376Z" fill="#183453"/>
<path d="M49.4238 27.2812C49.4407 27.2978 49.4577 27.331 49.4746 27.3476C49.5083 27.3808 49.542 27.414 49.559 27.4471C49.5085 27.3973 49.4746 27.3476 49.4238 27.2812Z" fill="#183453"/>
<path d="M49.6738 27.6562C49.6911 27.706 49.7081 27.7392 49.7254 27.7889C49.7423 27.8056 49.7593 27.8387 49.7595 27.8553C49.7421 27.789 49.708 27.7226 49.6738 27.6562Z" fill="#183453"/>
<path d="M49.8438 28.125C49.844 28.1582 49.8442 28.1748 49.8444 28.208C49.8617 28.2578 49.8621 28.3076 49.8624 28.3408C49.8619 28.2744 49.8443 28.1914 49.8438 28.125Z" fill="#183453"/>
<path d="M50.1052 29.2962C50.2571 29.4457 50.4919 29.5457 50.6924 29.5464C50.9094 29.5305 51.1259 29.465 51.2746 29.2999C51.4233 29.1349 51.4883 28.953 51.5194 28.7214C51.6096 27.7286 51.1813 26.668 50.4394 25.9871C50.2876 25.8377 50.0694 25.7377 49.8522 25.737C49.6517 25.7363 49.402 25.8183 49.27 25.9834C48.9726 26.3135 48.9444 26.8265 49.2818 27.1586C49.3493 27.225 49.4001 27.2913 49.4676 27.3578C49.4507 27.3412 49.4337 27.308 49.4168 27.2914C49.4674 27.3412 49.5015 27.4075 49.5521 27.4573C49.5184 27.4241 49.5013 27.391 49.4676 27.3578C49.5692 27.4905 49.6542 27.6397 49.7227 27.8054C49.7055 27.7557 49.6884 27.7226 49.6712 27.6729C49.7053 27.7392 49.7227 27.8054 49.7568 27.8717C49.7397 27.8386 49.7396 27.822 49.7227 27.8054C49.7741 27.938 49.8089 28.0705 49.8438 28.2196C49.8435 28.1865 49.8433 28.1699 49.843 28.1368C49.8603 28.2031 49.8612 28.2859 49.8785 28.3521C49.878 28.3025 49.8608 28.2527 49.8605 28.2196C49.8789 28.3852 49.8807 28.5673 49.8657 28.7327C49.8341 28.9147 49.9535 29.1633 50.1052 29.2962Z" fill="#183453"/>
<path d="M33.9941 27.6285C34.0106 27.5954 34.027 27.5623 34.0432 27.5127C34.0596 27.4796 34.0593 27.4465 34.0759 27.4299C34.0431 27.4961 34.027 27.5623 33.9941 27.6285Z" fill="#183453"/>
<path d="M32.8252 28.6808C33.0428 28.7311 33.2763 28.7153 33.4755 28.6002C33.658 28.4849 33.7899 28.3199 33.8545 28.105C33.9026 27.9067 33.9674 27.7083 34.0489 27.5101C34.0325 27.5431 34.0162 27.5761 34 27.6257C34.0327 27.5596 34.0487 27.4935 34.0814 27.4274C34.0651 27.4605 34.0654 27.4936 34.0489 27.5101C34.1956 27.1631 34.3927 26.8328 34.6067 26.5357C34.7219 26.3706 34.7358 26.0894 34.6837 25.8907C34.6316 25.692 34.4793 25.493 34.2946 25.3931C34.0932 25.2932 33.859 25.2428 33.6426 25.3083C33.5761 25.3412 33.5095 25.3575 33.443 25.3904C33.3101 25.4561 33.2277 25.5551 33.1455 25.6872C32.7341 26.2815 32.4236 26.9423 32.2304 27.6531C32.1825 27.868 32.2015 28.0997 32.3204 28.2986C32.4224 28.481 32.6243 28.6305 32.8252 28.6808Z" fill="#183453"/>
<path d="M25.0703 42.125C25.0705 42.1411 25.087 42.1573 25.0871 42.1734C25.0871 42.1734 25.0871 42.1734 25.087 42.1573C25.0868 42.1412 25.0703 42.125 25.0703 42.125Z" fill="#183453"/>
<path d="M25.1198 42.2374C25.103 42.221 25.1028 42.2046 25.0859 42.1719C25.0861 42.1882 25.0861 42.1882 25.0863 42.2046C25.1032 42.2373 25.1032 42.2373 25.1198 42.2374Z" fill="#183453"/>
<path d="M25.1387 42.2685L25.1385 42.2515C25.1385 42.2515 25.1385 42.2515 25.1211 42.2344C25.1213 42.2514 25.1213 42.2514 25.1387 42.2685Z" fill="#183453"/>
<path d="M25.084 42.2031C25.1014 42.2202 25.1016 42.2372 25.1189 42.2373L25.1187 42.2203C25.1014 42.2202 25.1014 42.2202 25.084 42.2031Z" fill="#183453"/>
<path d="M25.1541 42.3007C25.154 42.2842 25.137 42.2675 25.1369 42.251C25.1369 42.251 25.1369 42.251 25.1367 42.2344C25.137 42.2675 25.1372 42.2841 25.1541 42.3007Z" fill="#183453"/>
<path d="M25.1345 42.2509L25.1344 42.2344C25.1177 42.2343 25.1345 42.2509 25.1345 42.2509Z" fill="#183453"/>
<path d="M25.088 42.187C25.1048 42.2037 25.105 42.2202 25.1221 42.2534C25.1221 42.2534 25.1221 42.2534 25.1389 42.27C25.1388 42.2534 25.1388 42.2534 25.1219 42.2368C25.1049 42.2037 25.1047 42.1871 25.088 42.187Z" fill="#183453"/>
<path d="M25.1543 42.2516C25.1378 42.2354 25.1376 42.2193 25.1211 42.2031C25.1213 42.2192 25.1213 42.2192 25.1378 42.2354C25.1379 42.2515 25.1379 42.2515 25.1543 42.2516Z" fill="#183453"/>
<path d="M25.1185 42.2089C25.1014 42.1757 25.1011 42.1426 25.084 42.1094C25.0841 42.126 25.0843 42.1425 25.0845 42.1591C25.1014 42.1757 25.1015 42.1923 25.1185 42.2089Z" fill="#183453"/>
<path d="M25.0685 42.0906C25.0686 42.1072 25.0689 42.1403 25.0859 42.157C25.0859 42.157 25.0859 42.157 25.0861 42.1736C25.0859 42.157 25.0858 42.1404 25.0856 42.1238C25.0853 42.0906 25.0851 42.074 25.0685 42.0906C25.0683 42.074 25.0683 42.074 25.0685 42.0906Z" fill="#183453"/>
<path d="M25.0684 41.9922C25.0685 42.0088 25.0688 42.0419 25.0858 42.0586L25.0856 42.042C25.0688 42.0419 25.0687 42.0254 25.0684 41.9922Z" fill="#183453"/>
<path d="M25.0877 42.1445C25.0876 42.1279 25.0873 42.0947 25.0703 42.0781C25.0705 42.0947 25.0705 42.0947 25.0706 42.1113C25.0708 42.1279 25.0877 42.1445 25.0877 42.1445Z" fill="#183453"/>
<path d="M25.0688 42.1108C25.0688 42.1108 25.0687 42.0947 25.0849 42.0787L25.0847 42.0625C25.0685 42.0786 25.0687 42.0947 25.0688 42.1108Z" fill="#183453"/>
<path d="M25.1409 42.2627C25.1411 42.2793 25.1579 42.2959 25.1581 42.3124C25.1412 42.2958 25.1411 42.2793 25.1409 42.2627C25.124 42.2461 25.1072 42.2295 25.107 42.213C25.107 42.213 25.107 42.213 25.1072 42.2295C25.1072 42.2295 25.1072 42.2295 25.107 42.213C25.107 42.213 25.1068 42.1964 25.0901 42.1964C25.0901 42.1964 25.0901 42.1964 25.107 42.213C25.1068 42.1964 25.1067 42.1799 25.1065 42.1633C25.1063 42.1468 25.0895 42.1302 25.0893 42.1136C25.0895 42.1302 25.0895 42.1302 25.0895 42.1302C25.0893 42.1137 25.0893 42.1136 25.0891 42.0971C25.0891 42.0971 25.0891 42.0971 25.089 42.0806C25.089 42.0806 25.089 42.0806 25.0891 42.0971C25.089 42.0806 25.0888 42.064 25.0886 42.0475C25.0885 42.0309 25.0881 41.9978 25.0713 41.9812C25.0714 41.9978 25.0716 42.0143 25.0885 42.0309C25.088 41.9813 25.1043 41.9482 25.1038 41.8986C25.1042 41.9317 25.1045 41.9648 25.105 42.0144C25.1048 41.9979 25.1047 41.9813 25.121 41.9483C25.1858 41.7499 25.1332 41.5016 25.031 41.3027C24.9799 41.2033 24.9123 41.1203 24.8116 41.0704C24.7274 41.0039 24.6434 40.954 24.5262 40.9205C24.3086 40.8702 24.075 40.886 23.8758 41.0012C23.6933 41.1164 23.5614 41.2815 23.4968 41.4963C23.4806 41.5459 23.4645 41.6121 23.465 41.6617C23.4495 41.7775 23.4341 41.9098 23.4353 42.0256C23.4365 42.1414 23.4545 42.2739 23.4724 42.3897C23.4896 42.4394 23.4903 42.5056 23.5075 42.5553C23.5592 42.7209 23.6277 42.8866 23.7294 43.0359C23.7972 43.1353 23.8817 43.2349 23.9495 43.3344C23.9834 43.3841 24.0338 43.4174 24.0677 43.4671C24.2362 43.6166 24.4376 43.7165 24.6547 43.7172C24.8551 43.7178 25.1047 43.6359 25.2366 43.4709C25.3852 43.3059 25.4834 43.1077 25.4812 42.8926C25.4624 42.6774 25.3934 42.4621 25.2249 42.3126C25.2084 42.3291 25.1746 42.2959 25.1409 42.2627C25.1746 42.2959 25.1917 42.3291 25.2254 42.3623C25.1917 42.3291 25.1579 42.2959 25.1409 42.2627Z" fill="#183453"/>
<path d="M25.0675 42.0547L25.0676 42.0713C25.0675 42.0547 25.0675 42.0547 25.0674 42.0381C25.0671 42.0049 25.0668 41.9717 25.0664 41.9219C25.0836 41.9551 25.084 42.0049 25.0675 42.0547Z" fill="#183453"/>
<path d="M59.1542 44.9608C59.2884 45.0438 59.4222 45.0773 59.5723 45.0778C59.6388 45.0615 59.7222 45.0618 59.7887 45.0455C59.9218 45.0129 60.0543 44.9307 60.1534 44.8318C60.4177 44.5848 60.6988 44.3544 60.9631 44.1073C61.0456 44.025 61.0948 43.9425 61.1272 43.8435C61.1762 43.7445 61.2085 43.6454 61.1907 43.5297C61.1895 43.414 61.1718 43.3148 61.1208 43.2155C61.0864 43.1162 61.0354 43.0169 60.9513 42.9505C60.9008 42.9007 60.8337 42.8675 60.7832 42.8177C60.649 42.7347 60.5152 42.7012 60.3651 42.7007C60.2986 42.717 60.2152 42.7167 60.1487 42.733C60.0156 42.7656 59.883 42.8478 59.784 42.9467C59.5197 43.1937 59.2386 43.4241 58.9743 43.6712C58.8918 43.7535 58.8426 43.836 58.8102 43.935C58.7612 44.034 58.7289 44.1331 58.7467 44.2488C58.7479 44.3645 58.7656 44.4637 58.8166 44.563C58.851 44.6623 58.902 44.7616 58.9861 44.828C59.0366 44.8778 59.1038 44.9276 59.1542 44.9608Z" fill="#183453"/>
</svg>
