<svg width="16" height="16" viewBox="0 0 16 16" fill="none" xmlns="http://www.w3.org/2000/svg">
<path d="M6.73121 5.28736C7.69535 4.38936 7.10158 1.70713 6.80175 1.14955C6.33144 0.280904 5.24384 0.0872197 4.40316 1.24933C3.76236 2.13558 3.50369 3.28595 3.68593 4.36002C4.00339 6.26752 6.09628 5.87428 6.73121 5.28736Z" fill="#183453"/>
<path d="M3.08613 9.54083C4.22663 8.86 3.62699 6.65317 2.76279 5.64366C2.13962 4.91587 1.46943 5.09782 0.969719 5.91364C0.405344 6.83511 0.252494 8.20264 0.75808 9.00673C1.45767 10.1043 2.75691 9.73451 3.08613 9.54083Z" fill="#183453"/>
<path d="M12.3276 4.61558C12.5099 3.53564 12.2512 2.38527 11.6104 1.50489C10.7697 0.348652 9.68211 0.536468 9.2118 1.40511C8.91198 1.96269 8.31233 4.64493 9.28235 5.54292C9.91139 6.13571 12.0102 6.52308 12.3276 4.61558Z" fill="#183453"/>
<path d="M15.2447 9.26454C15.7503 8.46045 15.5975 7.09292 15.0331 6.17146C14.5334 5.35563 13.8632 5.17369 13.24 5.90147C12.3817 6.91098 11.7821 9.11781 12.9167 9.79864C13.2518 10.0041 14.551 10.368 15.2447 9.26454Z" fill="#183453"/>
<path d="M6.41896 4.97656C6.4072 4.98243 6.39544 4.99416 6.38369 5.00003C6.38369 5.00003 6.38368 5.00003 6.3778 5.00589C6.31314 5.05869 6.39544 4.99416 6.41896 4.97656Z" fill="#183453"/>
<path d="M6.13707 5.15625C6.11943 5.162 6.1018 5.16774 6.09004 5.17349C6.0724 5.17923 6.05477 5.19072 6.03125 5.19647C6.06652 5.18498 6.1018 5.17349 6.13707 5.15625Z" fill="#183453"/>
<path d="M5.15664 5.33755C5.13313 5.3318 5.10961 5.3318 5.09197 5.32606C5.07434 5.32606 5.0567 5.32606 5.03906 5.32031C5.07434 5.32606 5.11549 5.3318 5.15664 5.33755Z" fill="#183453"/>
<path d="M5.61953 5.3125C5.60189 5.3125 5.57838 5.31825 5.56074 5.31825C5.54311 5.32399 5.52547 5.32399 5.50195 5.32974C5.54311 5.32399 5.58426 5.31825 5.61953 5.3125Z" fill="#183453"/>
<path d="M4.82066 5.26678C4.80303 5.26104 4.78539 5.24955 4.76776 5.2438C4.75012 5.23805 4.73248 5.23231 4.71484 5.22656C4.75012 5.23805 4.78539 5.25529 4.82066 5.26678Z" fill="#183453"/>
<path d="M4.35772 4.91666C4.31656 4.86973 4.4165 4.99878 4.39299 4.96359C4.38711 4.95772 4.38123 4.94599 4.37535 4.94012C4.36947 4.93426 4.3636 4.92252 4.35772 4.91666Z" fill="#183453"/>
<path d="M4.25211 4.74035C4.24623 4.72275 4.23447 4.70515 4.2286 4.68755C4.22272 4.66996 4.21096 4.65236 4.20508 4.64062C4.22271 4.66996 4.23448 4.70515 4.25211 4.74035Z" fill="#183453"/>
<path d="M4.51571 5.08938C4.48044 5.06592 4.61565 5.17151 4.56862 5.13044C4.56274 5.12458 4.55686 5.11871 4.55098 5.11871L4.5451 5.11285C4.53335 5.10111 4.52159 5.09525 4.51571 5.08938Z" fill="#183453"/>
<path d="M6.79653 4.03906C6.79079 4.06253 6.79079 4.09186 6.78504 4.11532C6.78504 4.12705 6.78504 4.13879 6.7793 4.15638C6.79079 4.11532 6.79653 4.07426 6.79653 4.03906Z" fill="#183453"/>
<path d="M6.75391 2.67969C6.75391 2.69729 6.75965 2.71488 6.75965 2.73248C6.75965 2.75595 6.7654 2.77355 6.77114 2.79701C6.7654 2.76181 6.75965 2.72075 6.75391 2.67969Z" fill="#183453"/>
<path d="M6.67108 4.60156C6.66533 4.61916 6.65959 4.63089 6.65384 4.64849C6.64809 4.66609 6.63661 4.68955 6.63086 4.70715C6.64235 4.67196 6.65384 4.63676 6.67108 4.60156Z" fill="#183453"/>
<path d="M6.58081 0.776824C6.37505 0.911745 6.3045 1.16399 6.42208 1.38103C6.42796 1.3869 6.43384 1.39863 6.43384 1.4045C6.43384 1.39863 6.42796 1.39277 6.42796 1.3869C6.43384 1.39277 6.43384 1.39863 6.43972 1.41036C6.56317 1.59221 6.83948 1.66261 7.02761 1.53942C7.23337 1.4045 7.30392 1.15226 7.18634 0.935209C7.07464 0.735761 6.77482 0.653636 6.58081 0.776824Z" fill="#183453"/>
<path d="M4.75064 6.15738C5.19743 6.26303 5.67362 6.23368 6.11454 6.10456C6.49079 5.99304 6.89056 5.80523 7.14923 5.50003C7.50784 5.0657 7.64306 4.52574 7.69009 3.97403C7.73712 3.43406 7.68421 2.88822 7.59603 2.35412C7.53136 1.96088 7.44905 1.56764 7.30208 1.19788C7.26681 1.10984 7.23154 1.02181 7.19038 0.939636C7.30796 1.1568 7.23741 1.40917 7.03165 1.54417C6.84353 1.66742 6.56722 1.59699 6.44376 1.41504C6.45552 1.44439 6.46728 1.47374 6.47903 1.49721C6.47315 1.47961 6.4614 1.45613 6.44964 1.43852C6.61425 1.85524 6.70831 2.30717 6.7671 2.74736C6.7671 2.72975 6.76122 2.71214 6.76122 2.69454C6.7671 2.73562 6.77298 2.77084 6.77886 2.81192C6.77886 2.78844 6.77298 2.77084 6.7671 2.74736C6.82589 3.20516 6.8494 3.66883 6.79061 4.12076C6.79649 4.09728 6.79649 4.06794 6.80237 4.04446C6.79649 4.08554 6.79062 4.12076 6.78474 4.16184C6.78474 4.1501 6.78474 4.13837 6.79061 4.12076C6.76122 4.3027 6.72007 4.47878 6.6554 4.64899C6.66128 4.63138 6.66716 4.61964 6.67304 4.60203C6.6554 4.63725 6.64364 4.67247 6.62601 4.70768C6.63189 4.69007 6.64364 4.6666 6.64952 4.64899C6.60837 4.73116 6.56722 4.81333 6.51431 4.88963C6.51431 4.88963 6.51431 4.88963 6.51431 4.88376C6.53195 4.86028 6.54958 4.84267 6.52019 4.87789L6.51431 4.88376C6.51431 4.88376 6.51431 4.88376 6.50843 4.88963C6.50843 4.88963 6.48491 4.91897 6.48491 4.92484C6.48491 4.92484 6.49667 4.90723 6.50843 4.88963C6.49667 4.90723 6.47903 4.91897 6.46728 4.93658C6.43788 4.96593 6.40849 4.99527 6.37909 5.02462C6.39085 5.01875 6.40261 5.00701 6.41437 5.00114C6.39085 5.01875 6.30855 5.08331 6.37321 5.03049C6.37321 5.03049 6.37321 5.03049 6.37909 5.02462L6.37321 5.03049C6.33794 5.05397 6.30267 5.07744 6.26739 5.09505C6.20861 5.13027 6.14982 5.15961 6.09103 5.18309C6.10866 5.17722 6.1263 5.17135 6.13806 5.16548C6.10278 5.18309 6.06751 5.19483 6.03224 5.21243C6.04987 5.20656 6.06751 5.19483 6.09103 5.18896C5.92054 5.25352 5.74417 5.30634 5.56193 5.33569C5.57956 5.33569 5.60308 5.32982 5.62071 5.32982C5.57956 5.33569 5.54429 5.34156 5.50314 5.34743C5.52077 5.34743 5.53841 5.34156 5.56193 5.33569C5.40319 5.3533 5.24446 5.3533 5.08573 5.33569C5.10925 5.34156 5.13277 5.34156 5.1504 5.34743C5.10925 5.34156 5.07398 5.33569 5.03282 5.32982C5.05046 5.32982 5.0681 5.32982 5.08573 5.33569C4.97991 5.31808 4.87409 5.28873 4.76827 5.25352C4.78591 5.25939 4.80354 5.27113 4.82118 5.277C4.78591 5.25939 4.75063 5.24765 4.71536 5.23004C4.733 5.23591 4.75064 5.24178 4.76827 5.24765C4.70948 5.2183 4.65069 5.18896 4.59778 5.15374C4.58015 5.142 4.56839 5.13027 4.55075 5.11853C4.55663 5.1244 4.56251 5.13027 4.56839 5.13027C4.61542 5.17135 4.48609 5.0657 4.51548 5.08918C4.52724 5.09505 4.53312 5.10092 4.54488 5.10679L4.55075 5.11266C4.52136 5.08918 4.49196 5.0657 4.46845 5.03636C4.43905 5.00701 4.40966 4.9718 4.38026 4.94245C4.38614 4.94832 4.39202 4.96006 4.3979 4.96593C4.42142 5.00114 4.3156 4.86615 4.36263 4.91897C4.36851 4.92484 4.37438 4.93658 4.38026 4.94245C4.36851 4.93071 4.36263 4.91897 4.35087 4.90723C4.30384 4.8368 4.26269 4.7605 4.22741 4.6842C4.23329 4.70181 4.23917 4.71942 4.25093 4.73703C4.23329 4.70181 4.22153 4.6666 4.2039 4.63138C4.20977 4.64899 4.22153 4.6666 4.22741 4.67834C4.16862 4.51987 4.12747 4.35553 4.10396 4.18532C4.10396 4.20293 4.10983 4.22054 4.10983 4.23814C4.10396 4.19706 4.09808 4.16184 4.0922 4.12076C4.09808 4.14424 4.09808 4.16184 4.10396 4.18532C4.0628 3.8449 4.0628 3.50449 4.10396 3.16407C4.10396 3.18168 4.09808 3.19929 4.09808 3.2169C4.10396 3.17581 4.10983 3.1406 4.11571 3.09951C4.11571 3.12299 4.10983 3.1406 4.10983 3.16407C4.16274 2.8354 4.25093 2.50672 4.37439 2.19565C4.36851 2.21326 4.35675 2.23087 4.35087 2.24847C4.36851 2.21326 4.38027 2.17804 4.3979 2.14283C4.39202 2.16044 4.38614 2.17804 4.37439 2.19565C4.43905 2.05479 4.5096 1.91393 4.58602 1.77894C4.62718 1.70851 4.67421 1.63221 4.72124 1.56177C4.74476 1.52656 4.77415 1.48548 4.79767 1.45026C4.80355 1.44439 4.80943 1.43852 4.80943 1.43265C4.79767 1.44439 4.79179 1.45613 4.78003 1.46787C4.79767 1.44439 4.82118 1.40918 4.80943 1.43265C4.81531 1.42678 4.82118 1.41504 4.82706 1.40917C4.91525 1.30353 5.01519 1.20962 5.12101 1.11571C5.11513 1.12158 5.12101 1.11571 5.16804 1.06876C5.1504 1.08637 5.13277 1.09811 5.12101 1.11571C5.13277 1.10397 5.16804 1.07463 5.19155 1.06289C5.22095 1.04528 5.25034 1.02181 5.28562 1.0042C5.32677 0.980721 5.3738 0.957244 5.41495 0.939636C5.39732 0.945506 5.37968 0.951375 5.36204 0.957244C5.39731 0.939637 5.43259 0.927898 5.46786 0.91029C5.45022 0.91616 5.43259 0.927899 5.41495 0.933768C5.4855 0.910291 5.55605 0.886814 5.62659 0.875076C5.60308 0.875076 5.58544 0.880944 5.56193 0.880944C5.60308 0.875075 5.63835 0.869206 5.6795 0.863337C5.66187 0.863337 5.64423 0.869206 5.62659 0.875076C5.68538 0.869206 5.74417 0.869206 5.80884 0.875076C5.7912 0.869206 5.76769 0.869206 5.75005 0.863337C5.7912 0.869206 5.82648 0.875075 5.86763 0.880944C5.84999 0.880944 5.82648 0.875076 5.80884 0.875076C5.86763 0.886814 5.92054 0.898553 5.97345 0.92203C5.96169 0.91616 5.94405 0.910291 5.9323 0.904422C5.96757 0.922029 6.00284 0.933768 6.03812 0.951376C6.0146 0.945506 5.99696 0.933767 5.97345 0.927898C6.02048 0.951375 6.06751 0.974852 6.11454 1.0042C6.1263 1.01007 6.13806 1.02181 6.14982 1.02767C6.14394 1.02181 6.13806 1.01594 6.13218 1.01007C6.07927 0.963114 6.22624 1.07463 6.16745 1.03941C6.16157 1.03354 6.1557 1.02767 6.14982 1.02767C6.17333 1.04528 6.19097 1.06289 6.21448 1.0805C6.238 1.10398 6.26739 1.13332 6.29091 1.1568C6.30267 1.16854 6.30855 1.17441 6.31442 1.18614C6.30855 1.18028 6.30267 1.17441 6.30267 1.16854C6.27915 1.13919 6.38497 1.26831 6.32618 1.19788L6.3203 1.19201C6.36145 1.25071 6.40261 1.3094 6.43788 1.37396C6.3203 1.1568 6.39085 0.904421 6.59661 0.769429C6.79062 0.646175 7.09044 0.722475 7.20214 0.927898C6.90231 0.38206 6.34382 -0.0170471 5.70302 0.000560563C4.94464 0.0181682 4.35675 0.552267 3.95698 1.14506C3.52195 1.79067 3.28679 2.5478 3.22212 3.31667C3.18685 3.70404 3.21624 4.09141 3.28091 4.47291C3.32794 4.75464 3.422 5.03636 3.57486 5.28286C3.81589 5.72893 4.25093 6.04 4.75064 6.15738Z" fill="#183453"/>
<path d="M6.51937 4.875C6.51438 4.88 6.51438 4.88 6.51937 4.875V4.875Z" fill="#183453"/>
<path d="M4.3457 2.25403C4.35158 2.23643 4.36334 2.21883 4.36922 2.20123C4.3751 2.18363 4.38098 2.16604 4.39273 2.14844C4.3751 2.18363 4.35746 2.21883 4.3457 2.25403Z" fill="#183453"/>
<path d="M6.29051 1.17786C6.29625 1.18372 6.302 1.18959 6.302 1.19545L6.30775 1.20132C6.37095 1.27758 6.26753 1.14266 6.29051 1.17786Z" fill="#183453"/>
<path d="M6.12108 1.01687C6.12696 1.02261 6.13284 1.02836 6.13872 1.03411C6.1446 1.03985 6.15048 1.0456 6.15636 1.0456C6.21515 1.08582 6.06817 0.976649 6.12108 1.01687Z" fill="#183453"/>
<path d="M5.74414 0.875C5.76178 0.875 5.78529 0.880746 5.80293 0.886492C5.82057 0.886492 5.84408 0.892237 5.86172 0.892237C5.82057 0.886492 5.77941 0.880746 5.74414 0.875Z" fill="#183453"/>
<path d="M5.92578 0.914062C5.93754 0.919808 5.95517 0.925554 5.96693 0.9313C5.99045 0.937045 6.00809 0.948536 6.0316 0.954282C5.99633 0.942791 5.96105 0.925554 5.92578 0.914062Z" fill="#183453"/>
<path d="M6.4314 1.40747C6.4314 1.40186 6.42578 1.39624 6.42578 1.39062C6.4314 1.39624 6.4314 1.40186 6.4314 1.40747Z" fill="#183453"/>
<path d="M6.41992 1.38281C6.42567 1.40041 6.43716 1.41801 6.44291 1.43561C6.43716 1.42388 6.43716 1.41801 6.43141 1.40628C6.42567 1.40041 6.42567 1.38868 6.41992 1.38281Z" fill="#183453"/>
<path d="M5.11516 1.12505C5.1328 1.10746 5.15044 1.09572 5.1622 1.07812C5.11517 1.12505 5.10928 1.13679 5.11516 1.12505Z" fill="#183453"/>
<path d="M5.55469 0.892237C5.5782 0.892237 5.59584 0.886492 5.61936 0.886492C5.63699 0.880746 5.65463 0.880746 5.67227 0.875C5.63111 0.880746 5.58996 0.886492 5.55469 0.892237Z" fill="#183453"/>
<path d="M4.77344 1.48814C4.77918 1.47665 4.79067 1.46516 4.80217 1.45366C4.8194 1.43068 4.79067 1.45941 4.77344 1.48814Z" fill="#183453"/>
<path d="M4.09375 3.2267C4.09375 3.2091 4.09949 3.1915 4.09949 3.1739C4.09949 3.15044 4.10524 3.13284 4.10524 3.10938C4.10524 3.15044 4.0995 3.1915 4.09375 3.2267Z" fill="#183453"/>
<path d="M6.44325 1.41996C6.45474 1.43755 6.46048 1.46102 6.47198 1.47862C6.46048 1.44929 6.44899 1.41996 6.4375 1.39649C6.4375 1.39649 6.4375 1.39649 6.4375 1.39062C6.4375 1.40236 6.4375 1.41409 6.44325 1.41996Z" fill="#183453"/>
<path d="M5.35742 0.969907C5.37506 0.964161 5.39269 0.958417 5.41033 0.952671C5.42797 0.946925 5.4456 0.935433 5.46324 0.929688C5.42797 0.941179 5.3927 0.95267 5.35742 0.969907Z" fill="#183453"/>
<path d="M4.10903 4.24232C4.10903 4.22472 4.10329 4.20713 4.10329 4.18953C4.09754 4.16606 4.09754 4.14846 4.0918 4.125C4.09754 4.16606 4.10329 4.20713 4.10903 4.24232Z" fill="#183453"/>
<path d="M1.12891 6.57434C1.13479 6.55674 1.14067 6.54501 1.15242 6.52741C1.1583 6.50981 1.17006 6.48635 1.17594 6.46875C1.1583 6.50395 1.14654 6.53914 1.12891 6.57434Z" fill="#183453"/>
<path d="M1.71715 9.25116C1.69951 9.24541 1.68188 9.23392 1.66424 9.22817C1.6466 9.22243 1.62896 9.21668 1.61133 9.21094C1.6466 9.22243 1.68187 9.23392 1.71715 9.25116Z" fill="#183453"/>
<path d="M2.02383 9.31411C2.00031 9.30837 1.98268 9.30837 1.95916 9.30262C1.94152 9.30262 1.92389 9.30262 1.90625 9.29688C1.9474 9.30262 1.98268 9.30837 2.02383 9.31411Z" fill="#183453"/>
<path d="M1.05975 8.63684C1.054 8.61924 1.04826 8.60164 1.04251 8.58405C1.03677 8.56645 1.02528 8.54885 1.01953 8.53125C1.03102 8.56645 1.04826 8.60164 1.05975 8.63684Z" fill="#183453"/>
<path d="M0.917969 7.4142C0.917969 7.3966 0.923713 7.38487 0.923713 7.36727C0.923713 7.3438 0.929461 7.32034 0.929461 7.29688C0.929461 7.33794 0.923714 7.379 0.917969 7.4142Z" fill="#183453"/>
<path d="M1.21073 8.87497C1.21073 8.86922 1.20498 8.86923 1.20498 8.86348C1.15901 8.81177 1.26819 8.94966 1.21073 8.87497Z" fill="#183453"/>
<path d="M0.923486 8.17201C0.923486 8.14855 0.917742 8.13095 0.917742 8.10748C0.917742 8.08988 0.911996 8.07229 0.90625 8.05469C0.911996 8.08988 0.917741 8.13095 0.923486 8.17201Z" fill="#183453"/>
<path d="M1.42361 9.09023C1.41773 9.08448 1.41185 9.08448 1.40597 9.07874C1.34719 9.03852 1.50591 9.15917 1.42361 9.09023Z" fill="#183453"/>
<path d="M2.94727 6.78125C2.95314 6.79885 2.9649 6.81645 2.97078 6.83991C2.97666 6.85751 2.98254 6.87511 2.9943 6.88684C2.97666 6.85164 2.9649 6.81645 2.94727 6.78125Z" fill="#183453"/>
<path d="M3.24609 7.77344C3.24609 7.7969 3.25184 7.8145 3.25184 7.83797C3.25184 7.85556 3.25759 7.87316 3.25759 7.89076C3.25759 7.85556 3.25184 7.8145 3.24609 7.77344Z" fill="#183453"/>
<path d="M3.26735 8.39062C3.26735 8.40822 3.2616 8.42582 3.2616 8.44342C3.2616 8.46688 3.25586 8.48448 3.25586 8.50795C3.25586 8.47275 3.26161 8.43169 3.26735 8.39062Z" fill="#183453"/>
<path d="M2.51101 6.02359C2.46986 5.97079 2.4875 5.99426 2.51101 6.02359C2.52865 6.04119 2.55805 6.08225 2.51101 6.02359Z" fill="#183453"/>
<path d="M3.08569 8.95952C3.07981 8.96539 3.07393 8.97712 3.06805 8.98298L3.06217 8.98885C3.05629 8.99472 3.05042 9.00645 3.04454 9.01231C3.01514 9.04751 3.11508 8.92432 3.08569 8.95952Z" fill="#183453"/>
<path d="M2.8441 9.17188C2.82646 9.17762 2.81471 9.18337 2.79707 9.18911C2.77943 9.2006 2.75592 9.20635 2.73828 9.21784C2.77943 9.2006 2.81471 9.18337 2.8441 9.17188Z" fill="#183453"/>
<path d="M2.91817 9.13481C2.87702 9.17001 2.97696 9.09375 2.97108 9.09375C2.9652 9.09962 2.95345 9.10548 2.94757 9.11135L2.94169 9.11721C2.92993 9.12308 2.92405 9.12895 2.91817 9.13481Z" fill="#183453"/>
<path d="M3.19352 8.75C3.18764 8.7676 3.17588 8.77933 3.17 8.79693C3.16412 8.81453 3.15824 8.83799 3.14648 8.85559C3.16412 8.82039 3.18176 8.7852 3.19352 8.75Z" fill="#183453"/>
<path d="M2.43984 9.29688C2.42221 9.29688 2.40457 9.30262 2.38105 9.30262C2.36342 9.30837 2.3399 9.30837 2.32227 9.31411C2.35754 9.30837 2.39869 9.30262 2.43984 9.29688Z" fill="#183453"/>
<path d="M1.46491 5.96593C1.47065 5.96006 1.4764 5.9542 1.48214 5.94247C1.48214 5.9366 1.48789 5.9366 1.48789 5.93073C1.52237 5.88967 1.43043 6.00699 1.46491 5.96593Z" fill="#183453"/>
<path d="M2.006 5.62868C2.01775 5.62868 2.03539 5.62868 2.04715 5.62868C2.01776 5.62293 1.99424 5.62293 1.96484 5.61719C1.9766 5.62293 1.98836 5.62868 2.006 5.62868Z" fill="#183453"/>
<path d="M2.00391 5.625C2.0333 5.63075 2.06857 5.64224 2.09797 5.64798C2.08033 5.64224 2.0627 5.63075 2.04506 5.625C2.0333 5.625 2.01566 5.625 2.00391 5.625Z" fill="#183453"/>
<path d="M2.09781 5.64798C2.11545 5.65373 2.13309 5.65947 2.15072 5.66522C2.11545 5.65373 2.08605 5.63649 2.05078 5.625C2.06254 5.63075 2.08018 5.63649 2.09781 5.64798Z" fill="#183453"/>
<path d="M2.00422 5.62087C1.98658 5.61512 1.97483 5.61512 1.95719 5.60938C1.93955 5.60938 1.92779 5.61512 1.91016 5.62087C1.94543 5.62087 1.97483 5.62087 2.00422 5.62087Z" fill="#183453"/>
<path d="M1.73449 10.1581C2.13425 10.2227 2.5399 10.2051 2.92791 10.0818C3.06312 10.0408 3.20422 9.98793 3.32767 9.91163C3.53344 9.78251 3.70392 9.61817 3.83914 9.41275C4.08017 9.05473 4.16248 8.59693 4.16248 8.16848C4.1566 7.71655 4.06842 7.25288 3.91556 6.83029C3.76859 6.40771 3.57459 5.98512 3.31004 5.62123C3.23949 5.52145 3.16306 5.42168 3.08076 5.32777C3.23949 5.51558 3.25125 5.76209 3.08076 5.94991C2.92791 6.11425 2.61045 6.12598 2.4576 5.94991C2.46935 5.96751 2.48699 5.97925 2.49875 5.99686C2.49875 6.00273 2.50463 6.00273 2.5105 6.0086C2.49287 5.98512 2.47523 5.96165 2.51639 6.01447C2.56342 6.07316 2.53402 6.03208 2.5105 6.0086C2.51638 6.01447 2.52226 6.02621 2.52226 6.02621C2.53402 6.04381 2.54578 6.06142 2.56342 6.07903C2.62221 6.1612 2.66924 6.2375 2.72215 6.32554C2.81621 6.48401 2.89851 6.64835 2.97494 6.81855C2.96906 6.80094 2.9573 6.78334 2.95142 6.75986C2.96906 6.79508 2.98082 6.83029 2.99845 6.86551C2.99257 6.8479 2.9867 6.83029 2.97494 6.81855C3.11015 7.14723 3.20422 7.48178 3.25713 7.83393C3.25713 7.81045 3.25125 7.79284 3.25125 7.76937C3.25713 7.81045 3.26301 7.84567 3.26888 7.88675C3.26888 7.86914 3.263 7.85154 3.263 7.83393C3.28652 8.03935 3.2924 8.24477 3.26888 8.44433C3.26888 8.42672 3.27476 8.40911 3.27476 8.39151C3.26888 8.43259 3.26301 8.46781 3.25713 8.50889C3.25713 8.48541 3.263 8.46781 3.263 8.44433C3.24537 8.56171 3.21597 8.6791 3.17482 8.78474C3.1807 8.76714 3.19246 8.7554 3.19834 8.73779C3.1807 8.773 3.16894 8.80822 3.15131 8.84344C3.15719 8.82583 3.16306 8.80235 3.17482 8.78474C3.14543 8.84344 3.11603 8.90213 3.08076 8.95495C3.07488 8.96082 3.069 8.97256 3.06312 8.97843L3.069 8.97256C3.07488 8.96669 3.08076 8.95495 3.08664 8.94908C3.11603 8.91387 3.01609 9.04299 3.04549 9.0019C3.05137 8.99604 3.05724 8.9843 3.06312 8.97843C3.03961 9.00777 3.01021 9.03712 2.98082 9.06647C2.96906 9.07821 2.9573 9.08994 2.94554 9.10168C2.95142 9.09581 2.96318 9.08994 2.96906 9.08407C2.96906 9.08407 2.875 9.16037 2.91615 9.12516C2.92203 9.11929 2.93378 9.11342 2.93966 9.10755L2.94554 9.10168C2.92203 9.11929 2.89264 9.1369 2.86912 9.1545C2.8456 9.16624 2.82797 9.17798 2.80445 9.18972C2.82209 9.18385 2.83384 9.17798 2.85148 9.17211C2.81621 9.18972 2.78093 9.20146 2.74566 9.21907C2.7633 9.2132 2.78681 9.20146 2.80445 9.18972C2.66923 9.24254 2.52814 9.27776 2.38117 9.30124C2.3988 9.30124 2.41644 9.29537 2.43996 9.29537C2.3988 9.30124 2.36353 9.30711 2.32238 9.31297C2.34002 9.31297 2.36353 9.3071 2.38117 9.30124C2.24007 9.31884 2.09898 9.31884 1.95789 9.30124C1.9814 9.3071 1.99904 9.30711 2.02256 9.31297C1.9814 9.30711 1.94613 9.30124 1.90498 9.29537C1.92261 9.29537 1.94025 9.30124 1.95789 9.30124C1.85795 9.28363 1.75801 9.26015 1.66394 9.22494C1.68158 9.23081 1.69922 9.24254 1.71685 9.24841C1.68158 9.23081 1.64631 9.21907 1.61103 9.20146C1.62867 9.20733 1.64631 9.2132 1.66394 9.21907C1.5934 9.18972 1.52873 9.1545 1.46994 9.11342C1.4523 9.10168 1.44054 9.08994 1.42291 9.08407C1.50521 9.1545 1.34648 9.03125 1.40527 9.07234C1.41115 9.07821 1.41703 9.0782 1.41703 9.08407C1.37588 9.05473 1.3406 9.01951 1.30533 8.9843C1.27005 8.94908 1.24066 8.91387 1.20539 8.87278C1.26418 8.95495 1.15248 8.80822 1.19951 8.86104C1.19951 8.86691 1.20539 8.86691 1.20539 8.87278C1.20539 8.87278 1.20539 8.87278 1.19951 8.86691C1.18187 8.84344 1.16424 8.81996 1.15248 8.79648C1.10545 8.72605 1.07017 8.65562 1.0349 8.57932C1.04078 8.59693 1.04666 8.61454 1.05254 8.63214C1.0349 8.59693 1.02314 8.56171 1.00551 8.5265C1.01138 8.5441 1.02314 8.56171 1.02902 8.57932C0.97023 8.42672 0.929079 8.26825 0.905563 8.10391C0.905563 8.12739 0.911441 8.145 0.911441 8.16848C0.905562 8.12739 0.899684 8.09218 0.893805 8.05109C0.893805 8.0687 0.899685 8.08631 0.905563 8.10391C0.882048 7.85741 0.882046 7.61677 0.911441 7.37026C0.911441 7.38787 0.905563 7.39961 0.905563 7.41721C0.911442 7.37613 0.917321 7.34091 0.923199 7.29983C0.917321 7.32331 0.917322 7.34678 0.917322 7.37026C0.958474 7.08267 1.0349 6.80095 1.1466 6.53096C1.14072 6.54857 1.13484 6.56031 1.12308 6.57791C1.14072 6.5427 1.15248 6.50748 1.17011 6.47227C1.16424 6.48988 1.15248 6.51335 1.1466 6.53096C1.24066 6.32554 1.34648 6.12598 1.4817 5.94404C1.47582 5.94991 1.46994 5.95578 1.46406 5.96751C1.42879 6.0086 1.52285 5.89122 1.48758 5.9323C1.48758 5.93817 1.4817 5.93817 1.4817 5.94404C1.48757 5.93817 1.48758 5.9323 1.49345 5.92643C1.51109 5.90295 1.53461 5.87948 1.55224 5.856C1.5934 5.81492 1.63455 5.77383 1.6757 5.73862L1.68158 5.73275C1.6757 5.73861 1.66982 5.73861 1.66394 5.74448C1.62279 5.77383 1.74625 5.67992 1.70509 5.71514C1.69921 5.72101 1.68746 5.72688 1.68158 5.73275C1.69922 5.72101 1.71097 5.70927 1.72861 5.7034C1.758 5.68579 1.79328 5.66818 1.82267 5.65058C1.80503 5.65645 1.78152 5.66231 1.76388 5.67405C1.79916 5.65645 1.83443 5.64471 1.86971 5.6271C1.85207 5.63297 1.84031 5.63884 1.82267 5.65058C1.85207 5.63884 1.88146 5.63297 1.91086 5.6271C1.89322 5.6271 1.88146 5.6271 1.86382 5.6271C1.89322 5.62123 1.92261 5.62123 1.95201 5.61536C1.94613 5.61536 1.94025 5.61536 1.93437 5.60949C1.94025 5.60949 1.94613 5.60949 1.95201 5.60949C1.95789 5.60949 1.96965 5.60949 1.97553 5.60362C1.96965 5.60362 1.95789 5.60362 1.95201 5.60949C1.9814 5.61536 2.00492 5.61536 2.03431 5.62123C2.03431 5.62123 2.03431 5.62123 2.04019 5.62123C2.07547 5.63297 2.10486 5.65058 2.14013 5.66232C2.1225 5.65645 2.10486 5.65058 2.08722 5.64471C2.11074 5.65645 2.13426 5.66818 2.15189 5.67992C2.17541 5.69166 2.19304 5.7034 2.21068 5.72101C2.21068 5.72101 2.21656 5.72101 2.21656 5.72688C2.24595 5.74448 2.28123 5.78557 2.22832 5.73862C2.29886 5.80318 2.37529 5.87361 2.43996 5.94991C2.28123 5.76209 2.26947 5.51558 2.43996 5.32777C2.51638 5.2456 2.64572 5.19865 2.75154 5.19865C2.85736 5.19865 2.99258 5.2456 3.06312 5.32777C2.85736 5.08713 2.59869 4.89345 2.29887 4.79367C1.99904 4.69976 1.69334 4.74085 1.41115 4.8641C1.13484 4.98735 0.91732 5.21625 0.735074 5.45689C0.564585 5.67992 0.44113 5.92643 0.329431 6.18468C0.111912 6.70117 -0.00566863 7.26461 0.000210276 7.82806C0.00608918 8.35629 0.129547 8.91974 0.452887 9.34819C0.782106 9.7649 1.21714 10.076 1.73449 10.1581Z" fill="#183453"/>
<path d="M2.76711 5.19531C2.66129 5.19531 2.53195 5.24224 2.45553 5.32437C2.28504 5.51208 2.2968 5.75846 2.45553 5.94617C2.60838 6.12216 2.92584 6.11042 3.07869 5.94617C3.24918 5.75846 3.23742 5.51208 3.07869 5.32437C3.00814 5.24811 2.86705 5.19531 2.76711 5.19531Z" fill="#183453"/>
<path d="M1.95732 5.61719C1.92793 5.62293 1.89854 5.62293 1.86914 5.62868C1.88678 5.62868 1.89853 5.62868 1.91617 5.62868C1.92793 5.62293 1.94557 5.61719 1.95732 5.61719Z" fill="#183453"/>
<path d="M1.76367 5.67097C1.78131 5.66522 1.80482 5.65373 1.82246 5.64798C1.8401 5.64224 1.85186 5.63075 1.8695 5.625C1.83422 5.64224 1.79895 5.65947 1.76367 5.67097Z" fill="#183453"/>
<path d="M1.66901 5.74217C1.67489 5.73643 1.68077 5.73643 1.68665 5.73068C1.69253 5.72493 1.70429 5.71919 1.71017 5.71344C1.74544 5.67322 1.62786 5.76515 1.66901 5.74217Z" fill="#183453"/>
<path d="M2.23438 5.72656C2.23999 5.73218 2.23999 5.73218 2.24561 5.7378C2.23999 5.73218 2.23438 5.73218 2.23438 5.72656Z" fill="#183453"/>
<path d="M1.98731 5.61719C1.98169 5.61719 1.97046 5.61719 1.96484 5.6228C1.96484 5.6228 1.96484 5.6228 1.97046 5.6228C1.97046 5.61719 1.97608 5.61719 1.98731 5.61719Z" fill="#183453"/>
<path d="M11.9023 3.375C11.9023 3.39846 11.9081 3.41606 11.9081 3.43953C11.9081 3.45712 11.9138 3.47472 11.9138 3.49232C11.9138 3.45126 11.9081 3.4102 11.9023 3.375Z" fill="#183453"/>
<path d="M11.8068 4.89844C11.8009 4.91604 11.7892 4.93363 11.7833 4.95123C11.7774 4.96883 11.7715 4.98643 11.7598 5.00403C11.7774 4.96883 11.795 4.93363 11.8068 4.89844Z" fill="#183453"/>
<path d="M11.625 2.41406C11.6309 2.43166 11.6368 2.44926 11.6485 2.46686C11.6544 2.48446 11.6662 2.50205 11.672 2.51965C11.6544 2.48446 11.6426 2.44926 11.625 2.41406Z" fill="#183453"/>
<path d="M11.9196 4.39062C11.9138 4.41409 11.9138 4.43169 11.9081 4.45515C11.9081 4.47275 11.9023 4.49035 11.9023 4.50795C11.9138 4.46688 11.9138 4.43169 11.9196 4.39062Z" fill="#183453"/>
<path d="M11.6601 5.17C11.6542 5.18174 11.6425 5.1876 11.6366 5.19933C11.6307 5.2052 11.6307 5.21107 11.6248 5.21693C11.5896 5.26973 11.6895 5.13481 11.6601 5.17Z" fill="#183453"/>
<path d="M11.5082 5.35186C11.4964 5.3576 11.4905 5.36335 11.4788 5.3691C11.4729 5.37484 11.4729 5.37484 11.467 5.37484C11.4611 5.38059 11.4553 5.38633 11.4494 5.38633C11.4082 5.42655 11.5082 5.34611 11.5082 5.35186Z" fill="#183453"/>
<path d="M9.85593 1.31405C9.86181 1.30818 9.86769 1.30232 9.87357 1.30232C9.87945 1.29645 9.88533 1.29058 9.89121 1.28472C9.94412 1.23779 9.79715 1.35511 9.85593 1.31405Z" fill="#183453"/>
<path d="M9.98633 1.23553C10.0098 1.22404 10.0275 1.2183 10.051 1.21255C10.0628 1.2068 10.0804 1.20106 10.0921 1.19531C10.0569 1.2068 10.0216 1.2183 9.98633 1.23553Z" fill="#183453"/>
<path d="M10.1562 1.16567C10.1739 1.16567 10.1974 1.15993 10.215 1.15993C10.2327 1.15418 10.2562 1.15418 10.2738 1.14844C10.2327 1.15418 10.1915 1.15993 10.1562 1.16567Z" fill="#183453"/>
<path d="M9.70272 1.47431C9.70272 1.46844 9.70272 1.46844 9.70272 1.47431C9.7086 1.46257 9.71448 1.45671 9.72036 1.45084C9.76151 1.39218 9.63805 1.55056 9.70272 1.47431Z" fill="#183453"/>
<path d="M10.8791 1.37391C10.8262 1.33369 10.8497 1.35667 10.8791 1.37391C10.8732 1.36817 10.8732 1.36817 10.8791 1.37391C10.9379 1.41988 10.885 1.37966 10.8791 1.37391Z" fill="#183453"/>
<path d="M10.3438 1.14844C10.3614 1.14844 10.379 1.15418 10.3967 1.15993C10.4202 1.15993 10.4378 1.16567 10.4613 1.16567C10.4202 1.15993 10.379 1.15418 10.3438 1.14844Z" fill="#183453"/>
<path d="M11.216 1.72737C11.2217 1.73311 11.2275 1.73886 11.2332 1.7446C11.2619 1.78482 11.1758 1.66991 11.216 1.72737Z" fill="#183453"/>
<path d="M10.5566 1.19531C10.5743 1.20106 10.5919 1.21255 10.6096 1.21829C10.6272 1.22404 10.6448 1.22979 10.6625 1.23553C10.6272 1.22404 10.5919 1.2068 10.5566 1.19531Z" fill="#183453"/>
<path d="M11.2972 5.49219C11.2796 5.49793 11.262 5.50368 11.2443 5.50942C11.2267 5.51517 11.209 5.52666 11.1914 5.53241C11.2267 5.52092 11.262 5.50368 11.2972 5.49219Z" fill="#183453"/>
<path d="M9.24023 3.07045C9.24023 3.04698 9.24598 3.02938 9.25173 3.00592C9.25173 2.98832 9.25747 2.97072 9.25747 2.95312C9.25173 2.99419 9.24598 3.03525 9.24023 3.07045Z" fill="#183453"/>
<path d="M9.57031 1.70123C9.57606 1.68363 9.58755 1.66604 9.5933 1.64844C9.58755 1.6543 9.58181 1.66604 9.57606 1.6719C9.57606 1.68363 9.57606 1.6895 9.57031 1.70123Z" fill="#183453"/>
<path d="M10.9789 5.58594C10.9613 5.58594 10.9436 5.58594 10.926 5.59168C10.9025 5.59743 10.879 5.59743 10.8613 5.60317C10.8966 5.59743 10.9378 5.59168 10.9789 5.58594Z" fill="#183453"/>
<path d="M9.57939 1.67448C9.5679 1.70381 9.55641 1.72728 9.54492 1.75661C9.55067 1.73901 9.56216 1.71554 9.57365 1.69795C9.57365 1.68621 9.57365 1.68035 9.57939 1.67448Z" fill="#183453"/>
<path d="M8.99321 1.80109C9.19309 1.90668 9.45176 1.85975 9.5811 1.67203C9.58698 1.66617 9.58698 1.6603 9.59286 1.64857C9.59286 1.65443 9.58698 1.6603 9.58698 1.66616C9.59285 1.6603 9.59874 1.64857 9.60461 1.6427C9.71044 1.43739 9.6634 1.15581 9.44588 1.03849C9.24012 0.932902 8.95793 0.97983 8.84036 1.19688C8.72278 1.40219 8.77569 1.68963 8.99321 1.80109Z" fill="#183453"/>
<path d="M9.65096 6.28335C10.474 6.62377 11.5675 6.57681 12.2142 5.89011C12.6668 5.40884 12.8021 4.74562 12.8256 4.1C12.855 3.32526 12.6786 2.55052 12.3317 1.85795C12.0084 1.20647 11.4969 0.566726 10.7797 0.343695C10.1859 0.15588 9.5275 0.355433 9.11598 0.813233C9.01016 0.930618 8.91021 1.06561 8.83379 1.2006C8.95137 0.98344 9.23355 0.936487 9.43932 1.04213C9.65684 1.15365 9.70387 1.44124 9.59805 1.64666C9.63332 1.5821 9.6686 1.52341 9.70975 1.46472L9.70387 1.47059C9.6392 1.54689 9.76266 1.39429 9.72151 1.44711C9.71563 1.45298 9.71563 1.45885 9.70975 1.46472C9.72151 1.45298 9.72738 1.44124 9.73914 1.4295C9.76266 1.40016 9.78617 1.37668 9.81557 1.3532C9.8332 1.33559 9.85672 1.31799 9.88023 1.30038C9.87435 1.30625 9.86848 1.31212 9.8626 1.31212C9.80381 1.3532 9.95666 1.23582 9.89787 1.28277C9.89199 1.28864 9.88611 1.29451 9.88023 1.30038C9.88611 1.29451 9.89787 1.28864 9.90375 1.28277C9.95078 1.25343 9.99781 1.22408 10.0507 1.2006C10.0272 1.20647 10.0096 1.21821 9.98606 1.22408C10.0213 1.20647 10.0566 1.19473 10.0919 1.17713C10.0801 1.18299 10.0625 1.18886 10.0507 1.19473C10.1036 1.17713 10.1624 1.15952 10.2153 1.14778C10.1977 1.14778 10.1742 1.15365 10.1565 1.15365C10.1977 1.14778 10.233 1.14191 10.2741 1.13604C10.2565 1.13604 10.233 1.14191 10.2153 1.14778C10.2741 1.14191 10.3329 1.14191 10.3976 1.14778C10.3799 1.14191 10.3623 1.14191 10.3447 1.13604C10.3858 1.14191 10.4211 1.14778 10.4622 1.15365C10.4387 1.15365 10.4211 1.14778 10.3976 1.14778C10.4681 1.15952 10.5446 1.18299 10.6092 1.20647C10.5916 1.2006 10.5739 1.18886 10.5563 1.18299C10.5916 1.2006 10.6269 1.21234 10.6621 1.22995C10.6445 1.22408 10.6269 1.21821 10.6092 1.21234C10.6504 1.23582 10.6974 1.25342 10.7386 1.2769C10.768 1.29451 10.7973 1.31212 10.8209 1.32972C10.8385 1.34146 10.8561 1.3532 10.8679 1.36494C10.8503 1.34733 10.8209 1.32973 10.8738 1.37081C10.9384 1.41776 10.8855 1.37668 10.8679 1.36494C10.8738 1.37081 10.8738 1.37081 10.8796 1.37081C10.8973 1.38255 10.9149 1.40016 10.9267 1.41189C10.9561 1.43537 10.9796 1.46472 11.009 1.48819C11.0737 1.54689 11.1324 1.61145 11.1854 1.68188C11.1912 1.69362 11.203 1.69949 11.2089 1.71122C11.1677 1.65253 11.2559 1.76992 11.2265 1.72883C11.2206 1.72296 11.2147 1.71709 11.2089 1.71122C11.2383 1.74644 11.2618 1.78166 11.2853 1.82274C11.3323 1.89317 11.3794 1.9636 11.4205 2.0399C11.5028 2.17489 11.5734 2.32162 11.638 2.46835C11.6321 2.45075 11.6263 2.43314 11.6145 2.41553C11.6321 2.45075 11.6439 2.48596 11.6615 2.52118C11.6557 2.50357 11.6439 2.48596 11.638 2.46835C11.7615 2.77942 11.8497 3.10223 11.9026 3.43091C11.9026 3.40743 11.8967 3.38982 11.8967 3.36635C11.9026 3.40743 11.9085 3.44265 11.9143 3.48373C11.9143 3.46612 11.9085 3.44852 11.9085 3.43091C11.9496 3.77132 11.9496 4.11174 11.9085 4.45215C11.9143 4.42868 11.9143 4.41107 11.9202 4.38759C11.9143 4.42868 11.9085 4.46389 11.9026 4.50498C11.9026 4.48737 11.9085 4.46976 11.9085 4.45215C11.8849 4.62236 11.8438 4.7867 11.785 4.94517C11.7909 4.92756 11.8026 4.90995 11.8085 4.89235C11.7909 4.92756 11.7791 4.96278 11.7615 4.99799C11.7674 4.98038 11.7732 4.96278 11.785 4.94517C11.7497 5.02147 11.7086 5.0919 11.6674 5.16233C11.6557 5.17994 11.6498 5.19168 11.638 5.20341C11.6439 5.19168 11.6557 5.18581 11.6615 5.17407C11.6909 5.13885 11.591 5.27384 11.6263 5.22102C11.6321 5.21515 11.6321 5.20928 11.638 5.20341C11.6086 5.23863 11.5792 5.26798 11.5498 5.30319C11.5263 5.32667 11.4969 5.35015 11.4675 5.37362C11.4734 5.36775 11.4734 5.36775 11.4793 5.36775C11.4911 5.36188 11.4969 5.35014 11.5087 5.35014C11.5146 5.35014 11.4088 5.42645 11.4499 5.39123C11.4558 5.38536 11.4617 5.37949 11.4675 5.37949C11.4558 5.39123 11.4381 5.3971 11.4264 5.40884C11.3676 5.44405 11.3088 5.47927 11.2441 5.50861C11.2618 5.50275 11.2794 5.49688 11.2971 5.49101C11.2618 5.50861 11.2265 5.52035 11.1912 5.53796C11.2089 5.53209 11.2265 5.52035 11.2441 5.51448C11.1442 5.5497 11.0384 5.57905 10.9267 5.59665C10.9443 5.59665 10.962 5.59665 10.9796 5.59078C10.9384 5.59665 10.9032 5.60252 10.862 5.60839C10.8855 5.60252 10.909 5.60252 10.9267 5.59665C10.768 5.61426 10.6092 5.60839 10.4505 5.59665C10.4681 5.60252 10.4858 5.60252 10.5093 5.60839C10.4681 5.60252 10.4329 5.59665 10.3917 5.59078C10.4093 5.59078 10.4329 5.59665 10.4505 5.59665C10.2682 5.56731 10.0919 5.52035 9.92139 5.44992C9.93902 5.45579 9.95666 5.46753 9.98018 5.4734C9.9449 5.45579 9.90963 5.44405 9.87436 5.42644C9.89199 5.43231 9.90963 5.43818 9.92139 5.44405C9.8626 5.41471 9.80381 5.38536 9.74502 5.35601C9.70975 5.33841 9.67447 5.31493 9.64508 5.29145C9.6392 5.29145 9.6392 5.28558 9.63332 5.27971C9.63332 5.27971 9.63332 5.27971 9.6392 5.28558C9.64508 5.29145 9.65684 5.29732 9.66272 5.30319C9.70387 5.33841 9.5569 5.22689 9.60393 5.25624C9.61569 5.26211 9.62744 5.27384 9.63332 5.27971C9.60393 5.25624 9.57453 5.22689 9.55102 5.19755C9.53926 5.18581 9.52162 5.1682 9.50986 5.15059C9.51574 5.15646 9.52162 5.1682 9.5275 5.17994C9.52162 5.1682 9.50986 5.15646 9.50399 5.14472C9.50399 5.14472 9.50399 5.14472 9.50399 5.13885C9.50399 5.13298 9.4981 5.13298 9.4981 5.12711C9.48047 5.10364 9.46283 5.07429 9.48635 5.10951C9.43932 5.04495 9.40405 4.96865 9.36877 4.89821C9.37465 4.91582 9.38641 4.9393 9.39229 4.95691C9.37465 4.92169 9.36289 4.88648 9.34525 4.85126C9.35113 4.86887 9.35701 4.88061 9.36289 4.89821C9.29822 4.72801 9.25707 4.55193 9.22768 4.36998C9.22768 4.38172 9.22768 4.39346 9.23355 4.41107C9.22768 4.36998 9.2218 4.33477 9.21592 4.29368C9.2218 4.31716 9.2218 4.34651 9.22768 4.36998C9.17477 3.91218 9.1924 3.44852 9.25119 2.99659C9.25119 3.02006 9.24531 3.03767 9.23944 3.06115C9.24531 3.02006 9.25119 2.98485 9.25707 2.94376C9.25707 2.96137 9.25119 2.97898 9.25119 2.99659C9.31586 2.55639 9.40404 2.10446 9.56865 1.68775C9.55689 1.70536 9.55102 1.72883 9.53926 1.74644C9.55102 1.71709 9.56278 1.69362 9.57453 1.66427C9.45108 1.85796 9.18653 1.89904 8.98664 1.79339C8.76912 1.68188 8.71621 1.39429 8.82791 1.18886C8.65154 1.51754 8.55748 1.90491 8.48105 2.2688C8.36936 2.79116 8.30469 3.32526 8.30469 3.85936C8.31057 4.39346 8.38112 4.95104 8.63391 5.42644C8.86319 5.8549 9.22768 6.10728 9.65096 6.28335Z" fill="#183453"/>
<path d="M9.58545 1.64844C9.57983 1.65405 9.57984 1.65967 9.57422 1.6709C9.57422 1.6709 9.57422 1.6709 9.57422 1.66529C9.57984 1.65967 9.58545 1.65405 9.58545 1.64844Z" fill="#183453"/>
<path d="M9.98082 5.46991C9.96318 5.46416 9.94555 5.45267 9.92203 5.44692C9.90439 5.44118 9.88676 5.43543 9.875 5.42969C9.91027 5.44118 9.94555 5.45842 9.98082 5.46991Z" fill="#183453"/>
<path d="M9.22817 4.42982C9.22817 4.41809 9.22818 4.40636 9.22243 4.38876C9.21668 4.36529 9.21668 4.33596 9.21094 4.3125C9.22243 4.35356 9.22817 4.38876 9.22817 4.42982Z" fill="#183453"/>
<path d="M10.5102 5.60317C10.4925 5.60317 10.4749 5.59743 10.4514 5.59168C10.4337 5.59168 10.4102 5.58594 10.3926 5.58594C10.4337 5.59168 10.469 5.59743 10.5102 5.60317Z" fill="#183453"/>
<path d="M9.65607 5.3036C9.6502 5.29773 9.63844 5.29186 9.63256 5.286C9.63256 5.286 9.62668 5.286 9.62668 5.28013C9.61492 5.27427 9.60316 5.26253 9.59729 5.25667C9.55025 5.22147 9.69723 5.33879 9.65607 5.3036Z" fill="#183453"/>
<path d="M9.49732 5.15308L9.50294 5.1587C9.4917 5.14185 9.48609 5.13623 9.48047 5.125C9.48609 5.13623 9.4917 5.14747 9.49732 5.15308Z" fill="#183453"/>
<path d="M9.38592 4.97278C9.38018 4.95518 9.36869 4.93171 9.36294 4.91412C9.35719 4.89652 9.35145 4.88479 9.3457 4.86719C9.35719 4.90238 9.37443 4.93758 9.38592 4.97278Z" fill="#183453"/>
<path d="M15.0801 7.5625C15.0858 7.58596 15.0858 7.60943 15.0858 7.63289C15.0858 7.65049 15.0916 7.66222 15.0916 7.67982C15.0916 7.63876 15.0858 7.5977 15.0801 7.5625Z" fill="#183453"/>
<path d="M14.8379 6.73438C14.8438 6.75197 14.8555 6.77544 14.8614 6.79304C14.8673 6.81063 14.8732 6.82237 14.8849 6.83997C14.8673 6.80477 14.8496 6.76957 14.8379 6.73438Z" fill="#183453"/>
<path d="M15.1032 8.3125C15.1032 8.3301 15.0974 8.3477 15.0917 8.36529C15.0917 8.38876 15.0859 8.40636 15.0859 8.42982C15.0917 8.38876 15.0974 8.35356 15.1032 8.3125Z" fill="#183453"/>
<path d="M14.5232 6.19588C14.5232 6.20163 14.5289 6.20163 14.5289 6.20738C14.5347 6.21312 14.5347 6.21312 14.5404 6.21887C14.5864 6.27632 14.4887 6.15567 14.5232 6.19588Z" fill="#183453"/>
<path d="M14.6035 9.3447C14.5976 9.35045 14.5918 9.35044 14.5918 9.35619C14.5036 9.41939 14.6623 9.30448 14.6035 9.3447Z" fill="#183453"/>
<path d="M14.81 9.13678C14.81 9.14264 14.8043 9.14264 14.8043 9.14851C14.7468 9.23064 14.856 9.08398 14.81 9.13678Z" fill="#183453"/>
<path d="M14.9953 8.78125C14.9896 8.79885 14.9781 8.81645 14.9723 8.83404C14.9666 8.85164 14.9608 8.86924 14.9551 8.88684C14.9666 8.85164 14.9781 8.81645 14.9953 8.78125Z" fill="#183453"/>
<path d="M12.9043 5.62745C12.9155 5.61621 12.9211 5.60498 12.9324 5.59375C12.9211 5.60498 12.9099 5.61621 12.9043 5.62745Z" fill="#183453"/>
<path d="M13.7812 6.00122C13.7869 5.99561 13.7925 5.98999 13.7981 5.98438C13.7869 5.99561 13.7869 5.99561 13.7812 6.00122Z" fill="#183453"/>
<path d="M14.1039 9.5625C14.0863 9.5625 14.0686 9.56825 14.051 9.56825C14.0275 9.57399 14.0098 9.57399 13.9863 9.57974C14.0275 9.56824 14.0628 9.56825 14.1039 9.5625Z" fill="#183453"/>
<path d="M14.1387 5.89062C14.1563 5.89637 14.1681 5.90212 14.1857 5.91361C14.2033 5.91935 14.2269 5.9251 14.2445 5.93659C14.2092 5.91935 14.1739 5.90212 14.1387 5.89062Z" fill="#183453"/>
<path d="M14.293 5.97656C14.2988 5.98805 14.3165 5.9938 14.3224 5.99955C14.3282 5.99955 14.3282 6.00529 14.3341 6.00529C14.3812 6.03977 14.2988 5.98231 14.293 5.97656Z" fill="#183453"/>
<path d="M14.0273 5.875C14.033 5.875 14.0442 5.875 14.0498 5.88062C14.0498 5.88062 14.0498 5.88062 14.0554 5.88062C14.0442 5.88062 14.033 5.875 14.0273 5.875Z" fill="#183453"/>
<path d="M14.0676 5.875C14.062 5.875 14.0564 5.875 14.0508 5.875C14.0564 5.88062 14.062 5.875 14.0676 5.875Z" fill="#183453"/>
<path d="M14.4046 9.47656C14.387 9.48231 14.3694 9.48805 14.3517 9.4938C14.3341 9.49955 14.3165 9.51104 14.2988 9.51678C14.3341 9.50529 14.3694 9.48805 14.4046 9.47656Z" fill="#183453"/>
<path d="M14.0021 5.87868C14.0197 5.87293 14.0315 5.87293 14.0491 5.86719C14.0197 5.87293 13.9962 5.87293 13.9668 5.87868C13.9727 5.88442 13.9903 5.88442 14.0021 5.87868Z" fill="#183453"/>
<path d="M13.9613 5.89062C13.926 5.90212 13.8966 5.91935 13.8613 5.93085C13.879 5.9251 13.8966 5.91935 13.9142 5.91361C13.926 5.90786 13.9436 5.89637 13.9613 5.89062Z" fill="#183453"/>
<path d="M13.9611 5.89062C13.9435 5.89637 13.9258 5.90786 13.9082 5.91361C13.9376 5.90212 13.967 5.89637 14.0023 5.89062C13.9905 5.89062 13.9729 5.89062 13.9611 5.89062Z" fill="#183453"/>
<path d="M12.8223 10.2451C13.1632 10.3918 13.5336 10.474 13.9099 10.4622C14.4096 10.4505 14.8799 10.2744 15.2561 9.93987C16.1027 9.18274 16.1262 7.86217 15.8146 6.84679C15.7323 6.57681 15.6206 6.30682 15.4854 6.06031C15.3443 5.80207 15.1621 5.54969 14.9387 5.36188C14.6918 5.16232 14.4213 5.02733 14.098 5.00972C13.8158 4.99212 13.5277 5.09776 13.3043 5.2621C13.1691 5.36188 13.0457 5.46752 12.9398 5.59665C13.0986 5.40883 13.3984 5.44405 13.563 5.59665C13.6453 5.67295 13.6923 5.80207 13.6923 5.90772C13.6923 6.03097 13.6394 6.13075 13.563 6.21878C13.6335 6.13661 13.71 6.07205 13.7864 5.99575C13.757 6.01336 13.7159 6.06032 13.7864 5.99575C13.8099 5.97815 13.8276 5.96641 13.8511 5.95467C13.8746 5.94293 13.8922 5.93119 13.9157 5.91945C13.8981 5.92532 13.8805 5.93119 13.8628 5.93706C13.8981 5.92532 13.9275 5.90771 13.9628 5.89598C13.9628 5.89598 13.9628 5.89598 13.9686 5.89598C13.998 5.89011 14.0216 5.89011 14.051 5.88424C14.0451 5.88424 14.0333 5.88424 14.0274 5.87837C14.0333 5.87837 14.0451 5.87837 14.051 5.88424C14.0568 5.88424 14.0627 5.88424 14.0686 5.88424C14.0627 5.88424 14.0568 5.88424 14.051 5.89011C14.0803 5.89598 14.1097 5.89598 14.1391 5.90185C14.1215 5.90185 14.1097 5.90185 14.0921 5.90185C14.1215 5.90771 14.1509 5.91945 14.1803 5.92532C14.1627 5.91945 14.1509 5.90771 14.1333 5.90185C14.1685 5.91945 14.2038 5.93119 14.2391 5.9488C14.2214 5.94293 14.1979 5.93119 14.1803 5.92532C14.2097 5.93706 14.2391 5.95467 14.2626 5.97228C14.2802 5.98401 14.2979 5.99575 14.3155 6.00749C14.3037 6.00162 14.292 5.98988 14.2861 5.98401C14.292 5.98988 14.3743 6.04858 14.3273 6.01923C14.3214 6.01923 14.3214 6.01336 14.3155 6.01336C14.3567 6.04858 14.3978 6.08966 14.439 6.13075C14.4625 6.15422 14.4801 6.1777 14.4978 6.19531C14.5036 6.20118 14.5095 6.21291 14.5154 6.21878C14.5154 6.21291 14.5095 6.21291 14.5095 6.20705C14.4801 6.16596 14.5742 6.28921 14.5271 6.23052C14.5213 6.22465 14.5213 6.22465 14.5154 6.21878C14.6447 6.40073 14.7564 6.60028 14.8505 6.80571C14.8446 6.7881 14.8328 6.76462 14.827 6.74701C14.8446 6.78223 14.8564 6.81744 14.874 6.85266C14.8681 6.83505 14.8622 6.82331 14.8505 6.80571C14.9563 7.07569 15.0327 7.35741 15.0798 7.64501C15.0798 7.62153 15.0739 7.59805 15.0739 7.57458C15.0798 7.61566 15.0856 7.65088 15.0915 7.69196C15.0915 7.67435 15.0856 7.66261 15.0856 7.64501C15.115 7.88565 15.1209 8.13215 15.0915 8.37866C15.0915 8.36105 15.0974 8.34344 15.1033 8.32584C15.0974 8.36692 15.0915 8.40214 15.0856 8.44322C15.0856 8.41974 15.0915 8.40214 15.0915 8.37866C15.068 8.543 15.0269 8.70147 14.9681 8.85407C14.9739 8.83646 14.9857 8.81885 14.9916 8.80124C14.9739 8.83646 14.9622 8.87168 14.9445 8.90689C14.9504 8.88928 14.9563 8.87167 14.9622 8.85407C14.9269 8.93037 14.8916 9.0008 14.8446 9.07123C14.827 9.09471 14.8152 9.11818 14.7976 9.14166C14.7976 9.14166 14.7976 9.14753 14.7917 9.14753C14.7917 9.14166 14.7976 9.14166 14.7976 9.13579C14.8446 9.08297 14.7329 9.22383 14.7917 9.14753C14.7623 9.18274 14.727 9.22383 14.6918 9.25904C14.6565 9.29426 14.6212 9.32947 14.5801 9.35882C14.5859 9.35295 14.5918 9.35295 14.5918 9.34708C14.6506 9.306 14.4919 9.42925 14.5742 9.35882C14.5565 9.37056 14.5448 9.3823 14.5271 9.38817C14.4625 9.42925 14.3978 9.46447 14.3331 9.49381C14.3508 9.48794 14.3684 9.48207 14.386 9.4762C14.3508 9.49381 14.3155 9.50555 14.2802 9.52316C14.2979 9.51729 14.3155 9.50555 14.3331 9.49968C14.2391 9.5349 14.1391 9.55837 14.0392 9.57598C14.0568 9.57598 14.0745 9.57598 14.0921 9.57011C14.051 9.57598 14.0157 9.58185 13.9745 9.58772C13.998 9.58185 14.0157 9.58185 14.0392 9.57598C13.8981 9.58772 13.757 9.58772 13.6159 9.57598C13.6336 9.58185 13.6571 9.58185 13.6747 9.58772C13.6336 9.58185 13.5983 9.57598 13.5571 9.57011C13.5748 9.57011 13.5924 9.57598 13.6159 9.57598C13.4748 9.55251 13.3278 9.51729 13.1926 9.46447C13.2103 9.47621 13.2338 9.48207 13.2514 9.49381C13.2161 9.47621 13.1809 9.46447 13.1456 9.44686C13.1632 9.45273 13.175 9.4586 13.1926 9.46447C13.1691 9.45273 13.1515 9.44099 13.1338 9.42925C13.1103 9.41164 13.0809 9.39404 13.0574 9.3823L13.0633 9.38817C13.0692 9.39404 13.0809 9.39991 13.0868 9.40577C13.1221 9.43512 12.9927 9.34121 13.0339 9.36469C13.0398 9.37056 13.0515 9.37643 13.0574 9.3823C13.0398 9.37056 13.028 9.35882 13.0163 9.34121C12.9869 9.31774 12.9634 9.28839 12.9398 9.25904C12.9457 9.27078 12.9516 9.27665 12.9575 9.28839C12.9575 9.29426 12.881 9.19448 12.9163 9.23557C12.9222 9.24144 12.9281 9.25318 12.934 9.25904C12.934 9.25904 12.934 9.25904 12.9398 9.26491C12.934 9.25904 12.9281 9.25317 12.9222 9.24144C12.8869 9.18861 12.8517 9.12405 12.8223 9.06536C12.8281 9.08297 12.834 9.10644 12.8458 9.12405C12.8281 9.08884 12.8164 9.05362 12.7987 9.01841C12.8046 9.03601 12.8164 9.04775 12.8223 9.06536C12.7811 8.95384 12.7517 8.84233 12.7341 8.72494C12.7341 8.74842 12.74 8.76603 12.74 8.78951C12.7341 8.74842 12.7282 8.71321 12.7223 8.67212C12.7223 8.68973 12.7282 8.70734 12.7282 8.72494C12.7047 8.51952 12.7106 8.3141 12.7341 8.11454C12.7341 8.13215 12.7282 8.14976 12.7282 8.16737C12.7341 8.12628 12.74 8.09107 12.7458 8.04998C12.7458 8.07346 12.74 8.09107 12.74 8.11454C12.7929 7.76826 12.8928 7.42784 13.0221 7.09917C13.0163 7.11678 13.0104 7.13438 12.9986 7.14612C13.0163 7.11091 13.028 7.07569 13.0457 7.04048C13.0398 7.05808 13.028 7.07569 13.0221 7.09917C13.0986 6.92896 13.1809 6.76462 13.2749 6.60615C13.322 6.52398 13.3749 6.44768 13.4278 6.36551C13.4513 6.33617 13.4748 6.30682 13.4925 6.27748C13.4925 6.27748 13.4925 6.27748 13.4925 6.28335C13.4866 6.28921 13.4807 6.30095 13.4748 6.30682C13.4337 6.35964 13.4983 6.27748 13.5101 6.26574C13.5042 6.27161 13.5042 6.27748 13.4983 6.27748C13.5101 6.25987 13.5277 6.24226 13.5395 6.22465C13.3808 6.41247 13.0809 6.37725 12.9163 6.22465C12.834 6.14835 12.787 6.01923 12.787 5.91358C12.787 5.80794 12.8281 5.7199 12.8869 5.63773C12.3049 6.34204 11.9463 7.24003 11.8522 8.14976C11.8052 8.60169 11.8581 9.05362 12.0345 9.46447C12.1991 9.79314 12.4813 10.0983 12.8223 10.2451Z" fill="#183453"/>
<path d="M14.0978 5.88649C14.1155 5.88649 14.1272 5.88649 14.1448 5.88649C14.1155 5.88075 14.0861 5.88075 14.0567 5.875C14.0567 5.875 14.0567 5.875 14.0508 5.875C14.0684 5.88075 14.0802 5.88649 14.0978 5.88649Z" fill="#183453"/>
<path d="M12.9301 6.2263C13.0947 6.37882 13.3946 6.41401 13.5533 6.2263C13.6297 6.13831 13.6826 6.03858 13.6826 5.91539C13.6826 5.8098 13.6356 5.68075 13.5533 5.60449C13.3887 5.45197 13.0888 5.41677 12.9301 5.60449C12.9184 5.61622 12.9125 5.62795 12.9007 5.63969C12.8419 5.72181 12.8008 5.8098 12.8008 5.91539C12.8067 6.02098 12.8537 6.15004 12.9301 6.2263Z" fill="#183453"/>
<path d="M13.4875 6.29888C13.4933 6.29301 13.499 6.28128 13.5047 6.27541C13.5047 6.27541 13.5047 6.27541 13.5047 6.26954C13.5105 6.26368 13.5105 6.25781 13.5162 6.25781C13.5105 6.27541 13.453 6.35167 13.4875 6.29888Z" fill="#183453"/>
<path d="M12.7556 8.77357C12.7556 8.75011 12.7499 8.73251 12.7499 8.70904C12.7499 8.69145 12.7441 8.67385 12.7441 8.65625C12.7441 8.69145 12.7499 8.73251 12.7556 8.77357Z" fill="#183453"/>
<path d="M12.9312 9.23651C12.8959 9.19545 12.9723 9.29517 12.9723 9.2893C12.9664 9.27757 12.9606 9.27171 12.9547 9.25997C12.9547 9.25997 12.9547 9.25997 12.9488 9.25411C12.9429 9.25411 12.9371 9.24238 12.9312 9.23651Z" fill="#183453"/>
<path d="M13.0984 9.39624C13.0925 9.39038 13.0807 9.38451 13.0749 9.37864L13.069 9.37278C13.0631 9.36691 13.0514 9.36105 13.0455 9.35518C13.0102 9.33172 13.1337 9.43144 13.0984 9.39624Z" fill="#183453"/>
<path d="M12.8576 9.12121C12.8517 9.10362 12.8458 9.08015 12.8341 9.06255C12.8282 9.04495 12.8164 9.03322 12.8105 9.01562C12.8282 9.05082 12.8458 9.08602 12.8576 9.12121Z" fill="#183453"/>
<path d="M13.2699 9.48347C13.2522 9.47772 13.2287 9.46623 13.2111 9.45474C13.1935 9.44899 13.1817 9.44325 13.1641 9.4375C13.1993 9.45474 13.2346 9.46623 13.2699 9.48347Z" fill="#183453"/>
<path d="M12.748 8.1642C12.748 8.1466 12.7538 8.129 12.7538 8.1114C12.7538 8.08794 12.7595 8.07034 12.7595 8.04688C12.7595 8.08207 12.7538 8.12313 12.748 8.1642Z" fill="#183453"/>
<path d="M13.6938 9.58755C13.6761 9.58755 13.6526 9.5818 13.635 9.57606C13.6173 9.57606 13.5997 9.57031 13.5762 9.57031C13.6114 9.57606 13.6526 9.5818 13.6938 9.58755Z" fill="#183453"/>
<path d="M13.0176 7.14465C13.0235 7.12705 13.0293 7.10946 13.0411 7.09772C13.047 7.08013 13.0587 7.06253 13.0646 7.03906C13.047 7.07426 13.0352 7.10946 13.0176 7.14465Z" fill="#183453"/>
<path d="M14.002 5.87868C14.0313 5.87868 14.0607 5.87868 14.096 5.87868C14.0784 5.87293 14.0666 5.87293 14.049 5.86719C14.0313 5.87293 14.0196 5.87868 14.002 5.87868Z" fill="#183453"/>
<path d="M7.86771 15.0568C8.59669 15.0451 9.2904 15.3737 10.0194 15.4559C12.0006 15.6731 13.5291 14.0649 12.9765 12.3452C12.512 10.9014 10.8718 10.3145 10.0076 9.13474C9.78423 8.82954 9.61374 8.48913 9.38446 8.19567C8.4556 7.01595 7.06817 7.24485 6.30391 8.09002C5.90415 8.53608 5.70426 9.12887 5.32214 9.59841C4.71661 10.3438 3.49967 10.831 2.88239 12.1574C2.24159 13.5367 2.95294 15.0803 4.3286 15.4676C5.64548 15.8374 6.62726 15.0803 7.86771 15.0568Z" fill="#183453"/>
<path d="M10.0531 15.0193C10.0355 15.0193 10.0179 15.0136 10.0002 15.0136C9.9767 15.0136 9.95906 15.0078 9.93555 15.0078C9.97082 15.0136 10.012 15.0193 10.0531 15.0193Z" fill="#183453"/>
<path d="M4.28744 15.0012C4.26393 14.9897 4.24041 14.9839 4.22278 14.9724C4.21102 14.9667 4.19926 14.9609 4.1875 14.9609C4.21689 14.9724 4.25217 14.9897 4.28744 15.0012Z" fill="#183453"/>
<path d="M4.81484 15.1287C4.80309 15.1287 4.78545 15.1229 4.77369 15.1229C4.75018 15.1229 4.72078 15.1172 4.69727 15.1172C4.73842 15.1172 4.77369 15.1229 4.81484 15.1287Z" fill="#183453"/>
<path d="M5.48477 15.1016C5.46713 15.1016 5.44949 15.1073 5.43185 15.1073C5.40834 15.1131 5.3907 15.1131 5.36719 15.1188C5.40834 15.1131 5.44949 15.1073 5.48477 15.1016Z" fill="#183453"/>
<path d="M3.48035 14.4042C3.4861 14.4099 3.49185 14.4157 3.49185 14.4214C3.49759 14.4272 3.50334 14.4329 3.50908 14.4387C3.50334 14.4329 3.49185 14.4214 3.47461 14.3984C3.47461 14.3984 3.48035 14.3984 3.48035 14.4042Z" fill="#183453"/>
<path d="M4.46207 15.9502C4.93238 16.0382 5.39681 16.0147 5.86124 15.9267C6.24925 15.8504 6.6255 15.7272 7.00175 15.6332C7.17812 15.5863 7.35449 15.5511 7.53673 15.5217C7.51322 15.5217 7.4897 15.5276 7.46619 15.5276C7.50734 15.5217 7.54261 15.5159 7.58376 15.51C7.56613 15.51 7.55437 15.5159 7.53673 15.5159C7.76601 15.4924 7.99529 15.4865 8.23044 15.51C8.21281 15.5041 8.18929 15.5041 8.17165 15.4983C8.21281 15.5041 8.24808 15.51 8.28923 15.5159C8.2716 15.5159 8.24808 15.51 8.23044 15.51C8.50675 15.5511 8.77718 15.6274 9.04761 15.6978C9.36507 15.78 9.68841 15.8563 10.0176 15.8915C10.5056 15.9443 11.017 15.8915 11.4815 15.733C12.3868 15.422 13.1393 14.7294 13.4215 13.802C13.5744 13.2914 13.5626 12.728 13.4039 12.2232C13.4803 12.458 13.3157 12.6928 13.0982 12.7632C12.863 12.8395 12.6279 12.6752 12.5573 12.458C12.5926 12.5695 12.622 12.6869 12.6396 12.8043C12.6396 12.7925 12.6396 12.7749 12.6337 12.7632C12.6396 12.8043 12.6455 12.8395 12.6514 12.8806C12.6455 12.8571 12.6455 12.8336 12.6396 12.8043C12.6573 12.9686 12.6573 13.1271 12.6396 13.2914C12.6455 13.2738 12.6455 13.2562 12.6514 13.2386C12.6455 13.2797 12.6396 13.3149 12.6337 13.356C12.6337 13.3325 12.6396 13.3149 12.6396 13.2914C12.6161 13.4499 12.5691 13.6025 12.5162 13.7492C12.5279 13.7257 12.5338 13.7081 12.5456 13.6847C12.5279 13.7199 12.5162 13.7551 12.4985 13.7903C12.5044 13.7786 12.5103 13.761 12.5162 13.7492C12.4633 13.8666 12.3986 13.984 12.3222 14.0955C12.2986 14.1307 12.2751 14.1659 12.2457 14.1953C12.3398 14.0662 12.2634 14.1718 12.234 14.207C12.1811 14.2716 12.1223 14.3303 12.0635 14.389C12.0047 14.4418 11.9459 14.4946 11.8871 14.5474C11.893 14.5416 11.8989 14.5357 11.9106 14.5298C11.9694 14.4829 11.8166 14.6061 11.8871 14.5474C11.8812 14.5533 11.8695 14.5592 11.8636 14.565C11.8283 14.5885 11.7989 14.612 11.7637 14.6355C11.6402 14.7118 11.5168 14.7822 11.3815 14.8409C11.3933 14.835 11.4051 14.8292 11.4227 14.8292C11.3874 14.8468 11.3521 14.8585 11.3169 14.8761C11.3404 14.8644 11.3639 14.8585 11.3815 14.8468C11.1699 14.9348 10.9465 14.9935 10.7172 15.0228C10.7407 15.0228 10.7643 15.017 10.7878 15.017C10.7466 15.0228 10.7113 15.0287 10.6702 15.0346C10.6878 15.0346 10.6996 15.0287 10.7172 15.0287C10.4762 15.0522 10.241 15.0522 10 15.0228C10.0176 15.0228 10.0353 15.0287 10.0529 15.0287C10.0118 15.0228 9.97648 15.017 9.93533 15.0111C9.95884 15.0111 9.97648 15.017 10 15.017C9.34156 14.9172 8.71252 14.659 8.04232 14.6237C7.44267 14.5944 6.85478 14.7587 6.28453 14.9172C6.00822 14.9935 5.72603 15.0698 5.43796 15.1109C5.4556 15.1109 5.47324 15.105 5.49087 15.105C5.44972 15.1109 5.41445 15.1168 5.3733 15.1226C5.39681 15.1226 5.41445 15.1168 5.43796 15.1109C5.22044 15.1344 4.99705 15.1402 4.77953 15.1168C4.79129 15.1168 4.80892 15.1226 4.82068 15.1226C4.77952 15.1168 4.74425 15.1109 4.7031 15.105C4.72661 15.1109 4.75601 15.1109 4.77953 15.1109C4.5914 15.0815 4.40328 15.0346 4.22691 14.9642C4.25042 14.9759 4.27394 14.9876 4.29158 14.9935C4.2563 14.9759 4.22103 14.9642 4.18576 14.9465C4.19751 14.9524 4.20927 14.9583 4.22103 14.9583C4.10933 14.9055 3.99763 14.8468 3.89769 14.7763C3.8683 14.7587 3.84478 14.7411 3.81539 14.7176C3.82126 14.7235 3.83302 14.7294 3.8389 14.7353C3.88005 14.7705 3.74484 14.6648 3.80363 14.7059C3.80951 14.7059 3.80951 14.7118 3.81539 14.7118C3.80951 14.7059 3.80363 14.7 3.79775 14.6942C3.74484 14.6472 3.68605 14.6003 3.63902 14.5474C3.59787 14.5064 3.55671 14.4594 3.51556 14.4124C3.52732 14.4242 3.49793 14.3948 3.48617 14.3772C3.48617 14.3772 3.48617 14.3772 3.48617 14.3714C3.48029 14.3655 3.47441 14.3538 3.46265 14.3479C3.46853 14.3538 3.47441 14.3596 3.48029 14.3655C3.46265 14.3361 3.43913 14.3127 3.4215 14.2833C3.35095 14.1777 3.29216 14.072 3.24513 13.9605C3.25101 13.9781 3.25689 13.9957 3.26277 14.0075C3.24513 13.9723 3.23337 13.937 3.21574 13.9018C3.22162 13.9194 3.23337 13.937 3.23925 13.9605C3.17459 13.7962 3.12755 13.626 3.09816 13.4499C3.09816 13.4675 3.10404 13.4851 3.10404 13.5086C3.09816 13.4675 3.09228 13.4323 3.0864 13.3912C3.0864 13.4088 3.09228 13.4323 3.09816 13.4499C3.08052 13.2738 3.08052 13.0977 3.09816 12.9275C3.09228 12.9451 3.09228 12.9627 3.0864 12.9804C3.09228 12.9393 3.09816 12.9041 3.10404 12.863C3.10404 12.8806 3.09816 12.9041 3.09816 12.9217C3.12755 12.7338 3.18046 12.5519 3.25101 12.3817C3.24513 12.3993 3.23337 12.4169 3.22749 12.4345C3.24513 12.3993 3.25689 12.3641 3.27453 12.3289C3.26865 12.3465 3.26277 12.3641 3.25101 12.3817C3.3392 12.188 3.44501 12.0061 3.56259 11.83C3.59199 11.7889 3.62138 11.7478 3.65078 11.7067C3.65078 11.7067 3.65077 11.7126 3.6449 11.7126C3.58611 11.783 3.69781 11.6422 3.65665 11.7009L3.65078 11.7067C3.66841 11.6833 3.68605 11.6598 3.70957 11.6363C3.77423 11.5541 3.84478 11.4778 3.92121 11.4015C4.19751 11.1139 4.5091 10.8674 4.82068 10.6209C5.09111 10.4038 5.36742 10.1925 5.59669 9.92836C5.93767 9.53512 6.14343 9.06558 6.42562 8.63126C6.4609 8.57256 6.50205 8.51387 6.5432 8.46105C6.52556 8.47866 6.50793 8.50213 6.5432 8.46105C6.58435 8.40823 6.55496 8.44344 6.54908 8.45518L6.5432 8.46105C6.54908 8.45518 6.55495 8.44931 6.55495 8.44931C6.57847 8.42583 6.59611 8.40236 6.61962 8.37301C6.69017 8.29084 6.7666 8.22041 6.8489 8.14998C6.85478 8.14411 6.86066 8.13824 6.86654 8.13237C6.84302 8.14998 6.81951 8.16759 6.86654 8.13237C6.91945 8.09129 6.89006 8.11476 6.86654 8.13237C6.8783 8.12063 6.89006 8.11476 6.89593 8.1089C6.93709 8.07955 6.97824 8.0502 7.02527 8.02673C7.10169 7.97977 7.17812 7.94456 7.25455 7.90934C7.23691 7.91521 7.21927 7.92108 7.20163 7.92695C7.23691 7.90934 7.27218 7.8976 7.30746 7.88C7.28982 7.88587 7.27218 7.8976 7.25455 7.90347C7.38388 7.85652 7.51322 7.8213 7.64843 7.79783C7.6308 7.79783 7.60728 7.80369 7.58964 7.80369C7.6308 7.79783 7.66607 7.79196 7.70722 7.78609C7.68959 7.78609 7.67195 7.79196 7.64843 7.79783C7.77189 7.78609 7.89535 7.78609 8.0188 7.79783C8.00117 7.79196 7.97765 7.79196 7.96002 7.78609C8.00117 7.79196 8.03644 7.79783 8.07759 7.80369C8.05996 7.80369 8.04232 7.79783 8.0188 7.79783C8.13638 7.81543 8.25396 7.85065 8.36566 7.89173C8.34802 7.88586 8.33626 7.88 8.31863 7.86826C8.3539 7.88586 8.38918 7.8976 8.42445 7.91521C8.40681 7.90934 8.3833 7.8976 8.36566 7.89173C8.44209 7.92695 8.51263 7.96216 8.58318 8.00912C8.62433 8.03259 8.6596 8.06194 8.70076 8.09129C8.69488 8.08542 8.69488 8.08542 8.689 8.07955C8.65373 8.0502 8.74191 8.12063 8.73603 8.11476C8.72427 8.1089 8.71251 8.09716 8.70076 8.09129C8.72427 8.10889 8.74191 8.1265 8.76543 8.14411C8.84773 8.21454 8.92415 8.29671 8.9947 8.37888C9.01234 8.40236 9.02998 8.41996 9.04761 8.44344C9.04761 8.44931 9.05349 8.44931 9.05349 8.45518C9.01234 8.39649 9.07113 8.47866 9.07701 8.48453C9.07113 8.47279 9.06525 8.46692 9.05349 8.45518C9.09464 8.508 9.12992 8.56083 9.16519 8.61365C9.30628 8.83081 9.43562 9.05384 9.58259 9.26513C9.71781 9.45882 9.86478 9.63489 10.0235 9.8051C10.5702 10.3744 11.2522 10.8029 11.8166 11.3546C11.893 11.4309 11.9694 11.5072 12.04 11.5835C12.0753 11.6246 12.1105 11.6656 12.1458 11.7067C12.1517 11.7126 12.1517 11.7126 12.1576 11.7185C12.1517 11.7067 12.1458 11.7009 12.1576 11.7185C12.1693 11.7302 12.1928 11.7537 12.1928 11.7654C12.1928 11.7654 12.1693 11.7361 12.1576 11.7185C12.1576 11.7185 12.1576 11.7185 12.1634 11.7243C12.1693 11.7361 12.1811 11.7478 12.187 11.7537C12.3104 11.918 12.4103 12.0941 12.4985 12.2819C12.4927 12.2643 12.4809 12.2408 12.475 12.2232C12.4927 12.2584 12.5044 12.2937 12.522 12.3289C12.5162 12.3113 12.5103 12.2995 12.5044 12.2819C12.522 12.3289 12.5397 12.3758 12.5573 12.4286C12.4809 12.1939 12.6455 11.9591 12.863 11.8887C13.0982 11.8124 13.3333 11.9767 13.4039 12.1939C13.1687 11.4661 12.6631 10.8909 12.087 10.4038C11.552 9.95183 10.9641 9.55273 10.5056 9.01863C10.4821 8.98928 10.4527 8.95993 10.4292 8.93059L10.4233 8.92472V8.93059C10.4174 8.92472 10.4056 8.90711 10.3998 8.90124C10.3939 8.89537 10.388 8.8895 10.3821 8.87776C10.3704 8.86016 10.3821 8.87776 10.3939 8.89537C10.3292 8.80733 10.2645 8.71342 10.2058 8.61952C10.0823 8.42583 9.96472 8.22041 9.82951 8.03259C9.56496 7.6687 9.24162 7.34003 8.83597 7.14634C8.48324 6.97613 8.09523 6.88223 7.70722 6.91157C7.32509 6.93505 6.95472 7.04657 6.6255 7.24025C6.26689 7.44567 5.97294 7.73913 5.73191 8.07368C5.48499 8.41996 5.31451 8.81907 5.07347 9.16536C5.05584 9.18883 5.0382 9.21231 5.02644 9.23579C5.03232 9.22992 5.03232 9.22405 5.0382 9.22405C5.05583 9.20057 5.0382 9.22405 5.02644 9.24166C5.02056 9.24752 5.01468 9.25926 5.0088 9.26513C5.0088 9.26513 5.01468 9.25339 5.02644 9.24166C5.02644 9.24166 5.02644 9.24166 5.02644 9.23579C5.00292 9.26513 4.97941 9.28861 4.96177 9.31796C4.91474 9.37078 4.86771 9.4236 4.82068 9.47055C4.71486 9.5762 4.60316 9.67598 4.48558 9.76989C4.23279 9.97531 3.97412 10.1749 3.7272 10.3862C3.1158 10.9085 2.58081 11.5659 2.34566 12.3465C2.11638 13.0919 2.21045 13.9253 2.60433 14.6003C2.98058 15.3163 3.68017 15.8035 4.46207 15.9502Z" fill="#183453"/>
<path d="M3.83794 14.7459C3.83206 14.7402 3.8203 14.7344 3.81442 14.7287C3.80854 14.7287 3.80854 14.7229 3.80266 14.7229C3.74388 14.677 3.87321 14.7804 3.83794 14.7459Z" fill="#183453"/>
<path d="M7.46484 15.5193C7.48836 15.5136 7.51188 15.5136 7.53539 15.5136C7.55303 15.5136 7.56479 15.5078 7.58242 15.5078C7.54127 15.5078 7.506 15.5136 7.46484 15.5193Z" fill="#183453"/>
<path d="M12.6364 13.2266C12.6364 13.2442 12.6306 13.2618 12.6249 13.2794C12.6249 13.3028 12.6191 13.3204 12.6191 13.3439C12.6249 13.3028 12.6306 13.2676 12.6364 13.2266Z" fill="#183453"/>
<path d="M12.6211 12.75C12.6211 12.7617 12.6211 12.7793 12.6268 12.7911C12.6326 12.8145 12.6326 12.838 12.6383 12.8673C12.6326 12.8321 12.6268 12.7911 12.6211 12.75Z" fill="#183453"/>
<path d="M8.17383 15.5156C8.19146 15.5156 8.21498 15.5214 8.23262 15.5271C8.25025 15.5271 8.27377 15.5329 8.29141 15.5329C8.25025 15.5214 8.2091 15.5214 8.17383 15.5156Z" fill="#183453"/>
<path d="M3.25702 14.0275C3.25127 14.0099 3.24553 13.9923 3.23978 13.9805C3.23404 13.9629 3.22254 13.9453 3.2168 13.9219C3.22829 13.9571 3.23978 13.9923 3.25702 14.0275Z" fill="#183453"/>
<path d="M11.4164 14.8281C11.4046 14.8339 11.3929 14.8396 11.3752 14.8396C11.3517 14.8511 11.3282 14.8569 11.3105 14.8683C11.3458 14.8569 11.3811 14.8396 11.4164 14.8281Z" fill="#183453"/>
<path d="M10.7816 15.0078C10.7581 15.0078 10.7346 15.0136 10.7111 15.0136C10.6935 15.0136 10.6817 15.0193 10.6641 15.0193C10.7052 15.0193 10.7464 15.0136 10.7816 15.0078Z" fill="#183453"/>
<path d="M12.5334 13.6797C12.5216 13.7032 12.5157 13.7208 12.504 13.7442C12.4981 13.7559 12.4922 13.7735 12.4863 13.7853C12.504 13.7501 12.5157 13.7149 12.5334 13.6797Z" fill="#183453"/>
<path d="M11.9058 14.5341C11.8999 14.5399 11.8941 14.5456 11.8823 14.5514C11.8117 14.6088 11.9646 14.4882 11.9058 14.5341Z" fill="#183453"/>
<path d="M7.57812 7.84536C7.59576 7.84536 7.61928 7.83962 7.63691 7.83962C7.65455 7.83387 7.67219 7.83387 7.6957 7.82812C7.65455 7.83387 7.6134 7.83962 7.57812 7.84536Z" fill="#183453"/>
<path d="M9.04154 8.47908C9.04728 8.49057 9.05877 8.49631 9.06452 8.50781C9.05877 8.50206 9.00132 8.42737 9.04154 8.47908Z" fill="#183453"/>
<path d="M12.1569 11.7528C12.1456 11.736 12.1513 11.7416 12.1569 11.7528V11.7528Z" fill="#183453"/>
<path d="M8.72336 8.15088C8.72923 8.15663 8.64105 8.08768 8.67632 8.11641C8.6822 8.12215 8.6822 8.12215 8.68808 8.1279C8.69984 8.13364 8.7116 8.14513 8.72336 8.15088Z" fill="#183453"/>
<path d="M8.30664 7.90625C8.32428 7.912 8.33603 7.91774 8.35367 7.92923C8.37131 7.93498 8.39482 7.94647 8.41246 7.95221C8.37719 7.93498 8.34191 7.92349 8.30664 7.90625Z" fill="#183453"/>
<path d="M12.4688 12.25C12.4745 12.2676 12.486 12.2911 12.4917 12.3087C12.4975 12.3263 12.5032 12.338 12.509 12.3556C12.4975 12.3204 12.486 12.2852 12.4688 12.25Z" fill="#183453"/>
<path d="M12.8501 11.9075C12.6326 11.9779 12.468 12.2126 12.5444 12.4472C12.6149 12.6643 12.856 12.8285 13.0853 12.7523C13.3028 12.6819 13.4674 12.4472 13.391 12.2126C13.3263 11.9955 13.0853 11.8372 12.8501 11.9075Z" fill="#183453"/>
<path d="M5.02685 9.25945C5.02124 9.26507 5.02124 9.27068 5.01562 9.27068C5.01562 9.27068 5.01562 9.27068 5.01562 9.2763C5.02686 9.25945 5.0437 9.23699 5.02685 9.25945Z" fill="#183453"/>
<path d="M7.94727 7.82031C7.9649 7.82031 7.98842 7.82606 8.00605 7.8318C8.02369 7.8318 8.04133 7.83755 8.06484 7.83755C8.02369 7.8318 7.98254 7.82606 7.94727 7.82031Z" fill="#183453"/>
<path d="M3.22266 12.4572C3.22854 12.4396 3.24029 12.422 3.24617 12.4044C3.25205 12.3868 3.25793 12.3692 3.26969 12.3516C3.25205 12.3868 3.24029 12.422 3.22266 12.4572Z" fill="#183453"/>
<path d="M3.10708 13.5314C3.10708 13.5138 3.10134 13.4962 3.10134 13.4727C3.09559 13.4551 3.09559 13.4317 3.08984 13.4141C3.09559 13.4551 3.10134 13.4962 3.10708 13.5314Z" fill="#183453"/>
<path d="M3.64568 11.7368C3.65143 11.7311 3.65143 11.7253 3.65717 11.7253C3.69739 11.6679 3.59397 11.8058 3.64568 11.7368Z" fill="#183453"/>
<path d="M10.3926 8.92969C10.3982 8.9353 10.4038 8.94654 10.415 8.95215C10.4094 8.95215 10.3982 8.9353 10.3926 8.92969Z" fill="#183453"/>
<path d="M3.08789 13.0021C3.08789 12.9845 3.09364 12.9669 3.09938 12.9493C3.09938 12.9317 3.10513 12.9082 3.10513 12.8906C3.09938 12.9258 3.09364 12.961 3.08789 13.0021Z" fill="#183453"/>
<path d="M7.19531 7.95428C7.21295 7.94854 7.23059 7.94279 7.24822 7.93704C7.26586 7.9313 7.2835 7.91981 7.30113 7.91406C7.26586 7.92555 7.23059 7.93705 7.19531 7.95428Z" fill="#183453"/>
<path d="M6.53188 8.497C6.49741 8.54393 6.52039 8.52047 6.53188 8.497L6.53762 8.49114C6.54912 8.4794 6.5721 8.44421 6.53188 8.497Z" fill="#183453"/>
<path d="M6.85911 8.15272C6.81208 8.19294 6.82972 8.1757 6.85911 8.15272C6.88263 8.13548 6.91202 8.11824 6.85911 8.15272Z" fill="#183453"/>
<path d="M3.12666 14.1754C3.39121 13.8586 3.68516 13.5595 4.00262 13.2955C4.05553 13.2486 4.0908 13.1547 4.0908 13.0902C4.0908 13.0198 4.06141 12.9318 4.00262 12.8849C3.94383 12.8321 3.87328 12.7969 3.79686 12.7969C3.71455 12.8027 3.64988 12.8321 3.5911 12.8849C3.27363 13.1547 2.97969 13.448 2.71514 13.7648C2.66223 13.8234 2.62695 13.888 2.62695 13.9701C2.62695 14.0405 2.65635 14.1285 2.71514 14.1754C2.82096 14.2751 3.02084 14.3045 3.12666 14.1754Z" fill="#183453"/>
<path d="M3.88031 14.8901C4.38002 14.3325 4.87973 13.7691 5.38531 13.2115C5.48526 13.1 5.50877 12.9063 5.38531 12.7948C5.27362 12.695 5.07961 12.6716 4.96791 12.7948C4.4682 13.3524 3.9685 13.9158 3.46291 14.4734C3.36297 14.5849 3.33945 14.7786 3.46291 14.8901C3.57461 14.9899 3.76861 15.0134 3.88031 14.8901Z" fill="#183453"/>
<path d="M4.59714 15.5132C5.12625 15.0495 5.60832 14.5389 6.03748 13.9872C6.08451 13.9226 6.12566 13.8639 6.12566 13.7818C6.12566 13.7113 6.09627 13.6233 6.03748 13.5763C5.93166 13.4824 5.72002 13.4472 5.62008 13.5763C5.19092 14.1339 4.70884 14.6445 4.17974 15.1023C4.06216 15.2021 4.06804 15.4134 4.17974 15.5191C4.30908 15.6306 4.47369 15.6247 4.59714 15.5132Z" fill="#183453"/>
<path d="M11.2376 12.663C11.2434 12.6457 11.2549 12.6228 11.2376 12.663C11.2204 12.7032 11.2319 12.6687 11.2376 12.663Z" fill="#183453"/>
<path d="M11.2985 12.4651C11.2985 12.4766 11.2985 12.4824 11.2985 12.4881C11.2928 12.5226 11.3043 12.4192 11.2985 12.4651Z" fill="#183453"/>
<path d="M11.144 12.8281L11.1384 12.8337L11.1328 12.8394C11.1384 12.8394 11.1384 12.8337 11.144 12.8281Z" fill="#183453"/>
<path d="M11.2979 12.4534C11.2979 12.4593 11.2979 12.4593 11.2979 12.4652C11.3096 12.4124 11.292 12.5238 11.2979 12.4886C11.2979 12.4828 11.2979 12.4769 11.2979 12.4652C11.292 12.5121 11.2803 12.559 11.2626 12.6001C11.2567 12.6177 11.2509 12.6411 11.2391 12.6587C11.2391 12.6587 11.2391 12.6587 11.2391 12.6646C11.245 12.6529 11.2509 12.6294 11.2391 12.6705C11.2215 12.7115 11.2332 12.6763 11.2391 12.6646V12.6705C11.2215 12.7115 11.1979 12.7526 11.1685 12.7937C11.1568 12.8113 11.1509 12.823 11.1392 12.8347C11.1392 12.8289 11.145 12.8289 11.145 12.8289C11.1509 12.823 11.1568 12.8171 11.145 12.8289C11.1392 12.8347 11.1392 12.8406 11.1333 12.8465L11.1392 12.8406C11.1333 12.8465 11.1274 12.8582 11.1215 12.864C11.0862 12.8992 11.051 12.9344 11.0098 12.9696C10.8922 13.0694 10.8981 13.2864 11.0098 13.3861C11.1392 13.5035 11.2979 13.4917 11.4272 13.3861C11.8211 13.0635 11.9798 12.4945 11.8387 12.0135C11.7976 11.8668 11.6271 11.7612 11.4743 11.8081C11.3214 11.8551 11.2215 12.0135 11.2685 12.1718C11.2744 12.1953 11.2802 12.2188 11.2861 12.2422C11.2861 12.254 11.292 12.2657 11.292 12.2833C11.2979 12.3302 11.2861 12.254 11.2861 12.254C11.2979 12.254 11.292 12.383 11.292 12.3948C11.2979 12.4065 11.2979 12.43 11.2979 12.4534Z" fill="#183453"/>
<path d="M10.6074 2.78906C10.6133 2.79493 10.6192 2.80666 10.6251 2.81253C10.6368 2.82426 10.6486 2.83599 10.6545 2.84772C10.6368 2.83013 10.6251 2.81253 10.6074 2.78906Z" fill="#183453"/>
<path d="M10.6953 2.92969C10.7011 2.94729 10.7068 2.95902 10.7125 2.97662C10.7183 2.98248 10.724 2.99422 10.724 3.00008C10.7183 2.97662 10.7068 2.95315 10.6953 2.92969Z" fill="#183453"/>
<path d="M10.752 3.08594C10.752 3.09767 10.752 3.10354 10.752 3.11527C10.7577 3.13287 10.7577 3.15046 10.7577 3.1622C10.7577 3.13873 10.752 3.1094 10.752 3.08594Z" fill="#183453"/>
<path d="M10.8406 3.5034C10.8935 3.5562 10.9758 3.59139 11.0464 3.59139C11.1228 3.58553 11.1992 3.56206 11.2522 3.5034C11.3051 3.44474 11.3286 3.38021 11.3403 3.29809C11.3756 2.94612 11.2286 2.57069 10.97 2.33018C10.9171 2.27738 10.8406 2.24219 10.7642 2.24219C10.6937 2.24219 10.6055 2.27152 10.5584 2.33018C10.4526 2.4475 10.4409 2.62935 10.5584 2.74667C10.582 2.77014 10.5996 2.7936 10.6231 2.81707C10.6172 2.8112 10.6114 2.79947 10.6055 2.7936C10.6231 2.8112 10.6349 2.83466 10.6525 2.85226C10.6407 2.84053 10.6349 2.8288 10.6231 2.81707C10.6584 2.864 10.6878 2.91679 10.7113 2.97545C10.7054 2.95785 10.6995 2.94612 10.6937 2.92852C10.7054 2.95199 10.7113 2.97545 10.7231 2.99892C10.7172 2.98718 10.7172 2.98132 10.7113 2.97545C10.7289 3.02238 10.7407 3.06931 10.7524 3.1221C10.7524 3.11037 10.7524 3.10451 10.7524 3.09277C10.7583 3.11624 10.7583 3.14557 10.7642 3.16903C10.7642 3.15143 10.7583 3.13384 10.7583 3.1221C10.7642 3.18076 10.7642 3.24529 10.7583 3.30395C10.7466 3.36848 10.7877 3.45647 10.8406 3.5034Z" fill="#183453"/>
<path d="M5.13477 2.90633C5.14051 2.8946 5.14626 2.88287 5.152 2.86527C5.15775 2.85354 5.15775 2.8418 5.16349 2.83594C5.152 2.8594 5.14626 2.88287 5.13477 2.90633Z" fill="#183453"/>
<path d="M4.71904 3.2855C4.79547 3.30309 4.87777 3.29723 4.94832 3.25617C5.01299 3.2151 5.06002 3.15644 5.08353 3.08018C5.10117 3.00979 5.12468 2.93939 5.15408 2.869C5.1482 2.88073 5.14232 2.89247 5.13644 2.91006C5.1482 2.8866 5.15408 2.86314 5.16584 2.83967C5.15996 2.8514 5.15996 2.86314 5.15408 2.869C5.20699 2.74581 5.27754 2.62849 5.35396 2.5229C5.39512 2.46424 5.40099 2.36452 5.38336 2.29412C5.36572 2.22373 5.31281 2.15334 5.24814 2.11814C5.1776 2.08294 5.09529 2.06534 5.01887 2.08881C4.99535 2.10054 4.97183 2.10641 4.94832 2.11814C4.90129 2.1416 4.87189 2.1768 4.8425 2.22373C4.69553 2.43491 4.58383 2.66955 4.51328 2.9218C4.49564 2.99806 4.50152 3.08018 4.54268 3.15057C4.57795 3.2151 4.6485 3.2679 4.71904 3.2855Z" fill="#183453"/>
<path d="M1.94141 8.03906C1.94141 8.04468 1.94702 8.05029 1.94702 8.05591C1.94702 8.05591 1.94702 8.05591 1.94702 8.0503C1.94702 8.04468 1.94141 8.03906 1.94141 8.03906Z" fill="#183453"/>
<path d="M1.95655 8.06934C1.95093 8.06372 1.95093 8.05811 1.94531 8.04688C1.94531 8.05249 1.94531 8.05249 1.94531 8.05811C1.95093 8.06934 1.95093 8.06934 1.95655 8.06934Z" fill="#183453"/>
<path d="M1.96265 8.08154V8.07593C1.96265 8.07593 1.96265 8.07593 1.95703 8.07031C1.95703 8.07593 1.95703 8.07593 1.96265 8.08154Z" fill="#183453"/>
<path d="M1.94336 8.05469C1.94898 8.0603 1.94898 8.06592 1.95459 8.06592V8.0603C1.94898 8.0603 1.94898 8.0603 1.94336 8.05469Z" fill="#183453"/>
<path d="M1.97046 8.09278C1.97046 8.08716 1.96484 8.08154 1.96484 8.07593C1.96484 8.07593 1.96484 8.07593 1.96484 8.07031C1.96484 8.08155 1.96484 8.08716 1.97046 8.09278Z" fill="#183453"/>
<path d="M1.96349 8.07606V8.07031C1.95775 8.07031 1.96349 8.07606 1.96349 8.07606Z" fill="#183453"/>
<path d="M1.94531 8.04937C1.95093 8.05499 1.95093 8.06061 1.95655 8.07184C1.95655 8.07184 1.95654 8.07184 1.96216 8.07745C1.96216 8.07184 1.96216 8.07184 1.95655 8.06622C1.95093 8.05499 1.95093 8.04937 1.94531 8.04937Z" fill="#183453"/>
<path d="M1.96631 8.07935C1.96069 8.07373 1.96069 8.06812 1.95508 8.0625C1.95508 8.06812 1.95508 8.06812 1.96069 8.07373C1.96069 8.07935 1.96069 8.07935 1.96631 8.07935Z" fill="#183453"/>
<path d="M1.95655 8.06495C1.95093 8.05372 1.95093 8.04248 1.94531 8.03125C1.94531 8.03687 1.94531 8.04248 1.94531 8.0481C1.95093 8.05372 1.95093 8.05933 1.95655 8.06495Z" fill="#183453"/>
<path d="M1.93945 8.01984C1.93945 8.02545 1.93946 8.03669 1.94507 8.0423C1.94507 8.0423 1.94507 8.0423 1.94507 8.04792C1.94507 8.0423 1.94507 8.03669 1.94507 8.03107C1.94507 8.01984 1.94507 8.01422 1.93945 8.01984C1.93945 8.01422 1.93945 8.01422 1.93945 8.01984Z" fill="#183453"/>
<path d="M1.93945 7.98438C1.93945 7.98999 1.93946 8.00122 1.94507 8.00684V8.00122C1.93946 8.00122 1.93945 7.99561 1.93945 7.98438Z" fill="#183453"/>
<path d="M1.94507 8.03809C1.94507 8.03247 1.94507 8.02124 1.93945 8.01562C1.93945 8.02124 1.93945 8.02124 1.93945 8.02686C1.93945 8.03247 1.94507 8.03809 1.94507 8.03809Z" fill="#183453"/>
<path d="M1.9375 8.01685C1.9375 8.01685 1.9375 8.01123 1.94312 8.00562V8C1.9375 8.00562 1.9375 8.01123 1.9375 8.01685Z" fill="#183453"/>
<path d="M1.96293 8.07826C1.96293 8.08412 1.96881 8.08999 1.96881 8.09586C1.96293 8.08999 1.96293 8.08412 1.96293 8.07826C1.95705 8.07239 1.95117 8.06653 1.95117 8.06066C1.95117 8.06066 1.95117 8.06066 1.95117 8.06653C1.95117 8.06653 1.95117 8.06653 1.95117 8.06066C1.95117 8.06066 1.95117 8.05479 1.94529 8.05479C1.94529 8.05479 1.94529 8.05479 1.95117 8.06066C1.95117 8.05479 1.95117 8.04893 1.95117 8.04306C1.95117 8.0372 1.94529 8.03133 1.94529 8.02546C1.94529 8.03133 1.94529 8.03133 1.94529 8.03133C1.94529 8.02546 1.94529 8.02546 1.94529 8.0196C1.94529 8.0196 1.94529 8.0196 1.94529 8.01373C1.94529 8.01373 1.94529 8.01373 1.94529 8.0196C1.94529 8.01373 1.94529 8.00786 1.94529 8.002C1.94529 7.99613 1.94529 7.9844 1.93941 7.97853C1.93941 7.9844 1.93942 7.99027 1.94529 7.99613C1.94529 7.97853 1.95117 7.9668 1.95117 7.9492C1.95117 7.96094 1.95117 7.97267 1.95117 7.99027C1.95117 7.9844 1.95117 7.97853 1.95705 7.9668C1.98057 7.89641 1.96293 7.80842 1.92766 7.73802C1.91002 7.70283 1.8865 7.6735 1.85123 7.6559C1.82184 7.63243 1.79244 7.61484 1.75129 7.6031C1.67487 7.58551 1.59256 7.59137 1.52201 7.63243C1.45734 7.6735 1.41031 7.73216 1.3868 7.80842C1.38092 7.82602 1.37504 7.84948 1.37504 7.86708C1.36916 7.90814 1.36328 7.95507 1.36328 7.99613C1.36328 8.03719 1.36916 8.08412 1.37504 8.12519C1.38092 8.14279 1.38092 8.16625 1.3868 8.18385C1.40444 8.24251 1.42795 8.30117 1.46322 8.35396C1.48674 8.38916 1.51613 8.42436 1.53965 8.45955C1.55141 8.47715 1.56904 8.48889 1.5808 8.50648C1.63959 8.55928 1.71014 8.59448 1.78656 8.59448C1.85711 8.59448 1.94529 8.56515 1.99232 8.50648C2.04524 8.44782 2.08051 8.37743 2.08051 8.30117C2.07463 8.22491 2.05111 8.14865 1.99232 8.09586C1.98645 8.10172 1.97469 8.08999 1.96293 8.07826C1.97469 8.08999 1.98057 8.10172 1.99232 8.11345C1.98057 8.10172 1.96881 8.08999 1.96293 8.07826Z" fill="#183453"/>
<path d="M1.93945 8.00005V8.00592C1.93945 8.00006 1.93945 8.00005 1.93945 7.99419C1.93945 7.98246 1.93945 7.97072 1.93945 7.95312C1.9452 7.96486 1.9452 7.98246 1.93945 8.00005Z" fill="#183453"/>
<path d="M14.0118 9.04584C14.0588 9.07518 14.1058 9.08691 14.1587 9.08691C14.1823 9.08104 14.2116 9.08104 14.2352 9.07518C14.2822 9.06344 14.3292 9.03411 14.3645 8.99892C14.4586 8.91092 14.5585 8.8288 14.6526 8.74081C14.682 8.71148 14.6996 8.68215 14.7114 8.64695C14.729 8.61175 14.7407 8.57656 14.7349 8.53549C14.7349 8.49443 14.729 8.45923 14.7114 8.42404C14.6996 8.38884 14.682 8.35364 14.6526 8.33018C14.6349 8.31258 14.6114 8.30085 14.5938 8.28325C14.5467 8.25392 14.4997 8.24219 14.4468 8.24219C14.4233 8.24805 14.3939 8.24805 14.3704 8.25392C14.3233 8.26565 14.2763 8.29498 14.241 8.33018C14.147 8.41817 14.047 8.5003 13.953 8.58829C13.9236 8.61762 13.9059 8.64695 13.8942 8.68215C13.8766 8.71734 13.8648 8.75254 13.8707 8.7936C13.8707 8.83466 13.8766 8.86986 13.8942 8.90506C13.9059 8.94026 13.9236 8.97545 13.953 8.99892C13.9706 9.01651 13.9941 9.03411 14.0118 9.04584Z" fill="#183453"/>
</svg>
