<svg width="57" height="58" viewBox="0 0 57 58" fill="none" xmlns="http://www.w3.org/2000/svg">
<path d="M24.2474 53.5242C37.5389 56.0731 50.2964 47.0414 52.7651 33.3853C55.2339 19.7292 46.4875 6.57359 33.196 4.02466C19.9045 1.47573 7.14705 10.5075 4.67829 24.1636C2.20953 37.8196 10.9559 50.9753 24.2474 53.5242Z" fill="white" stroke="#183453"/>
<path d="M27.5728 23.8524C29.4002 22.6541 29.2049 17.9784 28.8772 16.9507C28.3615 15.3487 26.647 14.6814 24.9447 16.3606C23.647 17.6414 22.8953 19.4847 22.8831 21.3395C22.8514 24.6316 26.3707 24.6342 27.5728 23.8524Z" fill="#183453"/>
<path d="M20.4214 29.8578C22.473 29.0785 22.1316 25.1968 21.0154 23.235C20.2105 21.8206 19.0676 21.9135 18.0199 23.1208C16.8366 24.4845 16.1948 26.7244 16.7864 28.2294C17.6094 30.2866 19.8299 30.0779 20.4214 29.8578Z" fill="#183453"/>
<path d="M36.841 24.4697C37.448 22.7201 37.3578 20.7135 36.5679 19.0381C35.5321 16.838 33.708 16.809 32.6928 18.1141C32.0445 18.9525 30.2975 23.2516 31.6181 25.0604C32.4714 26.2508 35.7759 27.5614 36.841 24.4697Z" fill="#183453"/>
<path d="M40.2135 33.1735C41.2674 31.9877 41.4118 29.6512 40.7582 27.9313C40.1795 26.4086 39.1412 25.8926 37.9179 26.9137C36.2309 28.3319 34.6207 31.8352 36.2715 33.3325C36.7577 33.7819 38.7674 34.8008 40.2135 33.1735Z" fill="#183453"/>
<path d="M27.1407 23.2393C27.1201 23.2454 27.0978 23.2612 27.0772 23.2672C27.0772 23.2672 27.0772 23.2672 27.066 23.2751C26.9468 23.3424 27.0978 23.2612 27.1407 23.2393Z" fill="#183453"/>
<path d="M26.6329 23.4476C26.6026 23.4517 26.5723 23.4559 26.5515 23.4619C26.5212 23.466 26.4892 23.4799 26.4493 23.4822C26.5099 23.4739 26.5706 23.4656 26.6329 23.4476Z" fill="#183453"/>
<path d="M24.9882 23.4331C24.9518 23.4161 24.9137 23.4087 24.8868 23.3935C24.8582 23.3879 24.8296 23.3824 24.8027 23.3672C24.8582 23.3879 24.9232 23.4105 24.9882 23.4331Z" fill="#183453"/>
<path d="M25.7471 23.5447C25.7186 23.5392 25.6788 23.5415 25.6502 23.5359C25.62 23.5401 25.5914 23.5345 25.5517 23.5368C25.62 23.5401 25.6883 23.5433 25.7471 23.5447Z" fill="#183453"/>
<path d="M24.465 23.2188C24.438 23.2035 24.4127 23.1785 24.3857 23.1631C24.3587 23.1478 24.3317 23.1325 24.3047 23.1172C24.3587 23.1478 24.411 23.1882 24.465 23.2188Z" fill="#183453"/>
<path d="M23.8141 22.4892C23.7609 22.3982 23.8857 22.6444 23.8577 22.5785C23.8499 22.5668 23.8437 22.5455 23.8359 22.5339C23.8281 22.5222 23.8219 22.5009 23.8141 22.4892Z" fill="#183453"/>
<path d="M23.6963 22.1502C23.6918 22.1189 23.6777 22.0858 23.6732 22.0546C23.6687 22.0233 23.6546 21.9902 23.6484 21.9688C23.6687 22.0233 23.6777 22.0858 23.6963 22.1502Z" fill="#183453"/>
<path d="M24.0203 22.8201C23.9701 22.77 24.1582 22.988 24.094 22.905C24.0862 22.8934 24.0784 22.8818 24.0689 22.8799L24.0611 22.8683C24.0454 22.8451 24.0281 22.8317 24.0203 22.8201Z" fill="#183453"/>
<path d="M28.0246 21.779C28.0083 21.8164 27.9999 21.8654 27.9837 21.9028C27.9803 21.9224 27.9769 21.942 27.9624 21.9696C27.9932 21.9046 28.0145 21.8378 28.0246 21.779Z" fill="#183453"/>
<path d="M28.3555 19.4922C28.3504 19.5216 28.3548 19.5529 28.3498 19.5823C28.343 19.6215 28.3475 19.6528 28.3502 19.6939C28.3509 19.6332 28.3532 19.5627 28.3555 19.4922Z" fill="#183453"/>
<path d="M27.6609 22.6771C27.6463 22.7047 27.6333 22.7224 27.6187 22.75C27.6041 22.7775 27.5782 22.813 27.5636 22.8405C27.5928 22.7854 27.6221 22.7304 27.6609 22.6771Z" fill="#183453"/>
<path d="M28.6235 16.228C28.2501 16.3879 28.0634 16.7866 28.193 17.1864C28.2009 17.198 28.2071 17.2195 28.2054 17.2293C28.2071 17.2195 28.1992 17.2078 28.2009 17.198C28.2088 17.2097 28.2071 17.2195 28.2133 17.2409C28.3625 17.5838 28.7923 17.7892 29.1337 17.6433C29.5071 17.4834 29.6938 17.0847 29.5642 16.6849C29.4392 16.3164 28.9744 16.084 28.6235 16.228Z" fill="#183453"/>
<path d="M24.1051 24.6635C24.8035 24.9823 25.5884 25.0848 26.3442 25.0094C26.9895 24.9428 27.6949 24.7562 28.2038 24.3285C28.9124 23.7168 29.2868 22.8576 29.5208 21.9506C29.7515 21.0632 29.8208 20.1343 29.8293 19.2137C29.836 18.536 29.8139 17.8526 29.6797 17.188C29.6473 17.0296 29.6149 16.8713 29.5712 16.7209C29.701 17.1212 29.514 17.5205 29.14 17.6806C28.7981 17.8266 28.3676 17.621 28.2182 17.2777C28.229 17.3304 28.2398 17.3832 28.2523 17.4262C28.2477 17.3949 28.2352 17.3519 28.2211 17.3188C28.3707 18.0675 28.3952 18.8527 28.3655 19.607C28.3706 19.5775 28.366 19.5462 28.371 19.5168C28.3689 19.5873 28.3684 19.6481 28.3663 19.7186C28.373 19.6794 28.3684 19.6481 28.3655 19.607C28.3309 20.3907 28.237 21.173 28.0123 21.9095C28.0285 21.8721 28.0369 21.8231 28.0532 21.7857C28.0319 21.8525 28.0123 21.9095 27.991 21.9763C27.9943 21.9567 27.9977 21.937 28.0123 21.9095C27.9125 22.2042 27.7951 22.4853 27.6412 22.7492C27.6558 22.7216 27.6687 22.7039 27.6833 22.6763C27.6445 22.7295 27.6153 22.7846 27.5765 22.8379C27.5911 22.8103 27.617 22.7748 27.6316 22.7473C27.541 22.8715 27.4505 22.9957 27.3425 23.1064C27.3425 23.1064 27.3425 23.1064 27.3442 23.0966C27.3796 23.0629 27.4134 23.0391 27.3554 23.0886L27.3442 23.0966C27.3442 23.0966 27.3442 23.0966 27.3329 23.1045C27.3329 23.1045 27.2862 23.1461 27.2845 23.1559C27.2845 23.1559 27.3087 23.1302 27.3329 23.1045C27.3087 23.1302 27.2766 23.1442 27.2524 23.1699C27.1961 23.2095 27.1398 23.2492 27.0835 23.2889C27.1043 23.2828 27.1269 23.267 27.1477 23.2609C27.1043 23.2828 26.9517 23.3645 27.0722 23.2969C27.0722 23.2969 27.0722 23.2969 27.0835 23.2889L27.0722 23.2969C27.008 23.3249 26.9438 23.3529 26.8813 23.3711C26.7754 23.4112 26.6711 23.4415 26.5686 23.462C26.599 23.4578 26.6295 23.4536 26.6503 23.4476C26.5878 23.4658 26.5269 23.4742 26.4644 23.4924C26.4948 23.4882 26.5269 23.4742 26.5669 23.4718C26.2705 23.5255 25.9679 23.5576 25.6623 23.5486C25.6911 23.5543 25.7311 23.5519 25.7598 23.5575C25.6911 23.5542 25.6319 23.5528 25.5631 23.5495C25.5919 23.5552 25.6223 23.551 25.6623 23.5486C25.3985 23.5275 25.1396 23.477 24.8858 23.3971C24.9225 23.4144 24.9608 23.4218 24.9879 23.4373C24.9225 23.4144 24.8666 23.3933 24.8012 23.3704C24.83 23.376 24.8587 23.3816 24.8858 23.3971C24.7183 23.334 24.5541 23.2512 24.3916 23.1587C24.4187 23.1741 24.4441 23.1994 24.4712 23.2148C24.4187 23.1741 24.3645 23.1433 24.312 23.1026C24.3391 23.1181 24.3662 23.1335 24.3933 23.1489C24.3058 23.0812 24.2183 23.0134 24.142 22.9377C24.1166 22.9125 24.1008 22.8891 24.0754 22.8639C24.0833 22.8756 24.0912 22.8873 24.1008 22.8891C24.1658 22.9728 23.985 22.755 24.0262 22.8036C24.0437 22.8172 24.0516 22.8289 24.0691 22.8424L24.0771 22.8541C24.0358 22.8055 23.9946 22.7569 23.9646 22.7004C23.925 22.642 23.8871 22.5738 23.8476 22.5154C23.8555 22.5271 23.8617 22.5486 23.8697 22.5602C23.898 22.6266 23.7639 22.3673 23.8255 22.4706C23.8334 22.4822 23.8397 22.5037 23.8476 22.5154C23.8318 22.492 23.8255 22.4706 23.8097 22.4472C23.7531 22.3145 23.7077 22.1739 23.672 22.0352C23.6765 22.0665 23.6811 22.0978 23.6953 22.131C23.6765 22.0665 23.6674 22.0039 23.6487 21.9394C23.6533 21.9707 23.6674 22.0039 23.6736 22.0254C23.623 21.7419 23.6027 21.4542 23.6129 21.1622C23.6079 21.1917 23.6125 21.223 23.6074 21.2524C23.6096 21.1819 23.61 21.1211 23.6121 21.0506C23.615 21.0917 23.61 21.1211 23.6129 21.1622C23.6429 20.5803 23.7399 20.0114 23.9041 19.4557C23.8991 19.4851 23.8845 19.5126 23.8795 19.5421C23.9008 19.4753 23.9204 19.4183 23.9417 19.3515C23.935 19.3908 23.9204 19.4183 23.9137 19.4575C24.0937 18.9251 24.3312 18.404 24.6212 17.9234C24.6066 17.951 24.5824 17.9767 24.5678 18.0042C24.6066 17.951 24.6358 17.8959 24.6746 17.8427C24.66 17.8702 24.6454 17.8978 24.6212 17.9234C24.7668 17.7086 24.922 17.4957 25.0851 17.2945C25.1723 17.1899 25.2708 17.0773 25.3675 16.9746C25.4159 16.9232 25.4756 16.8639 25.524 16.8126C25.5352 16.8046 25.5465 16.7967 25.5482 16.7869C25.5256 16.8028 25.5127 16.8205 25.4902 16.8364C25.5256 16.8028 25.574 16.7514 25.5482 16.7869C25.5594 16.779 25.5724 16.7612 25.5836 16.7533C25.7575 16.6048 25.9473 16.4797 26.1466 16.3564C26.1353 16.3644 26.1466 16.3564 26.2367 16.2929C26.2029 16.3168 26.1708 16.3308 26.1466 16.3564C26.1691 16.3406 26.235 16.3028 26.2767 16.2906C26.3297 16.2706 26.3843 16.2407 26.4468 16.2225C26.5206 16.1964 26.604 16.1721 26.6761 16.1558C26.6457 16.16 26.6153 16.1642 26.5848 16.1683C26.6474 16.1501 26.7082 16.1418 26.7708 16.1236C26.7403 16.1278 26.7082 16.1418 26.6778 16.146C26.7995 16.1292 26.9213 16.1124 27.0396 16.1152C27.0013 16.1078 26.9709 16.1119 26.9325 16.1045C27.0013 16.1078 27.0605 16.1092 27.1293 16.1125C27.1005 16.1069 27.0701 16.111 27.0396 16.1152C27.1372 16.1241 27.233 16.1429 27.3368 16.1732C27.3097 16.1578 27.2714 16.1503 27.2443 16.1349C27.3097 16.1578 27.3656 16.1789 27.431 16.2018C27.4022 16.1962 27.3656 16.1789 27.3368 16.1732C27.4293 16.2116 27.5123 16.248 27.5918 16.3041C27.5743 16.2906 27.5473 16.2751 27.5298 16.2616C27.5823 16.3022 27.6364 16.3331 27.6889 16.3737C27.6523 16.3564 27.6268 16.3312 27.5902 16.3139C27.6602 16.3681 27.7302 16.4223 27.7985 16.4863C27.816 16.4999 27.8318 16.5232 27.8493 16.5368C27.8414 16.5251 27.8335 16.5134 27.8256 16.5017C27.7527 16.4064 27.9605 16.6396 27.8747 16.562C27.8668 16.5503 27.8589 16.5387 27.8493 16.5368C27.8826 16.5737 27.9064 16.6087 27.9397 16.6456C27.9713 16.6924 28.0109 16.7507 28.0426 16.7975C28.0584 16.8208 28.0663 16.8325 28.0725 16.854C28.0646 16.8423 28.0567 16.8306 28.0584 16.8208C28.0284 16.7643 28.1641 17.0138 28.0884 16.8773L28.0805 16.8657C28.1308 16.9768 28.1812 17.088 28.2203 17.2071C28.0905 16.8068 28.2775 16.4075 28.6515 16.2474C29.003 16.1032 29.4701 16.3262 29.5937 16.705C29.2604 15.6974 28.4635 14.8527 27.4136 14.6782C26.172 14.4662 25.061 15.1716 24.2401 16.035C23.3467 16.9754 22.7473 18.1657 22.4226 19.43C22.2547 20.0661 22.1922 20.7228 22.1888 21.3809C22.1852 21.8666 22.2582 22.3673 22.4372 22.8279C22.703 23.65 23.3237 24.3083 24.1051 24.6635Z" fill="#183453"/>
<path d="M27.3339 23.0953C27.3218 23.1035 27.3218 23.1035 27.3339 23.0953V23.0953Z" fill="#183453"/>
<path d="M24.5714 18.0123C24.586 17.9848 24.6101 17.9591 24.6247 17.9316C24.6392 17.904 24.6538 17.8765 24.6779 17.8508C24.6392 17.904 24.6006 17.9572 24.5714 18.0123Z" fill="#183453"/>
<path d="M28.0411 16.8157C28.0489 16.8274 28.0568 16.839 28.0551 16.8488L28.063 16.8604C28.1463 17.0078 28.0129 16.7497 28.0411 16.8157Z" fill="#183453"/>
<path d="M27.8112 16.4956C27.819 16.5072 27.8268 16.5188 27.8346 16.5304C27.8425 16.542 27.8503 16.5536 27.8598 16.5554C27.9429 16.6421 27.7375 16.4107 27.8112 16.4956Z" fill="#183453"/>
<path d="M27.2402 16.1562C27.2688 16.1618 27.3052 16.1788 27.3322 16.194C27.3607 16.1996 27.3972 16.2166 27.4257 16.2222C27.3607 16.1996 27.2957 16.177 27.2402 16.1562Z" fill="#183453"/>
<path d="M27.5234 16.2656C27.5409 16.2791 27.5679 16.2944 27.5853 16.3079C27.6219 16.325 27.6472 16.3501 27.6838 16.3673C27.6298 16.3366 27.5774 16.2963 27.5234 16.2656Z" fill="#183453"/>
<path d="M28.2021 17.2497C28.2037 17.24 28.1956 17.2284 28.1973 17.2188C28.2054 17.2304 28.2037 17.24 28.2021 17.2497Z" fill="#183453"/>
<path d="M28.1895 17.1953C28.194 17.2265 28.2081 17.2595 28.2126 17.2907C28.2064 17.2693 28.2081 17.2595 28.2019 17.2381C28.194 17.2265 28.1973 17.2069 28.1895 17.1953Z" fill="#183453"/>
<path d="M26.1499 16.3599C26.1833 16.3362 26.2151 16.3222 26.2391 16.2967C26.1499 16.3599 26.1371 16.3775 26.1499 16.3599Z" fill="#183453"/>
<path d="M26.9306 16.1306C26.9687 16.138 26.9989 16.1338 27.037 16.1412C27.0672 16.1371 27.0958 16.1426 27.126 16.1385C27.0577 16.1352 26.9894 16.132 26.9306 16.1306Z" fill="#183453"/>
<path d="M25.4934 16.8542C25.5063 16.8365 25.5288 16.8207 25.5514 16.8048C25.5868 16.7713 25.5305 16.8109 25.4934 16.8542Z" fill="#183453"/>
<path d="M23.8802 19.5559C23.8853 19.5264 23.9003 19.4989 23.9054 19.4694C23.9122 19.4301 23.9272 19.4025 23.934 19.3632C23.9221 19.432 23.9003 19.4989 23.8802 19.5559Z" fill="#183453"/>
<path d="M28.218 17.2775C28.2322 17.3106 28.2352 17.3517 28.2494 17.3848C28.2385 17.3321 28.2277 17.2793 28.2151 17.2364C28.2151 17.2364 28.2151 17.2364 28.2168 17.2266C28.2134 17.2462 28.2101 17.2658 28.218 17.2775Z" fill="#183453"/>
<path d="M26.588 16.1697C26.6183 16.1656 26.6486 16.1614 26.6789 16.1573C26.7093 16.1531 26.7413 16.1392 26.7716 16.1351C26.7109 16.1434 26.6503 16.1517 26.588 16.1697Z" fill="#183453"/>
<path d="M23.6139 21.2642C23.619 21.2348 23.6145 21.2035 23.6196 21.1741C23.6168 21.133 23.6219 21.1036 23.6191 21.0625C23.6168 21.133 23.6145 21.2035 23.6139 21.2642Z" fill="#183453"/>
<path d="M18.0988 24.2701C18.1133 24.2426 18.1262 24.2249 18.1503 24.1992C18.1649 24.1716 18.1907 24.1362 18.2053 24.1086C18.1666 24.1618 18.1375 24.2169 18.0988 24.2701Z" fill="#183453"/>
<path d="M18.2677 28.9532C18.2407 28.9379 18.2154 28.9128 18.1884 28.8975C18.1614 28.8822 18.1344 28.8669 18.1074 28.8516C18.1614 28.8822 18.2154 28.9128 18.2677 28.9532Z" fill="#183453"/>
<path d="M18.7441 29.1519C18.7077 29.1348 18.6791 29.1293 18.6427 29.1122C18.6141 29.1067 18.5855 29.1011 18.5586 29.0859C18.6236 29.1085 18.6791 29.1293 18.7441 29.1519Z" fill="#183453"/>
<path d="M17.3866 27.6973C17.382 27.6661 17.3775 27.6348 17.3729 27.6035C17.3683 27.5722 17.3542 27.5391 17.3496 27.5078C17.3587 27.5704 17.3775 27.6348 17.3866 27.6973Z" fill="#183453"/>
<path d="M17.5072 25.6184C17.5122 25.5889 17.5256 25.5712 17.5306 25.5417C17.5374 25.5024 17.5541 25.465 17.5609 25.4257C17.5491 25.4945 17.5273 25.5614 17.5072 25.6184Z" fill="#183453"/>
<path d="M17.5612 28.1471C17.5629 28.1373 17.5533 28.1354 17.555 28.1257C17.4933 28.0226 17.6354 28.2931 17.5612 28.1471Z" fill="#183453"/>
<path d="M17.2995 26.8736C17.3062 26.8343 17.3018 26.8031 17.3085 26.7638C17.3136 26.7344 17.3091 26.7031 17.3047 26.6719C17.3041 26.7326 17.3018 26.8031 17.2995 26.8736Z" fill="#183453"/>
<path d="M17.8412 28.5748C17.8333 28.5632 17.8239 28.5613 17.816 28.5498C17.7329 28.463 17.9539 28.7176 17.8412 28.5748Z" fill="#183453"/>
<path d="M20.9844 25.1562C20.9889 25.1875 21.003 25.2206 21.0058 25.2617C21.0103 25.2929 21.0149 25.3242 21.0306 25.3475C21.012 25.2831 21.003 25.2206 20.9844 25.1562Z" fill="#183453"/>
<path d="M21.1816 26.9375C21.1749 26.9768 21.1797 27.0082 21.173 27.0475C21.1679 27.077 21.1728 27.1084 21.1677 27.1379C21.1778 27.0789 21.1797 27.0082 21.1816 26.9375Z" fill="#183453"/>
<path d="M21.0375 27.996C21.0324 28.0255 21.0174 28.0531 21.0123 28.0825C21.0055 28.1218 20.9905 28.1494 20.9837 28.1887C20.9939 28.1297 21.0157 28.0629 21.0375 27.996Z" fill="#183453"/>
<path d="M20.4997 23.7632C20.4482 23.6623 20.4701 23.7069 20.4997 23.7632C20.5232 23.798 20.559 23.8756 20.4997 23.7632Z" fill="#183453"/>
<path d="M20.5755 28.8769C20.5643 28.8848 20.5515 28.9025 20.5403 28.9104L20.5291 28.9183C20.518 28.9262 20.5052 28.9439 20.494 28.9518C20.4365 29.0011 20.6329 28.8276 20.5755 28.8769Z" fill="#183453"/>
<path d="M20.1212 29.1663C20.0909 29.1705 20.0701 29.1765 20.0398 29.1807C20.0078 29.1946 19.9679 29.1969 19.9359 29.2108C20.0078 29.1946 20.0701 29.1765 20.1212 29.1663Z" fill="#183453"/>
<path d="M20.2525 29.1026C20.1761 29.1481 20.3589 29.0529 20.3495 29.051C20.3383 29.0589 20.3177 29.065 20.3065 29.0729L20.2954 29.0808C20.2748 29.0868 20.2636 29.0947 20.2525 29.1026Z" fill="#183453"/>
<path d="M20.8107 28.5539C20.7962 28.5815 20.7737 28.5974 20.7592 28.6249C20.7446 28.6524 20.7284 28.6898 20.7042 28.7154C20.7429 28.6622 20.7816 28.609 20.8107 28.5539Z" fill="#183453"/>
<path d="M19.4268 29.2479C19.3982 29.2423 19.368 29.2464 19.3299 29.2391C19.2997 29.2432 19.2616 29.2358 19.2313 29.2399C19.2902 29.2413 19.3585 29.2446 19.4268 29.2479Z" fill="#183453"/>
<path d="M19.7291 22.9311C19.7205 22.9188 19.7205 22.9188 19.7291 22.9311C19.7188 22.9291 19.7188 22.9291 19.7291 22.9311Z" fill="#183453"/>
<path d="M18.817 23.3493C18.8282 23.3414 18.8394 23.3335 18.8523 23.3159C18.8539 23.3061 18.8635 23.308 18.8651 23.2982C18.9341 23.241 18.7481 23.4065 18.817 23.3493Z" fill="#183453"/>
<path d="M19.7953 22.9462C19.8142 22.9499 19.8426 22.9554 19.8615 22.9591C19.8159 22.9402 19.7781 22.9329 19.7324 22.9141C19.7497 22.9274 19.7669 22.9407 19.7953 22.9462Z" fill="#183453"/>
<path d="M19.793 22.9531C19.8389 22.9721 19.8928 23.0025 19.9387 23.0214C19.9118 23.0062 19.8866 22.9813 19.8596 22.9661C19.8406 22.9624 19.812 22.9568 19.793 22.9531Z" fill="#183453"/>
<path d="M19.9389 23.0304C19.9659 23.0457 19.9929 23.0611 20.0199 23.0764C19.9659 23.0457 19.9231 23.0072 19.8691 22.9766C19.8866 22.99 19.9136 23.0053 19.9389 23.0304Z" fill="#183453"/>
<path d="M19.7995 22.9395C19.7726 22.9243 19.7535 22.9206 19.7266 22.9054C19.698 22.8998 19.6773 22.9058 19.6471 22.91C19.7042 22.921 19.7518 22.9302 19.7995 22.9395Z" fill="#183453"/>
<path d="M18.0494 30.4447C18.6828 30.6798 19.3491 30.7795 20.0168 30.697C20.2489 30.6714 20.494 30.6281 20.717 30.5399C21.0893 30.3896 21.4141 30.1693 21.6931 29.8691C22.1881 29.3477 22.4528 28.609 22.5749 27.8931C22.6941 27.1362 22.6826 26.3334 22.5538 25.5787C22.4347 24.8259 22.2389 24.0581 21.9113 23.3659C21.8247 23.1767 21.7286 22.9857 21.6212 22.8026C21.8264 23.1669 21.7753 23.5825 21.4438 23.8421C21.1478 24.068 20.6269 23.9866 20.4279 23.6438C20.4421 23.6769 20.4675 23.7021 20.4816 23.7353C20.4799 23.7451 20.4895 23.747 20.4974 23.7587C20.4754 23.7138 20.4533 23.669 20.5053 23.7703C20.5653 23.8834 20.5291 23.8054 20.4974 23.7587C20.5053 23.7703 20.5116 23.7918 20.5116 23.7918C20.5257 23.825 20.5399 23.8581 20.5636 23.8932C20.636 24.0492 20.691 24.1916 20.7521 24.3555C20.8603 24.6503 20.9476 24.951 21.0237 25.2597C21.0191 25.2284 21.005 25.1953 21.0021 25.1542C21.0208 25.2186 21.0299 25.2812 21.0486 25.3457C21.0441 25.3144 21.0395 25.2831 21.0237 25.2597C21.1504 25.8519 21.2084 26.4408 21.1943 27.046C21.201 27.0068 21.1964 26.9755 21.2031 26.9363C21.201 27.0068 21.2005 27.0675 21.1984 27.138C21.2034 27.1086 21.1989 27.0773 21.2039 27.0479C21.1837 27.3986 21.1347 27.7437 21.0395 28.0696C21.0445 28.0402 21.0591 28.0126 21.0641 27.9832C21.0428 28.05 21.0232 28.107 21.0019 28.1737C21.0086 28.1345 21.0232 28.107 21.0299 28.0677C20.9677 28.2583 20.8863 28.445 20.7891 28.6084C20.8037 28.5809 20.8262 28.565 20.8408 28.5375C20.802 28.5907 20.7728 28.6458 20.734 28.699C20.7486 28.6715 20.7649 28.6341 20.7891 28.6084C20.7244 28.6971 20.6598 28.7859 20.5872 28.8629C20.5759 28.8708 20.563 28.8886 20.5518 28.8965L20.563 28.8886C20.5743 28.8806 20.5872 28.8629 20.5985 28.8549C20.6564 28.8055 20.4567 28.9894 20.5163 28.9301C20.5276 28.9222 20.5405 28.9044 20.5518 28.8965C20.5051 28.938 20.4488 28.9777 20.3925 29.0174C20.37 29.0333 20.3475 29.0491 20.3249 29.065C20.3362 29.0571 20.357 29.051 20.3683 29.0431C20.3683 29.0431 20.1932 29.1406 20.2703 29.0949C20.2816 29.0869 20.3024 29.0809 20.3137 29.0729L20.3249 29.065C20.2816 29.0869 20.2286 29.107 20.1853 29.1289C20.1436 29.1411 20.1115 29.1551 20.0698 29.1672C20.1002 29.163 20.1211 29.1569 20.1515 29.1527C20.089 29.1709 20.0281 29.1793 19.9656 29.1975C19.996 29.1933 20.0377 29.1812 20.0698 29.1672C19.8343 29.2124 19.5943 29.2264 19.348 29.2188C19.3767 29.2244 19.4071 29.2202 19.4455 29.2277C19.3767 29.2244 19.3175 29.223 19.2488 29.2197C19.2775 29.2253 19.3175 29.223 19.348 29.2188C19.1129 29.2033 18.8829 29.1584 18.6579 29.0841C18.6946 29.1014 18.7233 29.107 18.76 29.1243C18.6946 29.1014 18.6387 29.0803 18.5733 29.0574C18.6021 29.0631 18.6292 29.0785 18.6579 29.0841C18.5 29.0229 18.3438 28.9518 18.2004 28.8631C18.2275 28.8785 18.2529 28.9037 18.28 28.9191C18.2275 28.8785 18.1734 28.8476 18.1209 28.807C18.148 28.8224 18.175 28.8378 18.2021 28.8533C18.0955 28.7818 18.0001 28.7023 17.916 28.615C17.8905 28.5898 17.8747 28.5664 17.8476 28.551C17.9617 28.6949 17.7381 28.4384 17.8222 28.5258C17.8302 28.5374 17.8397 28.5393 17.8381 28.5491C17.7793 28.487 17.7319 28.4169 17.6844 28.3469C17.6369 28.2768 17.5991 28.2086 17.5533 28.1287C17.6257 28.2847 17.4854 28.004 17.547 28.1073C17.5454 28.1171 17.5549 28.1189 17.5533 28.1287C17.5533 28.1287 17.5533 28.1287 17.5454 28.1171C17.5233 28.0722 17.5012 28.0274 17.4888 27.9844C17.4322 27.8518 17.3947 27.7229 17.359 27.5842C17.3635 27.6155 17.3681 27.6468 17.3727 27.678C17.354 27.6136 17.3448 27.551 17.3261 27.4866C17.3307 27.5178 17.3448 27.551 17.3494 27.5823C17.297 27.3086 17.2751 27.0308 17.2836 26.7487C17.2769 26.7879 17.2815 26.8192 17.2748 26.8584C17.2769 26.7879 17.2774 26.7272 17.2795 26.6567C17.2745 26.6861 17.2791 26.7174 17.2836 26.7487C17.3156 26.3294 17.3842 25.9273 17.5024 25.5248C17.4973 25.5542 17.4844 25.5719 17.4794 25.6014C17.5007 25.5346 17.5203 25.4776 17.5416 25.4109C17.5253 25.4482 17.5186 25.4874 17.5119 25.5267C17.661 25.0593 17.8659 24.6129 18.125 24.1973C18.1104 24.2249 18.0975 24.2426 18.0733 24.2683C18.1121 24.2151 18.1413 24.16 18.1801 24.1068C18.1654 24.1343 18.1396 24.1698 18.125 24.1973C18.3369 23.8841 18.5663 23.5843 18.8386 23.3234C18.8273 23.3313 18.8161 23.3392 18.8031 23.357C18.7339 23.4144 18.9207 23.2482 18.8515 23.3056C18.8499 23.3154 18.8403 23.3135 18.8386 23.3234C18.8498 23.3154 18.8515 23.3056 18.8628 23.2977C18.8982 23.2641 18.9433 23.2323 18.9787 23.1987C19.0575 23.1432 19.1363 23.0876 19.2134 23.0419L19.2247 23.0339C19.2134 23.0419 19.2038 23.04 19.1926 23.0479C19.1171 23.0839 19.3452 22.9663 19.268 23.012C19.2568 23.0199 19.2359 23.026 19.2247 23.0339C19.2568 23.0199 19.2793 23.0041 19.3097 22.9999C19.3627 22.9798 19.4252 22.9616 19.4781 22.9416C19.4477 22.9458 19.4077 22.9481 19.3756 22.9621C19.4381 22.9439 19.499 22.9355 19.5615 22.9173C19.5311 22.9215 19.5102 22.9276 19.4781 22.9416C19.5294 22.9313 19.579 22.9309 19.6286 22.9304C19.5998 22.9248 19.5807 22.921 19.5519 22.9154C19.6015 22.915 19.6494 22.9243 19.699 22.9239C19.6894 22.922 19.6799 22.9201 19.6719 22.9085C19.6815 22.9103 19.6911 22.9122 19.7007 22.9141C19.7103 22.916 19.7295 22.9197 19.7407 22.9118C19.7311 22.9099 19.712 22.9061 19.7007 22.9141C19.7469 22.9332 19.7853 22.9407 19.8315 22.9599C19.8315 22.9599 19.8315 22.9599 19.8411 22.9618C19.8953 22.9926 19.9382 23.0314 19.9923 23.0622C19.9653 23.0468 19.9382 23.0314 19.9111 23.016C19.9461 23.043 19.9811 23.0701 20.0065 23.0954C20.0415 23.1225 20.0669 23.1477 20.0906 23.1827C20.0906 23.1827 20.1002 23.1846 20.0985 23.1944C20.1414 23.2332 20.1872 23.313 20.1143 23.2178C20.211 23.3481 20.3155 23.4901 20.3991 23.6381C20.1939 23.2738 20.245 22.8582 20.5765 22.5987C20.7245 22.4857 20.9488 22.4484 21.1213 22.4821C21.2938 22.5158 21.5008 22.6373 21.5924 22.797C21.3256 22.3295 20.9591 21.9235 20.4987 21.6614C20.0367 21.4091 19.5266 21.3804 19.0314 21.4966C18.5458 21.6145 18.126 21.9278 17.7603 22.2718C17.4187 22.5902 17.1472 22.9628 16.8915 23.3587C16.3896 24.1524 16.0373 25.0564 15.8863 25.9997C15.7453 26.8841 15.786 27.8648 16.191 28.6836C16.6089 29.4846 17.2294 30.1428 18.0494 30.4447Z" fill="#183453"/>
<path d="M21.1556 22.4742C20.9833 22.4406 20.7594 22.4778 20.6116 22.5907C20.2805 22.8499 20.2295 23.265 20.4345 23.6289C20.6332 23.9713 21.1534 24.0526 21.449 23.827C21.7801 23.5678 21.8311 23.1527 21.6261 22.7888C21.533 22.639 21.3183 22.506 21.1556 22.4742Z" fill="#183453"/>
<path d="M19.721 22.9261C19.6717 22.9266 19.6241 22.9173 19.5748 22.9178C19.6034 22.9233 19.6224 22.927 19.651 22.9325C19.6717 22.9266 19.702 22.9224 19.721 22.9261Z" fill="#183453"/>
<path d="M19.389 22.9608C19.4194 22.9566 19.4609 22.9446 19.4912 22.9404C19.5216 22.9363 19.544 22.9205 19.5744 22.9163C19.512 22.9344 19.4497 22.9524 19.389 22.9608Z" fill="#183453"/>
<path d="M19.2139 23.0534C19.2251 23.0455 19.2345 23.0473 19.2457 23.0394C19.2568 23.0316 19.2775 23.0255 19.2886 23.0176C19.3571 22.9605 19.1409 23.0794 19.2139 23.0534Z" fill="#183453"/>
<path d="M20.1367 23.1953C20.1453 23.2076 20.1453 23.2076 20.1539 23.2198C20.1453 23.2076 20.135 23.2056 20.1367 23.1953Z" fill="#183453"/>
<path d="M19.7698 22.9213C19.7605 22.9195 19.7418 22.9159 19.7308 22.9236C19.7308 22.9236 19.7308 22.9236 19.7401 22.9254C19.7418 22.9159 19.7511 22.9177 19.7698 22.9213Z" fill="#183453"/>
<path d="M36.4941 22.2422C36.4874 22.2815 36.4922 22.3129 36.4855 22.3522C36.4804 22.3817 36.4853 22.4131 36.4802 22.4426C36.492 22.3738 36.4939 22.3031 36.4941 22.2422Z" fill="#183453"/>
<path d="M35.8928 24.7805C35.8782 24.808 35.8541 24.8337 35.8395 24.8613C35.825 24.8888 35.8104 24.9163 35.7863 24.942C35.825 24.8888 35.8636 24.8356 35.8928 24.7805Z" fill="#183453"/>
<path d="M36.3262 20.5391C36.3307 20.5703 36.3352 20.6016 36.3493 20.6347C36.3538 20.6659 36.3679 20.6991 36.3724 20.7303C36.3538 20.6659 36.3448 20.6034 36.3262 20.5391Z" fill="#183453"/>
<path d="M36.2258 23.9586C36.2095 23.996 36.2045 24.0255 36.1882 24.0629C36.1832 24.0923 36.1686 24.1199 36.1635 24.1493C36.1943 24.0843 36.2045 24.0255 36.2258 23.9586Z" fill="#183453"/>
<path d="M35.5774 25.1875C35.5646 25.2052 35.5439 25.2112 35.5311 25.2289C35.5199 25.2368 35.5183 25.2466 35.5071 25.2545C35.4351 25.3312 35.6349 25.1382 35.5774 25.1875Z" fill="#183453"/>
<path d="M35.2806 25.4284C35.26 25.4344 35.2489 25.4423 35.2283 25.4483C35.2171 25.4562 35.2171 25.4562 35.2076 25.4544C35.1965 25.4623 35.1854 25.4702 35.1759 25.4683C35.0979 25.5235 35.2823 25.4186 35.2806 25.4284Z" fill="#183453"/>
<path d="M33.775 18.15C33.7861 18.1421 33.7973 18.1343 33.8067 18.1361C33.8179 18.1282 33.829 18.1203 33.8402 18.1124C33.9388 18.0511 33.6685 18.1998 33.775 18.15Z" fill="#183453"/>
<path d="M34.0118 18.0447C34.0533 18.0327 34.0837 18.0285 34.1235 18.0262C34.1443 18.0202 34.1746 18.0161 34.1954 18.0101C34.1348 18.0184 34.0741 18.0267 34.0118 18.0447Z" fill="#183453"/>
<path d="M34.3095 17.9821C34.338 17.9877 34.3778 17.9854 34.4064 17.9909C34.4366 17.9868 34.4747 17.9942 34.5049 17.99C34.4366 17.9868 34.3683 17.9835 34.3095 17.9821Z" fill="#183453"/>
<path d="M33.4853 18.3642C33.487 18.3544 33.487 18.3544 33.4853 18.3642C33.4981 18.3465 33.5093 18.3386 33.5205 18.3307C33.6036 18.246 33.3592 18.4707 33.4853 18.3642Z" fill="#183453"/>
<path d="M35.4173 18.5634C35.3436 18.4786 35.3749 18.5249 35.4173 18.5634C35.4095 18.5518 35.4095 18.5518 35.4173 18.5634C35.4988 18.6599 35.4251 18.575 35.4173 18.5634Z" fill="#183453"/>
<path d="M34.6172 18.0156C34.6458 18.0212 34.6727 18.0364 34.6996 18.0516C34.7377 18.059 34.7646 18.0742 34.8027 18.0815C34.7377 18.059 34.6727 18.0364 34.6172 18.0156Z" fill="#183453"/>
<path d="M35.8611 19.2425C35.869 19.2541 35.8769 19.2658 35.8848 19.2774C35.921 19.3553 35.8107 19.1315 35.8611 19.2425Z" fill="#183453"/>
<path d="M34.9434 18.1641C34.9704 18.1794 34.9957 18.2044 35.0227 18.2198C35.0497 18.2351 35.0767 18.2504 35.1037 18.2657C35.0497 18.2351 34.9974 18.1947 34.9434 18.1641Z" fill="#183453"/>
<path d="M34.8985 25.596C34.8682 25.6002 34.8379 25.6043 34.8076 25.6085C34.7772 25.6126 34.7452 25.6265 34.7149 25.6307C34.7756 25.6223 34.8379 25.6043 34.8985 25.596Z" fill="#183453"/>
<path d="M32.2671 20.8915C32.2738 20.8522 32.2884 20.8247 32.3046 20.7873C32.3097 20.7578 32.3242 20.7303 32.3293 20.7008C32.308 20.7677 32.2867 20.8345 32.2671 20.8915Z" fill="#183453"/>
<path d="M33.1998 18.6895C33.2144 18.6621 33.2385 18.6365 33.253 18.609C33.2418 18.6169 33.2289 18.6346 33.2177 18.6425C33.2144 18.6621 33.2127 18.6719 33.1998 18.6895Z" fill="#183453"/>
<path d="M34.3546 25.6619C34.326 25.6564 34.2974 25.6508 34.2672 25.655C34.2274 25.6573 34.1893 25.6499 34.1591 25.654C34.2179 25.6554 34.2862 25.6587 34.3546 25.6619Z" fill="#183453"/>
<path d="M33.2269 18.6484C33.1993 18.6937 33.1733 18.7291 33.1457 18.7744C33.1604 18.7469 33.1863 18.7114 33.2106 18.6857C33.2139 18.6661 33.2156 18.6563 33.2269 18.6484Z" fill="#183453"/>
<path d="M32.2348 18.6894C32.5301 18.9292 32.9646 18.9331 33.2286 18.6608C33.2398 18.6528 33.2415 18.643 33.2544 18.6253C33.2527 18.6351 33.2415 18.643 33.2398 18.6528C33.2511 18.6449 33.264 18.6272 33.2752 18.6193C33.506 18.3101 33.5096 17.8251 33.1889 17.56C32.884 17.3183 32.4113 17.307 32.158 17.632C31.9081 17.9374 31.9124 18.4341 32.2348 18.6894Z" fill="#183453"/>
<path d="M32.007 26.3853C33.252 27.2162 35.0484 27.4857 36.2987 26.5441C37.174 25.8839 37.5836 24.8187 37.806 23.7473C38.0749 22.4621 38.0082 21.1113 37.6401 19.8436C37.2986 18.652 36.647 17.4202 35.5411 16.8192C34.6265 16.3164 33.4959 16.4403 32.6944 17.0743C32.4883 17.2368 32.2869 17.4305 32.1238 17.6318C32.3774 17.3063 32.8509 17.3177 33.1563 17.5597C33.4792 17.8153 33.4739 18.3108 33.2428 18.6204C33.3187 18.5238 33.393 18.4369 33.4768 18.3519L33.4655 18.3599C33.3383 18.4668 33.5832 18.2511 33.501 18.3263C33.4897 18.3342 33.4881 18.344 33.4768 18.3519C33.4993 18.3361 33.5123 18.3183 33.5348 18.3025C33.5815 18.2609 33.6265 18.2292 33.6811 18.1993C33.7149 18.1755 33.7583 18.1535 33.8016 18.1316C33.7904 18.1395 33.7791 18.1475 33.7695 18.1456C33.662 18.1955 33.9447 18.048 33.8354 18.1078C33.8242 18.1157 33.8129 18.1237 33.8016 18.1316C33.8129 18.1237 33.8338 18.1176 33.845 18.1097C33.9301 18.0756 34.0151 18.0415 34.1081 18.0191C34.0681 18.0214 34.036 18.0355 33.996 18.0378C34.0585 18.0196 34.1194 18.0112 34.1819 17.993C34.161 17.9991 34.1306 18.0033 34.1098 18.0093C34.2011 17.9967 34.3019 17.986 34.3916 17.9832C34.3628 17.9776 34.3228 17.98 34.294 17.9743C34.3628 17.9776 34.422 17.9791 34.4908 17.9823C34.462 17.9767 34.422 17.9791 34.3916 17.9832C34.4891 17.9922 34.585 18.0109 34.6887 18.0413C34.6617 18.0258 34.6329 18.0202 34.6058 18.0048C34.6712 18.0277 34.7271 18.0487 34.7925 18.0716C34.7542 18.0642 34.7271 18.0487 34.6887 18.0413C34.8004 18.0833 34.9183 18.1469 35.0171 18.2067C34.99 18.1913 34.9646 18.166 34.9375 18.1506C34.99 18.1913 35.0442 18.2221 35.0967 18.2628C35.0696 18.2473 35.0425 18.2319 35.0154 18.2165C35.0758 18.2688 35.1475 18.3132 35.2079 18.3656C35.2508 18.4043 35.2937 18.4431 35.3271 18.48C35.3525 18.5052 35.3779 18.5305 35.3937 18.5538C35.37 18.5188 35.3271 18.48 35.4016 18.5655C35.4937 18.6646 35.4191 18.5791 35.3937 18.5538C35.4016 18.5655 35.4016 18.5655 35.4112 18.5674C35.4366 18.5926 35.4604 18.6276 35.4762 18.651C35.5174 18.6996 35.5474 18.7561 35.5886 18.8047C35.6773 18.9234 35.7548 19.05 35.821 19.1845C35.8272 19.206 35.8447 19.2195 35.851 19.241C35.8006 19.1298 35.9109 19.3541 35.8747 19.2761C35.8668 19.2644 35.8589 19.2527 35.851 19.241C35.8889 19.3092 35.9172 19.3755 35.9438 19.4517C36.0004 19.5843 36.057 19.717 36.1023 19.8576C36.1981 20.1094 36.2713 20.377 36.3349 20.6428C36.3303 20.6115 36.3257 20.5802 36.3116 20.547C36.3303 20.6115 36.3394 20.6741 36.3582 20.7386C36.3536 20.7073 36.3394 20.6741 36.3349 20.6428C36.4475 21.2019 36.4992 21.7694 36.4918 22.3355C36.4985 22.2962 36.4939 22.2649 36.5006 22.2257C36.4985 22.2962 36.498 22.357 36.4959 22.4275C36.5009 22.3981 36.4964 22.3668 36.5014 22.3373C36.4714 22.9193 36.3744 23.4881 36.2102 24.0439C36.2265 24.0065 36.2315 23.9771 36.2478 23.9397C36.2265 24.0065 36.2068 24.0635 36.1855 24.1303C36.1906 24.1008 36.2052 24.0733 36.2102 24.0439C36.1233 24.3208 36.0094 24.5823 35.8683 24.8284C35.8829 24.8009 35.9071 24.7752 35.9217 24.7476C35.8829 24.8009 35.8537 24.856 35.8149 24.9092C35.8295 24.8817 35.8441 24.8541 35.8683 24.8284C35.789 24.9447 35.7019 25.0493 35.6147 25.1539C35.5905 25.1796 35.5775 25.1973 35.555 25.2132C35.568 25.1954 35.5888 25.1894 35.6017 25.1716C35.6597 25.1221 35.4583 25.3159 35.5308 25.2389C35.5421 25.2309 35.5438 25.2211 35.555 25.2132C35.4971 25.2627 35.4408 25.3024 35.3828 25.3518C35.3377 25.3836 35.2831 25.4135 35.2285 25.4433C35.2398 25.4354 35.2398 25.4354 35.2493 25.4373C35.2702 25.4312 35.2831 25.4135 35.3023 25.4172C35.3119 25.4191 35.1176 25.5129 35.1947 25.4672C35.206 25.4592 35.2172 25.4513 35.2268 25.4532C35.2043 25.469 35.1739 25.4732 35.1514 25.4891C35.0455 25.5292 34.9395 25.5694 34.8257 25.5978C34.8562 25.5936 34.8866 25.5894 34.917 25.5852C34.8545 25.6034 34.7936 25.6118 34.7311 25.63C34.7615 25.6258 34.7936 25.6118 34.8241 25.6076C34.6511 25.6347 34.4701 25.65 34.283 25.6439C34.3117 25.6495 34.3405 25.6551 34.3709 25.6509C34.3022 25.6476 34.243 25.6462 34.1742 25.6429C34.2142 25.6406 34.2526 25.6481 34.283 25.6439C34.0191 25.6228 33.762 25.5625 33.5065 25.4923C33.5336 25.5077 33.5624 25.5134 33.599 25.5307C33.5336 25.5077 33.4778 25.4867 33.4123 25.4638C33.4411 25.4694 33.4778 25.4867 33.5065 25.4923C33.2177 25.3853 32.9435 25.2507 32.6856 25.0787C32.7127 25.0941 32.7381 25.1194 32.7748 25.1367C32.7223 25.096 32.6681 25.0652 32.6156 25.0245C32.6427 25.0399 32.6698 25.0554 32.6873 25.0689C32.5998 25.0012 32.5123 24.9334 32.4248 24.8657C32.3723 24.825 32.3215 24.7746 32.2802 24.726C32.2707 24.7241 32.2723 24.7143 32.2644 24.7026C32.2644 24.7026 32.2644 24.7026 32.2723 24.7143C32.2802 24.726 32.2977 24.7395 32.3057 24.7512C32.3627 24.8231 32.1549 24.59 32.2232 24.654C32.2407 24.6676 32.2565 24.6909 32.2644 24.7026C32.2232 24.654 32.1836 24.5956 32.1536 24.5391C32.1378 24.5158 32.1141 24.4807 32.0999 24.4476C32.1078 24.4592 32.1141 24.4807 32.1203 24.5022C32.1141 24.4807 32.0983 24.4574 32.092 24.4359C32.092 24.4359 32.092 24.4359 32.0937 24.4261C32.0954 24.4163 32.0858 24.4144 32.0874 24.4046C32.0654 24.3597 32.045 24.3051 32.0733 24.3714C32.015 24.2486 31.9793 24.1098 31.9418 23.9809C31.9464 24.0122 31.9589 24.0552 31.9634 24.0865C31.9447 24.022 31.9356 23.9594 31.9169 23.895C31.9214 23.9263 31.9277 23.9477 31.9322 23.979C31.8753 23.674 31.8584 23.3667 31.8624 23.0533C31.859 23.0729 31.8557 23.0925 31.8602 23.1238C31.8624 23.0533 31.8628 22.9926 31.8649 22.9221C31.8678 22.9632 31.8595 23.0122 31.8624 23.0533C31.9066 22.2715 32.0676 21.5023 32.2923 20.7658C32.2856 20.805 32.271 20.8326 32.2547 20.8699C32.276 20.8032 32.2957 20.7462 32.317 20.6794C32.3119 20.7088 32.2973 20.7364 32.2923 20.7658C32.5233 20.0508 32.7959 19.3237 33.1831 18.6797C33.1589 18.7054 33.1427 18.7428 33.1185 18.7684C33.146 18.7232 33.1719 18.6877 33.1994 18.6424C32.9429 18.9267 32.4998 18.9112 32.204 18.671C31.8811 18.4154 31.8768 17.918 32.1175 17.6103C31.7362 18.1034 31.4724 18.7208 31.244 19.3045C30.913 20.1419 30.6552 21.0138 30.5029 21.9063C30.3602 22.8006 30.3163 23.7548 30.5929 24.6297C30.8446 25.4186 31.367 25.9564 32.007 26.3853Z" fill="#183453"/>
<path d="M33.2419 18.6209C33.2307 18.6286 33.229 18.6381 33.2161 18.6553C33.2161 18.6553 33.2161 18.6553 33.2178 18.6458C33.229 18.6381 33.2403 18.6305 33.2419 18.6209Z" fill="#183453"/>
<path d="M32.7677 25.1563C32.7407 25.141 32.7154 25.116 32.6789 25.0988C32.6519 25.0835 32.6249 25.0681 32.6074 25.0547C32.6614 25.0853 32.7137 25.1257 32.7677 25.1563Z" fill="#183453"/>
<path d="M31.8502 23.1626C31.8536 23.143 31.857 23.1234 31.8525 23.0921C31.8498 23.0511 31.8582 23.002 31.8555 22.9609C31.8627 23.0333 31.862 23.094 31.8502 23.1626Z" fill="#183453"/>
<path d="M33.5879 25.5269C33.5593 25.5213 33.5324 25.5061 33.4959 25.4891C33.4674 25.4835 33.4309 25.4665 33.4023 25.4609C33.4674 25.4835 33.5228 25.5043 33.5879 25.5269Z" fill="#183453"/>
<path d="M32.2881 24.7746C32.2803 24.763 32.263 24.7495 32.2552 24.7379C32.2552 24.7379 32.2457 24.7361 32.2474 24.7263C32.2301 24.7129 32.2144 24.6897 32.2066 24.6781C32.1407 24.6048 32.3445 24.846 32.2881 24.7746Z" fill="#183453"/>
<path d="M32.0805 24.46L32.0883 24.4715C32.0744 24.4389 32.0667 24.4274 32.0605 24.4062C32.0667 24.4274 32.0728 24.4485 32.0805 24.46Z" fill="#183453"/>
<path d="M31.953 24.127C31.9485 24.0958 31.936 24.0528 31.9314 24.0215C31.9268 23.9903 31.9206 23.9688 31.916 23.9375C31.9252 24.0001 31.9439 24.0645 31.953 24.127Z" fill="#183453"/>
<path d="M40.4238 30.2891C40.427 30.3303 40.4202 30.3696 40.4135 30.4089C40.4084 30.4384 40.415 30.4599 40.4099 30.4894C40.4217 30.4206 40.4236 30.3499 40.4238 30.2891Z" fill="#183453"/>
<path d="M40.2773 28.8047C40.2819 28.8359 40.2943 28.8789 40.2988 28.9101C40.3033 28.9414 40.3095 28.9628 40.3236 28.9959C40.305 28.9316 40.2864 28.8672 40.2773 28.8047Z" fill="#183453"/>
<path d="M40.2472 31.5368C40.2422 31.5662 40.2276 31.5938 40.2131 31.6214C40.2063 31.6606 40.1918 31.6882 40.185 31.7274C40.2063 31.6606 40.2259 31.6036 40.2472 31.5368Z" fill="#183453"/>
<path d="M39.9183 27.8058C39.9166 27.8156 39.9262 27.8174 39.9245 27.8272C39.9324 27.8389 39.9324 27.8389 39.9403 27.8505C40.0001 27.9633 39.8726 27.7261 39.9183 27.8058Z" fill="#183453"/>
<path d="M39.1347 33.1131C39.1236 33.121 39.1141 33.1191 39.1124 33.1289C38.9519 33.2083 39.2411 33.0634 39.1347 33.1131Z" fill="#183453"/>
<path d="M39.531 32.8162C39.5293 32.826 39.5197 32.8241 39.518 32.8339C39.3987 32.9522 39.6227 32.743 39.531 32.8162Z" fill="#183453"/>
<path d="M39.9383 32.31C39.9236 32.3375 39.8994 32.3632 39.8848 32.3907C39.8702 32.4182 39.8556 32.4458 39.8409 32.4733C39.8702 32.4182 39.8994 32.3632 39.9383 32.31Z" fill="#183453"/>
<path d="M37.4628 26.3547C37.4849 26.3391 37.4976 26.3217 37.5197 26.3061C37.4976 26.3217 37.4755 26.3373 37.4628 26.3547Z" fill="#183453"/>
<path d="M38.7782 27.24C38.7893 27.2321 38.8003 27.2243 38.8113 27.2164C38.7893 27.2321 38.7893 27.2321 38.7782 27.24Z" fill="#183453"/>
<path d="M38.2569 33.3416C38.2283 33.3361 38.1981 33.3402 38.1695 33.3347C38.1298 33.3369 38.1012 33.3314 38.0614 33.3337C38.1314 33.3273 38.1886 33.3384 38.2569 33.3416Z" fill="#183453"/>
<path d="M39.3887 27.1797C39.4157 27.195 39.4331 27.2085 39.4585 27.2336C39.4855 27.2489 39.522 27.2661 39.5474 27.2912C39.495 27.2508 39.4427 27.2104 39.3887 27.1797Z" fill="#183453"/>
<path d="M39.6133 27.3438C39.6194 27.3651 39.6462 27.3804 39.654 27.392C39.6635 27.3938 39.6618 27.4036 39.6713 27.4054C39.7372 27.4787 39.6211 27.3553 39.6133 27.3438Z" fill="#183453"/>
<path d="M39.2148 27.1094C39.2242 27.1112 39.2429 27.1148 39.2506 27.1262C39.2506 27.1262 39.2506 27.1262 39.2599 27.128C39.2412 27.1243 39.2242 27.1112 39.2148 27.1094Z" fill="#183453"/>
<path d="M39.2781 27.1226C39.2687 27.1208 39.2594 27.119 39.25 27.1172C39.2577 27.1287 39.2687 27.1208 39.2781 27.1226Z" fill="#183453"/>
<path d="M38.7735 33.2679C38.7432 33.272 38.7129 33.2762 38.6826 33.2803C38.6522 33.2845 38.6202 33.2984 38.5899 33.3025C38.6506 33.2942 38.7129 33.2762 38.7735 33.2679Z" fill="#183453"/>
<path d="M39.1667 27.1319C39.1967 27.1278 39.2157 27.1314 39.2457 27.1273C39.1967 27.1278 39.1589 27.1204 39.11 27.1209C39.1178 27.1324 39.1461 27.1379 39.1667 27.1319Z" fill="#183453"/>
<path d="M39.1019 27.1332C39.0412 27.1415 38.9885 27.1614 38.9278 27.1697C38.9581 27.1656 38.9885 27.1614 39.0188 27.1573C39.0396 27.1513 39.0716 27.1374 39.1019 27.1332Z" fill="#183453"/>
<path d="M39.1052 27.126C39.075 27.1302 39.0431 27.1439 39.0129 27.1481C39.0638 27.138 39.1131 27.1376 39.1719 27.139C39.1529 27.1353 39.1243 27.1297 39.1052 27.126Z" fill="#183453"/>
<path d="M35.992 34.0409C36.506 34.3945 37.0864 34.6497 37.7032 34.7498C38.5212 34.8893 39.3381 34.7447 40.0469 34.3055C41.6428 33.31 42.0576 31.111 41.8391 29.3154C41.7819 28.8381 41.6767 28.3515 41.5266 27.8966C41.3702 27.4202 41.145 26.9405 40.8343 26.5556C40.4887 26.1436 40.0863 25.832 39.5642 25.6997C39.1092 25.5804 38.6094 25.6653 38.1984 25.8688C37.9495 25.9924 37.7181 26.1297 37.5088 26.3117C37.8211 26.0484 38.2998 26.2027 38.5247 26.51C38.6371 26.6637 38.677 26.8944 38.6469 27.0709C38.6117 27.2769 38.497 27.4267 38.3473 27.5495C38.4858 27.4347 38.6288 27.3511 38.7751 27.248C38.6417 27.3334 38.7222 27.268 38.7751 27.248C38.8185 27.226 38.8506 27.212 38.8923 27.1999C38.934 27.1878 38.966 27.1738 39.0077 27.1616C38.9773 27.1658 38.9469 27.17 38.9165 27.1742C38.9773 27.1658 39.0302 27.1458 39.0911 27.1374C39.0911 27.1374 39.0911 27.1374 39.1007 27.1393C39.1503 27.1388 39.1886 27.1463 39.2382 27.1458C39.2286 27.144 39.2095 27.1402 39.2015 27.1286C39.2111 27.1304 39.2303 27.1342 39.2382 27.1458C39.2478 27.1477 39.2574 27.1496 39.267 27.1515C39.2574 27.1496 39.2478 27.1477 39.2365 27.1556C39.2828 27.1748 39.3307 27.1842 39.377 27.2033C39.3482 27.1977 39.329 27.194 39.3003 27.1884C39.3465 27.2075 39.3911 27.2365 39.4373 27.2556C39.4103 27.2402 39.3944 27.2169 39.3674 27.2015C39.4199 27.2421 39.474 27.2729 39.5265 27.3136C39.4994 27.2982 39.4644 27.2711 39.4373 27.2556C39.4819 27.2846 39.5248 27.3234 39.5581 27.3603C39.5836 27.3855 39.609 27.4107 39.6344 27.436C39.6169 27.4224 39.601 27.3991 39.5931 27.3874C39.601 27.3991 39.7185 27.5233 39.6502 27.4593C39.6406 27.4575 39.6423 27.4476 39.6327 27.4458C39.6897 27.5177 39.7451 27.5994 39.8005 27.6812C39.8321 27.7279 39.8542 27.7727 39.8779 27.8078C39.8858 27.8194 39.8921 27.8409 39.9 27.8526C39.9017 27.8428 39.8921 27.8409 39.8938 27.8311C39.8576 27.7531 39.9758 27.989 39.9158 27.876C39.9079 27.8643 39.9079 27.8643 39.9 27.8526C40.059 28.1978 40.1842 28.5667 40.279 28.9399C40.2744 28.9086 40.2619 28.8656 40.2574 28.8343C40.2761 28.8988 40.2852 28.9614 40.3039 29.0258C40.2994 28.9945 40.2931 28.973 40.279 28.9399C40.3745 29.4247 40.4188 29.9197 40.4135 30.4152C40.4202 30.3759 40.4173 30.3348 40.424 30.2956C40.4219 30.3661 40.4214 30.4268 40.4193 30.4973C40.4243 30.4679 40.4181 30.4464 40.4231 30.417C40.4024 30.8284 40.3417 31.2422 40.2236 31.6447C40.2286 31.6153 40.2432 31.5877 40.2578 31.5602C40.2365 31.6269 40.2169 31.6839 40.1956 31.7507C40.2023 31.7114 40.2169 31.6839 40.2236 31.6447C40.1384 31.9118 40.0261 32.1634 39.8868 32.3997C39.9014 32.3721 39.9256 32.3465 39.9402 32.3189C39.9014 32.3721 39.8722 32.4272 39.8334 32.4805C39.848 32.4529 39.8626 32.4254 39.8772 32.3978C39.7979 32.5141 39.7203 32.6205 39.6236 32.7232C39.5881 32.7568 39.5623 32.7923 39.5268 32.8259C39.5268 32.8259 39.5252 32.8357 39.5156 32.8339C39.5173 32.8241 39.5268 32.8259 39.5285 32.8161C39.6202 32.7428 39.398 32.9426 39.5156 32.8339C39.4576 32.8834 39.3884 32.9408 39.3209 32.9884C39.2533 33.036 39.1858 33.0836 39.1103 33.1195C39.1216 33.1116 39.1312 33.1135 39.1328 33.1037C39.2404 33.0537 38.9465 33.2092 39.1007 33.1177C39.0686 33.1317 39.0461 33.1475 39.0157 33.1517C38.8986 33.1998 38.7831 33.2381 38.6693 33.2665C38.6997 33.2623 38.7301 33.2581 38.7606 33.2539C38.698 33.2721 38.6372 33.2805 38.5747 33.2987C38.6051 33.2945 38.6372 33.2805 38.6676 33.2763C38.5042 33.3052 38.3346 33.3126 38.1667 33.3102C38.1954 33.3159 38.2242 33.3215 38.2546 33.3173C38.1858 33.314 38.1266 33.3126 38.0579 33.3093C38.0979 33.307 38.1267 33.3126 38.1667 33.3102C37.9333 33.285 37.7033 33.2401 37.4766 33.1755C37.5037 33.191 37.542 33.1984 37.5691 33.2139C37.5037 33.191 37.4478 33.1699 37.3824 33.147C37.4112 33.1526 37.4383 33.168 37.4766 33.1755C37.2533 33.0914 37.0237 32.9858 36.8183 32.8545C36.8437 32.8797 36.8804 32.897 36.9058 32.9222C36.8533 32.8816 36.7992 32.8508 36.7467 32.8101C36.7737 32.8255 36.7912 32.8391 36.8183 32.8545C36.7833 32.8274 36.7579 32.8022 36.7325 32.777C36.6992 32.7401 36.6563 32.7013 36.6213 32.6742L36.6292 32.6859C36.6371 32.6975 36.6546 32.7111 36.6625 32.7228C36.7117 32.783 36.5276 32.585 36.588 32.6373C36.5959 32.649 36.6134 32.6625 36.6213 32.6742C36.5959 32.649 36.5801 32.6256 36.5659 32.5924C36.5247 32.5439 36.4947 32.4873 36.4648 32.4308C36.471 32.4523 36.4789 32.464 36.4851 32.4855C36.4835 32.4953 36.3873 32.3042 36.4331 32.3841C36.441 32.3958 36.4473 32.4173 36.4552 32.429C36.4552 32.429 36.4552 32.429 36.4631 32.4406C36.4552 32.429 36.4473 32.4173 36.441 32.3958C36.3986 32.2963 36.3595 32.1772 36.3283 32.0698C36.3328 32.1011 36.3357 32.1422 36.3499 32.1753C36.3312 32.1109 36.322 32.0483 36.3033 31.9839C36.3079 32.0152 36.3237 32.0385 36.3283 32.0698C36.293 31.8704 36.2768 31.6747 36.2816 31.473C36.2749 31.5122 36.2794 31.5435 36.2727 31.5827C36.2749 31.5122 36.2753 31.4515 36.2774 31.381C36.2724 31.4104 36.277 31.4417 36.272 31.4711C36.2922 31.1204 36.3603 30.779 36.4556 30.4531C36.4505 30.4825 36.4359 30.5101 36.4309 30.5395C36.4522 30.4727 36.4718 30.4158 36.4931 30.349C36.4864 30.3882 36.4718 30.4158 36.4651 30.455C36.6501 29.8933 36.9101 29.3563 37.2146 28.8483C37.2 28.8759 37.1854 28.9034 37.1629 28.9193C37.2017 28.8661 37.2309 28.811 37.2697 28.7577C37.2551 28.7853 37.2309 28.811 37.2146 28.8483C37.3877 28.5883 37.5688 28.3399 37.7673 28.105C37.8674 27.9827 37.9754 27.8721 38.0851 27.7516C38.1318 27.7101 38.1785 27.6685 38.2156 27.6251C38.2156 27.6251 38.2156 27.6251 38.2139 27.6349C38.2027 27.6429 38.1897 27.6606 38.1785 27.6685C38.0963 27.7437 38.2252 27.627 38.2477 27.6111C38.2365 27.619 38.2348 27.6289 38.2252 27.627C38.2494 27.6013 38.2832 27.5775 38.3073 27.5518C37.995 27.8151 37.5163 27.6608 37.2914 27.3535C37.179 27.1998 37.1391 26.9691 37.1692 26.7926C37.1993 26.6161 37.2915 26.4821 37.4108 26.3635C36.2612 27.355 35.4206 28.7413 35.0079 30.2313C34.8024 30.9714 34.7598 31.7433 34.9302 32.4859C35.1049 33.0875 35.4779 33.6872 35.992 34.0409Z" fill="#183453"/>
<path d="M39.3229 27.1513C39.3515 27.1568 39.3705 27.1605 39.3991 27.166C39.3531 27.1471 39.3055 27.1379 39.2595 27.119C39.2595 27.119 39.2595 27.119 39.25 27.1172C39.2769 27.1324 39.2943 27.1457 39.3229 27.1513Z" fill="#183453"/>
<path d="M37.3271 27.3476C37.5517 27.6545 38.0297 27.8086 38.3416 27.5456C38.4911 27.423 38.6056 27.2733 38.6407 27.0677C38.6708 26.8914 38.631 26.661 38.5187 26.5075C38.2942 26.2005 37.8161 26.0464 37.5042 26.3094C37.4817 26.3252 37.4688 26.343 37.4463 26.3588C37.3272 26.4772 37.2352 26.6111 37.2051 26.7874C37.1846 26.9655 37.2244 27.1959 37.3271 27.3476Z" fill="#183453"/>
<path d="M38.2155 27.65C38.2267 27.6421 38.2396 27.6245 38.2508 27.6166C38.2508 27.6166 38.2508 27.6166 38.2525 27.6068C38.2637 27.5989 38.2654 27.5891 38.2749 27.591C38.2604 27.6184 38.1432 27.7268 38.2155 27.65Z" fill="#183453"/>
<path d="M36.3083 31.591C36.3151 31.5517 36.3102 31.5203 36.317 31.481C36.3221 31.4515 36.3172 31.4201 36.3223 31.3906C36.3121 31.4496 36.3102 31.5203 36.3083 31.591Z" fill="#183453"/>
<path d="M36.4517 32.4023C36.4063 32.3228 36.5015 32.5129 36.5031 32.5031C36.497 32.4817 36.4891 32.4701 36.483 32.4488C36.483 32.4488 36.483 32.4488 36.4751 32.4371C36.4656 32.4353 36.4595 32.4139 36.4517 32.4023Z" fill="#183453"/>
<path d="M36.6787 32.7413C36.6709 32.7297 36.6536 32.7163 36.6458 32.7047L36.638 32.6931C36.6301 32.6815 36.6128 32.6681 36.605 32.6565C36.5548 32.6064 36.7256 32.8109 36.6787 32.7413Z" fill="#183453"/>
<path d="M36.3685 32.1991C36.364 32.1678 36.3611 32.1268 36.3471 32.0936C36.3425 32.0624 36.3268 32.0391 36.3223 32.0078C36.3409 32.0722 36.3594 32.1366 36.3685 32.1991Z" fill="#183453"/>
<path d="M36.9321 32.9318C36.9051 32.9165 36.8702 32.8895 36.8449 32.8644C36.8179 32.8491 36.8004 32.8356 36.7734 32.8203C36.8258 32.8607 36.8798 32.8914 36.9321 32.9318Z" fill="#183453"/>
<path d="M36.4661 30.5559C36.4712 30.5264 36.4862 30.4989 36.4913 30.4694C36.4981 30.4301 36.5131 30.4025 36.5199 30.3632C36.5097 30.4222 36.4879 30.489 36.4661 30.5559Z" fill="#183453"/>
<path d="M37.5898 33.2222C37.5612 33.2166 37.5248 33.1996 37.4979 33.1844C37.4693 33.1788 37.4424 33.1636 37.4043 33.1562C37.4598 33.177 37.5248 33.1996 37.5898 33.2222Z" fill="#183453"/>
<path d="M37.2042 28.9264C37.2188 28.8988 37.2334 28.8713 37.2558 28.8554C37.2704 28.8279 37.2945 28.8022 37.3107 28.7649C37.2721 28.8181 37.2429 28.8732 37.2042 28.9264Z" fill="#183453"/>
<path d="M39.1705 27.1287C39.2181 27.1379 39.2658 27.1472 39.3229 27.1582C39.296 27.143 39.2769 27.1393 39.25 27.1241C39.2198 27.1283 39.1991 27.1342 39.1705 27.1287Z" fill="#183453"/>
<path d="M26.5629 40.5639C27.751 40.774 28.784 41.5419 29.9452 41.909C33.1025 42.8963 36.0482 40.6907 35.6438 37.6428C35.3035 35.0837 32.8064 33.5859 31.7406 31.3421C31.4651 30.7617 31.2858 30.1391 30.9974 29.5765C29.8265 27.3123 27.506 27.2575 26.0214 28.429C25.2437 29.0484 24.7486 29.976 23.9928 30.6401C22.7948 31.6949 20.6773 32.1254 19.2933 34.1474C17.856 36.2503 18.5689 39.054 20.6934 40.1349C22.7274 41.1679 24.5403 40.2121 26.5629 40.5639Z" fill="#183453"/>
<path d="M30.1032 41.2046C30.0746 41.1991 30.0477 41.1839 30.0191 41.1784C29.981 41.171 29.9541 41.1558 29.916 41.1484C29.9715 41.1692 30.0365 41.1917 30.1032 41.2046Z" fill="#183453"/>
<path d="M20.766 39.3576C20.7311 39.3307 20.6946 39.3135 20.6692 39.2885C20.6518 39.275 20.6343 39.2615 20.6152 39.2578C20.6597 39.2866 20.712 39.327 20.766 39.3576Z" fill="#183453"/>
<path d="M21.5817 39.7515C21.5627 39.7478 21.5357 39.7326 21.5167 39.7289C21.4786 39.7216 21.4326 39.7027 21.3945 39.6953C21.4612 39.7082 21.5167 39.7289 21.5817 39.7515Z" fill="#183453"/>
<path d="M22.6729 39.9275C22.6443 39.922 22.6141 39.9261 22.5855 39.9206C22.5458 39.9229 22.5172 39.9173 22.4774 39.9196C22.5458 39.9229 22.6141 39.9261 22.6729 39.9275Z" fill="#183453"/>
<path d="M19.631 38.1132C19.6389 38.1249 19.6468 38.1365 19.6451 38.1463C19.653 38.158 19.6609 38.1696 19.6689 38.1813C19.6609 38.1696 19.6451 38.1463 19.623 38.1016C19.623 38.1016 19.6326 38.1034 19.631 38.1132Z" fill="#183453"/>
<path d="M20.778 40.9679C21.5184 41.2642 22.2809 41.3726 23.0618 41.3733C23.7149 41.3693 24.3623 41.2833 25.0014 41.2462C25.3018 41.2239 25.5988 41.2212 25.9037 41.2302C25.8655 41.2227 25.8255 41.225 25.7873 41.2176C25.8559 41.2209 25.915 41.2223 25.9836 41.2256C25.9549 41.22 25.9341 41.226 25.9054 41.2204C26.2852 41.2541 26.66 41.3172 27.036 41.431C27.009 41.4156 26.9707 41.4082 26.9437 41.3928C27.009 41.4156 27.0647 41.4366 27.1301 41.4595C27.1013 41.4539 27.0647 41.4366 27.036 41.431C27.474 41.5873 27.8924 41.8005 28.3125 42.0039C28.8058 42.2418 29.3103 42.4718 29.836 42.6352C30.6151 42.8783 31.4625 42.9527 32.2634 42.8359C33.8253 42.6048 35.247 41.6887 35.9702 40.2316C36.3642 39.4285 36.5054 38.485 36.3907 37.5927C36.4483 38.0085 36.1136 38.3478 35.7396 38.3962C35.3351 38.4487 34.9992 38.0999 34.9462 37.7153C34.9719 37.9125 34.9863 38.1176 34.9816 38.319C34.9849 38.2994 34.9899 38.2701 34.9837 38.2486C34.9816 38.319 34.9811 38.3796 34.979 38.45C34.9761 38.409 34.9828 38.3698 34.9816 38.319C34.9635 38.5987 34.9184 38.863 34.843 39.1315C34.8576 39.104 34.8626 39.0747 34.8771 39.0472C34.8559 39.1138 34.8363 39.1707 34.815 39.2373C34.8217 39.1982 34.8363 39.1707 34.843 39.1315C34.7596 39.3884 34.6397 39.628 34.5118 39.8559C34.5376 39.8205 34.5522 39.793 34.578 39.7575C34.5393 39.8107 34.5101 39.8657 34.4714 39.9188C34.4843 39.9011 34.4989 39.8736 34.5118 39.8559C34.3923 40.0349 34.2536 40.2101 34.0975 40.3718C34.0492 40.4231 34.001 40.4743 33.9448 40.5139C34.1346 40.3285 33.9801 40.4804 33.9223 40.5298C33.8178 40.6207 33.7054 40.6999 33.5931 40.7791C33.4823 40.8485 33.3716 40.9179 33.2609 40.9874C33.2722 40.9794 33.2834 40.9715 33.3042 40.9655C33.4133 40.9058 33.1294 41.0628 33.2609 40.9874C33.2497 40.9953 33.2289 41.0013 33.2177 41.0093C33.1536 41.0372 33.0991 41.067 33.035 41.095C32.8123 41.183 32.5914 41.2613 32.3546 41.3162C32.3754 41.3101 32.3962 41.3041 32.4249 41.3097C32.3625 41.3279 32.3018 41.3362 32.2394 41.3544C32.281 41.3423 32.3209 41.34 32.353 41.326C31.9835 41.4056 31.6032 41.4325 31.2217 41.4086C31.26 41.4161 31.2999 41.4138 31.3382 41.4212C31.2696 41.4179 31.2105 41.4165 31.1418 41.4132C31.1705 41.4188 31.1914 41.4128 31.2201 41.4184C30.8211 41.381 30.4384 41.3063 30.0545 41.1807C30.0832 41.1863 30.1102 41.2017 30.1389 41.2073C30.0736 41.1845 30.0179 41.1635 29.9526 41.1406C29.9909 41.1481 30.0179 41.1635 30.0562 41.1709C29.013 40.7953 28.0628 40.1647 26.9821 39.8931C26.0145 39.6536 25.011 39.7409 24.0379 39.824C23.5665 39.8635 23.0855 39.9011 22.6051 39.8781C22.6338 39.8837 22.6641 39.8795 22.6928 39.8851C22.6242 39.8818 22.5651 39.8804 22.4965 39.8771C22.5347 39.8846 22.5651 39.8804 22.6051 39.8781C22.2444 39.8482 21.8791 39.787 21.5318 39.6787C21.551 39.6824 21.578 39.6978 21.5971 39.7016C21.5318 39.6787 21.4761 39.6577 21.4108 39.6348C21.4474 39.6521 21.4952 39.6614 21.5335 39.6689C21.2357 39.5602 20.9429 39.4221 20.6759 39.2486C20.7108 39.2756 20.7458 39.3027 20.7728 39.3181C20.7204 39.2775 20.6663 39.2467 20.6139 39.2062C20.6314 39.2197 20.6489 39.2332 20.668 39.2369C20.5013 39.1133 20.3362 38.98 20.1936 38.8307C20.1507 38.792 20.1175 38.7552 20.0763 38.7067C20.0842 38.7183 20.1017 38.7319 20.1096 38.7435C20.1665 38.8153 19.9765 38.5962 20.0605 38.6834C20.0701 38.6852 20.0684 38.695 20.078 38.6969C20.0701 38.6852 20.0622 38.6736 20.0543 38.6619C19.9816 38.5668 19.8992 38.4698 19.8377 38.3668C19.7824 38.2852 19.7288 38.1938 19.6752 38.1024C19.691 38.1257 19.6515 38.0674 19.6374 38.0343C19.6374 38.0343 19.6374 38.0343 19.6391 38.0245C19.6312 38.0129 19.625 37.9914 19.6075 37.9779C19.6154 37.9895 19.6233 38.0012 19.6312 38.0129C19.6108 37.9583 19.5792 37.9117 19.5589 37.8571C19.4741 37.6585 19.4085 37.4636 19.3637 37.2627C19.3683 37.2939 19.3728 37.3251 19.3791 37.3466C19.3604 37.2823 19.3513 37.2198 19.3326 37.1554C19.3371 37.1867 19.3513 37.2198 19.3542 37.2608C19.2957 36.9662 19.2676 36.6673 19.2698 36.3643C19.2648 36.3937 19.2694 36.4249 19.2627 36.4641C19.2648 36.3937 19.2653 36.3331 19.2674 36.2627C19.2624 36.292 19.2653 36.3331 19.2698 36.3643C19.2912 36.065 19.3413 35.7713 19.4185 35.493C19.4039 35.5205 19.3989 35.5499 19.3843 35.5774C19.4056 35.5108 19.4252 35.4539 19.4464 35.3872C19.4414 35.4166 19.4251 35.4539 19.4201 35.4833C19.5214 35.1793 19.6593 34.8927 19.8225 34.6312C19.808 34.6587 19.7838 34.6843 19.7692 34.7118C19.808 34.6587 19.8371 34.6037 19.8758 34.5506C19.8613 34.5781 19.8467 34.6056 19.8225 34.6312C20.0212 34.3362 20.2452 34.0663 20.4866 33.81C20.5461 33.7508 20.6057 33.6916 20.6652 33.6324C20.6652 33.6324 20.6635 33.6422 20.654 33.6404C20.5382 33.7391 20.7601 33.5397 20.6764 33.6245L20.6652 33.6324C20.7006 33.5989 20.736 33.5653 20.7809 33.5336C20.9095 33.4171 21.0461 33.3123 21.1921 33.2093C21.7237 32.8174 22.3009 32.5053 22.8781 32.1931C23.38 31.9168 23.8898 31.6522 24.3381 31.2845C25.0049 30.737 25.4734 30.0192 26.0562 29.3844C26.1303 29.2977 26.214 29.2129 26.296 29.1379C26.2269 29.1952 26.2623 29.1617 26.296 29.1379C26.378 29.0629 26.3201 29.1123 26.3072 29.13L26.296 29.1379C26.3072 29.13 26.3185 29.122 26.3185 29.122C26.3634 29.0904 26.3988 29.0568 26.4454 29.0153C26.5836 28.9007 26.728 28.8075 26.882 28.7162C26.8932 28.7083 26.9045 28.7003 26.9157 28.6924C26.8292 28.7362 26.8724 28.7143 26.9157 28.6924C26.959 28.6705 27.0135 28.6407 26.9157 28.6924C26.9382 28.6766 26.959 28.6705 26.9702 28.6626C27.0456 28.6267 27.1209 28.5908 27.2041 28.5666C27.3418 28.5126 27.4762 28.4781 27.6106 28.4437C27.5803 28.4479 27.5499 28.4521 27.5195 28.4563C27.5819 28.4381 27.6427 28.4297 27.7051 28.4116C27.6747 28.4157 27.6427 28.4297 27.6123 28.4339C27.8362 28.3967 28.0567 28.379 28.2834 28.3828C28.2547 28.3772 28.2148 28.3796 28.1861 28.374C28.2547 28.3772 28.3138 28.3787 28.3824 28.3819C28.3537 28.3763 28.3233 28.3805 28.2834 28.3828C28.4877 28.4025 28.6886 28.4417 28.8861 28.5005C28.8591 28.4851 28.8208 28.4777 28.7938 28.4623C28.8591 28.4851 28.9148 28.5061 28.9802 28.529C28.9514 28.5234 28.9244 28.508 28.8861 28.5005C29.0725 28.5672 29.2538 28.6633 29.4239 28.7674C29.3969 28.752 29.3794 28.7384 29.354 28.7132C29.4064 28.7538 29.4605 28.7846 29.5129 28.8252C29.4859 28.8098 29.4509 28.7827 29.4239 28.7674C29.5383 28.8504 29.6431 28.9315 29.7445 29.0322C29.8048 29.0845 29.8538 29.1446 29.9125 29.2067C29.9046 29.195 29.9046 29.195 29.8967 29.1833C29.8476 29.1232 29.9711 29.2687 29.9632 29.257C29.9457 29.2435 29.9299 29.2202 29.9125 29.2067C29.9457 29.2435 29.9694 29.2785 30.0027 29.3153C30.1166 29.4589 30.2176 29.6203 30.309 29.7797C30.331 29.8245 30.3547 29.8595 30.3767 29.9042C30.3751 29.914 30.3846 29.9159 30.383 29.9257C30.3327 29.8147 30.405 29.9704 30.4129 29.9821C30.4067 29.9606 30.3988 29.949 30.383 29.9257C30.4349 30.0269 30.4773 30.1262 30.5197 30.2255C30.6875 30.6325 30.8345 31.0456 31.0136 31.4447C31.1785 31.8107 31.3676 32.1511 31.5775 32.4854C32.3053 33.6087 33.2932 34.54 34.0547 35.6395C34.1573 35.7911 34.26 35.9426 34.3531 36.0923C34.3988 36.172 34.4445 36.2518 34.4902 36.3315C34.4981 36.3431 34.4981 36.3431 34.506 36.3548C34.4919 36.3217 34.4998 36.3334 34.506 36.3548C34.5218 36.3781 34.5534 36.4247 34.5501 36.4443C34.5501 36.4443 34.5202 36.3879 34.506 36.3548C34.506 36.3548 34.506 36.3548 34.5139 36.3665C34.5202 36.3879 34.536 36.4112 34.5439 36.4229C34.698 36.7362 34.8106 37.0616 34.9006 37.4029C34.8961 37.3717 34.8836 37.3288 34.879 37.2976C34.8977 37.3619 34.9068 37.4244 34.9255 37.4887C34.921 37.4575 34.9147 37.436 34.9102 37.4048C34.9255 37.4887 34.9409 37.5726 34.9545 37.6663C34.897 37.2505 35.2317 36.9112 35.6057 36.8628C36.0101 36.8103 36.346 37.1591 36.3991 37.5437C36.2235 36.2551 35.5643 35.1351 34.7653 34.1396C34.0233 33.2158 33.1801 32.3633 32.5858 31.3268C32.5559 31.2704 32.5164 31.2121 32.4865 31.1557L32.4786 31.144L32.4769 31.1538C32.469 31.1422 32.4549 31.1091 32.447 31.0974C32.4391 31.0857 32.4312 31.0741 32.425 31.0526C32.4109 31.0195 32.425 31.0526 32.4391 31.0857C32.3589 30.9184 32.2804 30.7412 32.2114 30.5659C32.0656 30.2036 31.9327 29.8236 31.7661 29.4674C31.4391 28.7764 31.0065 28.1255 30.4014 27.6735C29.8758 27.2776 29.2711 26.9977 28.6313 26.9233C28.0027 26.8411 27.3682 26.9094 26.7773 27.1278C26.1352 27.3565 25.5734 27.7526 25.0859 28.234C24.5855 28.7331 24.1945 29.3447 23.7037 29.8456C23.6683 29.8792 23.6329 29.9128 23.6071 29.9482C23.6183 29.9403 23.62 29.9305 23.6296 29.9323C23.665 29.8988 23.6296 29.9323 23.6054 29.958C23.5942 29.9659 23.5813 29.9836 23.5701 29.9915C23.5701 29.9915 23.583 29.9738 23.6054 29.958C23.6054 29.958 23.6054 29.958 23.6071 29.9482C23.5605 29.9897 23.5155 30.0213 23.4785 30.0647C23.3869 30.1378 23.2953 30.211 23.2054 30.2744C23.0032 30.417 22.793 30.5479 22.5749 30.6672C22.1051 30.9295 21.6273 31.1801 21.1654 31.4541C20.0217 32.1311 18.964 33.0575 18.3592 34.2848C17.7739 35.4552 17.6899 36.8752 18.1388 38.1261C18.5474 39.44 19.5473 40.4748 20.778 40.9679Z" fill="#183453"/>
<path d="M20.1109 38.8175C20.1031 38.8059 20.0858 38.7925 20.078 38.7809C20.0685 38.779 20.0702 38.7693 20.0607 38.7674C19.9792 38.671 20.1578 38.8871 20.1109 38.8175Z" fill="#183453"/>
<path d="M25.7623 41.2615C25.8021 41.2592 25.8402 41.2666 25.8783 41.274C25.9068 41.2795 25.9276 41.2735 25.9561 41.279C25.8895 41.2661 25.8306 41.2647 25.7623 41.2615Z" fill="#183453"/>
<path d="M34.8175 39.029C34.8125 39.0584 34.7979 39.086 34.7834 39.1136C34.7766 39.1528 34.7621 39.1804 34.7553 39.2196C34.7766 39.1528 34.7963 39.0958 34.8175 39.029Z" fill="#183453"/>
<path d="M34.9258 38.2188C34.9224 38.2384 34.9174 38.2678 34.9235 38.2893C34.9262 38.3303 34.9195 38.3696 34.9205 38.4204C34.9212 38.3598 34.9235 38.2893 34.9258 38.2188Z" fill="#183453"/>
<path d="M26.9121 41.4453C26.9407 41.4509 26.9771 41.4679 27.004 41.4831C27.0326 41.4886 27.069 41.5057 27.0976 41.5112C27.0343 41.479 26.9676 41.4661 26.9121 41.4453Z" fill="#183453"/>
<path d="M19.369 37.4473C19.3645 37.4161 19.3599 37.3848 19.3537 37.3633C19.3491 37.332 19.3349 37.2989 19.332 37.2578C19.3412 37.3204 19.3503 37.3829 19.369 37.4473Z" fill="#183453"/>
<path d="M32.3731 41.3069C32.3524 41.313 32.3316 41.319 32.3029 41.3134C32.2614 41.3254 32.2215 41.3277 32.1895 41.3416C32.2502 41.3333 32.3125 41.3152 32.3731 41.3069Z" fill="#183453"/>
<path d="M31.2882 41.4196C31.2501 41.4123 31.2103 41.4146 31.1722 41.4072C31.1436 41.4017 31.1229 41.4077 31.0943 41.4021C31.161 41.415 31.2293 41.4183 31.2882 41.4196Z" fill="#183453"/>
<path d="M34.5139 39.7493C34.4881 39.7847 34.4735 39.8123 34.4477 39.8477C34.4348 39.8655 34.4203 39.893 34.4074 39.9107C34.446 39.8575 34.4752 39.8025 34.5139 39.7493Z" fill="#183453"/>
<path d="M33.2471 40.9612C33.236 40.9691 33.2248 40.977 33.2042 40.983C33.0738 41.0583 33.3552 40.9018 33.2471 40.9612Z" fill="#183453"/>
<path d="M28.1845 28.404C28.213 28.4095 28.2528 28.4073 28.2814 28.4128C28.3116 28.4087 28.3402 28.4142 28.3799 28.4119C28.3116 28.4087 28.2433 28.4054 28.1845 28.404Z" fill="#183453"/>
<path d="M30.3699 29.9339C30.3761 29.9554 30.3936 29.9689 30.3998 29.9903C30.3919 29.9787 30.318 29.8328 30.3699 29.9339Z" fill="#183453"/>
<path d="M34.4715 36.3811C34.4561 36.3463 34.4647 36.3586 34.4715 36.3811V36.3811Z" fill="#183453"/>
<path d="M29.9523 29.2831C29.9601 29.2947 29.8379 29.15 29.8864 29.2099C29.8943 29.2215 29.8943 29.2215 29.9021 29.2331C29.9194 29.2465 29.935 29.2697 29.9523 29.2831Z" fill="#183453"/>
<path d="M29.3438 28.7422C29.3708 28.7575 29.3882 28.771 29.4135 28.7961C29.4405 28.8114 29.4754 28.8383 29.5024 28.8537C29.4501 28.8133 29.3961 28.7826 29.3438 28.7422Z" fill="#183453"/>
<path d="M34.8281 37.3125C34.8327 37.3438 34.8452 37.3867 34.8498 37.418C34.8543 37.4493 34.8606 37.4708 34.8651 37.502C34.856 37.4395 34.8469 37.3769 34.8281 37.3125Z" fill="#183453"/>
<path d="M35.5414 36.8737C35.1672 36.922 34.8324 37.2615 34.89 37.6775C34.943 38.0623 35.2887 38.4132 35.6836 38.3587C36.0578 38.3104 36.3926 37.9709 36.335 37.5549C36.2916 37.1719 35.9443 36.8309 35.5414 36.8737Z" fill="#183453"/>
<path d="M23.6351 29.9886C23.6241 29.9965 23.6225 30.0061 23.6131 30.0043C23.6131 30.0043 23.6131 30.0043 23.6114 30.0139C23.6351 29.9886 23.6699 29.9556 23.6351 29.9886Z" fill="#183453"/>
<path d="M28.7871 28.4922C28.8157 28.4977 28.8521 28.5148 28.879 28.53C28.9076 28.5355 28.9345 28.5507 28.9726 28.5581C28.9076 28.5355 28.8426 28.5129 28.7871 28.4922Z" fill="#183453"/>
<path d="M19.7726 34.7936C19.7872 34.766 19.8113 34.7403 19.8258 34.7128C19.8404 34.6853 19.855 34.6577 19.8791 34.6321C19.8404 34.6853 19.8113 34.7404 19.7726 34.7936Z" fill="#183453"/>
<path d="M19.2741 36.5454C19.2791 36.516 19.2747 36.4848 19.2814 36.4455C19.277 36.4143 19.2837 36.375 19.2793 36.3438C19.277 36.4143 19.2747 36.4848 19.2741 36.5454Z" fill="#183453"/>
<path d="M20.6715 33.713C20.6828 33.705 20.6844 33.6953 20.694 33.6971C20.7778 33.6124 20.5652 33.8136 20.6715 33.713Z" fill="#183453"/>
<path d="M32.4316 31.1016C32.4394 31.1129 32.4454 31.1338 32.4625 31.147C32.4532 31.1452 32.4394 31.1129 32.4316 31.1016Z" fill="#183453"/>
<path d="M19.3977 35.6629C19.4027 35.6335 19.4173 35.6059 19.4318 35.5783C19.4369 35.5489 19.4531 35.5115 19.4582 35.4821C19.4386 35.5391 19.419 35.5961 19.3977 35.6629Z" fill="#183453"/>
<path d="M27.5294 28.4978C27.5597 28.4937 27.59 28.4895 27.6203 28.4854C27.6507 28.4812 27.6827 28.4673 27.713 28.4632C27.6523 28.4715 27.5917 28.4798 27.5294 28.4978Z" fill="#183453"/>
<path d="M26.2957 29.1623C26.2251 29.2292 26.2699 29.1976 26.2957 29.1623L26.3069 29.1544C26.3293 29.1386 26.3774 29.0875 26.2957 29.1623Z" fill="#183453"/>
<path d="M26.9258 28.7226C26.8383 28.776 26.8718 28.7523 26.9258 28.7226C26.9687 28.7008 27.0211 28.6808 26.9258 28.7226Z" fill="#183453"/>
<path d="M19.1203 37.6488C19.6414 37.2039 20.2054 36.7977 20.7976 36.4578C20.8971 36.3962 20.9813 36.2507 20.9997 36.1429C21.0198 36.0253 20.997 35.869 20.9146 35.7719C20.8339 35.6651 20.729 35.5838 20.6045 35.5595C20.4688 35.5432 20.3552 35.5716 20.2444 35.6411C19.6505 35.9908 19.0882 36.3872 18.5671 36.8321C18.4642 36.9133 18.3884 37.0098 18.365 37.147C18.3449 37.2646 18.3677 37.4209 18.4501 37.5179C18.594 37.7182 18.9112 37.8307 19.1203 37.6488Z" fill="#183453"/>
<path d="M20.1337 39.0716C21.1065 38.2996 22.0811 37.5177 23.0635 36.7475C23.2581 36.5931 23.3516 36.2772 23.1822 36.0517C23.0287 35.8496 22.7193 35.7487 22.5022 35.9189C21.5294 36.691 20.5548 37.4729 19.5724 38.243C19.3778 38.3975 19.2843 38.7134 19.4537 38.9389C19.6072 39.141 19.9166 39.2419 20.1337 39.0716Z" fill="#183453"/>
<path d="M21.1155 40.3467C22.1094 39.7409 23.04 39.0417 23.8961 38.2571C23.9911 38.1643 24.0749 38.0794 24.0983 37.9422C24.1183 37.8246 24.0955 37.6683 24.0131 37.5712C23.8675 37.3808 23.5328 37.2547 23.3332 37.4384C22.4754 38.2328 21.5448 38.932 20.5526 39.528C20.3327 39.6572 20.2821 40.0118 20.434 40.2237C20.6129 40.451 20.8827 40.4936 21.1155 40.3467Z" fill="#183453"/>
<path d="M32.7098 37.6583C32.7244 37.6307 32.7501 37.5952 32.7098 37.6583C32.6694 37.7213 32.6986 37.6662 32.7098 37.6583Z" fill="#183453"/>
<path d="M32.8646 37.3258C32.8612 37.3454 32.8595 37.3552 32.8578 37.3651C32.8377 37.4221 32.8881 37.2491 32.8646 37.3258Z" fill="#183453"/>
<path d="M32.5168 37.8869L32.5047 37.8951L32.4926 37.9033C32.5029 37.9053 32.5047 37.8951 32.5168 37.8869Z" fill="#183453"/>
<path d="M32.8663 37.3112C32.8647 37.3211 32.8647 37.3211 32.863 37.3309C32.8973 37.2463 32.8366 37.4271 32.8563 37.3701C32.858 37.3603 32.8596 37.3505 32.863 37.3309C32.84 37.4075 32.8074 37.4823 32.7669 37.5454C32.7523 37.5729 32.7359 37.6103 32.7117 37.636C32.7117 37.636 32.7117 37.636 32.7101 37.6458C32.723 37.6281 32.7393 37.5907 32.7084 37.6556C32.6679 37.7187 32.6971 37.6636 32.7101 37.6458L32.7084 37.6556C32.6679 37.7187 32.6177 37.7799 32.558 37.8393C32.5338 37.865 32.5209 37.8827 32.4983 37.8986C32.5 37.8888 32.5096 37.8907 32.5096 37.8907C32.5209 37.8827 32.5322 37.8748 32.5096 37.8907C32.4983 37.8986 32.4967 37.9084 32.4854 37.9164L32.4967 37.9084C32.4854 37.9164 32.4724 37.9341 32.4612 37.9421C32.3935 37.9897 32.3259 38.0374 32.2487 38.0832C32.0283 38.2126 31.9759 38.5776 32.1297 38.78C32.3073 39.0174 32.5697 39.0483 32.811 38.9129C33.5461 38.4985 33.9677 37.5971 33.8748 36.7474C33.8495 36.4889 33.6014 36.258 33.3385 36.2879C33.0756 36.3177 32.8673 36.5509 32.8988 36.8308C32.9017 36.8719 32.9046 36.9131 32.9075 36.9542C32.9041 36.9738 32.9104 36.9953 32.9053 37.0248C32.9015 37.1052 32.9041 36.9738 32.9041 36.9738C32.9233 36.9776 32.8769 37.1916 32.8735 37.2112C32.8797 37.2327 32.873 37.272 32.8663 37.3112Z" fill="#183453"/>
<path d="M34.5625 20.8828C34.5703 20.8944 34.5765 20.9158 34.5843 20.9274C34.6 20.9506 34.6156 20.9739 34.6218 20.9952C34.5983 20.9604 34.5843 20.9274 34.5625 20.8828Z" fill="#183453"/>
<path d="M34.666 21.1328C34.6705 21.164 34.6768 21.1854 34.6813 21.2166C34.6892 21.2282 34.6954 21.2497 34.6937 21.2594C34.6908 21.2185 34.6784 21.1756 34.666 21.1328Z" fill="#183453"/>
<path d="M34.7129 21.4297C34.7095 21.4493 34.7078 21.4591 34.7044 21.4787C34.7093 21.51 34.7042 21.5394 34.7008 21.5591C34.7076 21.5198 34.7061 21.4689 34.7129 21.4297Z" fill="#183453"/>
<path d="M34.739 22.1478C34.8103 22.2529 34.9345 22.338 35.0496 22.3605C35.1759 22.375 35.3073 22.3601 35.4104 22.2788C35.5135 22.1975 35.5702 22.0971 35.6129 21.9635C35.7709 21.386 35.6383 20.7113 35.285 20.2267C35.2137 20.1216 35.0991 20.0384 34.9744 20.0141C34.8593 19.9916 34.7071 20.0126 34.6136 20.0957C34.4075 20.2583 34.3364 20.5587 34.4947 20.7923C34.5264 20.839 34.5484 20.8839 34.5801 20.9306C34.5722 20.919 34.5659 20.8975 34.558 20.8858C34.5818 20.9208 34.5943 20.9638 34.618 20.9989C34.6022 20.9755 34.5959 20.954 34.5801 20.9306C34.6242 21.0204 34.6571 21.118 34.6787 21.2236C34.6742 21.1923 34.6679 21.1708 34.6634 21.1395C34.6759 21.1825 34.6788 21.2236 34.6912 21.2666C34.685 21.2451 34.6867 21.2353 34.6787 21.2236C34.6941 21.3077 34.6999 21.3899 34.704 21.482C34.7074 21.4624 34.709 21.4526 34.7124 21.4329C34.7153 21.474 34.7069 21.5231 34.7098 21.5642C34.7148 21.5348 34.7103 21.5035 34.7136 21.4839C34.7065 21.5838 34.688 21.6918 34.6617 21.788C34.6241 21.8922 34.6661 22.0524 34.739 22.1478Z" fill="#183453"/>
<path d="M25.6674 19.3673C25.6803 19.3496 25.6932 19.3319 25.7078 19.3045C25.7207 19.2868 25.724 19.2672 25.7352 19.2593C25.7095 19.2947 25.6932 19.3319 25.6674 19.3673Z" fill="#183453"/>
<path d="M24.8813 19.8676C25.0009 19.9213 25.1367 19.9377 25.2634 19.8915C25.3806 19.8435 25.4739 19.7604 25.534 19.6404C25.5828 19.5284 25.6412 19.4182 25.7092 19.3099C25.6963 19.3277 25.6834 19.3454 25.6688 19.373C25.6946 19.3375 25.7109 19.3001 25.7368 19.2647C25.7238 19.2824 25.7205 19.302 25.7092 19.3099C25.8306 19.1209 25.9791 18.9472 26.1337 18.7951C26.2176 18.7101 26.2556 18.5453 26.2469 18.4221C26.2382 18.2988 26.1721 18.1643 26.0767 18.0849C25.9717 18.0037 25.8426 17.9481 25.7113 17.963C25.6697 17.9751 25.6297 17.9774 25.588 17.9895C25.5046 18.0138 25.4467 18.0633 25.3854 18.1323C25.0856 18.4385 24.8366 18.7951 24.6497 19.1943C24.5992 19.3161 24.5853 19.4553 24.6323 19.586C24.6714 19.7051 24.7714 19.8157 24.8813 19.8676Z" fill="#183453"/>
<path d="M18.9863 26.9688C18.9847 26.9784 18.9928 26.99 18.9911 26.9997C18.9911 26.9997 18.9911 26.9997 18.9928 26.99C18.9945 26.9804 18.9863 26.9688 18.9863 26.9688Z" fill="#183453"/>
<path d="M19.001 27.0497C18.993 27.0383 18.9947 27.0288 18.9883 27.0078C18.9867 27.0174 18.9867 27.0174 18.985 27.0269C18.9914 27.0478 18.9914 27.0478 19.001 27.0497Z" fill="#183453"/>
<path d="M19.0108 27.0616L19.0125 27.0513C19.0125 27.0513 19.0125 27.0513 19.0039 27.0391C19.0022 27.0493 19.0022 27.0493 19.0108 27.0616Z" fill="#183453"/>
<path d="M18.9844 27.0234C18.993 27.0357 18.9912 27.0459 19.0016 27.048L19.0033 27.0377C18.993 27.0357 18.993 27.0357 18.9844 27.0234Z" fill="#183453"/>
<path d="M19.0148 27.0875C19.0165 27.0778 19.0084 27.0662 19.0101 27.0565C19.0101 27.0565 19.0101 27.0566 19.0117 27.0469C19.0084 27.0662 19.0067 27.0759 19.0148 27.0875Z" fill="#183453"/>
<path d="M19.0103 27.0575L19.012 27.0477C19.0026 27.0459 19.0103 27.0575 19.0103 27.0575Z" fill="#183453"/>
<path d="M18.9875 27.0121C18.9952 27.0236 18.9935 27.0332 18.9995 27.0543C18.9995 27.0543 18.9995 27.0543 19.0072 27.0658C19.0088 27.0561 19.0088 27.0561 19.0012 27.0447C18.9952 27.0236 18.9968 27.0139 18.9875 27.0121Z" fill="#183453"/>
<path d="M19.0205 27.0563C19.0123 27.0447 19.014 27.035 19.0059 27.0234C19.0042 27.0331 19.0042 27.0331 19.0123 27.0447C19.0107 27.0544 19.0107 27.0544 19.0205 27.0563Z" fill="#183453"/>
<path d="M19.0037 27.0306C18.9973 27.0093 19.0006 26.99 18.9941 26.9688C18.9925 26.9784 18.9908 26.9881 18.9892 26.9978C18.9973 27.0093 18.9956 27.019 19.0037 27.0306Z" fill="#183453"/>
<path d="M18.989 26.9526C18.9873 26.9623 18.984 26.9816 18.9921 26.9932C18.9921 26.9932 18.9921 26.9932 18.9905 27.0029C18.9921 26.9932 18.9938 26.9835 18.9954 26.9738C18.9988 26.9545 19.0004 26.9448 18.989 26.9526C18.9907 26.9429 18.9907 26.9429 18.989 26.9526Z" fill="#183453"/>
<path d="M19 26.8906C18.9983 26.9003 18.995 26.9197 19.0031 26.9312L19.0048 26.9216C18.995 26.9197 18.9967 26.91 19 26.8906Z" fill="#183453"/>
<path d="M18.9934 26.9859C18.995 26.9762 18.9983 26.9569 18.9902 26.9453C18.9886 26.955 18.9886 26.955 18.9869 26.9647C18.9853 26.9743 18.9934 26.9859 18.9934 26.9859Z" fill="#183453"/>
<path d="M18.9853 26.9666C18.9853 26.9666 18.9869 26.9569 18.9984 26.9491L19 26.9394C18.9886 26.9472 18.9869 26.9569 18.9853 26.9666Z" fill="#183453"/>
<path d="M19.0112 27.0631C19.0095 27.0729 19.0174 27.0846 19.0158 27.0944C19.0078 27.0827 19.0095 27.0729 19.0112 27.0631C19.0033 27.0514 18.9954 27.0398 18.997 27.03C18.997 27.03 18.997 27.03 18.9954 27.0398C18.9954 27.0398 18.9954 27.0398 18.997 27.03C18.997 27.03 18.9987 27.0202 18.9891 27.0183C18.9891 27.0183 18.9891 27.0183 18.997 27.03C18.9987 27.0202 19.0004 27.0104 19.0021 27.0005C19.0037 26.9907 18.9958 26.9791 18.9975 26.9693C18.9958 26.9791 18.9958 26.9791 18.9958 26.9791C18.9975 26.9693 18.9975 26.9693 18.9992 26.9595C18.9992 26.9595 18.9992 26.9595 19.0008 26.9497C19.0008 26.9497 19.0008 26.9497 18.9992 26.9595C19.0008 26.9497 19.0025 26.9398 19.0042 26.93C19.0059 26.9202 19.0092 26.9006 19.0013 26.889C18.9996 26.8988 18.998 26.9086 19.0059 26.9202C19.0109 26.8908 19.0238 26.8731 19.0288 26.8437C19.0255 26.8633 19.0221 26.8829 19.0171 26.9123C19.0188 26.9025 19.0205 26.8927 19.0334 26.875C19.0918 26.7648 19.0882 26.6121 19.0507 26.4832C19.032 26.4188 19.002 26.3623 18.9496 26.3216C18.9083 26.2731 18.8654 26.2343 18.8017 26.2016C18.6821 26.1479 18.5463 26.1315 18.4196 26.1777C18.3025 26.2257 18.2091 26.3088 18.149 26.4288C18.1344 26.4563 18.1181 26.4937 18.1131 26.5231C18.0918 26.5899 18.0688 26.6664 18.0571 26.735C18.0454 26.8037 18.0416 26.884 18.0395 26.9545C18.044 26.9858 18.0373 27.025 18.0419 27.0563C18.0539 27.1599 18.0755 27.2655 18.118 27.3649C18.1463 27.4312 18.1841 27.4994 18.2124 27.5657C18.2266 27.5989 18.252 27.6241 18.2661 27.6573C18.3469 27.7642 18.4519 27.8455 18.5765 27.8698C18.6915 27.8923 18.8436 27.8713 18.937 27.7882C19.04 27.707 19.1175 27.6006 19.1393 27.4731C19.1514 27.3438 19.1349 27.2088 19.0541 27.1019C19.0428 27.1098 19.027 27.0865 19.0112 27.0631C19.027 27.0865 19.0332 27.1079 19.0491 27.1313C19.0332 27.1079 19.0174 27.0846 19.0112 27.0631Z" fill="#183453"/>
<path d="M18.9904 26.9378L18.9887 26.9476C18.9904 26.9378 18.9904 26.9378 18.9921 26.928C18.9955 26.9084 18.9988 26.8888 19.0039 26.8594C19.0105 26.8809 19.0054 26.9103 18.9904 26.9378Z" fill="#183453"/>
<path d="M38.2631 32.4104C38.3313 32.4743 38.4045 32.5089 38.4907 32.5257C38.5306 32.5234 38.5785 32.5327 38.6184 32.5304C38.6983 32.5258 38.7832 32.4918 38.8507 32.4442C39.0289 32.3272 39.2149 32.2219 39.3931 32.1049C39.4493 32.0653 39.4864 32.0219 39.5155 31.9669C39.5543 31.9137 39.5834 31.8587 39.5856 31.7883C39.5973 31.7197 39.5977 31.6591 39.579 31.5947C39.5699 31.5322 39.5512 31.4679 39.51 31.4194C39.4863 31.3844 39.4514 31.3573 39.4277 31.3223C39.3595 31.2584 39.2863 31.2239 39.2001 31.2071C39.1602 31.2094 39.1123 31.2 39.0724 31.2024C38.9925 31.207 38.9076 31.241 38.8401 31.2885C38.6619 31.4055 38.4759 31.5109 38.2977 31.6279C38.2415 31.6675 38.2044 31.7109 38.1753 31.7659C38.1365 31.819 38.1074 31.8741 38.1052 31.9445C38.0935 32.013 38.0931 32.0737 38.1118 32.138C38.1209 32.2005 38.1396 32.2649 38.1808 32.3134C38.2045 32.3484 38.2377 32.3852 38.2631 32.4104Z" fill="#183453"/>
</svg>
