<svg width="88" height="88" viewBox="0 0 88 88" fill="none" xmlns="http://www.w3.org/2000/svg">
<circle cx="44" cy="44" r="42.5" fill="#183453" stroke="#C6E2FF" stroke-width="3"/>
<path d="M40.5678 36.3365C43.2777 33.8065 41.527 26.2297 40.6631 24.6536C39.3082 22.1983 36.2207 21.6452 33.8673 24.9217C32.0735 27.4204 31.3694 30.667 31.9131 33.7008C32.8611 39.0885 38.783 37.9901 40.5678 36.3365Z" fill="white"/>
<path d="M30.3587 48.384C33.5736 46.4684 31.8184 40.2344 29.3437 37.3793C27.5593 35.3209 25.6646 35.8308 24.2691 38.1312C22.6931 40.7296 22.2945 44.5897 23.7476 46.8628C25.758 49.9655 29.4306 48.929 30.3587 48.384Z" fill="white"/>
<path d="M56.3508 34.4489C56.84 31.4007 56.0778 28.1511 54.2393 25.6616C51.8273 22.3921 48.7495 22.9162 47.4385 25.3662C46.6028 26.9388 44.971 34.5088 47.743 37.0499C49.5409 38.7272 55.4992 39.833 56.3508 34.4489Z" fill="white"/>
<path d="M64.6727 47.5967C66.0852 45.3294 65.6174 41.4676 63.9947 38.8627C62.5579 36.5565 60.654 36.039 58.9064 38.0902C56.4995 40.9354 54.856 47.1626 58.0887 49.0913C59.0435 49.6732 62.7347 50.7081 64.6727 47.5967Z" fill="white"/>
<path d="M39.6503 35.4693C39.6172 35.4858 39.5842 35.5187 39.551 35.5351C39.551 35.5351 39.551 35.5351 39.5345 35.5515C39.3527 35.6995 39.5842 35.5187 39.6503 35.4693Z" fill="white"/>
<path d="M38.858 35.9696C38.8083 35.9859 38.7585 36.0022 38.7254 36.0186C38.6757 36.0349 38.6261 36.0677 38.5597 36.084C38.6592 36.0513 38.7587 36.0187 38.858 35.9696Z" fill="white"/>
<path d="M36.0899 36.4637C36.0234 36.4473 35.9571 36.4471 35.9072 36.4307C35.8574 36.4306 35.8077 36.4305 35.7578 36.4141C35.8574 36.4306 35.9737 36.4472 36.0899 36.4637Z" fill="white"/>
<path d="M37.4019 36.4147C37.3522 36.4146 37.286 36.4308 37.2363 36.4307C37.1867 36.447 37.1369 36.4469 37.0707 36.4631C37.1867 36.447 37.3026 36.4308 37.4019 36.4147Z" fill="white"/>
<path d="M35.1443 36.2723C35.0942 36.2557 35.044 36.2226 34.994 36.206C34.9439 36.1894 34.8938 36.1728 34.8438 36.1562C34.9439 36.1894 35.0442 36.2391 35.1443 36.2723Z" fill="white"/>
<path d="M33.8296 35.2873C33.7114 35.1545 33.9989 35.5194 33.9311 35.4199C33.9143 35.4033 33.8973 35.3702 33.8804 35.3536C33.8635 35.337 33.8465 35.3038 33.8296 35.2873Z" fill="white"/>
<path d="M33.5234 34.7742C33.5061 34.7244 33.4722 34.6746 33.455 34.6249C33.4377 34.5752 33.4038 34.5254 33.3867 34.4922C33.4377 34.5752 33.4722 34.6746 33.5234 34.7742Z" fill="white"/>
<path d="M34.2787 35.7676C34.178 35.7012 34.5643 35.9997 34.4298 35.8836C34.413 35.8671 34.3961 35.8505 34.3795 35.8505L34.3627 35.8339C34.329 35.8008 34.2955 35.7841 34.2787 35.7676Z" fill="white"/>
<path d="M40.695 32.797C40.6788 32.8633 40.6795 32.9463 40.6633 33.0126C40.6636 33.0458 40.6639 33.079 40.6475 33.1287C40.6801 33.0126 40.6959 32.8965 40.695 32.797Z" fill="white"/>
<path d="M40.5547 28.9609C40.5551 29.0107 40.5724 29.0605 40.5728 29.1103C40.5734 29.1767 40.5907 29.2265 40.6081 29.2929C40.5904 29.1933 40.5726 29.0771 40.5547 28.9609Z" fill="white"/>
<path d="M40.3594 34.391C40.3432 34.4406 40.3267 34.4737 40.3105 34.5234C40.2942 34.573 40.2614 34.6392 40.2451 34.6889C40.2776 34.5896 40.3101 34.4902 40.3594 34.391Z" fill="white"/>
<path d="M40.0117 23.5563C39.4318 23.9345 39.2389 24.6446 39.5787 25.2573C39.5955 25.2738 39.6125 25.307 39.6127 25.3235C39.6125 25.307 39.5957 25.2904 39.5955 25.2738C39.6124 25.2904 39.6125 25.307 39.6295 25.3401C39.985 25.8536 40.7708 26.0545 41.301 25.7091C41.8808 25.3309 42.0737 24.6208 41.7339 24.0081C41.4114 23.4451 40.5585 23.2109 40.0117 23.5563Z" fill="white"/>
<path d="M34.9779 38.7473C36.25 39.0492 37.6017 38.9708 38.8503 38.6108C39.9158 38.2999 41.0459 37.7741 41.7719 36.916C42.7781 35.6949 43.1467 34.1739 43.2646 32.619C43.3827 31.0973 43.2169 29.558 42.9512 28.0515C42.7563 26.9424 42.5113 25.833 42.0833 24.7893C41.9806 24.5408 41.8779 24.2923 41.7587 24.0603C42.0988 24.6735 41.9057 25.3844 41.3251 25.763C40.7943 26.1088 40.0075 25.9077 39.6516 25.3937C39.6858 25.4765 39.7201 25.5593 39.7541 25.6256C39.7369 25.5759 39.7029 25.5096 39.669 25.4599C40.1484 26.6362 40.4285 27.9111 40.608 29.1525C40.6075 29.1029 40.5903 29.0532 40.5898 29.0036C40.6077 29.1194 40.6254 29.2188 40.6432 29.3346C40.6426 29.2685 40.6254 29.2188 40.608 29.1525C40.788 30.4436 40.8681 31.751 40.714 33.0245C40.73 32.9584 40.7292 32.8756 40.7452 32.8095C40.7297 32.9253 40.714 33.0245 40.6985 33.1403C40.6981 33.1072 40.6978 33.0741 40.714 33.0245C40.6357 33.5371 40.5238 34.0331 40.345 34.5124C40.3612 34.4628 40.3776 34.4298 40.3937 34.3802C40.3447 34.4793 40.3123 34.5785 40.2632 34.6776C40.2794 34.628 40.3121 34.5619 40.3283 34.5123C40.2138 34.7436 40.0992 34.9749 39.9511 35.1895C39.9511 35.1895 39.9511 35.1895 39.951 35.1729C40.0004 35.1069 40.05 35.0574 39.9675 35.1564L39.951 35.1729C39.951 35.1729 39.9509 35.1729 39.9344 35.1894C39.9344 35.1894 39.8685 35.2719 39.8686 35.2885C39.8686 35.2885 39.9015 35.239 39.9344 35.1894C39.9015 35.239 39.8518 35.2719 39.8189 35.3214C39.7362 35.4039 39.6536 35.4863 39.5709 35.5688C39.6041 35.5524 39.6372 35.5194 39.6704 35.5029C39.6041 35.5524 39.3722 35.7336 39.5544 35.5853C39.5544 35.5853 39.5544 35.5853 39.5709 35.5688L39.5544 35.5853C39.4549 35.6512 39.3554 35.717 39.2557 35.7663C39.0897 35.8651 38.9236 35.9473 38.7572 36.0129C38.8072 35.9965 38.8571 35.9801 38.8903 35.9637C38.7906 36.013 38.6908 36.0458 38.5911 36.0951C38.641 36.0787 38.6908 36.0458 38.7574 36.0295C38.275 36.2099 37.7756 36.3572 37.2588 36.4383C37.3089 36.4384 37.3755 36.4221 37.4256 36.4223C37.3089 36.4384 37.2089 36.4547 37.0921 36.4708C37.1422 36.471 37.1922 36.4546 37.2588 36.4383C36.8084 36.4865 36.3576 36.485 35.9063 36.4339C35.9732 36.4507 36.04 36.4509 36.0903 36.4676C35.9732 36.4507 35.8729 36.4338 35.7558 36.4169C35.8059 36.4171 35.856 36.4172 35.9063 36.4339C35.6052 36.3833 35.3038 36.2996 35.0022 36.1994C35.0525 36.2161 35.1029 36.2494 35.1532 36.2661C35.0525 36.2161 34.952 36.1827 34.8513 36.1327C34.9015 36.1494 34.9518 36.1661 35.0021 36.1829C34.8343 36.0996 34.6664 36.0163 34.5151 35.9166C34.4647 35.8833 34.431 35.8501 34.3806 35.8169C34.3974 35.8335 34.4143 35.8501 34.431 35.8501C34.5657 35.9664 34.1954 35.6674 34.2795 35.7338C34.3131 35.7505 34.33 35.7671 34.3635 35.7837L34.3804 35.8003C34.2962 35.7339 34.2121 35.6674 34.1444 35.5845C34.0601 35.5015 33.9756 35.4019 33.8913 35.3189C33.9082 35.3355 33.9252 35.3687 33.9421 35.3853C34.0099 35.4848 33.7054 35.1032 33.8405 35.2526C33.8574 35.2692 33.8744 35.3023 33.8913 35.3189C33.8576 35.2857 33.8405 35.2526 33.8068 35.2194C33.6712 35.0204 33.5522 34.8049 33.4498 34.5895C33.467 34.6392 33.4842 34.6889 33.5181 34.7386C33.467 34.6392 33.4326 34.5398 33.3815 34.4404C33.3987 34.4901 33.4326 34.5398 33.4496 34.573C33.2781 34.1257 33.1566 33.662 33.0849 33.182C33.0854 33.2316 33.1026 33.2813 33.1031 33.331C33.0852 33.2151 33.0675 33.1157 33.0497 32.9999C33.067 33.0661 33.0675 33.1157 33.0849 33.182C32.9583 32.2219 32.9486 31.2623 33.0558 30.303C33.0563 30.3526 33.0401 30.4022 33.0406 30.4519C33.0561 30.3361 33.0718 30.2369 33.0873 30.1211C33.088 30.1873 33.0718 30.2369 33.0725 30.3031C33.2134 29.377 33.4545 28.4512 33.7962 27.5754C33.78 27.625 33.7471 27.6745 33.731 27.7241C33.78 27.625 33.8124 27.5258 33.8615 27.4267C33.8453 27.4763 33.8291 27.5259 33.7962 27.5754C33.9759 27.1789 34.1723 26.7824 34.3855 26.4026C34.5003 26.2044 34.6318 25.9897 34.7633 25.7916C34.8291 25.6925 34.9114 25.577 34.9772 25.4779C34.9938 25.4614 35.0103 25.4449 35.0101 25.4284C34.9771 25.4614 34.9607 25.4944 34.9276 25.5274C34.9771 25.4614 35.0428 25.3623 35.0101 25.4284C35.0266 25.4119 35.043 25.3789 35.0595 25.3624C35.307 25.0653 35.5882 24.8015 35.8861 24.5378C35.8695 24.5543 35.8861 24.5378 36.0183 24.4058C35.9687 24.4553 35.919 24.4882 35.8861 24.5378C35.9191 24.5048 36.0185 24.4224 36.0849 24.3895C36.1679 24.3401 36.2507 24.2742 36.3504 24.2249C36.4666 24.1591 36.5995 24.0933 36.7159 24.0441C36.666 24.0604 36.6161 24.0768 36.5661 24.0932C36.6658 24.0439 36.7657 24.0111 36.8654 23.9618C36.8154 23.9782 36.7657 24.0111 36.7158 24.0275C36.9155 23.962 37.1152 23.8964 37.3152 23.864C37.2484 23.8638 37.1985 23.8802 37.1317 23.8799C37.2484 23.8638 37.3484 23.8476 37.4652 23.8314C37.4151 23.8312 37.3651 23.8476 37.3152 23.864C37.482 23.848 37.649 23.8485 37.8328 23.8657C37.7826 23.8489 37.7158 23.8487 37.6655 23.832C37.7826 23.8489 37.8829 23.8658 38 23.8827C37.9499 23.8826 37.8829 23.8658 37.8328 23.8657C38.0002 23.8993 38.1508 23.9329 38.3017 23.9995C38.2682 23.9829 38.2179 23.9662 38.1843 23.9495C38.285 23.9995 38.3855 24.0329 38.4862 24.0828C38.4193 24.0661 38.3688 24.0328 38.3019 24.0161C38.4361 24.0827 38.5704 24.1493 38.7048 24.2325C38.7384 24.2491 38.7721 24.2823 38.8057 24.299C38.7888 24.2824 38.7719 24.2658 38.7551 24.2492C38.6035 24.1163 39.0241 24.432 38.8561 24.3322C38.8392 24.3156 38.8224 24.299 38.8057 24.299C38.873 24.3488 38.9236 24.3986 38.9909 24.4485C39.0583 24.5149 39.1426 24.5979 39.2101 24.6643C39.2438 24.6975 39.2607 24.7141 39.2777 24.7472C39.2609 24.7306 39.244 24.714 39.2438 24.6975C39.1762 24.6145 39.4805 24.9795 39.3115 24.7804L39.2946 24.7638C39.4132 24.9296 39.5317 25.0955 39.6337 25.2778C39.2936 24.6645 39.4868 23.9537 40.0673 23.575C40.6149 23.2293 41.4686 23.4472 41.7917 24.0273C40.9246 22.4858 39.3269 21.3556 37.5073 21.3993C35.3538 21.4421 33.6993 22.9424 32.5807 24.6099C31.3635 26.4259 30.7172 28.5582 30.5554 30.7251C30.4663 31.8169 30.5609 32.9092 30.7554 33.9852C30.897 34.7799 31.1722 35.5749 31.6134 36.2712C32.3107 37.5309 33.5553 38.4118 34.9779 38.7473Z" fill="white"/>
<path d="M39.9348 35.1797C39.9177 35.1967 39.9177 35.1967 39.9348 35.1797Z" fill="white"/>
<path d="M33.7412 27.7357C33.7575 27.686 33.7905 27.6364 33.8067 27.5868C33.8229 27.5371 33.8392 27.4875 33.8722 27.4379C33.8229 27.5371 33.7737 27.6364 33.7412 27.7357Z" fill="white"/>
<path d="M39.2132 24.7044C39.23 24.721 39.2469 24.7376 39.2471 24.7541L39.2639 24.7707C39.4497 24.9864 39.1454 24.6049 39.2132 24.7044Z" fill="white"/>
<path d="M38.7288 24.2449C38.7456 24.2615 38.7624 24.278 38.7793 24.2946C38.7961 24.3112 38.8129 24.3277 38.8296 24.3278C38.9974 24.4439 38.5776 24.1288 38.7288 24.2449Z" fill="white"/>
<path d="M37.6641 23.8672C37.7138 23.8673 37.7803 23.8838 37.8302 23.9002C37.8799 23.9003 37.9464 23.9168 37.9961 23.9169C37.8799 23.9003 37.7637 23.8837 37.6641 23.8672Z" fill="white"/>
<path d="M38.1758 23.9609C38.2092 23.9775 38.2593 23.9941 38.2927 24.0106C38.3594 24.0273 38.4096 24.0603 38.4763 24.077C38.3762 24.0438 38.2759 23.9941 38.1758 23.9609Z" fill="white"/>
<path d="M39.6145 25.3453C39.6143 25.3292 39.5978 25.313 39.5977 25.2969C39.6142 25.313 39.6143 25.3292 39.6145 25.3453Z" fill="white"/>
<path d="M39.582 25.2656C39.5993 25.3154 39.6332 25.3652 39.6505 25.4149C39.6334 25.3817 39.6332 25.3652 39.6162 25.332C39.5993 25.3154 39.5989 25.2822 39.582 25.2656Z" fill="white"/>
<path d="M35.8895 24.5463C35.939 24.4969 35.9887 24.464 36.0216 24.4145C35.8895 24.5463 35.8731 24.5793 35.8895 24.5463Z" fill="white"/>
<path d="M37.1372 23.9162C37.2035 23.9164 37.2531 23.9001 37.3194 23.9002C37.369 23.884 37.4187 23.8841 37.4683 23.8678C37.3524 23.8839 37.2365 23.9001 37.1372 23.9162Z" fill="white"/>
<path d="M34.9388 25.553C34.9551 25.5199 34.9882 25.487 35.0212 25.454C35.0706 25.388 34.988 25.4704 34.9388 25.553Z" fill="white"/>
<path d="M33.0458 30.4804C33.0454 30.4306 33.0618 30.3808 33.0614 30.331C33.0608 30.2646 33.0773 30.2149 33.0767 30.1485C33.0777 30.2647 33.0618 30.3808 33.0458 30.4804Z" fill="white"/>
<path d="M39.6504 25.3876C39.6844 25.4374 39.7017 25.5037 39.7357 25.5535C39.7014 25.4706 39.6671 25.3876 39.633 25.3213C39.633 25.3213 39.633 25.3213 39.6328 25.3047C39.6331 25.3378 39.6335 25.371 39.6504 25.3876Z" fill="white"/>
<path d="M36.5675 24.0996C36.6173 24.0833 36.667 24.0669 36.7168 24.0506C36.7665 24.0343 36.8161 24.0015 36.8658 23.9852C36.7663 24.0179 36.6669 24.0505 36.5675 24.0996Z" fill="white"/>
<path d="M33.1199 33.3632C33.1194 33.3134 33.1021 33.2636 33.1017 33.2138C33.0843 33.1474 33.0838 33.0977 33.0664 33.0312C33.0843 33.1474 33.1021 33.2636 33.1199 33.3632Z" fill="white"/>
<path d="M24.7529 39.9935C24.7692 39.9439 24.7856 39.9108 24.8186 39.8612C24.8348 39.8115 24.8676 39.7454 24.8839 39.6957C24.8347 39.795 24.8022 39.8943 24.7529 39.9935Z" fill="white"/>
<path d="M26.4646 47.577C26.4146 47.5604 26.3643 47.5273 26.3143 47.5107C26.2642 47.4941 26.2141 47.4775 26.1641 47.4609C26.2642 47.4941 26.3643 47.5273 26.4646 47.577Z" fill="white"/>
<path d="M27.3282 47.7528C27.2617 47.7363 27.2119 47.7362 27.1455 47.7198C27.0957 47.7197 27.046 47.7196 26.9961 47.7031C27.1123 47.7197 27.2119 47.7362 27.3282 47.7528Z" fill="white"/>
<path d="M24.5928 45.8142C24.5756 45.7645 24.5583 45.7147 24.5411 45.665C24.5239 45.6152 24.4899 45.5654 24.4727 45.5156C24.5071 45.6151 24.5583 45.7147 24.5928 45.8142Z" fill="white"/>
<path d="M24.1708 42.3788C24.1704 42.329 24.1869 42.2959 24.1865 42.2461C24.186 42.1797 24.2023 42.1133 24.2017 42.0469C24.2027 42.1631 24.1868 42.2793 24.1708 42.3788Z" fill="white"/>
<path d="M25.0277 46.5051C25.0275 46.4885 25.0108 46.4885 25.0107 46.4719C24.8756 46.3226 25.1968 46.7207 25.0277 46.5051Z" fill="white"/>
<path d="M24.2019 44.496C24.2013 44.4296 24.184 44.3798 24.1834 44.3135C24.183 44.2637 24.1657 44.2139 24.1484 44.1641C24.1662 44.2636 24.184 44.3798 24.2019 44.496Z" fill="white"/>
<path d="M25.6315 47.1044C25.6147 47.0878 25.598 47.0878 25.5812 47.0712C25.4134 46.9551 25.8668 47.3033 25.6315 47.1044Z" fill="white"/>
<path d="M29.8789 40.5391C29.8961 40.5888 29.9301 40.6386 29.9475 40.7049C29.9647 40.7547 29.9819 40.8044 30.0157 40.8376C29.9646 40.7381 29.9301 40.6386 29.8789 40.5391Z" fill="white"/>
<path d="M30.75 43.3906C30.7506 43.457 30.7679 43.5068 30.7684 43.5732C30.7688 43.623 30.7861 43.6728 30.7866 43.7226C30.7857 43.623 30.7679 43.5068 30.75 43.3906Z" fill="white"/>
<path d="M30.8267 45.1485C30.8271 45.1983 30.8107 45.2481 30.8111 45.2978C30.8117 45.3642 30.7952 45.414 30.7958 45.4804C30.7949 45.3808 30.8108 45.2646 30.8267 45.1485Z" fill="white"/>
<path d="M28.6374 38.4169C28.5698 38.334 28.519 38.2677 28.6374 38.4169C28.7726 38.5827 28.688 38.4667 28.6374 38.4169Z" fill="white"/>
<path d="M30.324 46.7372C30.3074 46.7537 30.2911 46.7867 30.2746 46.8032L30.258 46.8197C30.2415 46.8362 30.2252 46.8692 30.2086 46.8857C30.1262 46.9847 30.4064 46.6382 30.324 46.7372Z" fill="white"/>
<path d="M29.6472 47.3524C29.5974 47.3688 29.5643 47.3851 29.5145 47.4015C29.4649 47.4343 29.3986 47.4505 29.349 47.4833C29.4649 47.4343 29.5643 47.3851 29.6472 47.3524Z" fill="white"/>
<path d="M29.8458 47.2173C29.7302 47.316 30.0113 47.1022 29.9946 47.1021C29.9781 47.1186 29.945 47.135 29.9285 47.1515L29.912 47.1679C29.8788 47.1843 29.8623 47.2008 29.8458 47.2173Z" fill="white"/>
<path d="M30.6183 46.1488C30.602 46.1985 30.5689 46.2315 30.5526 46.2812C30.5364 46.3308 30.5203 46.397 30.4873 46.4466C30.5365 46.3474 30.5858 46.2481 30.6183 46.1488Z" fill="white"/>
<path d="M28.5074 47.7038C28.4577 47.7037 28.4081 47.7199 28.3417 47.7198C28.2921 47.736 28.2258 47.7359 28.1762 47.7522C28.2756 47.736 28.3915 47.7199 28.5074 47.7038Z" fill="white"/>
<path d="M27.0873 37.2862C27.0699 37.2692 27.0699 37.2692 27.0873 37.2862C27.07 37.2862 27.07 37.2862 27.0873 37.2862Z" fill="white"/>
<path d="M25.6843 38.2728C25.7008 38.2563 25.7174 38.2398 25.7337 38.2067C25.7336 38.1902 25.7503 38.1903 25.7501 38.1737C25.8491 38.0582 25.5853 38.3882 25.6843 38.2728Z" fill="white"/>
<path d="M27.2062 37.2985C27.2394 37.2986 27.2891 37.2987 27.3223 37.2987C27.2392 37.2822 27.1729 37.2821 27.0898 37.2656C27.1232 37.282 27.1565 37.2984 27.2062 37.2985Z" fill="white"/>
<path d="M27.2031 37.3125C27.2862 37.329 27.386 37.362 27.469 37.3785C27.4191 37.3621 27.3691 37.3293 27.3192 37.3128C27.286 37.3127 27.2363 37.3126 27.2031 37.3125Z" fill="white"/>
<path d="M27.4736 37.3944C27.5237 37.411 27.5737 37.4276 27.6238 37.4442C27.5237 37.411 27.44 37.3613 27.3398 37.3281C27.3733 37.3447 27.4234 37.3613 27.4736 37.3944Z" fill="white"/>
<path d="M27.207 37.2988C27.1571 37.2823 27.124 37.2823 27.0741 37.2659C27.0243 37.2658 26.9913 37.2821 26.9417 37.2983C27.0412 37.2985 27.1241 37.2986 27.207 37.2988Z" fill="white"/>
<path d="M26.5489 50.094C27.686 50.2796 28.8374 50.2337 29.9357 49.8898C30.3185 49.7753 30.7177 49.6277 31.0661 49.4138C31.6467 49.0517 32.1261 48.5901 32.5042 48.0123C33.1784 47.0054 33.3991 45.7158 33.3868 44.5081C33.3572 43.2342 33.0935 41.9265 32.6474 40.734C32.218 39.5416 31.655 38.3487 30.8934 37.3206C30.6902 37.0387 30.4703 36.7568 30.2339 36.4913C30.69 37.0221 30.7304 37.7171 30.2517 38.2449C29.8223 38.7067 28.9212 38.7369 28.4821 38.2392C28.516 38.2889 28.5664 38.3221 28.6003 38.3719C28.6004 38.3884 28.6171 38.3885 28.634 38.4051C28.5832 38.3387 28.5325 38.2724 28.6509 38.4217C28.7861 38.5875 28.7014 38.4715 28.634 38.4051C28.6509 38.4217 28.6679 38.4548 28.6679 38.4548C28.7018 38.5046 28.7357 38.5543 28.7863 38.6041C28.9556 38.8362 29.0913 39.0517 29.2441 39.3003C29.5157 39.7479 29.7541 40.2118 29.976 40.6923C29.9588 40.6426 29.9249 40.5929 29.9075 40.5266C29.9586 40.6261 29.993 40.7254 30.0441 40.8249C30.0269 40.7752 30.0097 40.7255 29.976 40.6923C30.3694 41.6199 30.646 42.5638 30.8063 43.5568C30.8057 43.4907 30.7885 43.441 30.7878 43.3748C30.8057 43.4907 30.8234 43.59 30.8412 43.7058C30.8407 43.6562 30.8235 43.6065 30.823 43.5569C30.8957 44.1361 30.9183 44.7152 30.8572 45.2774C30.8567 45.2278 30.8729 45.1782 30.8724 45.1286C30.8568 45.2444 30.8412 45.3436 30.8256 45.4593C30.825 45.3931 30.8411 45.3436 30.8405 45.2774C30.7937 45.6081 30.7136 45.9387 30.5998 46.2361C30.616 46.1865 30.649 46.1535 30.6652 46.1039C30.6162 46.203 30.5838 46.3022 30.5347 46.4013C30.5509 46.3517 30.5669 46.2856 30.5998 46.2361C30.518 46.4012 30.4362 46.5664 30.3376 46.715C30.321 46.7315 30.3047 46.7645 30.2881 46.781L30.3047 46.7645C30.3212 46.748 30.3375 46.715 30.3541 46.6985C30.4365 46.5995 30.1564 46.9625 30.2387 46.847C30.2553 46.8305 30.2716 46.7975 30.2881 46.781C30.2222 46.8635 30.1396 46.9459 30.0569 47.0284C30.0239 47.0613 29.9908 47.0943 29.9578 47.1273C29.9743 47.1108 30.0075 47.0944 30.024 47.0779C30.024 47.0779 29.7591 47.2921 29.875 47.1932C29.8915 47.1767 29.9247 47.1603 29.9412 47.1438L29.9578 47.1273C29.8915 47.1767 29.8085 47.2261 29.7423 47.2755C29.6758 47.3084 29.6261 47.3413 29.5596 47.3742C29.6095 47.3578 29.6428 47.3413 29.6927 47.325C29.593 47.3743 29.4932 47.407 29.3935 47.4563C29.4434 47.4399 29.5099 47.4071 29.5596 47.3742C29.1772 47.5218 28.7775 47.6198 28.3608 47.6846C28.4109 47.6847 28.4608 47.6684 28.5276 47.6686C28.4109 47.6847 28.3109 47.701 28.1942 47.7171C28.2443 47.7173 28.3109 47.701 28.3608 47.6846C27.9607 47.7329 27.56 47.7316 27.1588 47.6807C27.2258 47.6975 27.2759 47.6976 27.3428 47.7144C27.2258 47.6975 27.1255 47.6806 27.0084 47.6637C27.0585 47.6638 27.1088 47.6805 27.1588 47.6807C26.8745 47.6302 26.5901 47.5631 26.3219 47.4629C26.3722 47.4797 26.4226 47.5129 26.4729 47.5296C26.3722 47.4796 26.2717 47.4462 26.171 47.3963C26.2213 47.413 26.2715 47.4297 26.3218 47.4464C26.1206 47.363 25.936 47.2632 25.7678 47.1468C25.7174 47.1136 25.6837 47.0804 25.6335 47.0637C25.8692 47.263 25.4149 46.9141 25.583 47.0304C25.5999 47.047 25.6166 47.0471 25.6168 47.0636C25.4991 46.9805 25.3979 46.881 25.2967 46.7814C25.1955 46.6818 25.1111 46.5823 25.0097 46.4661C25.179 46.6983 24.8576 46.2837 24.9927 46.433C24.9929 46.4496 25.0096 46.4496 25.0097 46.4661C25.0097 46.4661 25.0097 46.4661 24.9929 46.4496C24.9421 46.3832 24.8914 46.3169 24.8573 46.2506C24.7217 46.0517 24.6196 45.8528 24.5172 45.6374C24.5344 45.6871 24.5516 45.7368 24.5688 45.7865C24.5177 45.6871 24.4833 45.5877 24.4322 45.4883C24.4494 45.5379 24.4833 45.5877 24.5005 45.6374C24.3292 45.2067 24.2078 44.7597 24.1363 44.2962C24.137 44.3624 24.1542 44.4121 24.1549 44.4783C24.137 44.3624 24.1193 44.2631 24.1014 44.1473C24.1019 44.1969 24.1191 44.2466 24.1363 44.2962C24.0625 43.6012 24.0556 42.923 24.1321 42.2284C24.1326 42.278 24.1162 42.3111 24.1167 42.3607C24.1322 42.245 24.1479 42.1457 24.1634 42.03C24.1474 42.0961 24.1481 42.1623 24.1488 42.2285C24.2574 41.4182 24.4664 40.6249 24.7759 39.8649C24.7597 39.9145 24.7433 39.9475 24.7104 39.997C24.7595 39.8979 24.7919 39.7988 24.841 39.6997C24.8248 39.7493 24.792 39.8153 24.7759 39.8649C25.0371 39.2868 25.3319 38.7253 25.7107 38.2137C25.6941 38.2302 25.6776 38.2466 25.6612 38.2797C25.5623 38.3951 25.826 38.0652 25.727 38.1806C25.7272 38.1972 25.7105 38.1971 25.7107 38.2137C25.7272 38.1972 25.727 38.1806 25.7435 38.1641C25.793 38.0981 25.8591 38.0322 25.9085 37.9662C26.0242 37.8507 26.1398 37.7353 26.2557 37.6364L26.2722 37.6199C26.2557 37.6364 26.239 37.6364 26.2225 37.6529C26.1065 37.7352 26.4543 37.4716 26.3385 37.5705C26.322 37.587 26.2888 37.6035 26.2722 37.6199C26.322 37.587 26.355 37.554 26.4049 37.5377C26.4879 37.4883 26.5876 37.439 26.6705 37.3896C26.6206 37.406 26.554 37.4223 26.5043 37.4553C26.6039 37.406 26.7038 37.3732 26.8034 37.3239C26.7535 37.3403 26.7203 37.3567 26.6705 37.3896C26.7537 37.3568 26.837 37.3405 26.9203 37.3243C26.8702 37.3241 26.8368 37.324 26.7867 37.3238C26.87 37.3076 26.9535 37.3078 27.0368 37.2916C27.0201 37.2915 27.0034 37.2915 26.9866 37.2749C27.0033 37.2749 27.0199 37.275 27.0366 37.275C27.0533 37.2751 27.0867 37.2752 27.1033 37.2587C27.0866 37.2586 27.0532 37.2585 27.0366 37.275C27.1203 37.2918 27.1871 37.292 27.2707 37.3089C27.2707 37.3089 27.2707 37.3089 27.2874 37.3089C27.3879 37.3423 27.4719 37.3922 27.5724 37.4256C27.5221 37.4089 27.4719 37.3922 27.4216 37.3755C27.4887 37.4088 27.5558 37.4421 27.6063 37.4754C27.6734 37.5087 27.7238 37.5419 27.7744 37.5917C27.7744 37.5917 27.7911 37.5918 27.7912 37.6083C27.8752 37.6582 27.9766 37.7743 27.825 37.6415C28.0271 37.8241 28.2462 38.0233 28.432 38.239C27.9759 37.7082 27.9354 37.0132 28.4142 36.4854C28.6289 36.2545 28.9948 36.1234 29.2953 36.1243C29.5958 36.1253 29.9811 36.2589 30.1838 36.4911C29.5926 35.811 28.8525 35.2627 27.9983 34.9787C27.1442 34.7113 26.2773 34.8243 25.4795 35.1691C24.6984 35.5139 24.0872 36.1571 23.5766 36.8337C23.0988 37.4608 22.7553 38.1545 22.4455 38.8814C21.8425 40.3352 21.5247 41.9222 21.5575 43.5104C21.5893 44.9993 21.956 46.5886 22.8864 47.7992C23.8332 48.9768 25.0775 49.8576 26.5489 50.094Z" fill="white"/>
<path d="M29.3514 36.0978C29.0512 36.0968 28.6857 36.2278 28.4712 36.4585C27.993 36.9859 28.0334 37.6802 28.489 38.2106C28.9277 38.7079 29.828 38.6778 30.2569 38.2164C30.7352 37.689 30.6947 36.9947 30.2391 36.4643C30.0367 36.2488 29.635 36.0987 29.3514 36.0978Z" fill="white"/>
<path d="M27.0729 37.2895C26.9902 37.3057 26.9073 37.3056 26.8245 37.3218C26.8742 37.3218 26.9074 37.3219 26.9572 37.322C26.9902 37.3057 27.0398 37.2894 27.0729 37.2895Z" fill="white"/>
<path d="M26.5286 37.4443C26.5784 37.4279 26.6446 37.3952 26.6944 37.3789C26.7441 37.3625 26.7771 37.3297 26.8269 37.3134C26.7275 37.3625 26.6282 37.4116 26.5286 37.4443Z" fill="white"/>
<path d="M26.2606 37.6592C26.2771 37.6427 26.2938 37.6428 26.3103 37.6263C26.3268 37.6098 26.3599 37.5934 26.3764 37.577C26.4752 37.4617 26.1446 37.7248 26.2606 37.6592Z" fill="white"/>
<path d="M27.8555 37.6016C27.8729 37.6186 27.8729 37.6186 27.8904 37.6357C27.8729 37.6186 27.8556 37.6186 27.8555 37.6016Z" fill="white"/>
<path d="M27.1562 37.2658C27.1396 37.2657 27.1064 37.2657 27.09 37.282C27.09 37.282 27.09 37.282 27.1066 37.282C27.1064 37.2657 27.123 37.2657 27.1562 37.2658Z" fill="white"/>
<path d="M55.0898 30.9062C55.0904 30.9726 55.1077 31.0225 55.1083 31.0889C55.1087 31.1386 55.126 31.1885 55.1264 31.2383C55.1254 31.1221 55.1076 31.0059 55.0898 30.9062Z" fill="white"/>
<path d="M54.8526 35.227C54.8364 35.2766 54.8034 35.3262 54.7872 35.3759C54.7709 35.4255 54.7547 35.4752 54.7217 35.5248C54.7709 35.4255 54.8202 35.3263 54.8526 35.227Z" fill="white"/>
<path d="M54.2891 28.1875C54.3063 28.2372 54.3235 28.287 54.3575 28.3368C54.3747 28.3865 54.4087 28.4363 54.4259 28.4861C54.3747 28.3865 54.3403 28.287 54.2891 28.1875Z" fill="white"/>
<path d="M55.1599 33.797C55.1436 33.8633 55.1441 33.9131 55.1278 33.9794C55.1283 34.0292 55.1119 34.0789 55.1123 34.1287C55.145 34.0126 55.1441 33.9131 55.1599 33.797Z" fill="white"/>
<path d="M54.4424 36.0015C54.426 36.0346 54.3928 36.051 54.3764 36.084C54.3599 36.1005 54.3601 36.1171 54.3435 36.1336C54.2449 36.2821 54.5248 35.9025 54.4424 36.0015Z" fill="white"/>
<path d="M54.0151 36.4858C53.9819 36.5022 53.9654 36.5187 53.9323 36.5351C53.9158 36.5515 53.9158 36.5515 53.8991 36.5515C53.8826 36.5679 53.8661 36.5844 53.8495 36.5843C53.734 36.6995 54.0149 36.4693 54.0151 36.4858Z" fill="white"/>
<path d="M49.2717 25.0676C49.2882 25.0511 49.3047 25.0347 49.3214 25.0347C49.3379 25.0183 49.3544 25.0018 49.3709 24.9853C49.5195 24.8537 49.1062 25.1827 49.2717 25.0676Z" fill="white"/>
<path d="M49.6378 24.8261C49.7041 24.7934 49.7538 24.7771 49.8202 24.7608C49.8533 24.7445 49.903 24.7282 49.9362 24.7118C49.8367 24.7444 49.7372 24.7771 49.6378 24.8261Z" fill="white"/>
<path d="M50.1176 24.635C50.1674 24.6351 50.2335 24.6188 50.2833 24.6189C50.3329 24.6027 50.3992 24.6028 50.4488 24.5866C50.3329 24.6027 50.217 24.6188 50.1176 24.635Z" fill="white"/>
<path d="M48.8444 25.518C48.8443 25.5015 48.8443 25.5015 48.8444 25.518C48.8608 25.485 48.8773 25.4685 48.8938 25.452C49.009 25.287 48.663 25.7325 48.8444 25.518Z" fill="white"/>
<path d="M52.1641 25.2364C52.0803 25.1866 52.0129 25.1203 52.1641 25.2364C52.1472 25.2198 52.1472 25.2198 52.1641 25.2364C52.332 25.369 52.1809 25.253 52.1641 25.2364Z" fill="white"/>
<path d="M50.6484 24.5781C50.6982 24.5782 50.7481 24.5947 50.798 24.6111C50.8643 24.6112 50.9142 24.6277 50.9805 24.6278C50.8643 24.6112 50.7481 24.5947 50.6484 24.5781Z" fill="white"/>
<path d="M53.1142 26.2036C53.131 26.2202 53.1479 26.2368 53.1647 26.2534C53.2494 26.3695 52.9957 26.0379 53.1142 26.2036Z" fill="white"/>
<path d="M51.2422 24.7188C51.2923 24.7353 51.3425 24.7684 51.3926 24.785C51.4426 24.8016 51.4927 24.8182 51.5428 24.8348C51.4426 24.8016 51.3423 24.7519 51.2422 24.7188Z" fill="white"/>
<path d="M53.4205 36.8837C53.3708 36.9 53.321 36.9163 53.2713 36.9326C53.2215 36.9489 53.172 36.9817 53.1222 36.998C53.2217 36.9654 53.321 36.9163 53.4205 36.8837Z" fill="white"/>
<path d="M47.5654 30.0193C47.5649 29.953 47.5813 29.9032 47.5975 29.8369C47.5971 29.7871 47.6135 29.7374 47.613 29.6876C47.5972 29.8037 47.5814 29.9198 47.5654 30.0193Z" fill="white"/>
<path d="M48.4663 26.1413C48.4826 26.0916 48.5155 26.042 48.5318 25.9924C48.5152 26.0089 48.4988 26.042 48.4822 26.0585C48.4826 26.0916 48.4827 26.1082 48.4663 26.1413Z" fill="white"/>
<path d="M52.5269 37.1647C52.4772 37.1646 52.4275 37.1645 52.3779 37.1808C52.3117 37.197 52.2453 37.1968 52.1957 37.2131C52.2951 37.1969 52.411 37.1808 52.5269 37.1647Z" fill="white"/>
<path d="M48.499 26.0702C48.4663 26.1529 48.4335 26.2191 48.4008 26.3018C48.417 26.2522 48.4499 26.186 48.4829 26.1364C48.4825 26.1032 48.4824 26.0867 48.499 26.0702Z" fill="white"/>
<path d="M46.845 26.4437C47.4151 26.7431 48.1475 26.6132 48.509 26.0855C48.5255 26.0691 48.5253 26.0525 48.5417 26.0195C48.5418 26.0361 48.5253 26.0525 48.5255 26.0691C48.542 26.0526 48.5583 26.0196 48.5749 26.0031C48.8691 25.4256 48.7277 24.6318 48.1073 24.2993C47.5206 23.9999 46.7215 24.1295 46.3941 24.7399C46.0665 25.3173 46.2248 26.1277 46.845 26.4437Z" fill="white"/>
<path d="M48.7999 39.0795C51.1473 40.0466 54.2516 39.9243 56.0688 37.9943C57.3407 36.6417 57.7058 34.7733 57.7542 32.9535C57.8156 30.7698 57.2926 28.5841 56.2876 26.6286C55.3507 24.7891 53.8798 22.9809 51.8363 22.3457C50.1445 21.8108 48.2801 22.3673 47.1243 23.6541C46.8271 23.9841 46.5471 24.3637 46.3339 24.7435C46.6617 24.1324 47.4618 24.0026 48.0492 24.3023C48.6702 24.6187 48.812 25.4299 48.5173 26.008C48.6157 25.8263 48.7142 25.6612 48.8294 25.4961L48.8128 25.5126C48.6313 25.7271 48.9776 25.298 48.8623 25.4466C48.8457 25.4631 48.8459 25.4796 48.8294 25.4961C48.8624 25.4631 48.8788 25.4301 48.9119 25.3971C48.9778 25.3146 49.0439 25.2486 49.1267 25.1827C49.1763 25.1332 49.2426 25.0838 49.3089 25.0344C49.2924 25.0509 49.2758 25.0674 49.2591 25.0673C49.0933 25.1826 49.5241 24.8531 49.3585 24.9849C49.342 25.0014 49.3254 25.0179 49.3089 25.0344C49.3254 25.0179 49.3587 25.0014 49.3752 24.985C49.5079 24.9027 49.6407 24.8204 49.7903 24.7547C49.7237 24.771 49.6739 24.8039 49.6073 24.8202C49.707 24.7709 49.8068 24.7382 49.9065 24.6888C49.8733 24.7053 49.8233 24.7217 49.7901 24.7381C49.9399 24.689 50.1064 24.6399 50.2563 24.6072C50.2062 24.6071 50.1396 24.6234 50.0895 24.6233C50.2062 24.6071 50.3062 24.5909 50.4229 24.5747C50.3729 24.5745 50.3062 24.5909 50.2563 24.6072C50.4231 24.5912 50.5901 24.5918 50.7739 24.6089C50.7237 24.5922 50.6736 24.592 50.6233 24.5753C50.7404 24.5923 50.8407 24.6091 50.9578 24.626C50.891 24.6258 50.8407 24.6091 50.7739 24.6089C50.9746 24.6426 51.1924 24.7095 51.3767 24.7763C51.3265 24.7596 51.276 24.7263 51.2258 24.7096C51.3264 24.7596 51.427 24.793 51.5277 24.843C51.4774 24.8263 51.4271 24.8095 51.3769 24.7928C51.4944 24.8594 51.6285 24.9095 51.7461 24.976C51.8301 25.0259 51.914 25.0758 51.9813 25.1257C52.0318 25.1589 52.0822 25.1922 52.1159 25.2254C52.0653 25.1756 51.9813 25.1257 52.1328 25.242C52.3178 25.3749 52.1664 25.2586 52.1159 25.2254C52.1328 25.242 52.1328 25.242 52.1495 25.242C52.1999 25.2753 52.2505 25.3251 52.2842 25.3583C52.3684 25.4247 52.436 25.5077 52.5202 25.5741C52.7055 25.7402 52.8743 25.9227 53.0266 26.1217C53.0437 26.1549 53.0772 26.1715 53.0943 26.2047C52.9757 26.0389 53.2295 26.3706 53.1448 26.2545C53.128 26.2379 53.1111 26.2213 53.0943 26.2047C53.1787 26.3042 53.2465 26.4037 53.3145 26.5198C53.4501 26.7187 53.5857 26.9177 53.7047 27.1332C53.9424 27.5145 54.1469 27.9288 54.3348 28.343C54.3176 28.2933 54.3004 28.2436 54.2665 28.1939C54.3176 28.2933 54.352 28.3927 54.4031 28.4921C54.3859 28.4424 54.352 28.3927 54.3348 28.343C54.6943 29.221 54.954 30.1318 55.1136 31.0589C55.113 30.9927 55.0958 30.943 55.0951 30.8768C55.113 30.9927 55.1307 31.092 55.1485 31.2079C55.148 31.1583 55.1308 31.1086 55.1303 31.0589C55.2569 32.019 55.2666 32.9786 55.1595 33.9379C55.1755 33.8717 55.175 33.8221 55.191 33.756C55.1755 33.8717 55.1598 33.971 55.1443 34.0867C55.1438 34.0371 55.16 33.9875 55.1595 33.9379C55.0975 34.4175 54.9853 34.8804 54.8229 35.3266C54.8391 35.277 54.872 35.2275 54.8882 35.1779C54.8391 35.277 54.8067 35.3762 54.7576 35.4753C54.7738 35.4257 54.79 35.3761 54.8229 35.3266C54.7249 35.5413 54.61 35.7395 54.4951 35.9377C54.4622 35.9872 54.4459 36.0202 54.4128 36.0532C54.4292 36.0202 54.4624 36.0038 54.4788 35.9707C54.5613 35.8717 54.2812 36.2514 54.3799 36.1028C54.3964 36.0863 54.3963 36.0697 54.4128 36.0532C54.3303 36.1522 54.2477 36.2347 54.1652 36.3337C54.0991 36.3997 54.0163 36.4656 53.9334 36.5315C53.95 36.515 53.95 36.515 53.9667 36.5151C53.9999 36.4986 54.0163 36.4656 54.0497 36.4657C54.0664 36.4657 53.768 36.6799 53.8839 36.581C53.9004 36.5645 53.9169 36.548 53.9336 36.548C53.9005 36.581 53.8506 36.5974 53.8176 36.6304C53.6516 36.7291 53.4856 36.8279 53.3028 36.91C53.3527 36.8936 53.4026 36.8772 53.4526 36.8609C53.3529 36.9102 53.253 36.9429 53.1534 36.9923C53.2033 36.9759 53.253 36.9429 53.303 36.9266C53.0201 37.0249 52.7204 37.1067 52.4036 37.1553C52.4537 37.1555 52.5038 37.1556 52.5538 37.1392C52.437 37.1554 52.337 37.1716 52.2203 37.1878C52.2869 37.1715 52.3537 37.1717 52.4036 37.1553C51.9533 37.2035 51.5023 37.1855 51.0511 37.1509C51.1014 37.1677 51.1515 37.1678 51.2185 37.1846C51.1014 37.1677 51.0011 37.1508 50.884 37.1339C50.9341 37.134 51.0011 37.1508 51.0511 37.1509C50.5327 37.0666 50.0304 36.9326 49.5442 36.7325C49.5945 36.7492 49.6449 36.7824 49.7118 36.7992C49.6112 36.7492 49.5106 36.7158 49.4099 36.6659C49.4602 36.6826 49.5105 36.6993 49.544 36.7159C49.3762 36.6327 49.2084 36.5494 49.0406 36.4661C48.9399 36.4162 48.839 36.3497 48.7549 36.2832C48.7382 36.2832 48.738 36.2666 48.7212 36.25C48.7212 36.25 48.7212 36.25 48.738 36.2666C48.7549 36.2832 48.7885 36.2999 48.8053 36.3165C48.9232 36.4161 48.5026 36.1004 48.637 36.1836C48.6706 36.2002 48.7043 36.2334 48.7212 36.25C48.637 36.1836 48.5527 36.1006 48.4851 36.0176C48.4513 35.9844 48.4007 35.9346 48.3668 35.8849C48.3837 35.9015 48.4007 35.9346 48.4178 35.9678C48.4007 35.9346 48.367 35.9014 48.35 35.8683C48.35 35.8683 48.35 35.8683 48.3498 35.8518C48.3496 35.8352 48.3329 35.8352 48.3328 35.8186C48.282 35.7523 48.2311 35.6694 48.2989 35.7689C48.1635 35.5864 48.0611 35.371 47.9589 35.1721C47.9761 35.2218 48.0102 35.2881 48.0274 35.3378C47.9763 35.2384 47.9419 35.139 47.8908 35.0396C47.908 35.0893 47.925 35.1224 47.9422 35.1721C47.7537 34.6917 47.6318 34.1949 47.5431 33.6818C47.5434 33.7148 47.5437 33.7479 47.5609 33.7976C47.5431 33.6818 47.5254 33.5824 47.5075 33.4666C47.5249 33.5328 47.5257 33.6155 47.5431 33.6818C47.3797 32.3907 47.4166 31.0838 47.5707 29.8103C47.5714 29.8765 47.5552 29.9261 47.5391 29.9922C47.5547 29.8764 47.5703 29.7772 47.5859 29.6614C47.5864 29.7111 47.5702 29.7607 47.5707 29.8103C47.7418 28.57 47.9794 27.2968 48.435 26.1235C48.4021 26.1731 48.3861 26.2392 48.3532 26.2887C48.3857 26.2061 48.4185 26.14 48.451 26.0574C48.1059 26.6023 47.3557 26.7157 46.785 26.416C46.164 26.0997 46.0055 25.2885 46.3169 24.7104C45.8253 25.6353 45.5692 26.7265 45.3625 27.7516C45.0602 29.2232 44.8918 30.7282 44.907 32.2339C44.9389 33.7396 45.1552 35.312 45.8868 36.6545C46.5502 37.8645 47.5927 38.5793 48.7999 39.0795Z" fill="white"/>
<path d="M48.5136 26.0157C48.4972 26.032 48.4974 26.0484 48.4811 26.081C48.4811 26.081 48.4811 26.081 48.481 26.0647C48.4974 26.0484 48.5138 26.0321 48.5136 26.0157Z" fill="white"/>
<path d="M49.7068 36.8348C49.6567 36.8182 49.6065 36.7851 49.5398 36.7685C49.4897 36.7519 49.4397 36.7353 49.4062 36.7188C49.5064 36.7519 49.6067 36.8016 49.7068 36.8348Z" fill="white"/>
<path d="M47.5574 33.8554C47.5571 33.8222 47.5568 33.789 47.5395 33.7392C47.5221 33.6728 47.5213 33.5898 47.5039 33.5234C47.5386 33.6396 47.5563 33.7392 47.5574 33.8554Z" fill="white"/>
<path d="M51.1953 37.1903C51.1456 37.1902 51.0957 37.1738 51.0292 37.1573C50.9795 37.1572 50.913 37.1407 50.8633 37.1406C50.9795 37.1572 51.0791 37.1737 51.1953 37.1903Z" fill="white"/>
<path d="M48.7886 36.3546C48.7717 36.3381 48.7382 36.3214 48.7214 36.3049C48.7214 36.3049 48.7047 36.3048 48.7046 36.2883C48.6711 36.2717 48.6374 36.2385 48.6206 36.222C48.4862 36.1225 48.9062 36.4541 48.7886 36.3546Z" fill="white"/>
<path d="M48.3361 35.911L48.353 35.9276C48.3191 35.8779 48.3022 35.8613 48.2852 35.8281C48.3022 35.8613 48.3192 35.8944 48.3361 35.911Z" fill="white"/>
<path d="M48.0186 35.4158C48.0014 35.366 47.9672 35.2997 47.95 35.2499C47.9327 35.2001 47.9157 35.1669 47.8984 35.1172C47.9329 35.2167 47.9841 35.3163 48.0186 35.4158Z" fill="white"/>
<path d="M64.1484 42.8047C64.1659 42.8711 64.1664 42.9375 64.167 43.0039C64.1674 43.0537 64.1846 43.0869 64.185 43.1367C64.184 43.0205 64.1662 42.9043 64.1484 42.8047Z" fill="white"/>
<path d="M63.4531 40.4375C63.4704 40.4872 63.5045 40.5536 63.5217 40.6034C63.5389 40.6531 63.556 40.6863 63.59 40.7361C63.5388 40.6365 63.4876 40.537 63.4531 40.4375Z" fill="white"/>
<path d="M64.2302 44.9063C64.2306 44.9561 64.2142 45.0059 64.1978 45.0556C64.1984 45.122 64.182 45.1717 64.1826 45.2381C64.1984 45.122 64.2144 45.0225 64.2302 44.9063Z" fill="white"/>
<path d="M62.5456 38.907C62.5457 38.9236 62.5624 38.9236 62.5626 38.9402C62.5795 38.9568 62.5795 38.9568 62.5963 38.9733C62.7315 39.1392 62.4442 38.7909 62.5456 38.907Z" fill="white"/>
<path d="M62.8415 47.838C62.825 47.8545 62.8083 47.8544 62.8085 47.871C62.5604 48.0518 63.0069 47.723 62.8415 47.838Z" fill="white"/>
<path d="M63.4184 47.2209C63.4186 47.2375 63.4019 47.2374 63.4021 47.254C63.2374 47.4851 63.5505 47.0725 63.4184 47.2209Z" fill="white"/>
<path d="M63.9454 46.266C63.9291 46.3156 63.8961 46.3652 63.8798 46.4149C63.8636 46.4646 63.8473 46.5142 63.831 46.5639C63.8636 46.4646 63.8961 46.3652 63.9454 46.266Z" fill="white"/>
<path d="M57.9698 37.3102C58.0028 37.2772 58.0192 37.2442 58.0522 37.2112C58.0192 37.2442 57.9861 37.2771 57.9698 37.3102Z" fill="white"/>
<path d="M60.4536 38.353C60.4698 38.337 60.486 38.3209 60.5022 38.3048C60.4698 38.337 60.4698 38.337 60.4536 38.353Z" fill="white"/>
<path d="M61.4332 48.4694C61.3834 48.4693 61.3338 48.4855 61.2841 48.4854C61.2179 48.5017 61.1682 48.5016 61.102 48.5178C61.2178 48.4853 61.3173 48.4855 61.4332 48.4694Z" fill="white"/>
<path d="M61.457 38.0625C61.5071 38.0791 61.5406 38.0957 61.5908 38.1288C61.6409 38.1454 61.7076 38.1621 61.7579 38.1951C61.6575 38.1454 61.5572 38.0957 61.457 38.0625Z" fill="white"/>
<path d="M61.8906 38.2656C61.9076 38.2987 61.9578 38.3154 61.9746 38.3319C61.9913 38.332 61.9914 38.3485 62.0081 38.3485C62.1424 38.448 61.9075 38.2822 61.8906 38.2656Z" fill="white"/>
<path d="M61.1445 38.0078C61.1611 38.0078 61.1943 38.0079 61.211 38.0243C61.211 38.0243 61.211 38.0243 61.2276 38.0243C61.1944 38.0243 61.1611 38.0078 61.1445 38.0078Z" fill="white"/>
<path d="M61.26 38.0079C61.2436 38.0079 61.2273 38.0078 61.2109 38.0078C61.2274 38.024 61.2436 38.0079 61.26 38.0079Z" fill="white"/>
<path d="M62.2799 48.204C62.2302 48.2203 62.1804 48.2366 62.1307 48.2529C62.0809 48.2692 62.0313 48.302 61.9816 48.3183C62.0811 48.2857 62.1804 48.2366 62.2799 48.204Z" fill="white"/>
<path d="M61.0763 38.0407C61.1259 38.0245 61.1591 38.0246 61.2087 38.0083C61.1259 38.0245 61.0596 38.0243 60.9769 38.0405C60.9936 38.0569 61.0433 38.057 61.0763 38.0407Z" fill="white"/>
<path d="M60.9664 38.0711C60.8669 38.1038 60.7842 38.1529 60.6847 38.1856C60.7345 38.1692 60.7842 38.1529 60.834 38.1366C60.8671 38.1202 60.9167 38.0874 60.9664 38.0711Z" fill="white"/>
<path d="M60.9656 38.0707C60.916 38.0869 60.8666 38.1195 60.817 38.1357C60.8996 38.1032 60.9824 38.0871 61.0817 38.071C61.0485 38.0709 60.9988 38.0708 60.9656 38.0707Z" fill="white"/>
<path d="M57.8333 50.3334C58.8058 50.7501 59.8599 50.9851 60.928 50.9555C62.3467 50.927 63.6772 50.435 64.7361 49.4955C67.1184 47.3692 67.1475 43.6472 66.2336 40.7824C65.9922 40.0207 65.6673 39.2587 65.2763 38.5626C64.8682 37.8334 64.3435 37.1204 63.7038 36.5889C62.9969 36.0242 62.2251 35.6412 61.3064 35.5886C60.5046 35.5364 59.6896 35.8316 59.0599 36.2927C58.6788 36.5727 58.3312 36.8694 58.0344 37.2323C58.4798 36.7044 59.3322 36.8064 59.804 37.2381C60.0399 37.4539 60.1771 37.8182 60.1802 38.116C60.1837 38.4634 60.0363 38.7442 59.8218 38.9916C60.0197 38.7607 60.2349 38.5794 60.4498 38.365C60.3668 38.4144 60.2513 38.5464 60.4498 38.365C60.516 38.3156 60.5658 38.2827 60.6322 38.2498C60.6987 38.217 60.7484 38.184 60.8149 38.1512C60.765 38.1675 60.715 38.1839 60.6651 38.2003C60.765 38.1675 60.8479 38.1182 60.9478 38.0854C60.9478 38.0854 60.9478 38.0854 60.9645 38.0855C61.0478 38.0692 61.1145 38.0694 61.1978 38.0531C61.1811 38.0531 61.1478 38.053 61.1309 38.0364C61.1476 38.0364 61.181 38.0365 61.1978 38.0531C61.2145 38.0532 61.2312 38.0533 61.2479 38.0533C61.2312 38.0533 61.2145 38.0532 61.198 38.0697C61.2816 38.0865 61.3651 38.0868 61.4487 38.1036C61.3987 38.1034 61.3653 38.1033 61.3152 38.1032C61.3988 38.12 61.4826 38.1533 61.5663 38.1701C61.516 38.1534 61.4823 38.1202 61.4321 38.1035C61.5327 38.1535 61.6332 38.1869 61.7339 38.2368C61.6836 38.2201 61.6165 38.1868 61.5663 38.1701C61.6501 38.2035 61.7341 38.2534 61.8013 38.3032C61.8518 38.3365 61.9022 38.3697 61.9526 38.403C61.919 38.3863 61.8853 38.3531 61.8685 38.3365C61.8853 38.3531 62.1207 38.5193 61.9863 38.4362C61.9696 38.4361 61.9695 38.4196 61.9528 38.4195C62.0706 38.5192 62.1887 38.6353 62.3067 38.7515C62.3742 38.8179 62.4249 38.8842 62.4755 38.934C62.4924 38.9506 62.5094 38.9838 62.5262 39.0004C62.5261 38.9838 62.5094 38.9838 62.5092 38.9672C62.4246 38.8512 62.6952 39.1994 62.56 39.0336C62.5431 39.017 62.5431 39.017 62.5262 39.0004C62.8987 39.5144 63.2216 40.0779 63.4946 40.6578C63.4774 40.6081 63.4433 40.5418 63.4261 40.4921C63.4772 40.5915 63.5116 40.6909 63.5627 40.7903C63.5455 40.7406 63.5285 40.7075 63.4946 40.6578C63.8028 41.4197 64.0279 42.2145 64.1697 43.0255C64.169 42.9594 64.1516 42.8931 64.151 42.827C64.1688 42.9428 64.1865 43.0421 64.2044 43.158C64.2039 43.1084 64.1869 43.0752 64.1864 43.0256C64.2767 43.7041 64.3004 44.399 64.224 45.0935C64.2235 45.0439 64.2397 44.9943 64.2559 44.9448C64.2404 45.0605 64.2247 45.1597 64.2092 45.2755C64.2085 45.2093 64.2247 45.1597 64.224 45.0935C64.1619 45.5565 64.0496 46.0028 63.887 46.4324C63.9032 46.3828 63.9361 46.3333 63.9523 46.2837C63.9032 46.3828 63.8708 46.482 63.8218 46.5811C63.8379 46.5315 63.8541 46.4819 63.8703 46.4323C63.7723 46.6471 63.6742 46.8453 63.5426 47.0434C63.4932 47.1094 63.4605 47.1754 63.4111 47.2415C63.4111 47.2415 63.4113 47.258 63.3946 47.2579C63.3944 47.2414 63.4111 47.2414 63.4109 47.2249C63.543 47.0764 63.2298 47.4725 63.3946 47.2579C63.3121 47.3569 63.2131 47.4724 63.114 47.5713C63.0148 47.6703 62.9156 47.7692 62.7996 47.8515C62.8161 47.8351 62.8328 47.8351 62.8327 47.8186C62.9984 47.7033 62.5512 48.0493 62.7829 47.8515C62.7332 47.8844 62.7001 47.9174 62.6502 47.9338C62.4678 48.049 62.2851 48.1477 62.1023 48.2298C62.1522 48.2134 62.2021 48.197 62.2521 48.1806C62.1524 48.2299 62.0526 48.2627 61.9529 48.312C62.0028 48.2956 62.0526 48.2627 62.1025 48.2463C61.8364 48.3447 61.5533 48.41 61.27 48.4587C61.32 48.4588 61.3701 48.459 61.42 48.4426C61.3033 48.4588 61.2033 48.475 61.0866 48.4912C61.1533 48.4748 61.2033 48.475 61.27 48.4587C60.8696 48.4905 60.469 48.4892 60.068 48.4548C60.1182 48.4715 60.185 48.4717 60.2352 48.4884C60.1182 48.4715 60.0179 48.4546 59.9009 48.4377C59.9509 48.4379 60.0012 48.4546 60.068 48.4548C59.6666 48.3873 59.2483 48.2867 58.8628 48.1366C58.9132 48.1698 58.9801 48.1866 59.0306 48.2199C58.9299 48.1699 58.8294 48.1365 58.7287 48.0865C58.779 48.1032 58.8125 48.1199 58.8628 48.1366C58.7957 48.1033 58.7452 48.07 58.6948 48.0368C58.6276 47.987 58.5436 47.937 58.4765 47.9037L58.4933 47.9203C58.5102 47.9369 58.5437 47.9536 58.5606 47.9702C58.6616 48.0532 58.2916 47.7874 58.4092 47.8539C58.426 47.8705 58.4596 47.8871 58.4765 47.9037C58.426 47.8705 58.3923 47.8373 58.3584 47.7876C58.2743 47.7211 58.2067 47.6382 58.1391 47.5553C58.1561 47.5884 58.1729 47.605 58.19 47.6381C58.1901 47.6547 57.9703 47.3727 58.0716 47.4889C58.0885 47.5055 58.1055 47.5386 58.1224 47.5552C58.1224 47.5552 58.1224 47.5552 58.1392 47.5718C58.1224 47.5552 58.1055 47.5386 58.0885 47.5055C57.9868 47.3563 57.8848 47.174 57.7996 47.0083C57.8168 47.0579 57.8342 47.1242 57.8681 47.1739C57.817 47.0745 57.7826 46.9751 57.7315 46.8757C57.7487 46.9254 57.7824 46.9586 57.7996 47.0083C57.6796 46.6936 57.5929 46.379 57.5395 46.0479C57.5402 46.1141 57.5574 46.1638 57.558 46.23C57.5402 46.1141 57.5225 46.0148 57.5046 45.899C57.5051 45.9486 57.5223 45.9983 57.5228 46.0479C57.4501 45.4687 57.461 44.8897 57.522 44.3275C57.5226 44.3771 57.5064 44.4267 57.5069 44.4763C57.5224 44.3605 57.5381 44.2613 57.5536 44.1456C57.5543 44.2118 57.5381 44.2613 57.5387 44.3275C57.6791 43.352 57.9532 42.3934 58.311 41.4681C58.2949 41.5177 58.2787 41.5673 58.2456 41.6003C58.2947 41.5012 58.3271 41.402 58.3761 41.3029C58.36 41.3525 58.3271 41.402 58.311 41.4681C58.5232 40.9891 58.7522 40.5266 59.0148 40.0808C59.146 39.8497 59.2941 39.6351 59.442 39.404C59.5079 39.3215 59.5739 39.239 59.6231 39.1564C59.6231 39.1564 59.6231 39.1564 59.6233 39.173C59.6068 39.1894 59.5904 39.2225 59.5739 39.239C59.4585 39.3875 59.6398 39.1565 59.6729 39.1235C59.6563 39.14 59.6565 39.1565 59.6398 39.1565C59.6727 39.1069 59.7223 39.0575 59.7552 39.008C59.3098 39.5359 58.4574 39.4339 57.9856 39.0022C57.7497 38.7864 57.6124 38.422 57.6094 38.1243C57.6064 37.8265 57.7207 37.5787 57.8853 37.3476C56.2527 39.3275 55.26 41.8553 55.0189 44.4186C54.8983 45.692 55.0614 46.9663 55.574 48.126C56.0508 49.0539 56.8609 49.9167 57.8333 50.3334Z" fill="white"/>
<path d="M61.3439 38.0407C61.3936 38.0408 61.4268 38.0409 61.4765 38.041C61.3935 38.0245 61.3106 38.0243 61.2275 38.0078C61.2275 38.0078 61.2275 38.0078 61.2109 38.0078C61.2608 38.0242 61.2941 38.0406 61.3439 38.0407Z" fill="white"/>
<path d="M58.0485 38.9652C58.5199 39.3964 59.3714 39.4984 59.8163 38.971C60.0306 38.7237 60.1778 38.4433 60.1743 38.0962C60.1712 37.7987 60.0341 37.4346 59.7985 37.219C59.3271 36.7877 58.4756 36.6858 58.0307 37.2132C57.9977 37.2462 57.9814 37.2792 57.9483 37.3121C57.7839 37.5429 57.6697 37.7905 57.6727 38.088C57.6924 38.3856 57.8295 38.7496 58.0485 38.9652Z" fill="white"/>
<path d="M59.6267 39.1941C59.6433 39.1776 59.6596 39.1445 59.6762 39.128C59.6762 39.128 59.6762 39.128 59.676 39.1115C59.6925 39.095 59.6924 39.0784 59.7091 39.0785C59.6929 39.1281 59.528 39.3427 59.6267 39.1941Z" fill="white"/>
<path d="M57.6186 46.2305C57.618 46.1641 57.6007 46.1142 57.6002 46.0478C57.5997 45.9981 57.5825 45.9482 57.582 45.8984C57.5829 45.998 57.6007 46.1142 57.6186 46.2305Z" fill="white"/>
<path d="M58.1087 47.5047C58.0074 47.3886 58.2272 47.6705 58.2271 47.6539C58.21 47.6208 58.1932 47.6042 58.1762 47.5711C58.1762 47.5711 58.1762 47.5711 58.1593 47.5545C58.1426 47.5544 58.1256 47.5213 58.1087 47.5047Z" fill="white"/>
<path d="M58.5952 47.9857C58.5784 47.9691 58.5449 47.9525 58.528 47.9359L58.5112 47.9194C58.4944 47.9028 58.4609 47.8862 58.4441 47.8696C58.3434 47.8032 58.6962 48.0851 58.5952 47.9857Z" fill="white"/>
<path d="M57.9103 47.197C57.893 47.1473 57.8757 47.081 57.8417 47.0312C57.8245 46.9814 57.7907 46.9482 57.7734 46.8984C57.8246 46.998 57.8758 47.0975 57.9103 47.197Z" fill="white"/>
<path d="M59.0743 48.2186C59.0242 48.202 58.9573 48.1688 58.907 48.1357C58.857 48.1191 58.8235 48.1026 58.7734 48.0859C58.8738 48.1356 58.9739 48.1689 59.0743 48.2186Z" fill="white"/>
<path d="M57.5731 44.4882C57.5727 44.4384 57.5891 44.3886 57.5887 44.3389C57.5882 44.2725 57.6046 44.2227 57.6041 44.1563C57.6049 44.2559 57.589 44.3721 57.5731 44.4882Z" fill="white"/>
<path d="M60.2735 48.495C60.2237 48.4949 60.1573 48.4784 60.1074 48.462C60.0576 48.4619 60.0077 48.4454 59.9414 48.4453C60.041 48.4618 60.1573 48.4784 60.2735 48.495Z" fill="white"/>
<path d="M58.3154 41.5872C58.3317 41.5376 58.3479 41.488 58.3811 41.4549C58.3973 41.4053 58.4303 41.3557 58.4464 41.2895C58.3972 41.3887 58.3647 41.488 58.3154 41.5872Z" fill="white"/>
<path d="M61.0784 38.0405C61.1613 38.0406 61.2442 38.0408 61.3437 38.041C61.2938 38.0245 61.2607 38.0245 61.2108 38.008C61.1612 38.0243 61.1282 38.0406 61.0784 38.0405Z" fill="white"/>
<path d="M43.9531 63.942C46.0159 63.9131 47.9875 64.8439 50.0527 65.0798C55.6653 65.7035 59.9505 61.1778 58.343 56.3256C56.992 52.2517 52.3351 50.5873 49.8595 47.2559C49.2195 46.394 48.7284 45.4331 48.0721 44.6043C45.4134 41.2725 41.4926 41.91 39.351 44.2887C38.2309 45.5441 37.6802 47.2145 36.6106 48.5362C34.9158 50.6345 31.484 52.0011 29.7706 55.7378C27.9919 59.6232 30.0442 63.9798 33.9473 65.08C37.6836 66.1303 40.443 64.001 43.9531 63.942Z" fill="white"/>
<path d="M50.1092 63.8847C50.0595 63.8847 50.0096 63.8683 49.9599 63.8682C49.8936 63.8681 49.8437 63.8517 49.7773 63.8516C49.877 63.8681 49.9932 63.8846 50.1092 63.8847Z" fill="white"/>
<path d="M33.8308 63.8114C33.764 63.7782 33.6973 63.7616 33.647 63.7285C33.6136 63.712 33.5801 63.6954 33.5469 63.6953C33.6304 63.7285 33.7307 63.7782 33.8308 63.8114Z" fill="white"/>
<path d="M35.328 64.1816C35.2948 64.1816 35.2449 64.1652 35.2118 64.1651C35.1455 64.165 35.0624 64.1485 34.9961 64.1484C35.1122 64.1486 35.2118 64.1651 35.328 64.1816Z" fill="white"/>
<path d="M37.2183 64.1256C37.1686 64.1255 37.119 64.1418 37.0693 64.1417C37.0031 64.1579 36.9533 64.1578 36.8872 64.174C37.0031 64.1579 37.119 64.1418 37.2183 64.1256Z" fill="white"/>
<path d="M31.5442 62.1182C31.561 62.1347 31.5779 62.1513 31.5781 62.1679C31.5949 62.1845 31.6118 62.2011 31.6286 62.2176C31.6118 62.2011 31.5781 62.1679 31.5273 62.1016C31.5273 62.1016 31.544 62.1016 31.5442 62.1182Z" fill="white"/>
<path d="M34.3447 66.4212C35.6804 66.6733 36.9963 66.6115 38.3104 66.368C39.4081 66.1569 40.4711 65.8136 41.535 65.5528C42.0336 65.4223 42.5326 65.3248 43.0484 65.2439C42.9817 65.2437 42.9152 65.26 42.8485 65.2598C42.965 65.2437 43.0649 65.2275 43.1813 65.2113C43.1314 65.2112 43.0982 65.2276 43.0482 65.2274C43.6975 65.1635 44.3472 65.1491 45.0145 65.2173C44.9644 65.2006 44.8977 65.2004 44.8475 65.1837C44.9644 65.2006 45.0645 65.2174 45.1813 65.2343C45.1313 65.2342 45.0645 65.2174 45.0145 65.2173C45.799 65.3354 46.5677 65.5526 47.3363 65.7533C48.2386 65.9874 49.1574 66.205 50.0916 66.3072C51.4764 66.4603 52.9247 66.3163 54.2367 65.8747C56.7943 65.0078 58.9077 63.066 59.6811 60.4592C60.0998 59.0239 60.0504 57.4384 59.586 56.0166C59.8094 56.6779 59.3495 57.337 58.7349 57.5332C58.0704 57.7457 57.3991 57.2811 57.1929 56.6694C57.2961 56.9835 57.3828 57.3141 57.4361 57.6446C57.4358 57.6115 57.4353 57.562 57.4183 57.5289C57.4361 57.6446 57.4538 57.7437 57.4716 57.8594C57.4543 57.7932 57.4536 57.7272 57.4361 57.6446C57.4908 58.1071 57.4953 58.553 57.45 59.0153C57.4662 58.9658 57.4657 58.9162 57.4819 58.8667C57.4664 58.9823 57.4507 59.0813 57.4352 59.1969C57.4346 59.1308 57.4507 59.0813 57.45 59.0153C57.3879 59.461 57.259 59.8899 57.1132 60.3023C57.1458 60.2363 57.162 60.1868 57.1946 60.1209C57.1456 60.2198 57.1133 60.3188 57.0643 60.4177C57.0807 60.3847 57.0968 60.3353 57.1132 60.3023C56.9665 60.6321 56.7866 60.9618 56.5731 61.2749C56.5074 61.3737 56.4418 61.4726 56.3593 61.5549C56.6223 61.1924 56.4086 61.489 56.3263 61.5878C56.1782 61.769 56.0132 61.9336 55.8482 62.0982C55.6831 62.2463 55.5179 62.3944 55.3528 62.5425C55.3693 62.526 55.3858 62.5096 55.4189 62.4932C55.5842 62.3616 55.1545 62.707 55.3528 62.5425C55.3363 62.5589 55.3031 62.5754 55.2866 62.5918C55.1873 62.6576 55.1046 62.7233 55.0053 62.7891C54.6575 63.0026 54.3096 63.1997 53.928 63.3636C53.9611 63.3472 53.9943 63.3308 54.0443 63.3309C53.9448 63.3801 53.8451 63.4128 53.7456 63.4621C53.812 63.4293 53.8785 63.413 53.9281 63.3801C53.3307 63.6259 52.6991 63.789 52.05 63.8694C52.1166 63.8696 52.1831 63.8533 52.2498 63.8536C52.1333 63.8697 52.0335 63.8859 51.917 63.902C51.967 63.9022 52.0002 63.8858 52.0502 63.8859C51.3676 63.9498 50.7009 63.9476 50.0168 63.8628C50.0668 63.863 50.117 63.8797 50.167 63.8798C50.0502 63.8629 49.95 63.8461 49.8332 63.8292C49.8998 63.8294 49.95 63.8461 50.0167 63.8463C48.1473 63.5595 46.3568 62.8271 44.4559 62.7218C42.7552 62.6338 41.0934 63.0908 39.4814 63.5314C38.7003 63.7436 37.9026 63.9557 37.0872 64.0686C37.1372 64.0688 37.187 64.0524 37.237 64.0526C37.1205 64.0687 37.0207 64.0849 36.9042 64.101C36.9708 64.1013 37.0207 64.0849 37.0872 64.0686C36.4712 64.1327 35.8381 64.1471 35.2208 64.0791C35.2542 64.0792 35.3043 64.0959 35.3377 64.096C35.2208 64.0791 35.1207 64.0622 35.0038 64.0453C35.0707 64.0621 35.154 64.0623 35.2207 64.0626C34.6865 63.9783 34.1519 63.8444 33.6499 63.6446C33.7169 63.6779 33.7839 63.7111 33.8341 63.7278C33.7336 63.6779 33.6333 63.6446 33.5328 63.5947C33.5663 63.6113 33.5998 63.6279 33.6331 63.628C33.315 63.4784 32.9967 63.3122 32.7113 63.1131C32.6275 63.0633 32.5603 63.0135 32.4763 62.9472C32.4932 62.9638 32.5267 62.9804 32.5435 62.997C32.6612 63.0964 32.2748 62.7979 32.4427 62.9141C32.4593 62.9141 32.4595 62.9306 32.4762 62.9307C32.4593 62.9141 32.4425 62.8976 32.4257 62.881C32.2744 62.7484 32.1064 62.6157 31.9715 62.4667C31.8537 62.3507 31.7357 62.2182 31.6177 62.0857C31.6514 62.1188 31.5672 62.036 31.5334 61.9863C31.5334 61.9863 31.5334 61.9863 31.5332 61.9698C31.5164 61.9533 31.4994 61.9202 31.4659 61.9036C31.4827 61.9201 31.4995 61.9367 31.5164 61.9533C31.4655 61.8705 31.3982 61.8042 31.3474 61.7215C31.1444 61.4236 30.9747 61.1258 30.8382 60.8116C30.8554 60.8612 30.8725 60.9108 30.8895 60.9439C30.8385 60.8446 30.8042 60.7454 30.7532 60.6462C30.7704 60.6958 30.8042 60.7454 30.8215 60.8115C30.6335 60.3485 30.4953 59.8692 30.407 59.3735C30.4075 59.423 30.4247 59.4726 30.4253 59.5387C30.4075 59.423 30.3898 59.3239 30.372 59.2082C30.3725 59.2578 30.3898 59.3239 30.407 59.3735C30.352 58.8779 30.3469 58.3824 30.3921 57.9037C30.3759 57.9531 30.3764 58.0027 30.3602 58.0522C30.3757 57.9366 30.3914 57.8376 30.4069 57.7221C30.4074 57.7716 30.3914 57.8376 30.3919 57.8871C30.4699 57.3589 30.6147 56.8475 30.8098 56.3692C30.7936 56.4187 30.7608 56.4681 30.7446 56.5176C30.7936 56.4187 30.8259 56.3197 30.8749 56.2208C30.8588 56.2703 30.8426 56.3198 30.8098 56.3692C31.0542 55.825 31.349 55.314 31.6773 54.8197C31.7594 54.7044 31.8416 54.589 31.9237 54.4737C31.9237 54.4737 31.9239 54.4902 31.9072 54.4902C31.7426 54.6878 32.0552 54.2925 31.9402 54.4572L31.9237 54.4737C31.9731 54.4078 32.0224 54.3419 32.0884 54.2761C32.2693 54.0454 32.4671 53.8314 32.6816 53.6174C33.4567 52.8107 34.3329 52.12 35.2091 51.4292C35.9695 50.8207 36.7467 50.2287 37.3891 49.4876C38.3445 48.3843 38.9143 47.065 39.7019 45.8455C39.8002 45.6807 39.9152 45.5159 40.0303 45.3677C39.9808 45.4171 39.9315 45.483 40.0303 45.3677C40.1455 45.2194 40.0631 45.3182 40.0468 45.3512L40.0303 45.3677C40.0468 45.3512 40.0633 45.3348 40.0633 45.3348C40.1293 45.2689 40.1786 45.203 40.2444 45.1207C40.4421 44.8901 40.6567 44.6926 40.888 44.4952C40.9045 44.4788 40.921 44.4623 40.9375 44.4458C40.8713 44.4952 40.8052 44.5445 40.9375 44.4458C41.0863 44.3307 41.0037 44.3965 40.9375 44.4458C40.9705 44.4129 41.0037 44.3965 41.0202 44.38C41.136 44.2979 41.2518 44.2157 41.3844 44.15C41.5997 44.0186 41.8154 43.9202 42.031 43.8218C41.9812 43.8382 41.9314 43.8545 41.8815 43.8709C41.981 43.8217 42.0807 43.789 42.1802 43.7398C42.1304 43.7561 42.0807 43.789 42.0309 43.8053C42.3962 43.6744 42.7618 43.5765 43.1444 43.5117C43.0944 43.5115 43.0279 43.5278 42.9779 43.5277C43.0944 43.5115 43.1942 43.4953 43.3107 43.4792C43.2607 43.479 43.2109 43.4954 43.1444 43.5117C43.4941 43.4798 43.844 43.4809 44.1943 43.5151C44.1442 43.4984 44.0775 43.4982 44.0273 43.4815C44.1442 43.4984 44.2443 43.5153 44.3611 43.5321C44.3111 43.532 44.261 43.5153 44.1943 43.5151C44.5281 43.5657 44.8624 43.6659 45.1803 43.7825C45.1301 43.7658 45.0966 43.7492 45.0463 43.716C45.1468 43.7659 45.2471 43.7992 45.3476 43.8491C45.2974 43.8324 45.2304 43.7992 45.1803 43.7825C45.3979 43.8823 45.5989 43.982 45.8002 44.1148C45.9175 44.1812 46.0184 44.2641 46.1359 44.3471C46.119 44.3305 46.119 44.3305 46.1022 44.314C46.0014 44.2311 46.2534 44.43 46.2365 44.4135C46.203 44.3969 46.1694 44.3637 46.1359 44.3471C46.203 44.3969 46.2535 44.4466 46.3207 44.4963C46.556 44.6953 46.775 44.9272 46.9773 45.159C47.028 45.2252 47.0785 45.2749 47.1292 45.3412C47.1293 45.3577 47.146 45.3577 47.1462 45.3742C47.0278 45.2087 47.1968 45.4405 47.2137 45.457C47.1967 45.4239 47.1798 45.4074 47.1462 45.3742C47.2643 45.5233 47.3658 45.6722 47.4673 45.8212C47.8735 46.4335 48.2465 47.0622 48.6692 47.6581C49.058 48.2044 49.4797 48.7011 49.9345 49.1815C51.5006 50.7885 53.446 52.0003 55.0616 53.5579C55.2804 53.7733 55.4993 53.9887 55.7014 54.204C55.8026 54.3199 55.9038 54.4359 56.0049 54.5518C56.0218 54.5683 56.0218 54.5683 56.0386 54.5849C56.0216 54.5518 56.0048 54.5353 56.0386 54.5849C56.0723 54.6181 56.1396 54.6843 56.1399 54.7174C56.1399 54.7174 56.0724 54.6346 56.0386 54.5849C56.0386 54.5849 56.0386 54.5849 56.0554 54.6015C56.0724 54.6346 56.1061 54.6677 56.1229 54.6843C56.4776 55.1478 56.7659 55.6442 57.0213 56.1735C57.0041 56.1239 56.9701 56.0577 56.9529 56.0081C57.0039 56.1073 57.0383 56.2065 57.0893 56.3058C57.0721 56.2562 57.0551 56.2231 57.0379 56.1735C57.0893 56.3058 57.1406 56.4381 57.1921 56.5869C56.9687 55.9256 57.4287 55.2665 58.0433 55.0703C58.7077 54.8578 59.379 55.3224 59.5852 55.9341C58.8978 53.8841 57.4482 52.261 55.8011 50.885C54.2716 49.6084 52.5937 48.48 51.2786 46.973C51.2111 46.8902 51.1269 46.8074 51.0594 46.7246L51.0426 46.708L51.0427 46.7245C51.0259 46.708 50.9921 46.6583 50.9752 46.6417C50.9584 46.6252 50.9416 46.6086 50.9246 46.5755C50.8907 46.5259 50.9246 46.5755 50.9584 46.6252C50.7726 46.3768 50.5866 46.112 50.4172 45.8472C50.0617 45.3011 49.7226 44.722 49.3339 44.1923C48.5736 43.166 47.6476 42.2382 46.4922 41.6895C45.4874 41.2073 44.3848 40.9395 43.2858 41.0185C42.2032 41.0811 41.1565 41.3914 40.2288 41.9334C39.218 42.5081 38.3932 43.3311 37.7194 44.2703C37.0294 45.2424 36.5575 46.3638 35.8841 47.3359C35.8348 47.4018 35.7855 47.4677 35.7528 47.5337C35.7693 47.5172 35.7691 47.5007 35.7858 47.5008C35.8351 47.4349 35.7858 47.5008 35.753 47.5502C35.7365 47.5666 35.7202 47.5996 35.7037 47.6161C35.7037 47.6161 35.72 47.5831 35.753 47.5502C35.753 47.5502 35.753 47.5502 35.7528 47.5337C35.687 47.616 35.621 47.6819 35.5718 47.7643C35.44 47.9125 35.3082 48.0607 35.1762 48.1924C34.8793 48.4887 34.5655 48.7684 34.2349 49.0315C33.5241 49.6072 32.7966 50.1663 32.1027 50.7586C30.3844 52.2228 28.8866 54.0675 28.2423 56.2618C27.6137 58.357 27.9041 60.703 29.04 62.6058C30.127 64.624 32.1241 66.0012 34.3447 66.4212Z" fill="white"/>
<path d="M32.567 63.1166C32.5501 63.1 32.5166 63.0834 32.4998 63.0668C32.4831 63.0668 32.483 63.0503 32.4663 63.0502C32.2984 62.9176 32.6679 63.216 32.567 63.1166Z" fill="white"/>
<path d="M42.8167 65.3374C42.8829 65.3211 42.9492 65.3212 43.0155 65.3213C43.0653 65.3214 43.0983 65.3051 43.148 65.3052C43.032 65.305 42.9326 65.3212 42.8167 65.3374Z" fill="white"/>
<path d="M57.3747 58.8595C57.3752 58.9092 57.3588 58.959 57.3424 59.0087C57.343 59.0751 57.3266 59.1249 57.3272 59.1912C57.343 59.0751 57.3589 58.9756 57.3747 58.8595Z" fill="white"/>
<path d="M57.3125 57.5C57.3128 57.5332 57.3132 57.583 57.3304 57.6162C57.3478 57.6826 57.3484 57.749 57.366 57.8319C57.3482 57.7324 57.3304 57.6162 57.3125 57.5Z" fill="white"/>
<path d="M44.8086 65.2891C44.8583 65.2892 44.9248 65.3056 44.9747 65.3221C45.0244 65.3222 45.0909 65.3386 45.1407 65.3387C45.0243 65.3058 44.9082 65.3056 44.8086 65.2891Z" fill="white"/>
<path d="M30.9053 61.1033C30.8881 61.0535 30.8708 61.0038 30.8538 60.9706C30.8365 60.9208 30.8026 60.871 30.7852 60.8047C30.8196 60.9042 30.8541 61.0037 30.9053 61.1033Z" fill="white"/>
<path d="M53.9557 63.3446C53.9226 63.361 53.8895 63.3773 53.8396 63.3772C53.7733 63.4099 53.707 63.4262 53.6574 63.459C53.7569 63.4263 53.8562 63.3772 53.9557 63.3446Z" fill="white"/>
<path d="M52.1637 63.8521C52.0973 63.852 52.0311 63.8682 51.9648 63.8681C51.9151 63.868 51.8821 63.8843 51.8323 63.8843C51.9484 63.8844 52.0643 63.8683 52.1637 63.8521Z" fill="white"/>
<path d="M57.087 60.1254C57.0542 60.1916 57.038 60.2412 57.0051 60.3074C56.9887 60.3405 56.9725 60.3901 56.9561 60.4232C57.0053 60.3239 57.0378 60.2246 57.087 60.1254Z" fill="white"/>
<path d="M55.324 62.4999C55.3075 62.5163 55.291 62.5328 55.2578 62.5492C55.0595 62.7137 55.4893 62.3683 55.324 62.4999Z" fill="white"/>
<path d="M42.9809 43.5803C43.0306 43.5804 43.0968 43.5642 43.1466 43.5643C43.1962 43.548 43.2459 43.5481 43.3121 43.5319C43.1962 43.548 43.0802 43.5641 42.9809 43.5803Z" fill="white"/>
<path d="M47.1277 45.3883C47.1447 45.4214 47.1783 45.4381 47.1953 45.4712C47.1784 45.4546 47.0093 45.239 47.1277 45.3883Z" fill="white"/>
<path d="M55.989 54.6495C55.9714 54.6154 55.954 54.5983 55.989 54.6495Z" fill="white"/>
<path d="M46.2246 44.4635C46.2414 44.4801 45.9895 44.2812 46.0903 44.364C46.1071 44.3806 46.1071 44.3806 46.124 44.3972C46.1575 44.4138 46.1911 44.4469 46.2246 44.4635Z" fill="white"/>
<path d="M45.0391 43.7578C45.0891 43.7744 45.1226 43.791 45.1728 43.8241C45.2229 43.8407 45.2898 43.8738 45.3399 43.8904C45.2396 43.8407 45.1394 43.8075 45.0391 43.7578Z" fill="white"/>
<path d="M56.8711 56.0547C56.8883 56.1044 56.9225 56.1708 56.9397 56.2206C56.9569 56.2703 56.974 56.3035 56.9913 56.3533C56.9568 56.2538 56.9223 56.1543 56.8711 56.0547Z" fill="white"/>
<path d="M57.9411 55.1132C57.3261 55.3095 56.8659 55.9691 57.0894 56.6309C57.2957 57.2431 57.9842 57.7082 58.6324 57.4954C59.2474 57.2991 59.7077 56.6395 59.4842 55.9777C59.2945 55.3655 58.6062 54.917 57.9411 55.1132Z" fill="white"/>
<path d="M35.8071 47.5905C35.7906 47.607 35.7908 47.6235 35.7741 47.6234C35.7741 47.6234 35.7741 47.6234 35.7742 47.64C35.8071 47.5905 35.8565 47.5244 35.8071 47.5905Z" fill="white"/>
<path d="M44.0273 43.5312C44.0771 43.5313 44.1436 43.5478 44.1934 43.5643C44.2432 43.5643 44.2931 43.5808 44.3594 43.5809C44.2432 43.5643 44.127 43.5478 44.0273 43.5312Z" fill="white"/>
<path d="M30.7764 56.6419C30.7926 56.5923 30.8256 56.5427 30.8419 56.493C30.8581 56.4434 30.8743 56.3937 30.9073 56.3441C30.8581 56.4434 30.8256 56.5427 30.7764 56.6419Z" fill="white"/>
<path d="M30.4675 59.6757C30.4671 59.6259 30.4498 59.5761 30.4492 59.5097C30.4319 59.4599 30.4313 59.3936 30.4141 59.3438C30.4319 59.4599 30.4498 59.5761 30.4675 59.6757Z" fill="white"/>
<path d="M31.9579 54.5981C31.9744 54.5816 31.9742 54.565 31.9909 54.5651C32.1061 54.4001 31.8097 54.7961 31.9579 54.5981Z" fill="white"/>
<path d="M50.9531 46.6562C50.9699 46.6727 50.9868 46.7054 51.0201 46.7218C51.0035 46.7218 50.9699 46.6727 50.9531 46.6562Z" fill="white"/>
<path d="M30.4052 58.1824C30.4047 58.1327 30.4211 58.0829 30.4375 58.0332C30.4371 57.9834 30.4533 57.9171 30.4529 57.8673C30.4369 57.9668 30.421 58.0663 30.4052 58.1824Z" fill="white"/>
<path d="M41.9074 43.9277C41.9571 43.9114 42.0069 43.8951 42.0566 43.8788C42.1064 43.8624 42.1559 43.8297 42.2057 43.8134C42.1062 43.846 42.0067 43.8786 41.9074 43.9277Z" fill="white"/>
<path d="M40.0381 45.4158C40.0054 45.4819 39.9393 45.5478 40.0381 45.4158L40.0546 45.3993C40.0877 45.3663 40.1534 45.2673 40.0381 45.4158Z" fill="white"/>
<path d="M40.9618 44.495C40.8791 44.5607 40.8296 44.6101 40.9618 44.495C41.1107 44.3964 41.0279 44.4456 40.9618 44.495Z" fill="white"/>
<path d="M30.547 61.5059C31.2884 60.6159 32.1137 59.7757 33.0067 59.0349C33.1554 58.9031 33.2528 58.639 33.251 58.4572C33.2489 58.2589 33.163 58.0107 32.9949 57.8779C32.8266 57.7286 32.6255 57.6288 32.4087 57.6281C32.1753 57.6438 31.9927 57.7259 31.8275 57.8741C30.9346 58.6314 30.1092 59.4551 29.3678 60.3452C29.2194 60.5099 29.1211 60.6914 29.1235 60.9228C29.1255 61.1212 29.2114 61.3694 29.3796 61.5021C29.6826 61.7841 30.2505 61.8686 30.547 61.5059Z" fill="white"/>
<path d="M32.6845 63.5103C34.0865 61.9443 35.4883 60.3618 36.907 58.7959C37.1874 58.4827 37.2486 57.9373 36.8951 57.6221C36.5753 57.34 36.0241 57.272 35.7106 57.6182C34.3086 59.1842 32.9068 60.7667 31.4881 62.3326C31.2077 62.6458 31.1466 63.1911 31.5001 63.5064C31.8199 63.7885 32.3711 63.8564 32.6845 63.5103Z" fill="white"/>
<path d="M34.7206 65.2982C36.2084 63.9973 37.5615 62.5636 38.7633 61.0138C38.8949 60.8324 39.01 60.6674 39.0076 60.436C39.0056 60.2376 38.9197 59.9894 38.7515 59.8566C38.4486 59.5912 37.8471 59.49 37.5673 59.8528C36.3656 61.4191 35.0126 62.8528 33.5245 64.1372C33.1938 64.4172 33.2165 65.0123 33.5365 65.3109C33.9066 65.6262 34.3735 65.6112 34.7206 65.2982Z" fill="white"/>
<path d="M53.4139 57.252C53.4629 57.1362 53.4301 57.2024 53.4139 57.252C53.3973 57.2685 53.3648 57.3678 53.4139 57.252Z" fill="white"/>
<path d="M53.5755 56.6518C53.5757 56.685 53.5759 56.7016 53.576 56.7182C53.5599 56.8178 53.5913 56.5191 53.5755 56.6518Z" fill="white"/>
<path d="M53.1517 57.6954L53.1346 57.7124L53.1175 57.7294C53.1348 57.7294 53.1346 57.7124 53.1517 57.6954Z" fill="white"/>
<path d="M53.5702 56.6376C53.5704 56.6541 53.5704 56.6541 53.5706 56.6707C53.6025 56.5218 53.5555 56.8362 53.5712 56.7369C53.5711 56.7204 53.5709 56.7038 53.5706 56.6707C53.5552 56.8031 53.5231 56.9355 53.4741 57.0512C53.4579 57.1008 53.4418 57.167 53.4089 57.2166C53.4089 57.2166 53.4089 57.2166 53.4091 57.2331C53.4254 57.2 53.4415 57.1339 53.4092 57.2497C53.3602 57.3654 53.3927 57.2662 53.4091 57.2331L53.4092 57.2497C53.3602 57.3654 53.2946 57.4811 53.2121 57.5967C53.1792 57.6463 53.1628 57.6794 53.1297 57.7124C53.1296 57.6958 53.1463 57.6959 53.1463 57.6959C53.1794 57.6629 53.1628 57.6794 53.1463 57.6959C53.1297 57.7124 53.1299 57.7289 53.1134 57.7454L53.1299 57.7289C53.1134 57.7454 53.097 57.7785 53.0804 57.795C52.9811 57.894 52.8819 57.9931 52.7659 58.092C52.4344 58.3725 52.4572 58.9851 52.7776 59.2676C53.1486 59.5998 53.5995 59.5681 53.9643 59.2712C55.075 58.3641 55.5102 56.7595 55.0955 55.4006C54.9743 54.9863 54.4867 54.6868 54.0534 54.8179C53.6202 54.949 53.3405 55.3952 53.4787 55.8426C53.4961 55.9089 53.5135 55.9752 53.5308 56.0414C53.5312 56.0746 53.5482 56.1077 53.5487 56.1574C53.5668 56.2899 53.5312 56.0746 53.5312 56.0746C53.5646 56.0747 53.5515 56.4389 53.5519 56.472C53.5689 56.5051 53.5696 56.5714 53.5702 56.6376Z" fill="white"/>
<path d="M51.4258 29.2812C51.4426 29.2978 51.4597 29.331 51.4765 29.3476C51.5102 29.3808 51.544 29.414 51.561 29.4471C51.5104 29.3973 51.4765 29.3476 51.4258 29.2812Z" fill="white"/>
<path d="M51.6758 29.6562C51.693 29.706 51.7101 29.7392 51.7273 29.7889C51.7442 29.8056 51.7613 29.8387 51.7614 29.8553C51.744 29.789 51.7099 29.7226 51.6758 29.6562Z" fill="white"/>
<path d="M51.8438 30.125C51.844 30.1582 51.8442 30.1748 51.8444 30.208C51.8617 30.2578 51.8621 30.3076 51.8624 30.3408C51.8619 30.2744 51.8443 30.1914 51.8438 30.125Z" fill="white"/>
<path d="M52.1072 31.2962C52.259 31.4457 52.4939 31.5457 52.6944 31.5464C52.9114 31.5305 53.1279 31.465 53.2766 31.2999C53.4252 31.1349 53.4902 30.953 53.5213 30.7214C53.6115 29.7286 53.1832 28.668 52.4414 27.9871C52.2895 27.8377 52.0713 27.7377 51.8542 27.737C51.6537 27.7363 51.4039 27.8183 51.272 27.9834C50.9746 28.3135 50.9464 28.8265 51.2838 29.1586C51.3513 29.225 51.4021 29.2913 51.4696 29.3578C51.4527 29.3412 51.4356 29.308 51.4188 29.2914C51.4694 29.3412 51.5035 29.4075 51.5541 29.4573C51.5203 29.4241 51.5033 29.391 51.4696 29.3578C51.5711 29.4905 51.6562 29.6397 51.7246 29.8054C51.7074 29.7557 51.6904 29.7226 51.6732 29.6729C51.7073 29.7392 51.7246 29.8054 51.7587 29.8717C51.7417 29.8386 51.7415 29.822 51.7246 29.8054C51.7761 29.938 51.8108 30.0705 51.8457 30.2196C51.8454 30.1865 51.8452 30.1699 51.8449 30.1368C51.8623 30.2031 51.8631 30.2859 51.8805 30.3521C51.88 30.3025 51.8628 30.2527 51.8624 30.2196C51.8808 30.3852 51.8827 30.5673 51.8676 30.7327C51.836 30.9147 51.9555 31.1633 52.1072 31.2962Z" fill="white"/>
<path d="M35.998 29.6285C36.0145 29.5954 36.0309 29.5623 36.0471 29.5127C36.0635 29.4796 36.0632 29.4465 36.0798 29.4299C36.047 29.4961 36.0309 29.5623 35.998 29.6285Z" fill="white"/>
<path d="M34.8291 30.6808C35.0467 30.7311 35.2802 30.7153 35.4794 30.6002C35.6619 30.4849 35.7938 30.3199 35.8585 30.105C35.9065 29.9067 35.9713 29.7083 36.0528 29.5101C36.0364 29.5431 36.0201 29.5761 36.0039 29.6257C36.0366 29.5596 36.0526 29.4935 36.0854 29.4274C36.069 29.4605 36.0693 29.4936 36.0528 29.5101C36.1995 29.1631 36.3966 28.8328 36.6106 28.5357C36.7258 28.3706 36.7397 28.0894 36.6876 27.8907C36.6355 27.692 36.4832 27.493 36.2985 27.3931C36.0971 27.2932 35.8629 27.2428 35.6465 27.3083C35.58 27.3412 35.5134 27.3575 35.4469 27.3904C35.314 27.4561 35.2316 27.5551 35.1494 27.6872C34.738 28.2815 34.4275 28.9423 34.2343 29.6531C34.1864 29.868 34.2054 30.0997 34.3243 30.2986C34.4264 30.481 34.6282 30.6305 34.8291 30.6808Z" fill="white"/>
<path d="M27.0742 44.125C27.0744 44.1411 27.0909 44.1573 27.091 44.1734C27.091 44.1734 27.091 44.1734 27.0909 44.1573C27.0907 44.1412 27.0742 44.125 27.0742 44.125Z" fill="white"/>
<path d="M27.1198 44.2374C27.103 44.221 27.1028 44.2046 27.0859 44.1719C27.0861 44.1882 27.0861 44.1882 27.0863 44.2046C27.1032 44.2373 27.1032 44.2373 27.1198 44.2374Z" fill="white"/>
<path d="M27.1387 44.2685L27.1385 44.2515C27.1385 44.2515 27.1385 44.2515 27.1211 44.2344C27.1213 44.2514 27.1213 44.2514 27.1387 44.2685Z" fill="white"/>
<path d="M27.0859 44.2031C27.1034 44.2202 27.1036 44.2372 27.1208 44.2373L27.1207 44.2203C27.1034 44.2202 27.1034 44.2202 27.0859 44.2031Z" fill="white"/>
<path d="M27.1541 44.3007C27.154 44.2842 27.137 44.2675 27.1369 44.251C27.1369 44.251 27.1369 44.251 27.1367 44.2344C27.137 44.2675 27.1372 44.2841 27.1541 44.3007Z" fill="white"/>
<path d="M27.1365 44.2509L27.1363 44.2344C27.1196 44.2343 27.1365 44.2509 27.1365 44.2509Z" fill="white"/>
<path d="M27.0899 44.187C27.1068 44.2037 27.107 44.2202 27.124 44.2534C27.124 44.2534 27.124 44.2534 27.1409 44.27C27.1407 44.2534 27.1407 44.2534 27.1239 44.2368C27.1068 44.2037 27.1066 44.1871 27.0899 44.187Z" fill="white"/>
<path d="M27.1543 44.2516C27.1378 44.2354 27.1376 44.2193 27.1211 44.2031C27.1213 44.2192 27.1213 44.2192 27.1378 44.2354C27.1379 44.2515 27.1379 44.2515 27.1543 44.2516Z" fill="white"/>
<path d="M27.1204 44.2089C27.1033 44.1757 27.103 44.1426 27.0859 44.1094C27.0861 44.126 27.0863 44.1425 27.0864 44.1591C27.1033 44.1757 27.1035 44.1923 27.1204 44.2089Z" fill="white"/>
<path d="M27.0704 44.0906C27.0706 44.1072 27.0709 44.1403 27.0879 44.157C27.0879 44.157 27.0879 44.157 27.088 44.1736C27.0879 44.157 27.0877 44.1404 27.0876 44.1238C27.0873 44.0906 27.0871 44.074 27.0704 44.0906C27.0703 44.074 27.0703 44.074 27.0704 44.0906Z" fill="white"/>
<path d="M27.0703 43.9922C27.0705 44.0088 27.0708 44.0419 27.0877 44.0586L27.0876 44.042C27.0708 44.0419 27.0706 44.0254 27.0703 43.9922Z" fill="white"/>
<path d="M27.0877 44.1445C27.0876 44.1279 27.0873 44.0947 27.0703 44.0781C27.0705 44.0947 27.0705 44.0947 27.0706 44.1113C27.0708 44.1279 27.0877 44.1445 27.0877 44.1445Z" fill="white"/>
<path d="M27.0708 44.1108C27.0708 44.1108 27.0706 44.0947 27.0868 44.0787L27.0867 44.0625C27.0705 44.0786 27.0706 44.0947 27.0708 44.1108Z" fill="white"/>
<path d="M27.1429 44.2627C27.143 44.2793 27.1599 44.2959 27.1601 44.3124C27.1432 44.2958 27.143 44.2793 27.1429 44.2627C27.126 44.2461 27.1091 44.2295 27.109 44.213C27.109 44.213 27.109 44.213 27.1091 44.2295C27.1091 44.2295 27.1091 44.2295 27.109 44.213C27.109 44.213 27.1088 44.1964 27.0921 44.1964C27.0921 44.1964 27.0921 44.1964 27.109 44.213C27.1088 44.1964 27.1086 44.1799 27.1085 44.1633C27.1083 44.1468 27.0914 44.1302 27.0913 44.1136C27.0914 44.1302 27.0914 44.1302 27.0914 44.1302C27.0913 44.1137 27.0913 44.1136 27.0911 44.0971C27.0911 44.0971 27.0911 44.0971 27.0909 44.0806C27.0909 44.0806 27.0909 44.0806 27.0911 44.0971C27.0909 44.0806 27.0908 44.064 27.0906 44.0475C27.0904 44.0309 27.0901 43.9978 27.0732 43.9812C27.0734 43.9978 27.0736 44.0143 27.0904 44.0309C27.0899 43.9813 27.1063 43.9482 27.1058 43.8986C27.1061 43.9317 27.1064 43.9648 27.1069 44.0144C27.1068 43.9979 27.1066 43.9813 27.123 43.9483C27.1878 43.7499 27.1352 43.5016 27.033 43.3027C26.9819 43.2033 26.9142 43.1203 26.8135 43.0704C26.7294 43.0039 26.6454 42.954 26.5282 42.9205C26.3106 42.8702 26.077 42.886 25.8777 43.0012C25.6952 43.1164 25.5633 43.2815 25.4987 43.4963C25.4825 43.5459 25.4665 43.6121 25.467 43.6617C25.4515 43.7775 25.4361 43.9098 25.4373 44.0256C25.4384 44.1414 25.4565 44.2739 25.4743 44.3897C25.4915 44.4394 25.4922 44.5056 25.5094 44.5553C25.5612 44.7209 25.6297 44.8866 25.7313 45.0359C25.7991 45.1353 25.8836 45.2349 25.9514 45.3344C25.9853 45.3841 26.0358 45.4174 26.0697 45.4671C26.2382 45.6166 26.4395 45.7165 26.6566 45.7172C26.857 45.7178 27.1067 45.6359 27.2386 45.4709C27.3872 45.3059 27.4854 45.1077 27.4832 44.8926C27.4643 44.6774 27.3953 44.4621 27.2268 44.3126C27.2103 44.3291 27.1766 44.2959 27.1429 44.2627C27.1766 44.2959 27.1936 44.3291 27.2274 44.3623C27.1936 44.3291 27.1599 44.2959 27.1429 44.2627Z" fill="white"/>
<path d="M27.0714 44.0547L27.0715 44.0713C27.0714 44.0547 27.0714 44.0547 27.0713 44.0381C27.071 44.0049 27.0707 43.9717 27.0703 43.9219C27.0875 43.9551 27.0879 44.0049 27.0714 44.0547Z" fill="white"/>
<path d="M61.1581 46.9608C61.2923 47.0438 61.4261 47.0773 61.5762 47.0778C61.6427 47.0615 61.7261 47.0618 61.7926 47.0455C61.9257 47.0129 62.0582 46.9307 62.1573 46.8318C62.4216 46.5848 62.7027 46.3544 62.967 46.1073C63.0495 46.025 63.0987 45.9425 63.1311 45.8435C63.1801 45.7445 63.2124 45.6454 63.1946 45.5297C63.1934 45.414 63.1757 45.3148 63.1247 45.2155C63.0903 45.1162 63.0393 45.0169 62.9552 44.9505C62.9047 44.9007 62.8376 44.8675 62.7871 44.8177C62.6529 44.7347 62.5191 44.7012 62.369 44.7007C62.3025 44.717 62.2191 44.7167 62.1526 44.733C62.0195 44.7656 61.887 44.8478 61.7879 44.9467C61.5236 45.1937 61.2425 45.4241 60.9782 45.6712C60.8957 45.7535 60.8465 45.836 60.8141 45.935C60.7651 46.034 60.7328 46.1331 60.7506 46.2488C60.7518 46.3645 60.7695 46.4637 60.8205 46.563C60.8549 46.6623 60.9059 46.7616 60.99 46.828C61.0405 46.8778 61.1077 46.9276 61.1581 46.9608Z" fill="white"/>
</svg>
